<svg id="Layer_1" data-name="Layer 1" xmlns="http://www.w3.org/2000/svg" viewBox="0 0 702 73.5"><defs><style>.cls-1,.cls-2{fill:#5f8afa;}.cls-1,.cls-4{opacity:0.5;}.cls-3,.cls-4{fill:#fff;}</style></defs><rect class="cls-1" x="-8.55" y="33.75" width="89.1" height="4.5" transform="translate(-14.92 36) rotate(-45)"/><rect class="cls-2" width="4.5" height="36"/><rect class="cls-2" x="67.5" y="36" width="4.5" height="36"/><rect class="cls-2" x="51.75" y="51.75" width="4.5" height="36" transform="translate(123.75 15.75) rotate(90)"/><rect class="cls-2" x="15.75" y="-15.75" width="4.5" height="36" transform="translate(20.25 -15.75) rotate(90)"/><path class="cls-3" d="M108,72V0h5.35l29.5,63.7L172.05,0h5.55V71.91H172V13.25L145.15,72h-4.7L113.6,13.25V72Z"/><path class="cls-3" d="M287.9,72V5.6H262.1V0h57.35V5.6h-25.8V72Z"/><path class="cls-3" d="M474.4,46.25V0h5.8V45.05c0,16.45,12.55,23,22,23s22-6.6,22-23V0H530V46.25c0,16.4-11.55,27.25-27.8,27.25S474.4,62.7,474.4,46.25Z"/><path class="cls-3" d="M555.35,72V0h5.75V72Z"/><path class="cls-4" d="M587.1,66.4h40.75V72H587.1Z"/><path class="cls-3" d="M587.1,72V0h5.75V72Z"/><path class="cls-3" d="M201.6,66.4h44.5V72H201.6Zm0-33.45h38.5v5.6H201.6ZM201.6,0h44.5V5.6H201.6Z"/><path class="cls-4" d="M201.6,72V.1h5.75V72Z"/><path class="cls-3" d="M353.9,7.15,331,72h-6.1L350.4,0h7.15l25.5,72H377Z"/><path class="cls-4" d="M350.4,0h7.15l25.5,72H377L370.5,53.9H337.35L331,72h-6.1ZM339.3,48.45h29.3L353.9,7.15Z"/><path class="cls-3" d="M405,66.35h27.75c9.6,0,16.9-5.1,16.9-13.9A15.25,15.25,0,0,0,434.4,36.9H405V31.35h27.5A13.38,13.38,0,0,0,446.2,17.9c0-7.4-5.9-12.35-13.7-12.35H405V0h27.55c11.25,0,19.7,7.8,19.7,18.1a17.83,17.83,0,0,1-8.85,15.6c7.65,3.35,12.4,9.75,12.4,18.5,0,12.4-8.95,19.8-21.15,19.8H405Z"/><path class="cls-4" d="M405,72V0h5.8V72Z"/><path class="cls-3" d="M647,66.35h21.45a57.28,57.28,0,0,0,8.75-.55c13.4-2.35,18.65-14.4,18.65-29.8S690.55,8.5,677.2,6.2a59,59,0,0,0-8.75-.55H647V0h21.45a72.78,72.78,0,0,1,9.45.5C694.05,2.75,702,17.6,702,36s-8,33.25-24.1,35.5a72.78,72.78,0,0,1-9.45.5H647Z"/><path class="cls-4" d="M647,72V0h6V72Z"/></svg>