<svg width="305" height="250" viewBox="0 0 305 250" fill="none" xmlns="http://www.w3.org/2000/svg">
<path d="M231.412 163.176C231.412 176.118 241.51 179.353 246.804 180.922L264.451 186.118C269.745 187.686 271.02 190.137 271.02 192.882C271.02 198.569 264.451 201.51 258.078 201.51H213.961L207 187.294C215.039 183.667 218.765 175.824 218.765 166.216C218.765 154.353 213.176 145.235 200.529 143.275C198.667 142.98 196.02 142.882 194.647 142.882H164.843V213.471H178.176V189.549H193.078L204.745 213.471H213.176H257.294C271.118 213.471 284.549 206.51 284.549 191.902C284.549 178.275 272.784 174.843 265.824 172.98L254.059 169.745C249.745 168.569 245.039 166.902 245.039 162.49C245.039 157.686 250.725 154.647 256.706 154.843H302V142.882H256.804C242.882 142.882 231.412 149.549 231.412 163.176ZM198.667 176.608C197.294 177 195.529 177.098 194.157 177.098H178.275V155.333H194.157C195.529 155.333 197.294 155.431 198.667 155.824C204.059 157.294 205.431 162.392 205.431 166.216C205.431 170.039 204.059 175.137 198.667 176.608Z" fill="black" stroke="url(#paint0_linear_2_2)" stroke-width="2"/>
<path d="M134.549 142.882H114.647L93.0784 213.471H106.804L111.314 198.765H137.882L142.49 213.471H156.216L134.549 142.882ZM115.039 186.314L124.451 155.333L133.961 186.314H115.039Z" fill="black" stroke="url(#paint1_linear_2_2)" stroke-width="2"/>
<path d="M82.9804 142.882L69.7451 191.412L56.5098 142.882L42.4902 142.98L29.2549 191.412L16.0196 142.882H2L22.6863 213.471H35.8235L49.549 165.824L63.1765 213.471H76.3137L97 142.882H82.9804Z" fill="black" stroke="url(#paint2_linear_2_2)" stroke-width="2"/>
<path d="M195.235 75.4314L223.373 107.588H240.235L208.863 71.8039L238.373 37H222.098L195.235 69.549V37H181.902V107.588H195.235V75.4314Z" fill="black" stroke="url(#paint3_linear_2_2)" stroke-width="2"/>
<path d="M64.451 86.0196C64.451 72.3921 52.6863 68.9608 45.7255 67.098L33.9608 63.8627C29.6471 62.6863 24.9412 61.0196 24.9412 56.6078C24.9412 51.8039 30.6275 48.7647 36.6078 48.9608H81.3137V107.588H94.6471V48.9608H116.902V37H36.8039C22.7843 36.9019 11.4118 43.5686 11.4118 57.2941C11.4118 70.2353 21.5098 73.4706 26.8039 75.0392L44.451 80.2353C49.7451 81.8039 51.0196 84.2549 51.0196 87C51.0196 92.6863 44.451 95.6274 38.0784 95.6274H2V107.588H37.2941C51.1176 107.588 64.451 100.627 64.451 86.0196Z" fill="black" stroke="url(#paint4_linear_2_2)" stroke-width="2"/>
<path d="M154.255 37H134.353L112.784 107.588H126.51L131.02 92.8824H157.588L162.196 107.588H175.922L154.255 37ZM134.745 80.4314L144.157 49.451L153.667 80.4314H134.745Z" fill="black" stroke="url(#paint5_linear_2_2)" stroke-width="2"/>
<path d="M260.431 95.1373V77H287.294V64.549H260.431V49.451H293.176V37H247.098V107.588H302V95.1373H260.431Z" fill="black" stroke="url(#paint6_linear_2_2)" stroke-width="2"/>
<path d="M11.0196 130.725V132.392H2V118.176H11.0196V119.843H3.76471V124.255H9.84314V125.922H3.76471V130.627H11.0196V130.725Z" fill="black"/>
<path d="M14.3529 132.392V118.176H19.9412C20.2353 118.176 20.6274 118.176 21.0196 118.275C23.2745 118.667 24.549 120.431 24.549 122.686C24.549 124.941 23.3725 126.706 21.0196 127.098C20.6274 127.196 20.2353 127.196 19.9412 127.196H16.1176V132.49H14.3529V132.392ZM16.1176 125.431H19.9412C20.2353 125.431 20.5294 125.431 20.8235 125.333C22.1961 125.039 22.7843 123.765 22.7843 122.588C22.7843 121.412 22.1961 120.137 20.8235 119.843C20.5294 119.745 20.1372 119.745 19.9412 119.745H16.1176V125.431Z" fill="black"/>
<path d="M27.6863 132.392V118.176H29.451V132.392H27.6863Z" fill="black"/>
<path d="M32.6863 128.373L34.549 128.078C35.0392 129.843 36.6078 130.922 38.5686 130.922C40.4314 130.922 42 129.941 42 128.471C42 127.196 41.0196 126.706 40.0392 126.412L36.3137 125.333C34.7451 124.843 33.2745 123.961 33.2745 121.804C33.2745 119.255 35.4314 117.784 38.2745 117.784C41.1177 117.784 43.1765 119.353 43.6667 121.902L41.8039 122.294C41.5098 120.529 40.0392 119.549 38.1765 119.451C36.4118 119.451 35.0392 120.333 35.0392 121.706C35.0392 122.98 36.3137 123.471 37.3922 123.765L40.1373 124.549C41.4118 124.941 43.6667 125.627 43.6667 128.373C43.6667 131.118 41.3137 132.588 38.3726 132.588C35.4314 132.686 33.1765 131.02 32.6863 128.373Z" fill="black"/>
<path d="M46.0196 125.235C46.0196 120.824 48.3725 117.882 52.6863 117.882C57 117.882 59.3529 120.922 59.3529 125.235C59.3529 129.647 57 132.588 52.6863 132.588C48.3725 132.588 46.0196 129.647 46.0196 125.235ZM57.3922 125.235C57.3922 121.804 55.8235 119.549 52.5882 119.549C49.451 119.549 47.8824 121.902 47.7843 125.235C47.7843 128.667 49.3529 130.922 52.5882 130.922C55.8235 131.02 57.3922 128.667 57.3922 125.235Z" fill="black"/>
<path d="M62.1961 132.392V118.176H66.6078C66.902 118.176 67.6863 118.176 68.3725 118.275C71.6078 118.667 73.3725 121.706 73.3725 125.333C73.3725 128.961 71.7059 131.902 68.3725 132.392C67.6863 132.49 66.8039 132.49 66.6078 132.49H62.1961V132.392ZM64.0588 130.627H66.6078C67.098 130.627 67.7843 130.627 68.2745 130.529C70.6274 130.137 71.5098 127.882 71.5098 125.235C71.5098 122.588 70.5294 120.333 68.2745 119.941C67.7843 119.843 67.098 119.843 66.6078 119.843H64.0588V130.627V130.627Z" fill="black"/>
<path d="M85.6275 130.725V132.392H76.6078V118.176H85.6275V119.843H78.3726V124.255H84.451V125.922H78.3726V130.627H85.6275V130.725Z" fill="black"/>
<path d="M94.1569 132.392V118.176H95.9216V132.392H94.1569Z" fill="black"/>
<path d="M100.039 132.392V118.176H101.804V132.392H100.039Z" fill="black"/>
<path d="M105.922 132.392V118.176H107.686V132.392H105.922Z" fill="black"/>
<path d="M112.392 129.647V127.686H114.353V129.647H112.392ZM112.392 122.784V120.824H114.353V122.784H112.392Z" fill="black"/>
<path d="M127.49 118.176H129.941L134.647 132.392H132.784L131.706 129.059H125.627L124.549 132.392H122.686L127.49 118.176ZM126.216 127.392H131.216L128.765 120.039L126.216 127.392Z" fill="black"/>
<path d="M144.157 132.392H142.392V118.176H144.157L151.608 129.255V118.176H153.373V132.392H151.608L144.157 121.216V132.392Z" fill="black"/>
<path d="M166.118 130.725V132.392H157.098V118.176H166.118V119.843H158.863V124.255H164.941V125.922H158.863V130.627H166.118V130.725Z" fill="black"/>
<path d="M172.49 132.392L168.373 118.176H170.235L173.373 129.451L176.51 118.275H178.373L181.51 129.549L184.647 118.275H186.51L182.392 132.392H180.627L177.392 121.216L174.157 132.392H172.49Z" fill="black"/>
<path d="M197.588 132.392L192.882 118.176H194.745L198.863 130.529L203.078 118.176H204.941L200.039 132.392H197.588Z" fill="black"/>
<path d="M209.647 118.176H212.098L216.804 132.392H214.941L213.863 129.059H207.784L206.706 132.392H204.843L209.647 118.176ZM208.373 127.392H213.373L210.922 120.039L208.373 127.392Z" fill="black"/>
<path d="M219.745 132.392V118.176H221.51V130.725H228.078V132.392H219.745Z" fill="black"/>
<path d="M231.02 132.392V118.176H232.784V132.392H231.02Z" fill="black"/>
<path d="M236.706 132.392V118.176H241.118C241.412 118.176 242.196 118.176 242.882 118.275C246.118 118.667 247.882 121.706 247.882 125.333C247.882 128.961 246.216 131.902 242.882 132.392C242.196 132.49 241.314 132.49 241.118 132.49H236.706V132.392ZM238.471 130.627H241.02C241.51 130.627 242.196 130.627 242.686 130.529C245.039 130.137 245.922 127.882 245.922 125.235C245.922 122.588 244.941 120.333 242.686 119.941C242.196 119.843 241.51 119.843 241.02 119.843H238.471V130.627Z" fill="black"/>
<path d="M254.451 118.176H256.902L261.608 132.392H259.843L258.765 129.059H252.686L251.608 132.392H249.745L254.451 118.176ZM253.275 127.392H258.275L255.824 120.039L253.275 127.392Z" fill="black"/>
<path d="M266.902 132.392V119.843H262.098V118.176H273.569V119.843H268.667V132.392H266.902Z" fill="black"/>
<path d="M275.333 125.235C275.333 120.824 277.686 117.882 282 117.882C286.314 117.882 288.667 120.922 288.667 125.235C288.667 129.647 286.314 132.588 282 132.588C277.686 132.588 275.333 129.647 275.333 125.235ZM286.706 125.235C286.706 121.804 285.137 119.549 281.902 119.549C278.765 119.549 277.196 121.902 277.098 125.235C277.098 128.667 278.667 130.922 281.902 130.922C285.137 131.02 286.706 128.667 286.706 125.235Z" fill="black"/>
<path d="M302 132.392H299.941L297.392 127.098H293.275V132.392H291.51V118.176H297.098C297.392 118.176 297.784 118.176 298.176 118.275C300.431 118.667 301.706 120.431 301.706 122.686C301.706 124.549 300.824 126.118 299.255 126.804L302 132.392ZM293.275 125.431H297.098C297.392 125.431 297.686 125.431 297.98 125.333C299.353 125.039 299.941 123.765 299.941 122.588C299.941 121.412 299.353 120.137 297.98 119.843C297.686 119.745 297.294 119.745 297.098 119.745H293.275V125.431Z" fill="black"/>
<defs>
<linearGradient id="paint0_linear_2_2" x1="233.422" y1="142.882" x2="233.422" y2="213.471" gradientUnits="userSpaceOnUse">
<stop stop-color="#E3935B"/>
<stop offset="1" stop-color="#F5B842"/>
</linearGradient>
<linearGradient id="paint1_linear_2_2" x1="124.647" y1="142.882" x2="124.647" y2="213.471" gradientUnits="userSpaceOnUse">
<stop stop-color="#E3935B"/>
<stop offset="1" stop-color="#F5B842"/>
</linearGradient>
<linearGradient id="paint2_linear_2_2" x1="49.5" y1="142.882" x2="49.5" y2="213.471" gradientUnits="userSpaceOnUse">
<stop stop-color="#E3935B"/>
<stop offset="1" stop-color="#F5B842"/>
</linearGradient>
<linearGradient id="paint3_linear_2_2" x1="211.069" y1="37" x2="211.069" y2="107.588" gradientUnits="userSpaceOnUse">
<stop stop-color="#E3935B"/>
<stop offset="1" stop-color="#F5B842"/>
</linearGradient>
<linearGradient id="paint4_linear_2_2" x1="59.451" y1="36.9989" x2="59.451" y2="107.588" gradientUnits="userSpaceOnUse">
<stop stop-color="#E3935B"/>
<stop offset="1" stop-color="#F5B842"/>
</linearGradient>
<linearGradient id="paint5_linear_2_2" x1="144.353" y1="37" x2="144.353" y2="107.588" gradientUnits="userSpaceOnUse">
<stop stop-color="#E3935B"/>
<stop offset="1" stop-color="#F5B842"/>
</linearGradient>
<linearGradient id="paint6_linear_2_2" x1="274.549" y1="37" x2="274.549" y2="107.588" gradientUnits="userSpaceOnUse">
<stop stop-color="#E3935B"/>
<stop offset="1" stop-color="#F5B842"/>
</linearGradient>
</defs>
</svg>
