<svg width="180" height="50" viewBox="0 0 180 50" fill="none" xmlns="http://www.w3.org/2000/svg">
<path d="M90.1106 10.4168V39.5834C90.1093 39.6935 90.0673 39.7986 89.9935 39.8765C89.9198 39.9543 89.8202 39.9986 89.7159 40.0001H86.8422C86.1826 40.0006 85.5334 39.8265 84.9541 39.4935C84.3749 39.1606 83.8839 38.6796 83.5264 38.0945L70.4843 16.8168L70.9317 27.4446V39.5834C70.9303 39.6935 70.8883 39.7986 70.8145 39.8765C70.7408 39.9543 70.6412 39.9986 70.5369 40.0001H66.7369C66.6327 39.9986 66.533 39.9543 66.4593 39.8765C66.3856 39.7986 66.3435 39.6935 66.3422 39.5834V10.4168C66.3435 10.3067 66.3856 10.2016 66.4593 10.1238C66.533 10.0459 66.6327 10.0016 66.7369 10.0001H69.5948C70.2536 10.0005 70.902 10.1745 71.481 10.5063C72.06 10.838 72.5514 11.3172 72.9106 11.9001L85.9527 33.1445L85.5475 22.5557V10.4168C85.5475 10.3063 85.5891 10.2003 85.6631 10.1222C85.7371 10.044 85.8375 10.0001 85.9422 10.0001H89.7422C89.8418 10.0085 89.9349 10.0558 90.0031 10.133C90.0713 10.2101 90.1096 10.3113 90.1106 10.4168Z" fill="#262626"/>
<path d="M128.947 39.9995H124.926C124.864 39.9988 124.802 39.9824 124.746 39.9515C124.691 39.9206 124.643 39.8761 124.607 39.8218C124.571 39.7674 124.547 39.7048 124.539 39.6391C124.53 39.5733 124.537 39.5064 124.558 39.4439L135.211 10.3995C135.256 10.2779 135.336 10.1742 135.44 10.1026C135.544 10.0309 135.666 9.99494 135.79 9.99952H140.826C140.946 10.0006 141.062 10.0392 141.161 10.1105C141.259 10.1818 141.335 10.2824 141.379 10.3995L152 39.4439C152.021 39.5064 152.028 39.5733 152.019 39.6391C152.011 39.7048 151.987 39.7674 151.951 39.8218C151.915 39.8761 151.867 39.9206 151.812 39.9515C151.756 39.9824 151.695 39.9988 151.632 39.9995H147.611C147.53 39.9998 147.451 39.9746 147.385 39.927C147.318 39.8795 147.267 39.8118 147.237 39.7328L138.653 15.844C138.625 15.7635 138.575 15.694 138.508 15.6449C138.442 15.5958 138.363 15.5694 138.282 15.5694C138.201 15.5694 138.121 15.5958 138.055 15.6449C137.989 15.694 137.938 15.7635 137.911 15.844L129.326 39.7328C129.296 39.8126 129.244 39.881 129.176 39.9286C129.109 39.9763 129.029 40.001 128.947 39.9995Z" fill="#262626"/>
<path d="M179.917 39.3279L171.927 28.5557C176.438 27.6557 179.074 24.4446 179.074 19.5168C179.074 13.8557 175.585 10.0001 169.411 10.0001H158.269C158.113 10.0001 157.963 10.0657 157.852 10.1824C157.742 10.2991 157.68 10.4573 157.68 10.6224C157.68 11.1476 157.778 11.6678 157.968 12.1531C158.159 12.6384 158.438 13.0794 158.79 13.4508C159.141 13.8222 159.559 14.1169 160.019 14.3179C160.479 14.5189 160.972 14.6224 161.469 14.6224H168.948C172.68 14.6224 174.469 16.639 174.469 19.5501C174.469 22.4612 172.722 24.5501 168.948 24.5501H158.269C158.112 24.5516 157.962 24.6184 157.852 24.7359C157.742 24.8535 157.68 25.0124 157.68 25.1779V39.6223C157.68 39.7328 157.721 39.8388 157.795 39.9169C157.869 39.9951 157.97 40.039 158.074 40.039H161.874C161.979 40.0375 162.078 39.9932 162.152 39.9153C162.226 39.8375 162.268 39.7324 162.269 39.6223V28.8168H166.653L173.585 38.3667C173.956 38.8778 174.435 39.2912 174.982 39.5745C175.53 39.8579 176.133 40.0035 176.743 40.0001H179.627C179.699 39.9959 179.769 39.9709 179.828 39.928C179.888 39.8851 179.935 39.8257 179.965 39.7565C179.994 39.6872 180.006 39.6106 179.997 39.5351C179.989 39.4595 179.961 39.3879 179.917 39.3279Z" fill="#262626"/>
<path d="M116.932 10.0001H99.3002C99.1606 10.0001 99.0267 10.0587 98.928 10.1629C98.8293 10.267 98.7738 10.4084 98.7738 10.5557C98.7738 11.6357 99.1803 12.6715 99.9038 13.4352C100.627 14.1989 101.609 14.6279 102.632 14.6279H116.932C116.984 14.6287 117.035 14.6184 117.084 14.5977C117.132 14.577 117.176 14.5464 117.212 14.5075C117.249 14.4687 117.278 14.4225 117.298 14.3716C117.317 14.3207 117.327 14.2662 117.327 14.2112V10.4168C117.327 10.3063 117.285 10.2003 117.211 10.1222C117.137 10.044 117.036 10.0001 116.932 10.0001ZM116.932 35.3723H103.774C103.67 35.3709 103.57 35.3265 103.496 35.2487C103.423 35.1708 103.38 35.0657 103.379 34.9556V27.4334C103.379 27.3229 103.421 27.217 103.495 27.1388C103.569 27.0607 103.669 27.0168 103.774 27.0168H115.937C116.042 27.0168 116.142 26.9729 116.216 26.8947C116.29 26.8166 116.332 26.7106 116.332 26.6001V22.7779C116.332 22.6674 116.29 22.5614 116.216 22.4833C116.142 22.4051 116.042 22.3612 115.937 22.3612H99.3633C99.2065 22.3627 99.0566 22.4295 98.9462 22.5471C98.8358 22.6646 98.7738 22.8235 98.7738 22.989V39.3556C98.7738 39.5207 98.836 39.6789 98.9465 39.7956C99.0571 39.9123 99.207 39.9779 99.3633 39.9779H116.932C117.036 39.9779 117.137 39.934 117.211 39.8558C117.285 39.7777 117.327 39.6717 117.327 39.5612V35.7668C117.322 35.6597 117.279 35.5585 117.205 35.4848C117.131 35.4111 117.033 35.3708 116.932 35.3723Z" fill="#262626"/>
<path d="M38.0211 2.53899L28.1158 18.0556C27.9553 18.2796 27.8811 18.5594 27.9081 18.8388C27.9351 19.1181 28.0614 19.3763 28.2614 19.5615C28.4615 19.7466 28.7205 19.8449 28.9864 19.8366C29.2524 19.8283 29.5054 19.714 29.6948 19.5167L39.4422 10.6279C39.4984 10.5735 39.5685 10.5377 39.6437 10.5249C39.719 10.5122 39.7962 10.5231 39.8657 10.5562C39.9352 10.5893 39.9939 10.6432 40.0347 10.7113C40.0754 10.7793 40.0963 10.8585 40.0948 10.939V38.8778C40.094 38.9626 40.0687 39.0452 40.0223 39.1144C39.9758 39.1837 39.9105 39.2363 39.835 39.2653C39.7595 39.2943 39.6773 39.2982 39.5996 39.2766C39.5219 39.2551 39.4523 39.2089 39.4001 39.1445L9.92633 1.92232C9.4558 1.32476 8.86714 0.843058 8.20162 0.511003C7.53609 0.178949 6.80981 0.00457446 6.07369 0.000104284H5.04738C3.70873 0.000104284 2.42491 0.561421 1.47834 1.56057C0.531775 2.55972 0 3.91486 0 5.32787V44.6722C0 46.0853 0.531775 47.4404 1.47834 48.4395C2.42491 49.4387 3.70873 50 5.04738 50C5.90991 49.9999 6.75803 49.7665 7.5108 49.322C8.26357 48.8775 8.89588 48.2369 9.34738 47.4611L19.2527 31.9445C19.4132 31.7205 19.4874 31.4407 19.4604 31.1613C19.4334 30.882 19.3071 30.6238 19.1071 30.4386C18.907 30.2535 18.648 30.1552 18.3821 30.1635C18.1161 30.1718 17.8631 30.2861 17.6737 30.4834L7.92633 39.3722C7.87013 39.4266 7.80004 39.4624 7.72475 39.4752C7.64946 39.4879 7.57229 39.4771 7.50279 39.4439C7.4333 39.4108 7.37455 39.3569 7.33382 39.2888C7.2931 39.2208 7.27219 39.1416 7.2737 39.0611V11.1501C7.27449 11.0653 7.29979 10.9827 7.34622 10.9135C7.39265 10.8442 7.45799 10.7916 7.53351 10.7626C7.60904 10.7336 7.69115 10.7297 7.76887 10.7512C7.84658 10.7728 7.91621 10.8189 7.96843 10.8834L37.4422 48.1056C37.9163 48.6978 38.5071 49.1736 39.1735 49.4998C39.8398 49.8261 40.5655 49.9949 41.3001 49.9944H42.3527C43.0155 49.9944 43.6719 49.8566 44.2842 49.5889C44.8966 49.3211 45.453 48.9287 45.9217 48.434C46.3904 47.9393 46.7622 47.3519 47.0159 46.7055C47.2695 46.0591 47.4001 45.3663 47.4001 44.6667V5.32787C47.4001 4.62541 47.2685 3.92987 47.0129 3.28129C46.7572 2.63272 46.3826 2.0439 45.9106 1.54874C45.4385 1.05357 44.8784 0.661827 44.2624 0.39605C43.6463 0.130273 42.9866 -0.00429071 42.3211 0.000104284C41.4586 0.000213511 40.6105 0.233638 39.8577 0.678102C39.1049 1.12257 38.4726 1.76324 38.0211 2.53899Z" fill="#262626"/>
</svg>
