<svg width="938" height="144" viewBox="0 0 938 144" fill="none" xmlns="http://www.w3.org/2000/svg">
<path fill-rule="evenodd" clip-rule="evenodd" d="M431.75 0V29.4752C431.75 40.1066 423.131 48.7252 412.5 48.7252H24.4997C13.0398 48.7252 3.74968 58.0153 3.74968 69.4752L3.74969 136.5H0.169556L4.49969 144L8.82983 136.5H5.24969L5.24968 69.4752C5.24968 58.8437 13.8682 50.2252 24.4997 50.2252H412.5C423.96 50.2252 433.25 40.9351 433.25 29.4752V0H431.75ZM451.75 0V50.3678C451.75 60.9993 443.131 69.6178 432.5 69.6178H326.5C315.04 69.6178 305.75 78.9079 305.75 90.3678L305.75 136.5H302.17L306.5 144L310.83 136.5H307.25L307.25 90.3678C307.25 79.7363 315.868 71.1178 326.5 71.1178H432.5C443.96 71.1178 453.25 61.8277 453.25 50.3678V0H451.75ZM479.75 0V50.3678C479.75 61.8277 489.04 71.1178 500.5 71.1178H603.5C614.131 71.1178 622.75 79.7363 622.75 90.3678L622.75 136.5H619.17L623.5 144L627.83 136.5H624.25L624.25 90.3678C624.25 78.9079 614.96 69.6178 603.5 69.6178H500.5C489.868 69.6178 481.25 60.9993 481.25 50.3678V0H479.75ZM499.75 0V29.4752C499.75 40.9351 509.04 50.2252 520.5 50.2252H913.5C924.131 50.2252 932.75 58.8437 932.75 69.4752L932.75 136.5H929.169L933.5 144L937.83 136.5H934.25L934.25 69.4752C934.25 58.0153 924.96 48.7252 913.5 48.7252H520.5C509.868 48.7252 501.25 40.1066 501.25 29.4752V0H499.75Z" fill="url(#paint0_linear_5588_54827)"/>
<defs>
<linearGradient id="paint0_linear_5588_54827" x1="379.5" y1="-81" x2="379.5" y2="144" gradientUnits="userSpaceOnUse">
<stop offset="0.401042" stop-color="#7A9DF8" stop-opacity="0"/>
<stop offset="1" stop-color="#7A9DF8"/>
</linearGradient>
</defs>
</svg>
