<svg width="18" height="20" viewBox="0 0 18 20" fill="none" xmlns="http://www.w3.org/2000/svg">
<path d="M8.99979 5.13175H8.99968C8.4714 5.13175 7.95464 5.28145 7.51472 5.5624C7.07475 5.84338 6.73113 6.2432 6.52803 6.71185C6.3249 7.18057 6.27167 7.6966 6.37529 8.19451C6.47891 8.69237 6.73453 9.14904 7.10909 9.50704C7.4836 9.86499 7.96022 10.1083 8.47845 10.2068C8.99667 10.3053 9.53386 10.2548 10.0223 10.0614C10.5107 9.86806 10.9289 9.54031 11.2235 9.11895C11.5181 8.69753 11.6757 8.20157 11.6757 7.69381V7.69369C11.6749 7.01296 11.3915 6.3613 10.8894 5.8814C10.3875 5.40164 9.7078 5.13252 8.99979 5.13175ZM14.0188 2.88678L14.0188 2.88677C12.7771 1.70032 11.1204 0.99619 9.36873 0.909153C7.61705 0.822116 5.89316 1.35825 4.52976 2.41502C3.16624 3.47188 2.25967 4.97486 1.98644 6.63447C1.71319 8.29415 2.09299 9.99137 3.05169 11.3983L3.0517 11.3984L7.91817 18.5388C8.03601 18.7117 8.19679 18.8533 8.3856 18.9511C8.57439 19.0489 8.78545 19.1 8.9997 19.1C9.21395 19.1 9.42501 19.0489 9.6138 18.9511C9.80261 18.8533 9.96339 18.7117 10.0812 18.5388L14.9479 11.3984C15.8374 10.0932 16.2309 8.53483 16.0616 6.98459C15.8923 5.43438 15.1706 3.98772 14.0188 2.88678ZM8.99957 8.82484C8.76366 8.82482 8.53341 8.75793 8.33793 8.63309C8.14247 8.50827 7.99083 8.33131 7.90148 8.12514C7.81216 7.91903 7.78887 7.69251 7.83434 7.47402C7.87982 7.2555 7.9922 7.05412 8.15803 6.89563C8.3239 6.73709 8.53578 6.62865 8.76708 6.58467C8.9984 6.5407 9.23812 6.5633 9.45576 6.64946C9.67337 6.73561 9.85864 6.88122 9.98865 7.06718C10.1186 7.25305 10.1876 7.47107 10.1877 7.69369C10.1873 7.99209 10.0632 8.27913 9.8409 8.49157C9.61847 8.70416 9.31598 8.82449 8.99957 8.82484ZM13.7034 10.6138L8.99972 17.5152L4.29598 10.6138C2.85882 8.5051 3.16644 5.68265 5.0296 3.90182C5.55055 3.40389 6.16926 3.00868 6.85051 2.73897C7.53177 2.46926 8.26209 2.33039 8.99972 2.33039C9.73736 2.33039 10.4677 2.46926 11.1489 2.73897C11.8302 3.00868 12.4489 3.40389 12.9698 3.90182C14.833 5.68265 15.1406 8.5051 13.7034 10.6138Z" fill="#6B6EF9" stroke="#6B6EF9" stroke-width="0.2"/>
</svg>
