<svg width="212" height="41" viewBox="0 0 212 41" fill="none" xmlns="http://www.w3.org/2000/svg">
<path d="M31.1256 2.08197L23.0167 14.8056C22.8853 14.9893 22.8246 15.2187 22.8467 15.4478C22.8688 15.6769 22.9721 15.8886 23.1359 16.0404C23.2997 16.1922 23.5117 16.2728 23.7294 16.266C23.9471 16.2592 24.1543 16.1655 24.3093 16.0037L32.2889 8.71485C32.3349 8.67024 32.3923 8.64089 32.4539 8.63044C32.5156 8.61999 32.5788 8.6289 32.6356 8.65607C32.6925 8.68323 32.7406 8.72746 32.774 8.78325C32.8073 8.83905 32.8244 8.90397 32.8232 8.96995V31.8798C32.8225 31.9494 32.8018 32.017 32.7638 32.0738C32.7258 32.1306 32.6723 32.1738 32.6105 32.1975C32.5487 32.2213 32.4814 32.2245 32.4178 32.2068C32.3542 32.1891 32.2972 32.1513 32.2544 32.0985L8.12609 1.5763C7.7409 1.0863 7.25899 0.691308 6.71417 0.419023C6.16934 0.146738 5.57478 0.00375106 4.97217 8.55131e-05H4.13198C3.03611 8.55131e-05 1.98513 0.460365 1.21023 1.27967C0.435332 2.09897 0 3.21018 0 4.36885V36.6312C0 37.7899 0.435332 38.9011 1.21023 39.7204C1.98513 40.5397 3.03611 41 4.13198 41C4.83809 40.9999 5.53239 40.8085 6.14864 40.444C6.76489 40.0796 7.28252 39.5542 7.65214 38.9181L15.761 26.1945C15.8924 26.0108 15.9531 25.7814 15.931 25.5523C15.9089 25.3232 15.8056 25.1115 15.6418 24.9597C15.478 24.8079 15.266 24.7273 15.0483 24.7341C14.8306 24.7409 14.6234 24.8346 14.4684 24.9964L6.48881 32.2852C6.4428 32.3299 6.38542 32.3592 6.32379 32.3696C6.26215 32.3801 6.19897 32.3712 6.14208 32.344C6.08519 32.3169 6.0371 32.2726 6.00376 32.2168C5.97042 32.161 5.9533 32.0961 5.95453 32.0301V9.14307C5.95518 9.07351 5.9759 9.00582 6.01391 8.94905C6.05191 8.89227 6.10541 8.84911 6.16723 8.82534C6.22906 8.80157 6.29628 8.79832 6.3599 8.81602C6.42352 8.83372 6.48052 8.87153 6.52327 8.9244L30.6516 39.4466C31.0398 39.9322 31.5235 40.3223 32.0689 40.5899C32.6144 40.8574 33.2086 40.9958 33.8099 40.9954H34.6716C35.2142 40.9954 35.7515 40.8824 36.2528 40.6629C36.7541 40.4433 37.2097 40.1215 37.5933 39.7159C37.977 39.3102 38.2814 38.8286 38.489 38.2985C38.6967 37.7685 38.8036 37.2004 38.8036 36.6267V4.36885C38.8036 3.79283 38.6959 3.22249 38.4866 2.69066C38.2773 2.15883 37.9707 1.676 37.5842 1.26996C37.1978 0.863927 36.7392 0.542698 36.2349 0.324761C35.7306 0.106824 35.1905 -0.00351838 34.6457 8.55131e-05C33.9396 0.000175079 33.2453 0.191583 32.6291 0.556043C32.0128 0.920504 31.4952 1.44586 31.1256 2.08197Z" fill="#262626"/>
<path d="M63 30.5714V10H71.0401C72.2726 10 73.3236 10.2524 74.193 10.7571C75.072 11.2619 75.7408 11.9286 76.1995 12.7571C76.6676 13.5762 76.9017 14.4619 76.9017 15.4143C76.9017 16.5286 76.6151 17.5048 76.0418 18.3429C75.4685 19.181 74.6946 19.7571 73.7201 20.0714L73.6914 19.3714C75.0195 19.7238 76.0514 20.3714 76.7871 21.3143C77.5228 22.2571 77.8906 23.381 77.8906 24.6857C77.8906 25.8857 77.6422 26.9238 77.1454 27.8C76.6581 28.6762 75.951 29.3571 75.0243 29.8429C74.107 30.3286 73.0178 30.5714 71.7566 30.5714H63ZM65.5797 28.1429H71.2694C72.0337 28.1429 72.7169 28.0048 73.3188 27.7286C73.9207 27.4429 74.3937 27.0429 74.7376 26.5286C75.0911 26.0143 75.2679 25.3952 75.2679 24.6714C75.2679 23.9762 75.1103 23.3524 74.795 22.8C74.4892 22.2476 74.0545 21.8095 73.4908 21.4857C72.9366 21.1524 72.2917 20.9857 71.556 20.9857H65.5797V28.1429ZM65.5797 18.5857H71.0114C71.6229 18.5857 72.1723 18.4571 72.6595 18.2C73.1564 17.9333 73.5481 17.5619 73.8347 17.0857C74.1309 16.6095 74.279 16.0524 74.279 15.4143C74.279 14.5286 73.9781 13.8048 73.3761 13.2429C72.7742 12.681 71.986 12.4 71.0114 12.4H65.5797V18.5857Z" fill="#A7A7A7"/>
<path d="M80.7466 30.5714V15.1429H83.0254V18.8714L82.6527 18.3857C82.8343 17.9095 83.0684 17.4714 83.355 17.0714C83.6512 16.6714 83.9808 16.3429 84.3439 16.0857C84.7452 15.7619 85.199 15.5143 85.7054 15.3429C86.2118 15.1714 86.7277 15.0714 87.2532 15.0429C87.7787 15.0048 88.2708 15.0381 88.7294 15.1429V17.5286C88.1943 17.3857 87.6067 17.3476 86.9666 17.4143C86.3264 17.481 85.734 17.7143 85.1894 18.1143C84.6926 18.4667 84.3057 18.8952 84.0286 19.4C83.7611 19.9048 83.5747 20.4524 83.4696 21.0429C83.3645 21.6238 83.312 22.219 83.312 22.8286V30.5714H80.7466Z" fill="#A7A7A7"/>
<path d="M95.3354 31C94.1793 31 93.2095 30.7905 92.426 30.3714C91.6521 29.9429 91.0645 29.381 90.6632 28.6857C90.2715 27.9905 90.0756 27.2286 90.0756 26.4C90.0756 25.5905 90.2285 24.8905 90.5343 24.3C90.8496 23.7 91.2891 23.2048 91.8528 22.8143C92.4165 22.4143 93.0901 22.1 93.8735 21.8714C94.6092 21.6714 95.4309 21.5 96.3386 21.3571C97.2558 21.2048 98.1826 21.0667 99.1189 20.9429C100.055 20.819 100.929 20.7 101.742 20.5857L100.824 21.1143C100.853 19.7429 100.576 18.7286 99.9932 18.0714C99.4199 17.4143 98.4262 17.0857 97.0122 17.0857C96.0758 17.0857 95.2542 17.3 94.5471 17.7286C93.8496 18.1476 93.3576 18.8333 93.071 19.7857L90.6489 19.0571C91.0215 17.7048 91.7429 16.6429 92.813 15.8714C93.8831 15.1 95.2924 14.7143 97.0408 14.7143C98.4453 14.7143 99.6492 14.9667 100.652 15.4714C101.665 15.9667 102.391 16.719 102.831 17.7286C103.051 18.2048 103.189 18.7238 103.246 19.2857C103.304 19.8381 103.332 20.419 103.332 21.0286V30.5714H101.068V26.8714L101.598 27.2143C101.015 28.4619 100.199 29.4048 99.1476 30.0429C98.1062 30.681 96.8354 31 95.3354 31ZM95.7223 28.8714C96.6395 28.8714 97.4326 28.7095 98.1014 28.3857C98.7797 28.0524 99.3243 27.619 99.7352 27.0857C100.146 26.5429 100.414 25.9524 100.538 25.3143C100.681 24.8381 100.758 24.3095 100.767 23.7286C100.786 23.1381 100.796 22.6857 100.796 22.3714L101.684 22.7571C100.853 22.8714 100.036 22.981 99.2336 23.0857C98.431 23.1905 97.6714 23.3048 96.9548 23.4286C96.2383 23.5429 95.5933 23.681 95.0201 23.8429C94.5997 23.9762 94.2032 24.1476 93.8305 24.3571C93.4675 24.5667 93.1713 24.8381 92.942 25.1714C92.7222 25.4952 92.6123 25.9 92.6123 26.3857C92.6123 26.8048 92.7174 27.2048 92.9276 27.5857C93.1474 27.9667 93.4818 28.2762 93.9309 28.5143C94.3895 28.7524 94.9866 28.8714 95.7223 28.8714Z" fill="#A7A7A7"/>
<path d="M118.08 30.5714V22.8429C118.08 22.1095 118.013 21.4048 117.879 20.7286C117.755 20.0524 117.53 19.4476 117.205 18.9143C116.89 18.3714 116.46 17.9429 115.916 17.6286C115.381 17.3143 114.702 17.1571 113.881 17.1571C113.24 17.1571 112.658 17.2667 112.132 17.4857C111.616 17.6952 111.172 18.019 110.799 18.4571C110.427 18.8952 110.135 19.4476 109.925 20.1143C109.724 20.7714 109.624 21.5476 109.624 22.4429L107.947 21.9286C107.947 20.4333 108.215 19.1524 108.75 18.0857C109.294 17.0095 110.054 16.1857 111.029 15.6143C112.013 15.0333 113.169 14.7429 114.497 14.7429C115.5 14.7429 116.355 14.9 117.062 15.2143C117.769 15.5286 118.357 15.9476 118.825 16.4714C119.293 16.9857 119.661 17.5667 119.928 18.2143C120.196 18.8524 120.382 19.5048 120.487 20.1714C120.602 20.8286 120.659 21.4524 120.659 22.0429V30.5714H118.08ZM107.044 30.5714V15.1429H109.337V19.2714H109.624V30.5714H107.044Z" fill="#A7A7A7"/>
<path d="M130.322 31C128.879 31 127.642 30.6429 126.61 29.9286C125.578 29.2048 124.781 28.2286 124.217 27C123.663 25.7714 123.386 24.3857 123.386 22.8429C123.386 21.3 123.663 19.9143 124.217 18.6857C124.781 17.4571 125.578 16.4905 126.61 15.7857C127.642 15.0714 128.875 14.7143 130.308 14.7143C131.77 14.7143 132.997 15.0667 133.991 15.7714C134.985 16.4762 135.735 17.4429 136.241 18.6714C136.757 19.9 137.015 21.2905 137.015 22.8429C137.015 24.3762 136.757 25.7619 136.241 27C135.735 28.2286 134.985 29.2048 133.991 29.9286C132.997 30.6429 131.774 31 130.322 31ZM130.637 28.6714C131.679 28.6714 132.534 28.4238 133.203 27.9286C133.872 27.4238 134.364 26.7333 134.679 25.8571C135.004 24.9714 135.166 23.9667 135.166 22.8429C135.166 21.7 135.004 20.6952 134.679 19.8286C134.364 18.9524 133.876 18.2714 133.217 17.7857C132.558 17.2905 131.722 17.0429 130.709 17.0429C129.658 17.0429 128.789 17.3 128.101 17.8143C127.422 18.3286 126.916 19.0238 126.582 19.9C126.257 20.7762 126.094 21.7571 126.094 22.8429C126.094 23.9381 126.261 24.9286 126.596 25.8143C126.93 26.6905 127.432 27.3857 128.101 27.9C128.779 28.4143 129.625 28.6714 130.637 28.6714ZM135.166 30.5714V19.2143H134.88V10H137.445V30.5714H135.166Z" fill="#A7A7A7"/>
<path d="M154.307 31C152.855 31 151.632 30.6429 150.638 29.9286C149.644 29.2048 148.89 28.2286 148.374 27C147.867 25.7619 147.614 24.3762 147.614 22.8429C147.614 21.2905 147.867 19.9 148.374 18.6714C148.89 17.4429 149.644 16.4762 150.638 15.7714C151.641 15.0667 152.869 14.7143 154.321 14.7143C155.755 14.7143 156.987 15.0714 158.019 15.7857C159.06 16.4905 159.858 17.4571 160.412 18.6857C160.966 19.9143 161.244 21.3 161.244 22.8429C161.244 24.3857 160.966 25.7714 160.412 27C159.858 28.2286 159.06 29.2048 158.019 29.9286C156.987 30.6429 155.75 31 154.307 31ZM147.184 30.5714V10H149.75V19.2143H149.463V30.5714H147.184ZM153.992 28.6714C155.014 28.6714 155.86 28.4143 156.528 27.9C157.197 27.3857 157.699 26.6905 158.033 25.8143C158.368 24.9286 158.535 23.9381 158.535 22.8429C158.535 21.7571 158.368 20.7762 158.033 19.9C157.708 19.0238 157.202 18.3286 156.514 17.8143C155.836 17.3 154.971 17.0429 153.92 17.0429C152.917 17.0429 152.086 17.2905 151.426 17.7857C150.767 18.2714 150.275 18.9524 149.95 19.8286C149.625 20.6952 149.463 21.7 149.463 22.8429C149.463 23.9667 149.621 24.9714 149.936 25.8571C150.261 26.7333 150.758 27.4238 151.426 27.9286C152.095 28.4238 152.95 28.6714 153.992 28.6714Z" fill="#A7A7A7"/>
<path d="M170.978 31C169.44 31 168.112 30.6524 166.994 29.9571C165.885 29.2619 165.03 28.3 164.428 27.0714C163.826 25.8429 163.525 24.4333 163.525 22.8429C163.525 21.2238 163.831 19.8048 164.443 18.5857C165.054 17.3667 165.919 16.419 167.037 15.7429C168.155 15.0571 169.468 14.7143 170.978 14.7143C172.526 14.7143 173.859 15.0619 174.976 15.7571C176.094 16.4429 176.949 17.4 177.542 18.6286C178.144 19.8476 178.445 21.2524 178.445 22.8429C178.445 24.4524 178.144 25.8714 177.542 27.1C176.94 28.319 176.08 29.2762 174.962 29.9714C173.844 30.6571 172.516 31 170.978 31ZM170.978 28.5857C172.583 28.5857 173.777 28.0524 174.561 26.9857C175.344 25.919 175.736 24.5381 175.736 22.8429C175.736 21.1 175.339 19.7143 174.546 18.6857C173.753 17.6476 172.564 17.1286 170.978 17.1286C169.898 17.1286 169.01 17.3714 168.312 17.8571C167.615 18.3429 167.094 19.0143 166.75 19.8714C166.406 20.7286 166.234 21.719 166.234 22.8429C166.234 24.5762 166.635 25.9667 167.438 27.0143C168.241 28.0619 169.42 28.5857 170.978 28.5857Z" fill="#A7A7A7"/>
<path d="M188.193 31C186.654 31 185.326 30.6524 184.208 29.9571C183.1 29.2619 182.245 28.3 181.643 27.0714C181.041 25.8429 180.74 24.4333 180.74 22.8429C180.74 21.2238 181.046 19.8048 181.657 18.5857C182.269 17.3667 183.134 16.419 184.251 15.7429C185.369 15.0571 186.683 14.7143 188.193 14.7143C189.74 14.7143 191.073 15.0619 192.191 15.7571C193.309 16.4429 194.164 17.4 194.757 18.6286C195.358 19.8476 195.659 21.2524 195.659 22.8429C195.659 24.4524 195.358 25.8714 194.757 27.1C194.155 28.319 193.295 29.2762 192.177 29.9714C191.059 30.6571 189.731 31 188.193 31ZM188.193 28.5857C189.798 28.5857 190.992 28.0524 191.776 26.9857C192.559 25.919 192.951 24.5381 192.951 22.8429C192.951 21.1 192.554 19.7143 191.761 18.6857C190.968 17.6476 189.779 17.1286 188.193 17.1286C187.113 17.1286 186.224 17.3714 185.527 17.8571C184.829 18.3429 184.309 19.0143 183.965 19.8714C183.621 20.7286 183.449 21.719 183.449 22.8429C183.449 24.5762 183.85 25.9667 184.653 27.0143C185.455 28.0619 186.635 28.5857 188.193 28.5857Z" fill="#A7A7A7"/>
<path d="M198.801 30.5714L198.815 10H201.395V22.5714L207.887 15.1429H211.197L204.361 22.8571L212 30.5714H208.431L201.395 23.1429V30.5714H198.801Z" fill="#A7A7A7"/>
</svg>
