<?xml version="1.0" encoding="UTF-8"?>
<svg xmlns="http://www.w3.org/2000/svg" width="301" height="254" viewBox="0 0 301 254" fill="none">
  <g clip-path="url(#clip0_6876_61270)">
    <path d="M0 2.15186H10.9969C13.0915 2.15186 14.6625 2.67552 15.8262 3.54829C17.1063 4.59561 17.8045 6.10841 17.8045 7.97032C17.8045 10.1232 16.9317 11.4614 15.1862 12.276V12.3924C17.5136 13.1488 18.8518 15.2434 18.8518 17.7453C18.8518 20.1309 17.9209 21.9928 16.4081 23.1565C15.128 24.0875 13.4988 24.4948 11.2878 24.4948H0V2.15186ZM9.89139 10.8796C11.0551 10.8796 11.9279 10.2395 11.9279 8.90127C11.9279 7.62121 11.0551 6.98118 9.8332 6.98118H6.0512V10.8214H9.89139V10.8796ZM10.415 19.5491C11.7533 19.5491 12.7424 18.7345 12.7424 17.2799C12.7424 15.7089 11.6951 15.0107 10.415 15.0107H6.10939V19.6072H10.415V19.5491Z" fill="#9799F8"></path>
    <path d="M19.8418 2.15186H25.6021V24.5529H19.8418V2.15186Z" fill="#9799F8"></path>
    <path d="M26.7656 16.5815C26.7656 11.5195 30.024 8.14478 35.086 8.14478C40.1481 8.14478 43.3482 11.5777 43.3482 16.5815C43.3482 21.6436 40.1481 25.0183 35.086 25.0183C30.024 25.0183 26.7656 21.6436 26.7656 16.5815ZM37.588 16.5815C37.588 13.7887 36.7152 12.0431 34.9697 12.0431C33.2241 12.0431 32.4095 13.7887 32.4095 16.5815C32.4095 19.3744 33.2241 21.1781 34.9697 21.1781C36.7152 21.12 37.588 19.3744 37.588 16.5815Z" fill="#9799F8"></path>
    <path d="M43.9883 16.5815C43.9883 11.5195 47.2466 8.14478 52.3087 8.14478C57.3707 8.14478 60.5127 11.5195 60.5127 16.5815C60.5127 21.6436 57.3126 25.0183 52.2505 25.0183C47.2466 25.0183 43.9883 21.6436 43.9883 16.5815ZM54.8106 16.5815C54.8106 13.7887 53.9378 12.0431 52.1923 12.0431C50.4468 12.0431 49.6322 13.7887 49.6322 16.5815C49.6322 19.3744 50.4468 21.1781 52.1923 21.1781C53.9378 21.12 54.8106 19.3744 54.8106 16.5815Z" fill="#9799F8"></path>
    <path d="M61.6758 8.55215H67.0288V10.9377H67.1451C68.1925 9.07581 69.6471 8.08667 71.9745 8.08667C74.0109 8.08667 75.5237 9.07581 76.2801 10.8213H76.3965C77.6766 8.7267 79.3639 8.08667 81.3422 8.08667C85.066 8.08667 86.637 10.8213 86.637 14.487V24.4947H81.0513V15.4761C81.0513 13.8469 80.5276 12.7996 79.1312 12.7996C77.7347 12.7996 77.0365 14.0797 77.0365 15.8252V24.4947H71.4508V15.4761C71.4508 13.8469 70.9271 12.7996 69.5307 12.7996C68.1343 12.7996 67.4361 14.0797 67.4361 15.8252V24.4947H61.6758V8.55215Z" fill="#9799F8"></path>
    <path d="M93.6768 22.4001H93.6186V24.4948H88.2656V2.15186H93.8513V10.1813H93.9677C95.015 8.7849 96.4696 8.0285 98.5061 8.0285C102.521 8.0285 104.848 11.636 104.848 16.4653C104.848 21.8764 102.346 25.0184 98.157 25.0184C96.4115 25.0184 94.6077 24.2038 93.6768 22.4001ZM99.088 16.4071C99.088 13.847 98.157 12.1596 96.4696 12.1596C94.7241 12.1596 93.6768 13.847 93.6768 16.4071C93.6768 18.9672 94.7823 20.6546 96.4696 20.6546C98.157 20.6546 99.088 19.0254 99.088 16.4071Z" fill="#9799F8"></path>
    <path d="M105.488 16.5234C105.488 11.5196 108.805 8.08667 113.576 8.08667C115.962 8.08667 117.765 8.84307 119.162 10.1813C121.024 11.985 121.838 14.7779 121.78 18.0362H111.074C111.307 20.0145 112.238 21.0618 113.925 21.0618C114.914 21.0618 115.787 20.5964 116.136 19.549H121.547C120.616 23.2147 117.765 25.0184 113.751 25.0184C108.805 24.9602 105.488 21.5855 105.488 16.5234ZM111.074 14.8361H116.194C116.078 12.916 115.031 11.9269 113.692 11.9269C112.121 11.8687 111.249 12.9742 111.074 14.8361Z" fill="#9799F8"></path>
    <path d="M128.123 11.2868H128.239C129.403 9.07577 130.915 8.203 132.835 8.203C133.301 8.203 133.592 8.26119 133.766 8.37756V13.2651H133.65C130.334 12.6832 128.413 14.2542 128.413 17.8617V24.5529H122.77V8.55211H128.123V11.2868Z" fill="#9799F8"></path>
    <path d="M134.348 24.553H139.759C139.991 25.2512 140.69 25.8913 142.028 25.8913C143.832 25.8913 144.472 24.7857 144.472 23.0984V21.9347H144.355C143.483 22.982 142.261 23.7384 140.515 23.7384C137.082 23.7384 134.057 21.1783 134.057 16.1744C134.057 11.5778 136.5 8.02856 140.224 8.02856C142.377 8.02856 143.657 8.90133 144.53 10.2396H144.646V8.49404H149.999V22.342C149.999 24.9021 149.126 26.8804 147.788 28.0441C146.392 29.266 144.414 29.7896 142.144 29.7896C137.839 29.8478 134.871 28.1023 134.348 24.553ZM144.704 15.9417C144.704 13.9634 143.773 12.3342 142.144 12.3342C140.573 12.3342 139.584 13.7307 139.584 15.9417C139.584 18.0945 140.573 19.6073 142.144 19.6073C143.715 19.6073 144.704 18.0363 144.704 15.9417Z" fill="#9799F8"></path>
  </g>
  <path d="M249.14 10.7853C249.14 7.34827 249.199 4.14827 249.377 1.1853L240.31 2.90382V3.73345L241.199 3.85197C241.851 3.91123 242.266 4.14827 242.503 4.50382C242.74 4.91864 242.918 5.51123 243.036 6.40012C243.155 8.11864 243.273 12.0297 243.214 18.1927C243.214 24.2964 243.155 28.1483 243.036 29.6297C246.296 30.3409 248.844 30.6372 250.74 30.6372C254.296 30.6372 257.081 29.6297 259.096 27.5557C261.11 25.5409 262.177 22.6964 262.177 19.2001C262.177 16.4149 261.407 14.1038 259.866 12.2668C258.325 10.4297 256.37 9.54086 254.058 9.54086C252.518 9.54086 250.918 9.95567 249.14 10.7853ZM249.318 29.0372C249.199 27.1409 249.081 21.452 249.081 12.1483C249.614 11.9705 250.325 11.852 251.214 11.852C252.636 11.852 253.762 12.5631 254.592 14.0446C255.421 15.526 255.836 17.3038 255.836 19.5557C255.836 22.3409 255.362 24.5927 254.414 26.489C253.466 28.326 252.281 29.2742 250.799 29.2742C250.325 29.1557 249.851 29.0964 249.318 29.0372ZM206.296 1.7779H182.592V2.96308L183.836 3.0816C184.784 3.25938 185.436 3.61493 185.851 4.14827C186.266 4.74086 186.503 5.68901 186.562 6.99271C187.036 13.3927 187.036 19.3779 186.562 24.889C186.444 26.1927 186.207 27.1409 185.851 27.7334C185.436 28.326 184.784 28.6816 183.836 28.8001L182.592 28.9779V30.1631H197.881V28.9779L196.281 28.8594C195.333 28.7409 194.681 28.326 194.266 27.7927C193.851 27.2001 193.614 26.252 193.555 24.9483C193.377 22.5779 193.258 19.852 193.258 16.8297L196.458 16.889C198.177 16.9483 199.362 18.252 199.955 20.8594H201.14V11.2001H199.955C199.362 13.7483 198.236 15.052 196.458 15.1112L193.258 15.1705C193.258 9.83716 193.377 6.04456 193.555 3.73345H198.236C201.555 3.73345 203.807 5.86678 205.11 10.1335L206.533 9.71864L206.296 1.7779ZM203.51 20.0297C203.51 23.1112 204.399 25.6594 206.118 27.6742C207.836 29.689 210.384 30.6372 213.584 30.6372C216.784 30.6372 219.392 29.6297 221.288 27.5557C223.184 25.5409 224.073 22.9927 224.073 19.9112C224.073 16.8297 223.184 14.2816 221.466 12.2668C219.747 10.252 217.199 9.30382 213.999 9.30382C210.799 9.30382 208.192 10.3112 206.296 12.3853C204.399 14.4001 203.51 16.9483 203.51 20.0297ZM216.725 13.2742C217.436 14.9927 217.733 17.2446 217.733 19.9705C217.733 26.252 216.429 29.3335 213.881 29.3335C212.577 29.3335 211.57 28.4446 210.858 26.6668C210.147 24.889 209.851 22.6372 209.851 19.9705C209.851 13.7483 211.155 10.6668 213.703 10.6668C215.007 10.6075 216.014 11.4964 216.725 13.2742ZM266.799 27.6742C268.755 29.6297 271.244 30.6372 274.207 30.6372C276.044 30.6372 277.644 30.2816 279.066 29.5112C280.488 28.8001 281.614 27.9112 282.384 26.8446L281.792 26.1334C280.488 27.1409 279.007 27.6149 277.288 27.6149C274.918 27.6149 273.081 26.8446 271.836 25.2446C270.533 23.6446 269.94 21.6297 270.058 19.0223H282.74C282.74 16.1779 282.029 13.8668 280.547 12.0297C279.066 10.252 276.992 9.36308 274.325 9.36308C271.007 9.36308 268.458 10.4297 266.621 12.5038C264.784 14.5779 263.896 17.126 263.896 20.1483C263.896 23.2297 264.844 25.7186 266.799 27.6742ZM271.184 12.8001C271.836 11.3779 272.666 10.6668 273.792 10.6668C275.57 10.6668 276.458 12.9186 276.458 17.4816L270.177 17.6001C270.236 15.8223 270.533 14.2223 271.184 12.8001ZM298.681 10.4297C297.081 9.71864 295.066 9.30382 292.636 9.30382C290.147 9.30382 288.192 9.95567 286.71 11.2001C285.229 12.4446 284.458 13.9853 284.458 15.8223C284.458 17.4223 284.933 18.6668 285.821 19.5557C286.71 20.4446 288.133 21.2149 289.97 21.8668C291.629 22.4594 292.814 23.052 293.407 23.5853C293.999 24.1779 294.355 24.8297 294.355 25.7186C294.355 26.5483 294.058 27.3186 293.407 27.9112C292.814 28.5631 291.984 28.8594 290.918 28.8594C288.31 28.8594 286.355 26.9631 284.992 23.1705L283.984 23.4668L284.221 29.3927C286.355 30.2223 288.725 30.6372 291.333 30.6372C294.058 30.6372 296.133 30.0446 297.673 28.8001C299.214 27.6149 299.984 25.8964 299.984 23.7631C299.984 22.3409 299.629 21.1557 298.858 20.2668C298.088 19.3779 296.844 18.6075 295.066 17.8964C293.11 17.1853 291.747 16.5335 291.036 15.9409C290.325 15.3483 289.97 14.6372 289.97 13.7483C289.97 12.8594 290.207 12.1483 290.74 11.5557C291.273 10.9631 291.925 10.726 292.755 10.726C295.125 10.726 296.844 12.4446 297.91 15.8223L298.918 15.526L298.681 10.4297ZM241.673 9.89641C240.844 9.4816 239.955 9.30382 238.947 9.30382C237.94 9.30382 236.933 9.71864 235.807 10.5483C234.681 11.3779 233.851 12.5038 233.199 14.0446L233.258 9.30382L224.251 11.0816V11.9112L225.14 11.9705C226.266 12.089 226.918 12.9779 227.036 14.5779C227.392 18.252 227.392 22.1631 227.036 26.3112C226.918 27.9112 226.266 28.7409 225.14 28.9186L224.251 29.0372V30.1631H236.814V29.0372L235.214 28.9186C234.088 28.8001 233.436 27.9112 233.318 26.3112C232.962 22.8742 232.903 19.2001 233.199 15.4075C233.555 14.8149 234.325 14.4594 235.51 14.3409C236.696 14.2223 238.058 14.5779 239.481 15.4075L241.673 9.89641Z" fill="#9799F8"></path>
  <g clip-path="url(#clip1_6876_61270)">
    <path d="M82.7426 89.9432C82.7426 90.4945 82.5236 91.0232 82.1338 91.413C81.744 91.8028 81.2153 92.0218 80.664 92.0218C80.1128 92.0218 79.5841 91.8028 79.1943 91.413C78.8045 91.0232 78.5855 90.4945 78.5855 89.9432C78.5855 89.3919 78.8045 88.8632 79.1943 88.4734C79.5841 88.0836 80.1128 87.8646 80.664 87.8646C81.2153 87.8646 81.744 88.0836 82.1338 88.4734C82.5236 88.8632 82.7426 89.3919 82.7426 89.9432ZM76.3589 86.3093C76.1928 86.306 76.0278 86.3358 75.8734 86.3971C75.719 86.4583 75.5784 86.5498 75.4598 86.6661C75.3411 86.7823 75.2469 86.9211 75.1826 87.0742C75.1182 87.2274 75.0851 87.3918 75.0851 87.5579C75.0851 87.724 75.1182 87.8884 75.1826 88.0416C75.2469 88.1947 75.3411 88.3335 75.4598 88.4497C75.5784 88.566 75.719 88.6574 75.8734 88.7187C76.0278 88.78 76.1928 88.8098 76.3589 88.8065C76.6839 88.7973 76.9925 88.6617 77.2191 88.4286C77.4457 88.1955 77.5725 87.8832 77.5725 87.5581C77.5725 87.233 77.4457 86.9207 77.2191 86.6876C76.9925 86.4545 76.6839 86.3185 76.3589 86.3093ZM74.8843 81.9518C74.6734 81.9481 74.4639 81.9864 74.2679 82.0645C74.072 82.1427 73.8936 82.259 73.7431 82.4068C73.5927 82.5547 73.4732 82.731 73.3916 82.9255C73.31 83.12 73.268 83.3288 73.268 83.5398C73.268 83.7507 73.31 83.9595 73.3916 84.1541C73.4732 84.3486 73.5927 84.5249 73.7431 84.6727C73.8936 84.8205 74.072 84.9369 74.2679 85.015C74.4639 85.0932 74.6734 85.1315 74.8843 85.1277C75.3006 85.1204 75.6973 84.9498 75.9891 84.6528C76.2809 84.3558 76.4444 83.9561 76.4444 83.5398C76.4444 83.1234 76.2809 82.7237 75.9891 82.4267C75.6973 82.1297 75.3006 81.9592 74.8843 81.9518ZM72.3104 78.6468C71.9213 78.6468 71.5481 78.8014 71.273 79.0766C70.9979 79.3517 70.8433 79.7249 70.8433 80.114C70.8433 80.5031 70.9979 80.8762 71.273 81.1514C71.5481 81.4265 71.9213 81.5811 72.3104 81.5811C72.6995 81.5811 73.0727 81.4265 73.3478 81.1514C73.6229 80.8762 73.7775 80.5031 73.7775 80.114C73.7775 79.7249 73.6229 79.3517 73.3478 79.0766C73.0727 78.8014 72.6995 78.6468 72.3104 78.6468ZM69.0727 76.6779C68.9084 76.6779 68.7458 76.7103 68.594 76.7731C68.4423 76.836 68.3044 76.9281 68.1882 77.0443C68.0721 77.1604 67.9799 77.2983 67.9171 77.4501C67.8542 77.6018 67.8219 77.7645 67.8219 77.9287C67.8219 78.093 67.8542 78.2557 67.9171 78.4074C67.9799 78.5592 68.0721 78.6971 68.1882 78.8132C68.3044 78.9294 68.4423 79.0215 68.594 79.0844C68.7458 79.1472 68.9084 79.1796 69.0727 79.1796C69.4044 79.1796 69.7226 79.0478 69.9572 78.8132C70.1917 78.5786 70.3235 78.2605 70.3235 77.9287C70.3235 77.597 70.1917 77.2788 69.9572 77.0443C69.7226 76.8097 69.4044 76.6779 69.0727 76.6779ZM65.6431 75.8676C65.5023 75.8646 65.3623 75.8896 65.2313 75.9414C65.1002 75.9932 64.9809 76.0706 64.8802 76.1692C64.7795 76.2677 64.6995 76.3853 64.6449 76.5152C64.5903 76.645 64.5622 76.7845 64.5622 76.9253C64.5622 77.0662 64.5903 77.2056 64.6449 77.3355C64.6995 77.4653 64.7795 77.583 64.8802 77.6815C64.9809 77.78 65.1002 77.8575 65.2313 77.9092C65.3623 77.961 65.5023 77.9861 65.6431 77.9831C65.9197 77.9771 66.1829 77.863 66.3763 77.6653C66.5698 77.4676 66.6781 77.2019 66.6781 76.9253C66.6781 76.6487 66.5698 76.3831 66.3763 76.1854C66.1829 75.9877 65.9197 75.8736 65.6431 75.8676ZM62.2818 76.0156C62.173 76.0129 62.0648 76.032 61.9635 76.0718C61.8622 76.1116 61.7699 76.1712 61.692 76.2472C61.6141 76.3232 61.5522 76.414 61.5099 76.5143C61.4677 76.6146 61.4459 76.7223 61.4459 76.8311C61.4459 76.94 61.4677 77.0477 61.5099 77.148C61.5522 77.2483 61.6141 77.3391 61.692 77.4151C61.7699 77.4911 61.8622 77.5507 61.9635 77.5905C62.0648 77.6303 62.173 77.6494 62.2818 77.6467C62.4946 77.6414 62.6969 77.5532 62.8456 77.4008C62.9942 77.2484 63.0774 77.044 63.0774 76.8311C63.0774 76.6183 62.9942 76.4138 62.8456 76.2615C62.6969 76.1091 62.4946 76.0209 62.2818 76.0156ZM59.3576 76.7213C59.1715 76.7213 58.993 76.7952 58.8614 76.9268C58.7298 77.0584 58.6559 77.2368 58.6559 77.4229C58.6559 77.609 58.7298 77.7875 58.8614 77.9191C58.993 78.0507 59.1715 78.1246 59.3576 78.1246C59.5437 78.1246 59.7221 78.0507 59.8537 77.9191C59.9853 77.7875 60.0592 77.609 60.0592 77.4229C60.0592 77.2368 59.9853 77.0584 59.8537 76.9268C59.7221 76.7952 59.5437 76.7213 59.3576 76.7213ZM56.8584 77.8365C56.6978 77.8365 56.5438 77.9003 56.4303 78.0139C56.3167 78.1274 56.2529 78.2814 56.2529 78.442C56.2529 78.6026 56.3167 78.7566 56.4303 78.8702C56.5438 78.9837 56.6978 79.0475 56.8584 79.0475C57.019 79.0475 57.173 78.9837 57.2865 78.8702C57.4001 78.7566 57.4639 78.6026 57.4639 78.442C57.4639 78.2814 57.4001 78.1274 57.2865 78.0139C57.173 77.9003 57.019 77.8365 56.8584 77.8365ZM54.6528 79.2837C54.4664 79.2837 54.2877 79.3578 54.1559 79.4895C54.0241 79.6213 53.9501 79.8 53.9501 79.9864C53.9501 80.1727 54.0241 80.3515 54.1559 80.4832C54.2877 80.615 54.4664 80.689 54.6528 80.689C54.8391 80.689 55.0178 80.615 55.1496 80.4832C55.2814 80.3515 55.3554 80.1727 55.3554 79.9864C55.3554 79.8 55.2814 79.6213 55.1496 79.4895C55.0178 79.3578 54.8391 79.2837 54.6528 79.2837ZM52.5687 81.309C52.4602 81.3063 52.3522 81.3253 52.2511 81.365C52.1501 81.4047 52.058 81.4642 51.9803 81.54C51.9026 81.6158 51.8408 81.7064 51.7987 81.8064C51.7565 81.9065 51.7348 82.0139 51.7348 82.1225C51.7348 82.2311 51.7565 82.3385 51.7987 82.4386C51.8408 82.5386 51.9026 82.6292 51.9803 82.705C52.058 82.7808 52.1501 82.8403 52.2511 82.88C52.3522 82.9197 52.4602 82.9387 52.5687 82.936C52.781 82.9308 52.9828 82.8428 53.1311 82.6908C53.2794 82.5388 53.3624 82.3349 53.3624 82.1225C53.3624 81.9102 53.2794 81.7062 53.1311 81.5542C52.9828 81.4022 52.781 81.3142 52.5687 81.309ZM50.824 84.0259C50.5675 84.0259 50.3216 84.1278 50.1402 84.3091C49.9589 84.4905 49.857 84.7365 49.857 84.9929C49.857 85.2494 49.9589 85.4954 50.1402 85.6767C50.3216 85.8581 50.5675 85.96 50.824 85.96C51.0804 85.96 51.3263 85.8581 51.5076 85.6768C51.6889 85.4955 51.7908 85.2496 51.7908 84.9932C51.7908 84.7368 51.6889 84.4909 51.5076 84.3096C51.3263 84.1283 51.0804 84.0259 50.824 84.0259ZM49.8159 87.5183C49.5439 87.5183 49.283 87.6263 49.0907 87.8187C48.8983 88.011 48.7903 88.2719 48.7903 88.5439C48.7903 88.8159 48.8983 89.0767 49.0907 89.269C49.283 89.4614 49.5439 89.5694 49.8159 89.5694C50.0879 89.5694 50.3487 89.4614 50.5411 89.269C50.7334 89.0767 50.8415 88.8159 50.8415 88.5439C50.8415 88.2719 50.7334 88.011 50.5411 87.8187C50.3487 87.6263 50.0879 87.5183 49.8159 87.5183ZM49.8871 91.0759C49.723 91.0759 49.5605 91.1082 49.4088 91.1711C49.2572 91.2339 49.1194 91.3259 49.0034 91.442C48.8873 91.558 48.7953 91.6958 48.7324 91.8475C48.6696 91.9991 48.6373 92.1616 48.6373 92.3257C48.6373 92.4899 48.6696 92.6524 48.7324 92.804C48.7953 92.9557 48.8873 93.0935 49.0034 93.2095C49.1194 93.3256 49.2572 93.4176 49.4088 93.4804C49.5605 93.5433 49.723 93.5756 49.8871 93.5756C50.2186 93.5756 50.5365 93.4439 50.7709 93.2095C51.0053 92.9751 51.137 92.6572 51.137 92.3257C51.137 91.9943 51.0053 91.6764 50.7709 91.442C50.5365 91.2076 50.2186 91.0759 49.8871 91.0759ZM51.3602 94.7571C50.9393 94.7571 50.5356 94.9244 50.2379 95.222C49.9402 95.5197 49.773 95.9234 49.773 96.3444C49.773 96.7653 49.9402 97.169 50.2379 97.4667C50.5356 97.7643 50.9393 97.9316 51.3602 97.9316C51.7812 97.9316 52.1849 97.7643 52.4826 97.4667C52.7802 97.169 52.9474 96.7653 52.9474 96.3444C52.9474 95.9234 52.7802 95.5197 52.4826 95.222C52.1849 94.9244 51.7812 94.7571 51.3602 94.7571ZM53.9531 98.2948C53.7583 98.2913 53.5648 98.3265 53.3838 98.3986C53.2028 98.4706 53.038 98.578 52.899 98.7145C52.7599 98.851 52.6495 99.0138 52.5741 99.1934C52.4988 99.3731 52.4599 99.5659 52.4599 99.7607C52.4599 99.9555 52.4988 100.148 52.5741 100.328C52.6495 100.508 52.7599 100.67 52.899 100.807C53.038 100.943 53.2028 101.051 53.3838 101.123C53.5648 101.195 53.7583 101.23 53.9531 101.227C54.3372 101.219 54.7031 101.062 54.9723 100.788C55.2414 100.514 55.3922 100.145 55.3922 99.7607C55.3922 99.3766 55.2414 99.0077 54.9723 98.7336C54.7031 98.4595 54.3372 98.3019 53.9531 98.2948ZM57.0777 100.639C56.7466 100.639 56.4291 100.77 56.195 101.004C55.9609 101.238 55.8293 101.556 55.8293 101.887C55.8293 102.218 55.9609 102.535 56.195 102.77C56.4291 103.004 56.7466 103.135 57.0777 103.135C57.4088 103.135 57.7263 103.004 57.9604 102.77C58.1945 102.535 58.326 102.218 58.326 101.887C58.326 101.556 58.1945 101.238 57.9604 101.004C57.7263 100.77 57.4088 100.639 57.0777 100.639ZM60.6059 101.906C60.3256 101.906 60.0569 102.018 59.8587 102.216C59.6605 102.414 59.5492 102.683 59.5492 102.963C59.5492 103.243 59.6605 103.512 59.8587 103.71C60.0569 103.908 60.3256 104.02 60.6059 104.02C60.8861 104.02 61.1548 103.908 61.353 103.71C61.5511 103.512 61.6624 103.243 61.6624 102.963C61.6624 102.683 61.5511 102.414 61.353 102.216C61.1548 102.018 60.8861 101.906 60.6059 101.906ZM63.9612 102.238C63.8546 102.238 63.7489 102.259 63.6504 102.3C63.5518 102.341 63.4623 102.401 63.3868 102.476C63.3114 102.552 63.2516 102.641 63.2108 102.74C63.1699 102.838 63.1489 102.944 63.1489 103.05C63.1489 103.157 63.1699 103.263 63.2108 103.361C63.2516 103.46 63.3114 103.549 63.3868 103.625C63.4623 103.7 63.5518 103.76 63.6504 103.801C63.7489 103.842 63.8546 103.863 63.9612 103.863C64.1767 103.863 64.3833 103.777 64.5356 103.625C64.6879 103.473 64.7735 103.266 64.7735 103.05C64.7735 102.835 64.6879 102.628 64.5356 102.476C64.3833 102.324 64.1767 102.238 63.9612 102.238ZM66.8939 101.76C66.7075 101.76 66.5287 101.834 66.3969 101.966C66.2651 102.097 66.191 102.276 66.191 102.463C66.191 102.649 66.2651 102.828 66.3969 102.96C66.5287 103.092 66.7075 103.166 66.8939 103.166C67.0803 103.166 67.259 103.092 67.3908 102.96C67.5226 102.828 67.5966 102.649 67.5966 102.463C67.5966 102.277 67.5226 102.098 67.3908 101.966C67.259 101.834 67.0803 101.76 66.8939 101.76V101.76ZM69.3906 100.833C69.2304 100.833 69.0767 100.897 68.9634 101.01C68.85 101.123 68.7864 101.277 68.7864 101.437C68.7864 101.597 68.85 101.751 68.9634 101.864C69.0767 101.978 69.2304 102.041 69.3906 102.041C69.5508 102.041 69.7044 101.978 69.8177 101.864C69.931 101.751 69.9946 101.598 69.9946 101.437C69.9946 101.277 69.931 101.124 69.8177 101.01C69.7044 100.897 69.5508 100.833 69.3906 100.833ZM71.5958 99.1934C71.5016 99.1909 71.4079 99.2072 71.3202 99.2415C71.2325 99.2758 71.1526 99.3274 71.0851 99.3931C71.0176 99.4588 70.964 99.5373 70.9274 99.6241C70.8907 99.7109 70.8719 99.8041 70.8719 99.8983C70.8719 99.9924 70.8907 100.086 70.9274 100.172C70.964 100.259 71.0176 100.338 71.0851 100.403C71.1526 100.469 71.2325 100.521 71.3202 100.555C71.4079 100.589 71.5016 100.606 71.5958 100.603C71.7828 100.603 71.9622 100.529 72.0944 100.397C72.2266 100.264 72.3009 100.085 72.3009 99.898C72.3009 99.711 72.2266 99.5316 72.0944 99.3994C71.9622 99.2671 71.7828 99.1934 71.5958 99.1934ZM73.6833 96.9458C73.467 96.9458 73.2595 97.0318 73.1065 97.1848C72.9535 97.3378 72.8675 97.5453 72.8675 97.7616C72.8675 97.978 72.9535 98.1855 73.1065 98.3385C73.2595 98.4915 73.467 98.5774 73.6833 98.5774C73.8961 98.5721 74.0984 98.4839 74.2471 98.3315C74.3957 98.1792 74.4789 97.9747 74.4789 97.7619C74.4789 97.549 74.3957 97.3446 74.2471 97.1922C74.0984 97.0398 73.8961 96.9511 73.6833 96.9458ZM75.4235 93.9209C75.1672 93.9209 74.9213 94.0228 74.7401 94.204C74.5588 94.3853 74.457 94.6311 74.457 94.8875C74.457 95.1438 74.5588 95.3896 74.7401 95.5709C74.9213 95.7522 75.1672 95.854 75.4235 95.854C75.6798 95.854 75.9256 95.7522 76.1068 95.571C76.288 95.3898 76.3898 95.144 76.3898 94.8877C76.3898 94.6314 76.288 94.3857 76.1068 94.2044C75.9256 94.0232 75.6798 93.9209 75.4235 93.9209ZM76.4351 90.3174C76.3011 90.3174 76.1684 90.3438 76.0446 90.3951C75.9208 90.4464 75.8082 90.5216 75.7135 90.6164C75.6187 90.7111 75.5435 90.8236 75.4922 90.9475C75.4409 91.0713 75.4145 91.204 75.4145 91.338C75.4145 91.4721 75.4409 91.6048 75.4922 91.7286C75.5435 91.8524 75.6187 91.9649 75.7135 92.0597C75.8082 92.1545 75.9208 92.2297 76.0446 92.2809C76.1684 92.3322 76.3011 92.3586 76.4351 92.3586C76.7058 92.3586 76.9654 92.2511 77.1568 92.0597C77.3482 91.8683 77.4557 91.6087 77.4557 91.338C77.4557 91.0674 77.3482 90.8078 77.1568 90.6164C76.9654 90.425 76.7058 90.3174 76.4351 90.3174ZM72.4395 89.1444C72.1826 89.1444 71.9362 89.2464 71.7546 89.428C71.573 89.6097 71.4709 89.856 71.4709 90.1129C71.4709 90.3697 71.573 90.6161 71.7546 90.7977C71.9362 90.9794 72.1826 91.0814 72.4395 91.0814C72.6963 91.0814 72.9425 90.9794 73.1241 90.7978C73.3057 90.6162 73.4077 90.3699 73.4077 90.1131C73.4077 89.8563 73.3057 89.61 73.1241 89.4284C72.9425 89.2469 72.6963 89.1444 72.4395 89.1444ZM68.691 88.2827C68.5455 88.2827 68.406 88.3405 68.3032 88.4434C68.2003 88.5462 68.1425 88.6857 68.1425 88.8311C68.1425 88.9766 68.2003 89.1161 68.3032 89.2189C68.406 89.3218 68.5455 89.3796 68.691 89.3796C68.8364 89.3796 68.9759 89.3218 69.0788 89.2189C69.1816 89.1161 69.2394 88.9766 69.2394 88.8311C69.2394 88.6857 69.1816 88.5462 69.0788 88.4434C68.9759 88.3405 68.8364 88.2827 68.691 88.2827ZM67.6544 85.6754C67.4544 85.6754 67.2627 85.7549 67.1213 85.8963C66.9799 86.0377 66.9004 86.2294 66.9004 86.4294C66.9004 86.6294 66.9799 86.8212 67.1213 86.9626C67.2627 87.104 67.4544 87.1834 67.6544 87.1834C67.8544 87.1834 68.0463 87.1039 68.1877 86.9625C68.3292 86.821 68.4086 86.6292 68.4086 86.4292C68.4086 86.2291 68.3292 86.0373 68.1877 85.8958C68.0463 85.7544 67.8544 85.6754 67.6544 85.6754ZM65.1926 83.4847C65.0548 83.4804 64.9175 83.5039 64.7889 83.5537C64.6603 83.6034 64.543 83.6786 64.444 83.7745C64.345 83.8705 64.2662 83.9854 64.2125 84.1124C64.1587 84.2394 64.131 84.3759 64.131 84.5138C64.131 84.6517 64.1587 84.7882 64.2125 84.9152C64.2662 85.0422 64.345 85.1571 64.444 85.253C64.543 85.349 64.6603 85.4241 64.7889 85.4739C64.9175 85.5237 65.0548 85.5471 65.1926 85.5429C65.46 85.5345 65.7136 85.4225 65.8998 85.2304C66.086 85.0383 66.1902 84.7813 66.1902 84.5138C66.1902 84.2463 66.086 83.9893 65.8998 83.7972C65.7136 83.6051 65.46 83.493 65.1926 83.4847ZM61.8518 83.115C61.5438 83.115 61.2485 83.2373 61.0307 83.455C60.813 83.6728 60.6906 83.9681 60.6906 84.2761C60.6906 84.584 60.813 84.8794 61.0307 85.0971C61.2485 85.3149 61.5438 85.4372 61.8518 85.4372C62.1597 85.4372 62.455 85.3149 62.6728 85.0971C62.8906 84.8794 63.0129 84.584 63.0129 84.2761C63.0129 83.9681 62.8906 83.6728 62.6728 83.455C62.455 83.2373 62.1597 83.115 61.8518 83.115ZM59.0222 84.7276C58.7293 84.7276 58.4484 84.8439 58.2413 85.051C58.0342 85.2581 57.9179 85.539 57.9179 85.8319C57.9179 86.1248 58.0342 86.4057 58.2413 86.6128C58.4484 86.8199 58.7293 86.9362 59.0222 86.9362C59.3151 86.9362 59.596 86.8199 59.8031 86.6128C60.0102 86.4057 60.1265 86.1248 60.1265 85.8319C60.1265 85.539 60.0102 85.2581 59.8031 85.051C59.596 84.8439 59.3151 84.7276 59.0222 84.7276ZM57.572 87.7625C57.3748 87.7625 57.1857 87.8408 57.0463 87.9802C56.9068 88.1197 56.8285 88.3088 56.8285 88.506C56.8285 88.7032 56.9068 88.8923 57.0463 89.0317C57.1857 89.1712 57.3748 89.2495 57.572 89.2495C57.7693 89.2495 57.9585 89.1711 58.0979 89.0317C58.2374 88.8922 58.3158 88.703 58.3158 88.5057C58.3158 88.3085 58.2374 88.1193 58.0979 87.9798C57.9585 87.8403 57.7693 87.7625 57.572 87.7625ZM57.6298 90.596C57.4846 90.596 57.3454 90.6537 57.2427 90.7563C57.1401 90.859 57.0824 90.9983 57.0824 91.1434C57.0824 91.2886 57.1401 91.4279 57.2427 91.5305C57.3454 91.6332 57.4846 91.6909 57.6298 91.6909C57.775 91.6909 57.9143 91.6332 58.0169 91.5305C58.1196 91.4279 58.1773 91.2886 58.1773 91.1434C58.1773 90.9983 58.1196 90.859 58.0169 90.7563C57.9143 90.6537 57.775 90.596 57.6298 90.596ZM58.6121 92.7713C58.412 92.7713 58.22 92.8508 58.0786 92.9922C57.9371 93.1337 57.8576 93.3256 57.8576 93.5257C57.8576 93.7258 57.9371 93.9178 58.0786 94.0592C58.22 94.2007 58.412 94.2802 58.6121 94.2802C58.8122 94.2802 59.0041 94.2007 59.1456 94.0592C59.2871 93.9178 59.3665 93.7258 59.3665 93.5257C59.3665 93.3256 59.2871 93.1337 59.1456 92.9922C59.0041 92.8508 58.8122 92.7713 58.6121 92.7713ZM61.0888 94.4502C60.816 94.4502 60.5544 94.5585 60.3615 94.7514C60.1686 94.9443 60.0602 95.2059 60.0602 95.4787C60.0602 95.7515 60.1686 96.0132 60.3615 96.206C60.5544 96.3989 60.816 96.5073 61.0888 96.5073C61.3616 96.5073 61.6232 96.3989 61.8161 96.206C62.009 96.0132 62.1174 95.7515 62.1174 95.4787C62.1174 95.2059 62.009 94.9443 61.8161 94.7514C61.6232 94.5585 61.3616 94.4502 61.0888 94.4502ZM64.4202 94.5354C64.1127 94.5354 63.8178 94.6575 63.6004 94.875C63.383 95.0924 63.2608 95.3873 63.2608 95.6948C63.2608 96.0023 63.383 96.2971 63.6004 96.5146C63.8178 96.732 64.1127 96.8542 64.4202 96.8542C64.7277 96.8542 65.0226 96.732 65.24 96.5146C65.4574 96.2971 65.5796 96.0023 65.5796 95.6948C65.5796 95.3873 65.4574 95.0924 65.24 94.875C65.0226 94.6575 64.7277 94.5354 64.4202 94.5354ZM67.2667 93.0289C66.973 93.0289 66.6914 93.1456 66.4837 93.3532C66.2761 93.5609 66.1594 93.8425 66.1594 94.1362C66.1594 94.4299 66.2761 94.7115 66.4837 94.9192C66.6914 95.1269 66.973 95.2435 67.2667 95.2435C67.5604 95.2435 67.842 95.1269 68.0497 94.9192C68.2574 94.7115 68.374 94.4299 68.374 94.1362C68.374 93.8425 68.2574 93.5609 68.0497 93.3532C67.842 93.1456 67.5604 93.0289 67.2667 93.0289ZM68.7119 90.7286C68.6141 90.7286 68.5173 90.7478 68.427 90.7852C68.3366 90.8227 68.2546 90.8775 68.1854 90.9466C68.1163 91.0158 68.0615 91.0978 68.024 91.1882C67.9866 91.2785 67.9674 91.3753 67.9674 91.4731C67.9674 91.5709 67.9866 91.6677 68.024 91.758C68.0615 91.8483 68.1163 91.9304 68.1854 91.9995C68.2546 92.0687 68.3366 92.1235 68.427 92.1609C68.5173 92.1983 68.6141 92.2176 68.7119 92.2176C68.9093 92.2176 69.0987 92.1392 69.2383 91.9995C69.378 91.8599 69.4564 91.6705 69.4564 91.4731C69.4564 91.2756 69.378 91.0863 69.2383 90.9466C69.0987 90.807 68.9093 90.7286 68.7119 90.7286ZM71.9531 85.2608C71.6229 85.2608 71.3063 85.392 71.0728 85.6254C70.8394 85.8589 70.7082 86.1755 70.7082 86.5056C70.7082 86.8358 70.8394 87.1524 71.0728 87.3859C71.3063 87.6193 71.6229 87.7505 71.9531 87.7505C72.2832 87.7505 72.5999 87.6193 72.8333 87.3859C73.0668 87.1524 73.1979 86.8358 73.1979 86.5056C73.1979 86.1755 73.0668 85.8589 72.8333 85.6254C72.5999 85.392 72.2832 85.2608 71.9531 85.2608ZM69.8441 81.7659C69.4495 81.7659 69.071 81.9227 68.7919 82.2018C68.5128 82.4808 68.3561 82.8593 68.3561 83.254C68.3561 83.6486 68.5128 84.0271 68.7919 84.3062C69.071 84.5853 69.4495 84.742 69.8441 84.742C70.2388 84.742 70.6173 84.5853 70.8963 84.3062C71.1754 84.0271 71.3322 83.6486 71.3322 83.254C71.3322 82.8593 71.1754 82.4808 70.8963 82.2018C70.6173 81.9227 70.2388 81.7659 69.8441 81.7659ZM66.6622 79.8105C66.3085 79.8105 65.9692 79.951 65.7191 80.2011C65.4689 80.4513 65.3284 80.7905 65.3284 81.1443C65.3284 81.498 65.4689 81.8373 65.7191 82.0874C65.9692 82.3375 66.3085 82.4781 66.6622 82.4781C67.016 82.4781 67.3552 82.3375 67.6054 82.0874C67.8555 81.8373 67.996 81.498 67.996 81.1443C67.996 80.7905 67.8555 80.4513 67.6054 80.2011C67.3552 79.951 67.016 79.8105 66.6622 79.8105ZM63.13 79.4218C62.8194 79.4218 62.5215 79.5451 62.3019 79.7648C62.0823 79.9844 61.9589 80.2823 61.9589 80.5929C61.9589 80.9035 62.0823 81.2013 62.3019 81.4209C62.5215 81.6406 62.8194 81.764 63.13 81.764C63.4406 81.764 63.7385 81.6406 63.9581 81.4209C64.1777 81.2013 64.3011 80.9035 64.3011 80.5929C64.3011 80.2823 64.1777 79.9844 63.9581 79.7648C63.7385 79.5451 63.4406 79.4218 63.13 79.4218ZM59.5993 80.553C59.3669 80.553 59.1441 80.6453 58.9798 80.8096C58.8155 80.9739 58.7232 81.1967 58.7232 81.4291C58.7232 81.6614 58.8155 81.8843 58.9798 82.0486C59.1441 82.2128 59.3669 82.3051 59.5993 82.3051C59.8317 82.3051 60.0546 82.2128 60.2189 82.0485C60.3833 81.8841 60.4756 81.6612 60.4756 81.4288C60.4756 81.1964 60.3833 80.9735 60.2189 80.8092C60.0546 80.6448 59.8317 80.553 59.5993 80.553ZM56.6172 82.6261C56.509 82.6223 56.4011 82.6403 56.3 82.6791C56.199 82.7179 56.1067 82.7766 56.0288 82.8518C55.9509 82.927 55.889 83.0171 55.8467 83.1168C55.8044 83.2165 55.7825 83.3236 55.7825 83.4319C55.7825 83.5402 55.8044 83.6473 55.8467 83.747C55.889 83.8467 55.9509 83.9368 56.0288 84.012C56.1067 84.0872 56.199 84.1459 56.3 84.1847C56.4011 84.2235 56.509 84.2415 56.6172 84.2377C56.8275 84.2325 57.0275 84.1453 57.1744 83.9947C57.3213 83.8441 57.4035 83.642 57.4035 83.4316C57.4035 83.2213 57.3213 83.0192 57.1744 82.8686C57.0275 82.718 56.8275 82.6313 56.6172 82.6261ZM54.6014 85.5862C54.3868 85.5862 54.1809 85.6715 54.0292 85.8233C53.8774 85.975 53.7921 86.1809 53.7921 86.3955C53.7921 86.6102 53.8774 86.816 54.0292 86.9678C54.1809 87.1196 54.3868 87.2048 54.6014 87.2048C54.8161 87.2048 55.022 87.1195 55.1739 86.9677C55.3257 86.8159 55.411 86.61 55.411 86.3953C55.411 86.1806 55.3257 85.9746 55.1739 85.8228C55.022 85.671 54.8161 85.5857 54.6014 85.5857V85.5862ZM53.7523 88.8269C53.4963 88.8269 53.2509 88.9286 53.0699 89.1096C52.8889 89.2905 52.7872 89.536 52.7872 89.7919C52.7872 90.0479 52.8889 90.2933 53.0699 90.4743C53.2509 90.6553 53.4963 90.757 53.7523 90.757C54.0082 90.757 54.2537 90.6553 54.4346 90.4743C54.6156 90.2933 54.7173 90.0479 54.7173 89.7919C54.7173 89.536 54.6156 89.2905 54.4346 89.1096C54.2537 88.9286 54.0082 88.8269 53.7523 88.8269ZM54.2461 92.1434C53.9156 92.1434 53.5985 92.2747 53.3648 92.5084C53.1311 92.7421 52.9998 93.0591 52.9998 93.3897C52.9998 93.7203 53.1311 94.0373 53.3648 94.271C53.5985 94.5047 53.9156 94.636 54.2461 94.636C54.5767 94.636 54.8937 94.5047 55.1274 94.271C55.3611 94.0373 55.4925 93.7203 55.4925 93.3897C55.4925 93.0591 55.3611 92.7421 55.1274 92.5084C54.8937 92.2747 54.5767 92.1434 54.2461 92.1434ZM56.3536 95.1608C56.1586 95.1608 55.9655 95.1992 55.7853 95.2738C55.6051 95.3485 55.4414 95.4579 55.3035 95.5958C55.1656 95.7337 55.0562 95.8974 54.9816 96.0775C54.9069 96.2577 54.8685 96.4508 54.8685 96.6458C54.8685 96.8409 54.9069 97.034 54.9816 97.2141C55.0562 97.3943 55.1656 97.558 55.3035 97.6959C55.4414 97.8338 55.6051 97.9432 55.7853 98.0179C55.9655 98.0925 56.1586 98.1309 56.3536 98.1309C56.7474 98.1309 57.1252 97.9744 57.4037 97.6959C57.6822 97.4174 57.8386 97.0397 57.8386 96.6458C57.8386 96.252 57.6822 95.8743 57.4037 95.5958C57.1252 95.3173 56.7474 95.1608 56.3536 95.1608ZM59.5509 97.4143C59.1959 97.4143 58.8555 97.5553 58.6044 97.8063C58.3534 98.0574 58.2124 98.3978 58.2124 98.7528C58.2124 99.1078 58.3534 99.4483 58.6044 99.6993C58.8555 99.9503 59.1959 100.091 59.5509 100.091C59.9059 100.091 60.2464 99.9503 60.4974 99.6993C60.7484 99.4483 60.8895 99.1078 60.8895 98.7528C60.8895 98.3978 60.7484 98.0574 60.4974 97.8063C60.2464 97.5553 59.9059 97.4143 59.5509 97.4143ZM63.0722 98.1194C62.7594 98.1194 62.4594 98.2437 62.2383 98.4648C62.0171 98.686 61.8929 98.986 61.8929 99.2988C61.8929 99.6115 62.0171 99.9115 62.2383 100.133C62.4594 100.354 62.7594 100.478 63.0722 100.478C63.385 100.478 63.6849 100.354 63.9061 100.133C64.1273 99.9115 64.2515 99.6115 64.2515 99.2988C64.2515 98.986 64.1273 98.686 63.9061 98.4648C63.6849 98.2437 63.385 98.1194 63.0722 98.1194ZM66.6054 97.5962C66.4904 97.5962 66.3764 97.6188 66.2701 97.6629C66.1639 97.7069 66.0673 97.7714 65.9859 97.8528C65.9046 97.9341 65.84 98.0307 65.796 98.137C65.752 98.2433 65.7293 98.3572 65.7293 98.4723C65.7293 98.5873 65.752 98.7012 65.796 98.8075C65.84 98.9138 65.9046 99.0104 65.9859 99.0917C66.0673 99.1731 66.1639 99.2376 66.2701 99.2817C66.3764 99.3257 66.4904 99.3483 66.6054 99.3483C66.8378 99.3483 67.0606 99.256 67.2249 99.0917C67.3892 98.9274 67.4815 98.7046 67.4815 98.4723C67.4815 98.2399 67.3892 98.0171 67.2249 97.8528C67.0606 97.6885 66.8378 97.5962 66.6054 97.5962ZM69.5915 95.6766C69.4831 95.6728 69.3751 95.6908 69.2739 95.7297C69.1727 95.7685 69.0803 95.8273 69.0024 95.9026C68.9244 95.9779 68.8623 96.0681 68.82 96.1679C68.7776 96.2677 68.7558 96.375 68.7558 96.4834C68.7558 96.5918 68.7776 96.6991 68.82 96.7989C68.8623 96.8987 68.9244 96.9889 69.0024 97.0642C69.0803 97.1395 69.1727 97.1983 69.2739 97.2371C69.3751 97.276 69.4831 97.294 69.5915 97.2902C69.8005 97.2828 69.9986 97.1946 70.1439 97.0441C70.2892 96.8936 70.3704 96.6926 70.3704 96.4834C70.3704 96.2742 70.2892 96.0732 70.1439 95.9227C69.9986 95.7721 69.8005 95.6839 69.5915 95.6766ZM71.6057 92.6865C71.4981 92.6839 71.3909 92.7028 71.2907 92.7421C71.1904 92.7815 71.0991 92.8405 71.022 92.9157C70.9449 92.9909 70.8836 93.0808 70.8418 93.18C70.7999 93.2793 70.7784 93.3859 70.7784 93.4936C70.7784 93.6013 70.7999 93.7079 70.8418 93.8072C70.8836 93.9064 70.9449 93.9963 71.022 94.0715C71.0991 94.1467 71.1904 94.2057 71.2907 94.2451C71.3909 94.2844 71.4981 94.3033 71.6057 94.3007C71.8148 94.2933 72.0129 94.2051 72.1582 94.0546C72.3035 93.9041 72.3847 93.7031 72.3847 93.4939C72.3847 93.2847 72.3035 93.0836 72.1582 92.9331C72.0129 92.7826 71.8148 92.6939 71.6057 92.6865ZM79.8433 82.5937C79.605 82.5897 79.3683 82.6332 79.147 82.7217C78.9258 82.8101 78.7243 82.9417 78.5544 83.1088C78.3845 83.2759 78.2495 83.4752 78.1574 83.6949C78.0653 83.9147 78.0179 84.1506 78.0179 84.389C78.0179 84.6273 78.0653 84.8632 78.1574 85.083C78.2495 85.3028 78.3845 85.502 78.5544 85.6691C78.7243 85.8362 78.9258 85.9678 79.147 86.0562C79.3683 86.1447 79.605 86.1882 79.8433 86.1842C80.3142 86.1764 80.7632 85.9838 81.0935 85.648C81.4238 85.3121 81.6089 84.86 81.6089 84.389C81.6089 83.9179 81.4238 83.4658 81.0935 83.13C80.7632 82.7941 80.3142 82.6015 79.8433 82.5937ZM77.5604 78.4669C77.3597 78.4669 77.161 78.5065 76.9756 78.5833C76.7902 78.6601 76.6217 78.7726 76.4798 78.9145C76.3379 79.0564 76.2254 79.2249 76.1486 79.4103C76.0718 79.5957 76.0322 79.7944 76.0322 79.9951C76.0322 80.1958 76.0718 80.3945 76.1486 80.5799C76.2254 80.7653 76.3379 80.9338 76.4798 81.0757C76.6217 81.2176 76.7902 81.3301 76.9756 81.4069C77.161 81.4837 77.3597 81.5233 77.5604 81.5233C77.9657 81.5233 78.3544 81.3623 78.641 81.0757C78.9275 80.7891 79.0886 80.4004 79.0886 79.9951C79.0886 79.5898 78.9275 79.2011 78.641 78.9145C78.3544 78.6279 77.9657 78.4669 77.5604 78.4669ZM74.1717 75.2292C73.8225 75.2292 73.4876 75.3679 73.2407 75.6149C72.9938 75.8618 72.8551 76.1967 72.8551 76.5458C72.8551 76.895 72.9938 77.2299 73.2407 77.4768C73.4876 77.7237 73.8225 77.8625 74.1717 77.8625C74.5209 77.8625 74.8558 77.7237 75.1027 77.4768C75.3496 77.2299 75.4883 76.895 75.4883 76.5458C75.4883 76.1967 75.3496 75.8618 75.1027 75.6149C74.8558 75.3679 74.5209 75.2292 74.1717 75.2292ZM70.3714 73.2698C70.2294 73.2667 70.0883 73.292 69.9562 73.3442C69.8242 73.3964 69.7039 73.4745 69.6024 73.5738C69.5009 73.6731 69.4203 73.7916 69.3653 73.9225C69.3102 74.0534 69.2819 74.194 69.2819 74.336C69.2819 74.478 69.3102 74.6185 69.3653 74.7494C69.4203 74.8803 69.5009 74.9989 69.6024 75.0982C69.7039 75.1975 69.8242 75.2755 69.9562 75.3277C70.0883 75.3799 70.2294 75.4052 70.3714 75.4022C70.6542 75.4022 70.9254 75.2898 71.1254 75.0898C71.3254 74.8898 71.4378 74.6186 71.4378 74.3357C71.4378 74.0529 71.3254 73.7816 71.1254 73.5816C70.9254 73.3816 70.6542 73.2693 70.3714 73.2693V73.2698ZM66.6343 72.2661C66.3908 72.2661 66.1572 72.3629 65.9851 72.535C65.8129 72.7072 65.7161 72.9408 65.7161 73.1843C65.7161 73.4278 65.8129 73.6614 65.9851 73.8336C66.1572 74.0058 66.3908 74.1025 66.6343 74.1025C66.8778 74.1025 67.1114 74.0058 67.2836 73.8336C67.4558 73.6614 67.5525 73.4278 67.5525 73.1843C67.5525 72.9408 67.4558 72.7072 67.2836 72.535C67.1114 72.3629 66.8778 72.2661 66.6343 72.2661ZM63.12 72C63.0163 72 62.9136 72.0204 62.8178 72.0601C62.7219 72.0998 62.6349 72.158 62.5615 72.2313C62.4882 72.3047 62.43 72.3918 62.3903 72.4876C62.3506 72.5834 62.3302 72.6861 62.3302 72.7899C62.3302 72.8936 62.3506 72.9963 62.3903 73.0921C62.43 73.188 62.4882 73.275 62.5615 73.3484C62.6349 73.4217 62.7219 73.4799 62.8178 73.5196C62.9136 73.5593 63.0163 73.5797 63.12 73.5797C63.3295 73.5797 63.5304 73.4965 63.6785 73.3484C63.8267 73.2003 63.9099 72.9994 63.9099 72.7899C63.9099 72.5804 63.8267 72.3795 63.6785 72.2313C63.5304 72.0832 63.3295 72 63.12 72ZM59.6167 72.2621C59.3726 72.2621 59.1385 72.3591 58.9659 72.5317C58.7932 72.7043 58.6963 72.9384 58.6963 73.1826C58.6963 73.4267 58.7932 73.6608 58.9659 73.8334C59.1385 74.006 59.3726 74.103 59.6167 74.103C59.857 74.0974 60.0857 73.998 60.2537 73.826C60.4217 73.6541 60.5157 73.4232 60.5157 73.1828C60.5157 72.9424 60.4217 72.7115 60.2537 72.5396C60.0857 72.3676 59.857 72.2677 59.6167 72.2621ZM55.8792 73.2698C55.7391 73.2698 55.6003 73.2974 55.4709 73.351C55.3414 73.4046 55.2238 73.4832 55.1247 73.5823C55.0256 73.6813 54.9471 73.799 54.8934 73.9284C54.8398 74.0579 54.8122 74.1966 54.8122 74.3367C54.8122 74.4768 54.8398 74.6156 54.8934 74.745C54.9471 74.8745 55.0256 74.9921 55.1247 75.0912C55.2238 75.1902 55.3414 75.2688 55.4709 75.3224C55.6003 75.3761 55.7391 75.4037 55.8792 75.4037C56.1621 75.4037 56.4335 75.2912 56.6336 75.0912C56.8337 74.8911 56.9461 74.6197 56.9461 74.3367C56.9461 74.0537 56.8337 73.7824 56.6336 73.5823C56.4335 73.3822 56.1621 73.2698 55.8792 73.2698ZM52.0753 75.2252C51.7259 75.2252 51.3908 75.3641 51.1437 75.6112C50.8966 75.8583 50.7577 76.1934 50.7577 76.5429C50.7577 76.8923 50.8966 77.2274 51.1437 77.4745C51.3908 77.7216 51.7259 77.8605 52.0753 77.8605C52.4248 77.8605 52.7599 77.7216 53.007 77.4745C53.2541 77.2274 53.393 76.8923 53.393 76.5429C53.393 76.1934 53.2541 75.8583 53.007 75.6112C52.7599 75.3641 52.4248 75.2252 52.0753 75.2252ZM48.6861 78.4669C48.4833 78.4633 48.2818 78.5001 48.0934 78.5751C47.905 78.6502 47.7334 78.7621 47.5887 78.9042C47.4439 79.0463 47.329 79.2159 47.2505 79.4029C47.1721 79.59 47.1316 79.7908 47.1316 79.9936C47.1316 80.1964 47.1721 80.3972 47.2505 80.5843C47.329 80.7713 47.4439 80.9409 47.5887 81.083C47.7334 81.2251 47.905 81.337 48.0934 81.4121C48.2818 81.4871 48.4833 81.5239 48.6861 81.5203C49.0863 81.513 49.4675 81.349 49.748 81.0635C50.0284 80.778 50.1855 80.3938 50.1855 79.9936C50.1855 79.5934 50.0284 79.2092 49.748 78.9237C49.4675 78.6382 49.0863 78.4742 48.6861 78.4669ZM46.4057 82.5997C46.1675 82.5957 45.9308 82.6392 45.7095 82.7276C45.4882 82.8161 45.2867 82.9477 45.1168 83.1148C44.9469 83.2819 44.812 83.4811 44.7199 83.7009C44.6278 83.9207 44.5803 84.1566 44.5803 84.3949C44.5803 84.6332 44.6278 84.8692 44.7199 85.0889C44.812 85.3087 44.9469 85.508 45.1168 85.6751C45.2867 85.8422 45.4882 85.9738 45.7095 86.0622C45.9308 86.1507 46.1675 86.1942 46.4057 86.1902C46.8767 86.1824 47.3257 85.9898 47.656 85.6539C47.9863 85.3181 48.1713 84.866 48.1713 84.3949C48.1713 83.9239 47.9863 83.4718 47.656 83.1359C47.3257 82.8001 46.8767 82.6075 46.4057 82.5997ZM45.582 87.8646C45.0307 87.8646 44.502 88.0836 44.1122 88.4734C43.7224 88.8632 43.5034 89.3919 43.5034 89.9432C43.5034 90.4945 43.7224 91.0232 44.1122 91.413C44.502 91.8028 45.0307 92.0218 45.582 92.0218C46.1333 92.0218 46.662 91.8028 47.0518 91.413C47.4416 91.0232 47.6606 90.4945 47.6606 89.9432C47.6606 89.3919 47.4416 88.8632 47.0518 88.4734C46.662 88.0836 46.1333 87.8646 45.582 87.8646ZM46.4067 93.6932C46.1673 93.6875 45.9291 93.7298 45.7062 93.8176C45.4833 93.9053 45.2802 94.0368 45.1088 94.2041C44.9374 94.3715 44.8013 94.5715 44.7083 94.7923C44.6153 95.013 44.5674 95.2502 44.5674 95.4897C44.5674 95.7292 44.6153 95.9664 44.7083 96.1871C44.8013 96.4079 44.9374 96.6079 45.1088 96.7753C45.2802 96.9426 45.4833 97.0741 45.7062 97.1618C45.9291 97.2496 46.1673 97.2919 46.4067 97.2862C46.8759 97.2752 47.3221 97.081 47.65 96.7453C47.9779 96.4096 48.1614 95.959 48.1614 95.4897C48.1614 95.0204 47.9779 94.5698 47.65 94.2341C47.3221 93.8984 46.8759 93.7042 46.4067 93.6932ZM48.6881 98.3646C48.2834 98.3646 47.8952 98.5254 47.609 98.8116C47.3228 99.0978 47.162 99.486 47.162 99.8908C47.162 100.296 47.3228 100.684 47.609 100.97C47.8952 101.256 48.2834 101.417 48.6881 101.417C49.0929 101.417 49.4811 101.256 49.7673 100.97C50.0535 100.684 50.2143 100.296 50.2143 99.8908C50.2143 99.486 50.0535 99.0978 49.7673 98.8116C49.4811 98.5254 49.0929 98.3646 48.6881 98.3646ZM52.0729 102.022C51.7234 102.022 51.3883 102.161 51.1412 102.408C50.8941 102.655 50.7552 102.991 50.7552 103.34C50.7552 103.689 50.8941 104.025 51.1412 104.272C51.3883 104.519 51.7234 104.658 52.0729 104.658C52.4223 104.658 52.7574 104.519 53.0045 104.272C53.2516 104.025 53.3905 103.689 53.3905 103.34C53.3905 102.991 53.2516 102.655 53.0045 102.408C52.7574 102.161 52.4223 102.022 52.0729 102.022ZM55.8792 104.478C55.5961 104.478 55.3246 104.59 55.1244 104.79C54.9242 104.991 54.8117 105.262 54.8117 105.545C54.8117 105.828 54.9242 106.1 55.1244 106.3C55.3246 106.5 55.5961 106.613 55.8792 106.613C56.1623 106.613 56.4338 106.5 56.634 106.3C56.8341 106.1 56.9466 105.828 56.9466 105.545C56.9466 105.262 56.8341 104.991 56.634 104.79C56.4338 104.59 56.1623 104.478 55.8792 104.478ZM59.6192 105.781C59.3753 105.781 59.1415 105.878 58.9691 106.051C58.7966 106.223 58.6998 106.457 58.6998 106.701C58.6998 106.945 58.7966 107.179 58.9691 107.351C59.1415 107.523 59.3753 107.62 59.6192 107.62C59.863 107.62 60.0969 107.523 60.2693 107.351C60.4418 107.179 60.5386 106.945 60.5386 106.701C60.5386 106.457 60.4418 106.223 60.2693 106.051C60.0969 105.878 59.863 105.781 59.6192 105.781ZM63.128 106.298C62.9181 106.298 62.7168 106.381 62.5684 106.529C62.42 106.678 62.3366 106.879 62.3366 107.089C62.3366 107.299 62.42 107.5 62.5684 107.649C62.7168 107.797 62.9181 107.88 63.128 107.88C63.3379 107.88 63.5392 107.797 63.6876 107.649C63.836 107.5 63.9194 107.299 63.9194 107.089C63.9194 106.879 63.836 106.678 63.6876 106.529C63.5392 106.381 63.3379 106.298 63.128 106.298ZM66.6313 105.78C66.3875 105.78 66.1536 105.877 65.9812 106.05C65.8088 106.222 65.7119 106.456 65.7119 106.7C65.7119 106.944 65.8088 107.178 65.9812 107.35C66.1536 107.522 66.3875 107.619 66.6313 107.619C66.8752 107.619 67.109 107.522 67.2815 107.35C67.4539 107.178 67.5508 106.944 67.5508 106.7C67.5508 106.456 67.4539 106.222 67.2815 106.05C67.109 105.877 66.8752 105.78 66.6313 105.78ZM70.3714 104.48C70.0874 104.48 69.8151 104.593 69.6143 104.793C69.4135 104.994 69.3007 105.266 69.3007 105.55C69.3007 105.834 69.4135 106.107 69.6143 106.307C69.8151 106.508 70.0874 106.621 70.3714 106.621C70.6553 106.621 70.9277 106.508 71.1284 106.307C71.3292 106.107 71.442 105.834 71.442 105.55C71.442 105.266 71.3292 104.994 71.1284 104.793C70.9277 104.593 70.6553 104.48 70.3714 104.48ZM74.1747 102.019C73.825 102.019 73.4896 102.158 73.2423 102.405C72.995 102.652 72.8561 102.988 72.8561 103.338C72.8561 103.687 72.995 104.023 73.2423 104.27C73.4896 104.517 73.825 104.656 74.1747 104.656C74.5244 104.656 74.8598 104.517 75.1071 104.27C75.3544 104.023 75.4933 103.687 75.4933 103.338C75.4933 102.988 75.3544 102.652 75.1071 102.405C74.8598 102.158 74.5244 102.019 74.1747 102.019ZM77.5634 98.3636C77.1591 98.3636 76.7713 98.5242 76.4855 98.8101C76.1996 99.096 76.039 99.4837 76.039 99.888C76.039 100.292 76.1996 100.68 76.4855 100.966C76.7713 101.252 77.1591 101.412 77.5634 101.412C77.9677 101.412 78.3554 101.252 78.6413 100.966C78.9272 100.68 79.0878 100.292 79.0878 99.888C79.0878 99.4837 78.9272 99.096 78.6413 98.8101C78.3554 98.5242 77.9677 98.3636 77.5634 98.3636ZM79.8448 93.6962C79.6061 93.6922 79.369 93.7358 79.1474 93.8244C78.9257 93.913 78.7239 94.0448 78.5537 94.2122C78.3836 94.3795 78.2484 94.5791 78.1561 94.7993C78.0639 95.0194 78.0163 95.2557 78.0163 95.4944C78.0163 95.7331 78.0639 95.9694 78.1561 96.1896C78.2484 96.4097 78.3836 96.6093 78.5537 96.7767C78.7239 96.9441 78.9257 97.0759 79.1474 97.1645C79.369 97.2531 79.6061 97.2967 79.8448 97.2927C80.3165 97.2848 80.7663 97.0919 81.0971 96.7555C81.4279 96.4192 81.6133 95.9662 81.6133 95.4944C81.6133 95.0226 81.4279 94.5697 81.0971 94.2333C80.7663 93.8969 80.3165 93.704 79.8448 93.6962Z" fill="#9799F8"></path>
    <path d="M103.989 97.0614C103.989 97.2045 103.906 97.3091 103.741 97.3091H101.207C100.98 97.3091 100.896 97.0988 100.794 96.894L97.805 91.8628H97.3455C96.8038 91.8628 95.1274 91.8035 94.6495 91.779V96.894C94.6495 97.1212 94.4821 97.3091 94.2543 97.3091H92.1788C92.0691 97.3082 91.9642 97.2641 91.8868 97.1864C91.8094 97.1087 91.7657 97.0037 91.7651 96.894V83.2958C91.7651 82.8807 92.0113 82.7352 92.4294 82.6739C93.5088 82.5089 95.8281 82.4063 97.345 82.4063C100.539 82.4063 103.49 83.548 103.49 87.0942V87.2825C103.49 89.4787 102.392 90.6812 100.691 91.342L103.947 96.894C103.979 96.9436 103.994 97.0024 103.989 97.0614ZM100.628 87.0947C100.628 85.5383 99.4206 84.8741 97.3455 84.8741C96.908 84.8741 95.0203 84.9159 94.6495 84.9578V89.4558C94.9789 89.4772 96.9892 89.5191 97.3455 89.5191C99.4804 89.5191 100.628 89.1074 100.628 87.2825V87.0942V87.0947ZM172.86 97.0614C172.86 97.2045 172.777 97.3091 172.612 97.3091H170.078C169.851 97.3091 169.767 97.0988 169.664 96.894L166.675 91.8628H166.216C165.674 91.8628 163.998 91.8035 163.52 91.779V96.894C163.52 97.1212 163.353 97.3091 163.125 97.3091H161.049C160.94 97.3082 160.835 97.2641 160.757 97.1864C160.68 97.1087 160.636 97.0037 160.636 96.894V83.2958C160.636 82.8807 160.882 82.7352 161.3 82.6739C162.38 82.5089 164.699 82.4063 166.216 82.4063C169.41 82.4063 172.36 83.548 172.36 87.0942V87.2825C172.36 89.4787 171.262 90.6812 169.562 91.342L172.817 96.894C172.849 96.9437 172.864 97.0025 172.86 97.0614ZM169.499 87.0947C169.499 85.5383 168.291 84.8741 166.216 84.8741C165.778 84.8741 163.891 84.9159 163.52 84.9578V89.4558C163.849 89.4772 165.86 89.5191 166.216 89.5191C168.351 89.5191 169.499 89.1074 169.499 87.2825V87.0942V87.0947ZM109.073 90.8835H115.715C115.824 90.8833 115.929 90.8399 116.007 90.7627C116.085 90.6856 116.129 90.5809 116.13 90.4714V88.9734C116.129 88.8638 116.085 88.759 116.007 88.6817C115.929 88.6044 115.824 88.5608 115.715 88.5603H109.073V86.6576C109.073 84.9224 109.14 84.8746 110.71 84.8746H115.962C116.073 84.8736 116.178 84.8294 116.256 84.7515C116.334 84.6735 116.378 84.5681 116.379 84.4579V83.1324C116.379 82.8408 116.274 82.7357 115.962 82.6958C115.299 82.5942 113.947 82.4068 111.48 82.4068C108.035 82.4068 106.208 82.3829 106.208 86.6576V93.2227C106.208 97.498 108.035 97.4741 111.48 97.4741C113.947 97.4741 115.299 97.2887 115.962 97.1835C116.274 97.1437 116.379 97.04 116.379 96.7475V95.4219C116.378 95.312 116.333 95.207 116.256 95.1296C116.178 95.0521 116.072 95.0085 115.962 95.0083H110.71C109.14 95.0083 109.073 94.9614 109.073 93.2227V90.8835ZM150.07 90.8835H156.711C156.82 90.8834 156.925 90.84 157.003 90.7629C157.081 90.6857 157.125 90.581 157.126 90.4714V88.9734C157.125 88.8637 157.081 88.7589 157.003 88.6815C156.925 88.6042 156.82 88.5607 156.711 88.5603H150.07V86.6576C150.07 84.9224 150.136 84.8746 151.706 84.8746H156.958C157.069 84.8738 157.174 84.8296 157.252 84.7517C157.33 84.6737 157.374 84.5682 157.375 84.4579V83.1324C157.375 82.8408 157.27 82.7357 156.959 82.6958C156.295 82.5942 154.943 82.4068 152.476 82.4068C149.031 82.4068 147.204 82.3829 147.204 86.6576V93.2227C147.204 97.498 149.031 97.4741 152.476 97.4741C154.943 97.4741 156.295 97.2887 156.959 97.1835C157.27 97.1437 157.375 97.04 157.375 96.7475V95.4219C157.374 95.312 157.33 95.207 157.252 95.1296C157.174 95.0521 157.069 95.0085 156.959 95.0083H151.706C150.136 95.0083 150.069 94.9614 150.069 93.2227V90.884L150.07 90.8835ZM131.465 91.6001V82.9654C131.465 82.7352 131.279 82.5712 131.048 82.5712H128.995C128.766 82.5712 128.581 82.7352 128.581 82.9649V91.6001C128.581 93.9667 127.489 95.0885 125.247 95.0885C123.01 95.0885 121.916 93.9667 121.916 91.6001V82.9654C121.916 82.7352 121.73 82.5712 121.5 82.5712H119.45C119.222 82.5712 119.033 82.7352 119.033 82.9649V91.6001C119.033 96.0219 121.909 97.4736 125.248 97.4736C128.589 97.4736 131.465 96.0219 131.465 91.6001ZM144.882 84.9762H140.744V96.894C140.743 97.0043 140.699 97.1098 140.62 97.1876C140.542 97.2653 140.436 97.309 140.326 97.3091H138.274C138.164 97.3086 138.059 97.2646 137.982 97.1868C137.904 97.1091 137.861 97.0038 137.86 96.894V84.9767H133.717C133.49 84.9767 133.301 84.8332 133.301 84.6054V82.9659C133.301 82.7357 133.49 82.5717 133.717 82.5717H144.882C145.11 82.5717 145.298 82.7362 145.298 82.9659V84.6054C145.298 84.8332 145.11 84.9767 144.882 84.9767V84.9762ZM185.54 93.139C185.54 91.1486 184.408 90.1191 182.655 89.4114C181.277 88.8573 180.066 88.3863 179.144 88.0236C178.226 87.6598 177.445 87.0304 177.445 86.3471C177.445 85.4153 178.6 84.8746 180.132 84.8746C181.939 84.8746 183.359 85.1267 184.73 85.2518H184.772C184.978 85.2518 185.122 85.0834 185.122 84.878V83.3422C185.122 83.1363 184.959 82.9903 184.75 82.95C184.047 82.781 182.237 82.4048 180.258 82.4048C176.401 82.4048 174.561 84.0643 174.561 86.3476C174.561 87.7983 175.2 89.2285 177.009 89.9751C178.82 90.7226 182.53 91.5837 182.53 93.1395C182.53 94.3425 181.97 95.0038 180.122 95.0038C178.204 95.0038 176.262 94.7322 175.431 94.628H175.39C175.285 94.6286 175.185 94.6704 175.112 94.7445C175.038 94.8185 174.997 94.9188 174.997 95.0232V96.5182C174.997 96.7465 175.184 96.8895 175.39 96.9309C176.388 97.1601 178.248 97.476 180.08 97.476C184.233 97.476 185.54 95.2335 185.54 93.139ZM187.054 85.4143C187.054 87.0438 188.256 88.4232 190.09 88.4232C191.924 88.4232 193.139 87.0433 193.139 85.4143C193.139 83.7717 191.923 82.4212 190.089 82.4212C188.256 82.4212 187.054 83.7717 187.054 85.4143ZM187.496 85.4143C187.496 83.9651 188.517 82.8079 190.09 82.8079C191.676 82.8079 192.696 83.9651 192.696 85.4143C192.696 86.8639 191.676 88.037 190.09 88.037C188.517 88.037 187.497 86.8639 187.497 85.4143H187.496ZM191.468 86.7548L190.81 85.6335C191.153 85.5005 191.376 85.2578 191.376 84.8143V84.7769C191.376 84.0603 190.78 83.83 190.134 83.83C189.829 83.83 189.36 83.851 189.143 83.8849C189.058 83.8963 189.008 83.9257 189.008 84.0094V86.7553C189.009 86.7774 189.018 86.7985 189.034 86.8141C189.049 86.8296 189.071 86.8384 189.093 86.8385H189.511C189.557 86.8385 189.59 86.8006 189.59 86.7553V85.7222C189.687 85.7272 190.026 85.7397 190.134 85.7397H190.227L190.832 86.7553C190.852 86.7961 190.869 86.8385 190.915 86.8385H191.426C191.459 86.8385 191.476 86.8171 191.476 86.7887C191.476 86.7792 191.476 86.7667 191.468 86.7548ZM190.798 84.8148C190.798 85.1825 190.566 85.2657 190.134 85.2657C190.064 85.2657 189.658 85.2573 189.59 85.2528V84.3453C189.771 84.335 189.953 84.3294 190.134 84.3284C190.554 84.3284 190.798 84.4624 190.798 84.7769V84.8148Z" fill="#9799F8"></path>
  </g>
  <g clip-path="url(#clip2_6876_61270)">
    <mask id="mask0_6876_61270" style="mask-type:luminance" maskUnits="userSpaceOnUse" x="225" y="72" width="33" height="38">
      <path d="M225.259 109.139H257.259V72.1014H225.259V109.139Z" fill="white"></path>
    </mask>
    <g mask="url(#mask0_6876_61270)">
      <path fill-rule="evenodd" clip-rule="evenodd" d="M225.259 105.277H257.259V72.1014H225.259V105.277Z" fill="white"></path>
    </g>
    <mask id="mask1_6876_61270" style="mask-type:luminance" maskUnits="userSpaceOnUse" x="225" y="72" width="33" height="38">
      <path d="M225.259 109.139H257.259V72.1014H225.259V109.139Z" fill="#FF322E"></path>
    </mask>
    <g mask="url(#mask1_6876_61270)">
      <path fill-rule="evenodd" clip-rule="evenodd" d="M225.259 105.277H257.259V109.145H225.26L225.259 105.277Z" fill="#9799F8"></path>
    </g>
    <path fill-rule="evenodd" clip-rule="evenodd" d="M232.625 80.8317L227.246 96.9664H231.14L234.794 85.5618L236.625 91.2635H234.256L233.31 94.5182H237.67L238.456 96.9664H242.462L237.084 80.8317H232.625ZM248.582 80.8317H242.991V96.9664H246.857V84.0865H248.416C250.224 84.0865 251.253 84.9487 251.253 86.5066C251.253 88.0366 250.224 88.9268 248.416 88.9268H248.165V92.1816H248.582C252.755 92.1816 255.203 90.0811 255.203 86.5066C255.203 82.8624 252.755 80.8317 248.582 80.8317Z" fill="#9799F8"></path>
  </g>
  <path d="M22.9922 149.547L35.1457 181.547H37.3837L25.2302 149.547H22.9922Z" fill="#9799F8"></path>
  <path d="M48.9255 165.55C49.6499 165.791 50.3137 166.038 50.9167 166.29C51.4812 166.52 52.0125 166.825 52.4964 167.196C52.9366 167.535 53.2963 167.968 53.5498 168.462C53.8146 169.012 53.9444 169.616 53.9286 170.226V170.258C53.9662 170.995 53.8362 171.73 53.5483 172.409C53.2604 173.088 52.8221 173.692 52.2665 174.177C51.1581 175.12 49.6055 175.592 47.6089 175.592C46.3519 175.591 45.1046 175.372 43.9224 174.945C42.7049 174.507 41.5617 173.886 40.5323 173.102L40.499 173.069L40.5323 173.036L42.7704 169.503L42.8037 169.535C43.4314 170.217 44.1934 170.76 45.0417 171.132C45.8832 171.496 46.7909 171.68 47.7075 171.675C49.0019 171.675 49.6493 171.259 49.6497 170.427C49.6487 170.233 49.5881 170.044 49.4762 169.886C49.3643 169.727 49.2065 169.607 49.0241 169.541C48.5442 169.32 48.0493 169.133 47.5429 168.982C47.4425 168.942 47.3374 168.915 47.2301 168.901C47.1227 168.888 47.0177 168.86 46.918 168.818C46.2597 168.644 45.6014 168.453 44.9431 168.244C44.3115 168.05 43.7124 167.762 43.1655 167.391C42.6384 167.028 42.1953 166.557 41.8659 166.008C41.5011 165.352 41.3246 164.608 41.3558 163.858V163.792C41.3468 163.069 41.4927 162.353 41.7836 161.691C42.065 161.061 42.4807 160.501 43.0016 160.049C43.561 159.571 44.2098 159.208 44.9105 158.983C45.7071 158.723 46.541 158.595 47.379 158.605C48.4607 158.609 49.5362 158.77 50.5718 159.082C51.6348 159.395 52.6445 159.867 53.5668 160.481V160.546L51.5593 164.199L51.5266 164.167C50.9901 163.642 50.3515 163.233 49.6504 162.965C48.8958 162.667 48.0915 162.517 47.2804 162.521C47.1045 162.522 46.9287 162.533 46.754 162.554C46.5641 162.574 46.3796 162.629 46.2107 162.718C46.0504 162.803 45.9101 162.92 45.7993 163.064C45.6787 163.243 45.6208 163.457 45.6347 163.673C45.6373 163.777 45.6619 163.879 45.707 163.973C45.752 164.066 45.8164 164.149 45.8959 164.216C46.099 164.399 46.3259 164.554 46.5705 164.677C46.87 164.831 47.1779 164.969 47.4927 165.089C47.8322 165.219 48.1668 165.34 48.4964 165.451C48.5688 165.452 48.6406 165.463 48.71 165.483C48.787 165.505 48.8582 165.528 48.9242 165.549" fill="#9799F8"></path>
  <path d="M55.5732 158.868H59.9488V175.326H55.5732V158.868ZM55.5732 152.286H59.9488V156.139H55.5732V152.286Z" fill="#9799F8"></path>
  <path d="M68.8705 161.699H73.709V165.351H70.8786L68.8705 161.699ZM73.709 152.285V156.138H70.1211C69.8638 156.126 69.6077 156.18 69.3773 156.296C69.1468 156.411 68.9496 156.583 68.8045 156.796C68.4692 157.338 68.3085 157.97 68.3441 158.606V175.324H63.9686V165.351H61.5967V161.699H63.9666V158.407C63.9626 157.593 64.1248 156.787 64.4434 156.037C65.0651 154.56 66.2407 153.384 67.7185 152.762C68.4786 152.442 69.2961 152.279 70.1211 152.285H73.709Z" fill="#9799F8"></path>
  <path d="M86.8086 160.583V164.237H84.3733L82.3325 160.583H86.8086ZM81.7728 169.697C81.7687 169.937 81.8149 170.176 81.9085 170.397C82.0021 170.618 82.141 170.817 82.3162 170.981C82.4865 171.151 82.6893 171.286 82.9125 171.376C83.1357 171.467 83.3749 171.511 83.6158 171.508H86.8086V175.326H83.6158C82.7864 175.33 81.9646 175.168 81.1994 174.848C80.4598 174.543 79.7875 174.096 79.2207 173.532C78.658 172.967 78.2059 172.303 77.8878 171.572C77.556 170.815 77.3878 169.996 77.394 169.17V164.233H75.0254V160.583H77.3953V154.622H81.7709L81.7728 169.697Z" fill="#9799F8"></path>
  <path d="M95.86 158.605C96.9922 158.598 98.1132 158.828 99.1515 159.28C101.185 160.151 102.806 161.771 103.677 163.805C104.13 164.854 104.36 165.987 104.352 167.13C104.354 167.749 104.288 168.367 104.156 168.973L104.123 169.038H95.7634L93.6533 165.681H99.907C99.6227 164.794 99.0918 164.006 98.3763 163.41C97.6713 162.82 96.7774 162.505 95.8587 162.522C95.2795 162.519 94.7065 162.642 94.1797 162.883C93.6662 163.114 93.2025 163.442 92.8141 163.85C92.4214 164.268 92.114 164.758 91.909 165.293C91.6862 165.874 91.5754 166.491 91.5825 167.113C91.5879 167.646 91.6883 168.173 91.879 168.671C92.0747 169.204 92.3645 169.699 92.7345 170.13C93.1153 170.574 93.5722 170.946 94.0837 171.229C94.6277 171.528 95.2404 171.681 95.8613 171.672C96.4153 171.678 96.9667 171.595 97.494 171.425C98.0599 171.205 98.5472 170.821 98.8928 170.322L98.9255 170.289L98.9908 170.322L102.809 172.003L102.743 172.069C101.966 173.165 100.932 174.054 99.732 174.657C98.5357 175.272 97.2095 175.591 95.8646 175.587C94.7179 175.595 93.5815 175.371 92.5235 174.928C91.5086 174.509 90.5861 173.893 89.8081 173.118C89.0335 172.342 88.413 171.427 87.9795 170.42C87.5282 169.381 87.2984 168.26 87.3049 167.128C87.2964 165.985 87.5262 164.853 87.9795 163.804C88.8507 161.764 90.4789 160.142 92.5216 159.278C93.5769 158.826 94.7143 158.596 95.8626 158.603" fill="#9799F8"></path>
  <path d="M123.705 152.285V175.325H119.295L119.328 167.064C119.33 166.461 119.201 165.866 118.949 165.319C118.708 164.787 118.374 164.302 117.962 163.888C117.548 163.476 117.055 163.151 116.514 162.932C115.945 162.7 115.335 162.583 114.72 162.587C114.11 162.582 113.506 162.699 112.942 162.932C112.405 163.156 111.918 163.486 111.511 163.903C111.102 164.324 110.773 164.814 110.54 165.352C110.301 165.914 110.178 166.518 110.178 167.129C110.178 167.74 110.301 168.344 110.54 168.907C111.004 169.985 111.864 170.845 112.942 171.309C113.503 171.554 114.109 171.677 114.72 171.672C115.028 171.672 115.336 171.65 115.642 171.606C115.939 171.566 116.228 171.478 116.497 171.345H116.562L118.175 174.307L118.142 174.34C117.006 175.194 115.613 175.636 114.192 175.591C113.075 175.598 111.967 175.383 110.934 174.959C109.9 174.536 108.96 173.911 108.169 173.122C107.395 172.346 106.774 171.431 106.341 170.424C105.896 169.383 105.666 168.264 105.666 167.132C105.666 166.001 105.896 164.881 106.341 163.841C106.774 162.834 107.395 161.918 108.169 161.142C108.96 160.352 109.9 159.728 110.934 159.304C111.967 158.881 113.075 158.666 114.192 158.673C115.19 158.622 116.184 158.825 117.082 159.262C117.98 159.7 118.752 160.357 119.327 161.174V152.285H123.705Z" fill="#9799F8"></path>
  <path d="M140.288 149.547L128.135 181.547H130.373L142.527 149.547H140.288Z" fill="#9799F8"></path>
  <g clip-path="url(#clip3_6876_61270)">
    <path fill-rule="evenodd" clip-rule="evenodd" d="M182.51 181.547H184.906V168.747H182.51V181.547ZM191.293 181.355H193.439V173.279L202.472 181.547V168.939H200.332V176.877L191.293 168.747V181.355ZM207.371 178.255C208.539 179.165 209.941 179.691 211.444 179.691C212.908 179.691 213.935 179.187 213.935 178.074C213.935 177.104 213.28 176.724 212.133 176.299L210.276 175.654C208.564 175.046 207.262 174.158 207.262 172.117C207.262 169.934 209.233 168.747 211.59 168.747C213.034 168.747 214.35 169.11 215.378 169.753V171.918C214.309 171.128 213.139 170.584 211.636 170.584C210.342 170.584 209.375 171.067 209.375 172.074C209.375 172.984 209.982 173.348 211.051 173.714L213.12 174.44C215.125 175.145 216.045 176.238 216.045 178.036C216.045 180.298 214.055 181.547 211.444 181.547C209.728 181.547 208.269 181.067 207.371 180.461V178.255ZM221.635 181.547H224.03V168.747H221.635V181.547ZM235.266 179.61C237.966 179.61 239.409 177.878 239.409 175.144C239.409 172.39 237.965 170.664 235.266 170.664H232.596V179.61H235.266ZM230.416 168.747H235.346C239.141 168.747 241.595 171.247 241.595 175.144C241.595 179.044 239.141 181.547 235.346 181.547H230.416V168.747ZM253.573 168.747V170.664H247.776V173.744H252.975V175.639H247.775V179.61H253.573V181.547H245.588V168.747H253.573ZM262.075 174.543H264.452C265.859 174.543 266.652 173.771 266.652 172.584C266.652 171.397 265.859 170.624 264.452 170.624H262.075V174.543ZM262.075 176.353V181.547H259.96V168.747H264.492C267.076 168.747 268.748 170.078 268.748 172.584C268.748 174.727 267.82 175.958 265.843 176.274L270.34 181.547H267.934L263.58 176.354H262.076L262.075 176.353ZM181.673 156.137C182.61 155.794 183.34 154.765 183.34 153.35C183.34 150.992 181.673 149.77 179.006 149.77H174.526V162.933H179.422C182.089 162.933 183.756 161.625 183.756 159.16C183.756 157.766 182.881 156.544 181.673 156.137ZM176.63 155.301V151.7H178.986C180.466 151.7 181.257 152.236 181.257 153.479C181.257 154.722 180.465 155.301 178.986 155.301H176.63ZM176.63 157.145H179.38C180.84 157.145 181.631 157.873 181.631 159.074C181.631 160.253 180.839 161.004 179.381 161.004H176.631V157.144L176.63 157.145ZM193.531 163.147C196.594 163.147 198.657 161.303 198.657 157.702V149.77H196.49V157.444C196.49 159.974 195.448 161.154 193.531 161.154C191.614 161.154 190.573 159.974 190.573 157.444V149.77H188.406V157.68C188.406 161.303 190.489 163.147 193.531 163.147ZM203.759 161.989C204.655 162.633 206.114 163.147 207.822 163.147C210.427 163.147 212.406 161.817 212.406 159.417C212.406 157.509 211.49 156.351 209.489 155.601L207.427 154.829C206.364 154.444 205.76 154.058 205.76 153.093C205.76 152.021 206.718 151.507 208.01 151.507C209.51 151.507 210.677 152.085 211.74 152.922V150.627C210.719 149.942 209.406 149.556 207.968 149.556C205.614 149.556 203.655 150.821 203.655 153.136C203.655 155.301 204.947 156.244 206.655 156.887L208.51 157.573C209.656 158.023 210.302 158.431 210.302 159.46C210.302 160.639 209.281 161.175 207.822 161.175C206.322 161.175 204.926 160.617 203.759 159.653V161.989ZM220.149 149.77H217.983V162.932H220.149V149.77ZM226.331 162.916H228.419V154.353L237.207 163.12V149.75H235.125V158.167L226.331 149.547V162.916ZM250.748 149.773V151.744H245.122V154.912H250.167V156.861H245.122V160.944H250.748V162.936H242.998V149.773H250.748ZM255.793 161.98C256.689 162.624 258.147 163.138 259.856 163.138C262.46 163.138 264.44 161.809 264.44 159.408C264.44 157.5 263.523 156.343 261.523 155.592L259.46 154.821C258.397 154.435 257.793 154.049 257.793 153.084C257.793 152.012 258.751 151.498 260.043 151.498C261.543 151.498 262.71 152.077 263.773 152.913V150.619C262.752 149.933 261.439 149.547 260.001 149.547C257.647 149.547 255.688 150.812 255.688 153.127C255.688 155.292 256.98 156.235 258.688 156.878L260.543 157.564C261.689 158.014 262.335 158.422 262.335 159.451C262.335 160.63 261.315 161.166 259.855 161.166C258.355 161.166 256.959 160.609 255.793 159.644V161.98ZM268.879 161.98C269.775 162.624 271.234 163.138 272.942 163.138C275.547 163.138 277.526 161.809 277.526 159.408C277.526 157.5 276.609 156.343 274.609 155.592L272.546 154.821C271.484 154.435 270.879 154.049 270.879 153.084C270.879 152.012 271.838 151.498 273.129 151.498C274.629 151.498 275.797 152.077 276.859 152.913V150.619C275.839 149.933 274.526 149.547 273.088 149.547C270.733 149.547 268.775 150.812 268.775 153.127C268.775 155.292 270.067 156.235 271.775 156.878L273.63 157.564C274.776 158.014 275.422 158.422 275.422 159.451C275.422 160.63 274.401 161.166 272.942 161.166C271.442 161.166 270.046 160.609 268.879 159.644V161.98Z" fill="#9799F8"></path>
  </g>
  <g clip-path="url(#clip4_6876_61270)">
    <path d="M92.5649 229.337H99.4298L103.427 239.563L107.476 229.337H114.16L104.096 253.547H97.3692L100.124 247.131L92.5649 229.337Z" fill="#9799F8"></path>
    <path d="M121.124 228.929C115.966 228.929 112.706 233.555 112.706 238.162C112.706 243.346 116.28 247.455 121.026 247.455C124.566 247.455 125.901 245.298 125.901 245.298V246.979H131.889V229.337H125.901V230.94C125.901 230.94 124.412 228.929 121.124 228.929ZM122.398 234.599C124.778 234.599 126.006 236.482 126.006 238.181C126.006 240.011 124.69 241.807 122.398 241.807C120.498 241.807 118.781 240.254 118.781 238.259C118.781 236.236 120.162 234.599 122.398 234.599Z" fill="#9799F8"></path>
    <path d="M133.95 246.979V221.547H140.212V231.002C140.212 231.002 141.7 228.932 144.815 228.932C148.626 228.932 150.859 231.771 150.859 235.828V246.979H144.642V237.356C144.642 235.983 143.988 234.656 142.506 234.656C140.998 234.656 140.212 236.003 140.212 237.356V246.979H133.95Z" fill="#9799F8"></path>
    <path d="M161.536 228.932C155.629 228.932 152.112 233.423 152.112 238.235C152.112 243.712 156.37 247.455 161.558 247.455C166.586 247.455 170.986 243.882 170.986 238.327C170.986 232.25 166.379 228.932 161.536 228.932ZM161.592 234.651C163.679 234.651 165.122 236.389 165.122 238.242C165.122 239.823 163.777 241.772 161.592 241.772C159.59 241.772 158.088 240.166 158.088 238.225C158.088 236.354 159.337 234.651 161.592 234.651Z" fill="#9799F8"></path>
    <path d="M181.421 228.932C175.514 228.932 171.997 233.423 171.997 238.235C171.997 243.712 176.255 247.455 181.443 247.455C186.471 247.455 190.871 243.882 190.871 238.327C190.871 232.25 186.264 228.932 181.421 228.932ZM181.477 234.651C183.563 234.651 185.007 236.389 185.007 238.242C185.007 239.823 183.662 241.772 181.477 241.772C179.475 241.772 177.972 240.166 177.972 238.225C177.972 236.354 179.222 234.651 181.477 234.651Z" fill="#9799F8"></path>
    <path d="M195.811 247.353C198.108 247.353 199.97 245.491 199.97 243.195C199.97 240.898 198.108 239.036 195.811 239.036C193.515 239.036 191.653 240.898 191.653 243.195C191.653 245.491 193.515 247.353 195.811 247.353Z" fill="#9799F8"></path>
    <path d="M201.337 237.508H193.85L200.494 221.547H207.953L201.337 237.508Z" fill="#9799F8"></path>
  </g>
  <defs>
    <clipPath id="clip0_6876_61270">
      <rect width="150" height="27.6959" fill="white" transform="translate(0 2.15186)"></rect>
    </clipPath>
    <clipPath id="clip1_6876_61270">
      <rect width="150" height="35.8804" fill="white" transform="translate(43.2593 72)"></rect>
    </clipPath>
    <clipPath id="clip2_6876_61270">
      <rect width="32" height="37.5467" fill="white" transform="translate(225.259 72)"></rect>
    </clipPath>
    <clipPath id="clip3_6876_61270">
      <rect width="103" height="32" fill="white" transform="translate(174.526 149.547)"></rect>
    </clipPath>
    <clipPath id="clip4_6876_61270">
      <rect width="115.388" height="32" fill="white" transform="translate(92.5649 221.547)"></rect>
    </clipPath>
  </defs>
</svg>
