<?xml version="1.0" encoding="UTF-8"?>
<svg xmlns="http://www.w3.org/2000/svg" width="1222" height="102" viewBox="0 0 1222 102" fill="none">
  <g clip-path="url(#clip0_6876_60898)">
    <path d="M337.741 4.92542H348.738C350.832 4.92542 352.403 5.44908 353.567 6.32185C354.847 7.36917 355.545 8.88197 355.545 10.7439C355.545 12.8967 354.672 14.235 352.927 15.0495V15.1659C355.254 15.9223 356.593 18.017 356.593 20.5189C356.593 22.9045 355.662 24.7664 354.149 25.9301C352.869 26.861 351.24 27.2683 349.029 27.2683H337.741V4.92542ZM347.632 13.6531C348.796 13.6531 349.669 13.0131 349.669 11.6748C349.669 10.3948 348.796 9.75474 347.574 9.75474H343.792V13.5949H347.632V13.6531ZM348.156 22.3226C349.494 22.3226 350.483 21.508 350.483 20.0534C350.483 18.4824 349.436 17.7842 348.156 17.7842H343.85V22.3808H348.156V22.3226Z" fill="#9799F8"></path>
    <path d="M357.583 4.92542H363.343V27.3265H357.583V4.92542Z" fill="#9799F8"></path>
    <path d="M364.506 19.3551C364.506 14.293 367.765 10.9183 372.827 10.9183C377.889 10.9183 381.089 14.3512 381.089 19.3551C381.089 24.4172 377.889 27.7919 372.827 27.7919C367.765 27.7919 364.506 24.4172 364.506 19.3551ZM375.329 19.3551C375.329 16.5622 374.456 14.8167 372.71 14.8167C370.965 14.8167 370.15 16.5622 370.15 19.3551C370.15 22.148 370.965 23.9517 372.71 23.9517C374.456 23.8935 375.329 22.148 375.329 19.3551Z" fill="#9799F8"></path>
    <path d="M381.729 19.3551C381.729 14.293 384.987 10.9183 390.049 10.9183C395.111 10.9183 398.253 14.293 398.253 19.3551C398.253 24.4172 395.053 27.7919 389.991 27.7919C384.987 27.7919 381.729 24.4172 381.729 19.3551ZM392.551 19.3551C392.551 16.5622 391.679 14.8167 389.933 14.8167C388.187 14.8167 387.373 16.5622 387.373 19.3551C387.373 22.148 388.187 23.9517 389.933 23.9517C391.679 23.8935 392.551 22.148 392.551 19.3551Z" fill="#9799F8"></path>
    <path d="M399.417 11.3257H404.769V13.7113H404.886C405.933 11.8494 407.388 10.8602 409.715 10.8602C411.752 10.8602 413.264 11.8494 414.021 13.5949H414.137C415.417 11.5003 417.105 10.8602 419.083 10.8602C422.807 10.8602 424.378 13.5949 424.378 17.2605V27.2683H418.792V18.2497C418.792 16.6205 418.268 15.5732 416.872 15.5732C415.475 15.5732 414.777 16.8532 414.777 18.5988V27.2683H409.192V18.2497C409.192 16.6205 408.668 15.5732 407.271 15.5732C405.875 15.5732 405.177 16.8532 405.177 18.5988V27.2683H399.417V11.3257Z" fill="#9799F8"></path>
    <path d="M431.418 25.1737H431.359V27.2683H426.006V4.92542H431.592V12.9549H431.708C432.756 11.5585 434.21 10.8021 436.247 10.8021C440.262 10.8021 442.589 14.4095 442.589 19.2388C442.589 24.65 440.087 27.792 435.898 27.792C434.152 27.792 432.348 26.9774 431.418 25.1737ZM436.829 19.1807C436.829 16.6205 435.898 14.9332 434.21 14.9332C432.465 14.9332 431.418 16.6205 431.418 19.1807C431.418 21.7408 432.523 23.4281 434.21 23.4281C435.898 23.4281 436.829 21.799 436.829 19.1807Z" fill="#9799F8"></path>
    <path d="M443.229 19.297C443.229 14.2931 446.546 10.8602 451.317 10.8602C453.702 10.8602 455.506 11.6166 456.902 12.9549C458.764 14.7586 459.579 17.5515 459.521 20.8098H448.815C449.047 22.7881 449.978 23.8354 451.666 23.8354C452.655 23.8354 453.528 23.3699 453.877 22.3226H459.288C458.357 25.9882 455.506 27.792 451.491 27.792C446.546 27.7338 443.229 24.3591 443.229 19.297ZM448.815 17.6096H453.935C453.819 15.6896 452.771 14.7004 451.433 14.7004C449.862 14.6422 448.989 15.7477 448.815 17.6096Z" fill="#9799F8"></path>
    <path d="M465.863 14.0603H465.98C467.143 11.8493 468.656 10.9766 470.576 10.9766C471.042 10.9766 471.333 11.0347 471.507 11.1511V16.0386H471.391C468.074 15.4568 466.154 17.0278 466.154 20.6352V27.3264H460.51V11.3257H465.863V14.0603Z" fill="#9799F8"></path>
    <path d="M472.088 27.3266H477.499C477.732 28.0248 478.43 28.6648 479.769 28.6648C481.572 28.6648 482.212 27.5593 482.212 25.8719V24.7083H482.096C481.223 25.7556 480.001 26.512 478.256 26.512C474.823 26.512 471.797 23.9519 471.797 18.948C471.797 14.3514 474.241 10.8021 477.965 10.8021C480.118 10.8021 481.398 11.6749 482.271 13.0131H482.387V11.2676H487.74V25.1155C487.74 27.6757 486.867 29.6539 485.529 30.8176C484.133 32.0395 482.154 32.5632 479.885 32.5632C475.579 32.6214 472.612 30.8758 472.088 27.3266ZM482.445 18.7152C482.445 16.737 481.514 15.1078 479.885 15.1078C478.314 15.1078 477.325 16.5042 477.325 18.7152C477.325 20.8681 478.314 22.3809 479.885 22.3809C481.456 22.3809 482.445 20.8099 482.445 18.7152Z" fill="#9799F8"></path>
  </g>
  <path d="M586.881 13.5586C586.881 10.1216 586.94 6.92158 587.118 3.95862L578.051 5.67714V6.50677L578.94 6.62528C579.592 6.68454 580.007 6.92158 580.244 7.27714C580.481 7.69195 580.658 8.28454 580.777 9.17343C580.895 10.892 581.014 14.8031 580.955 20.966C580.955 27.0697 580.895 30.9216 580.777 32.4031C584.036 33.1142 586.584 33.4105 588.481 33.4105C592.036 33.4105 594.821 32.4031 596.836 30.329C598.851 28.3142 599.918 25.4697 599.918 21.9734C599.918 19.1882 599.147 16.8771 597.607 15.0401C596.066 13.2031 594.11 12.3142 591.799 12.3142C590.258 12.3142 588.658 12.729 586.881 13.5586ZM587.058 31.8105C586.94 29.9142 586.821 24.2253 586.821 14.9216C587.355 14.7438 588.066 14.6253 588.955 14.6253C590.377 14.6253 591.503 15.3364 592.333 16.8179C593.162 18.2994 593.577 20.0771 593.577 22.329C593.577 25.1142 593.103 27.366 592.155 29.2623C591.207 31.0994 590.021 32.0475 588.54 32.0475C588.066 31.929 587.592 31.8697 587.058 31.8105ZM544.036 4.55121H520.333V5.7364L521.577 5.85491C522.525 6.03269 523.177 6.38825 523.592 6.92158C524.007 7.51417 524.244 8.46232 524.303 9.76603C524.777 16.166 524.777 22.1512 524.303 27.6623C524.184 28.966 523.947 29.9142 523.592 30.5068C523.177 31.0994 522.525 31.4549 521.577 31.5734L520.333 31.7512V32.9364H535.621V31.7512L534.021 31.6327C533.073 31.5142 532.421 31.0994 532.007 30.566C531.592 29.9734 531.355 29.0253 531.295 27.7216C531.118 25.3512 530.999 22.6253 530.999 19.6031L534.199 19.6623C535.918 19.7216 537.103 21.0253 537.695 23.6327H538.881V13.9734H537.695C537.103 16.5216 535.977 17.8253 534.199 17.8845L530.999 17.9438C530.999 12.6105 531.118 8.81788 531.295 6.50677H535.977C539.295 6.50677 541.547 8.6401 542.851 12.9068L544.273 12.492L544.036 4.55121ZM541.251 22.8031C541.251 25.8845 542.14 28.4327 543.858 30.4475C545.577 32.4623 548.125 33.4105 551.325 33.4105C554.525 33.4105 557.133 32.4031 559.029 30.329C560.925 28.3142 561.814 25.766 561.814 22.6845C561.814 19.6031 560.925 17.0549 559.207 15.0401C557.488 13.0253 554.94 12.0771 551.74 12.0771C548.54 12.0771 545.933 13.0845 544.036 15.1586C542.14 17.1734 541.251 19.7216 541.251 22.8031ZM554.466 16.0475C555.177 17.766 555.473 20.0179 555.473 22.7438C555.473 29.0253 554.17 32.1068 551.621 32.1068C550.318 32.1068 549.31 31.2179 548.599 29.4401C547.888 27.6623 547.592 25.4105 547.592 22.7438C547.592 16.5216 548.895 13.4401 551.444 13.4401C552.747 13.3808 553.755 14.2697 554.466 16.0475ZM604.54 30.4475C606.495 32.4031 608.984 33.4105 611.947 33.4105C613.784 33.4105 615.384 33.0549 616.807 32.2845C618.229 31.5734 619.355 30.6845 620.125 29.6179L619.533 28.9068C618.229 29.9142 616.747 30.3882 615.029 30.3882C612.658 30.3882 610.821 29.6179 609.577 28.0179C608.273 26.4179 607.681 24.4031 607.799 21.7957H620.481C620.481 18.9512 619.77 16.6401 618.288 14.8031C616.807 13.0253 614.733 12.1364 612.066 12.1364C608.747 12.1364 606.199 13.2031 604.362 15.2771C602.525 17.3512 601.636 19.8994 601.636 22.9216C601.636 26.0031 602.584 28.492 604.54 30.4475ZM608.925 15.5734C609.577 14.1512 610.407 13.4401 611.533 13.4401C613.31 13.4401 614.199 15.692 614.199 20.2549L607.918 20.3734C607.977 18.5957 608.273 16.9957 608.925 15.5734ZM636.421 13.2031C634.821 12.492 632.807 12.0771 630.377 12.0771C627.888 12.0771 625.933 12.729 624.451 13.9734C622.97 15.2179 622.199 16.7586 622.199 18.5957C622.199 20.1957 622.673 21.4401 623.562 22.329C624.451 23.2179 625.873 23.9882 627.71 24.6401C629.37 25.2327 630.555 25.8253 631.147 26.3586C631.74 26.9512 632.095 27.6031 632.095 28.492C632.095 29.3216 631.799 30.092 631.147 30.6845C630.555 31.3364 629.725 31.6327 628.658 31.6327C626.051 31.6327 624.095 29.7364 622.733 25.9438L621.725 26.2401L621.962 32.166C624.095 32.9957 626.466 33.4105 629.073 33.4105C631.799 33.4105 633.873 32.8179 635.414 31.5734C636.955 30.3882 637.725 28.6697 637.725 26.5364C637.725 25.1142 637.37 23.929 636.599 23.0401C635.829 22.1512 634.584 21.3808 632.807 20.6697C630.851 19.9586 629.488 19.3068 628.777 18.7142C628.066 18.1216 627.71 17.4105 627.71 16.5216C627.71 15.6327 627.947 14.9216 628.481 14.329C629.014 13.7364 629.666 13.4994 630.495 13.4994C632.866 13.4994 634.584 15.2179 635.651 18.5957L636.658 18.2994L636.421 13.2031ZM579.414 12.6697C578.584 12.2549 577.695 12.0771 576.688 12.0771C575.681 12.0771 574.673 12.492 573.547 13.3216C572.421 14.1512 571.592 15.2771 570.94 16.8179L570.999 12.0771L561.992 13.8549V14.6845L562.881 14.7438C564.007 14.8623 564.658 15.7512 564.777 17.3512C565.133 21.0253 565.133 24.9364 564.777 29.0845C564.658 30.6845 564.007 31.5142 562.881 31.692L561.992 31.8105V32.9364H574.555V31.8105L572.955 31.692C571.829 31.5734 571.177 30.6845 571.058 29.0845C570.703 25.6475 570.644 21.9734 570.94 18.1808C571.295 17.5882 572.066 17.2327 573.251 17.1142C574.436 16.9957 575.799 17.3512 577.221 18.1808L579.414 12.6697Z" fill="#9799F8"></path>
  <g clip-path="url(#clip1_6876_60898)">
    <path d="M709.743 18.7763C709.743 19.3276 709.524 19.8563 709.134 20.2461C708.744 20.6359 708.215 20.8549 707.664 20.8549C707.113 20.8549 706.584 20.6359 706.194 20.2461C705.804 19.8563 705.585 19.3276 705.585 18.7763C705.585 18.225 705.804 17.6964 706.194 17.3065C706.584 16.9167 707.113 16.6977 707.664 16.6977C708.215 16.6977 708.744 16.9167 709.134 17.3065C709.524 17.6964 709.743 18.225 709.743 18.7763ZM703.359 15.1424C703.193 15.1391 703.028 15.169 702.873 15.2302C702.719 15.2915 702.578 15.3829 702.46 15.4992C702.341 15.6155 702.247 15.7542 702.183 15.9074C702.118 16.0605 702.085 16.2249 702.085 16.391C702.085 16.5571 702.118 16.7215 702.183 16.8747C702.247 17.0278 702.341 17.1666 702.46 17.2829C702.578 17.3991 702.719 17.4906 702.873 17.5518C703.028 17.6131 703.193 17.6429 703.359 17.6396C703.684 17.6304 703.992 17.4949 704.219 17.2618C704.446 17.0287 704.572 16.7164 704.572 16.3913C704.572 16.0662 704.446 15.7539 704.219 15.5208C703.992 15.2877 703.684 15.1516 703.359 15.1424ZM701.884 10.785C701.673 10.7812 701.464 10.8195 701.268 10.8977C701.072 10.9758 700.894 11.0922 700.743 11.24C700.593 11.3878 700.473 11.5641 700.392 11.7586C700.31 11.9532 700.268 12.162 700.268 12.3729C700.268 12.5838 700.31 12.7927 700.392 12.9872C700.473 13.1817 700.593 13.358 700.743 13.5058C700.894 13.6537 701.072 13.77 701.268 13.8482C701.464 13.9263 701.673 13.9646 701.884 13.9609C702.301 13.9535 702.697 13.783 702.989 13.486C703.281 13.189 703.444 12.7893 703.444 12.3729C703.444 11.9566 703.281 11.5569 702.989 11.2599C702.697 10.9629 702.301 10.7923 701.884 10.785ZM699.31 7.47997C698.921 7.47997 698.548 7.63454 698.273 7.90968C697.998 8.18482 697.843 8.55798 697.843 8.94708C697.843 9.33618 697.998 9.70935 698.273 9.98449C698.548 10.2596 698.921 10.4142 699.31 10.4142C699.699 10.4142 700.073 10.2596 700.348 9.98449C700.623 9.70935 700.778 9.33618 700.778 8.94708C700.778 8.55798 700.623 8.18482 700.348 7.90968C700.073 7.63454 699.699 7.47997 699.31 7.47997ZM696.073 5.51104C695.908 5.51104 695.746 5.54339 695.594 5.60625C695.442 5.66911 695.304 5.76125 695.188 5.8774C695.072 5.99355 694.98 6.13144 694.917 6.2832C694.854 6.43495 694.822 6.59761 694.822 6.76187C694.822 6.92613 694.854 7.08878 694.917 7.24054C694.98 7.3923 695.072 7.53019 695.188 7.64634C695.304 7.76249 695.442 7.85462 695.594 7.91748C695.746 7.98034 695.908 8.0127 696.073 8.0127C696.404 8.0127 696.723 7.88091 696.957 7.64634C697.192 7.41176 697.324 7.09361 697.324 6.76187C697.324 6.43013 697.192 6.11197 696.957 5.8774C696.723 5.64282 696.404 5.51104 696.073 5.51104ZM692.643 4.70074C692.502 4.69768 692.362 4.72278 692.231 4.77456C692.1 4.82634 691.981 4.90377 691.88 5.00229C691.78 5.10081 691.7 5.21845 691.645 5.3483C691.59 5.47815 691.562 5.61759 691.562 5.75846C691.562 5.89933 691.59 6.03878 691.645 6.16863C691.7 6.29848 691.78 6.41611 691.88 6.51464C691.981 6.61316 692.1 6.69058 692.231 6.74236C692.362 6.79414 692.502 6.81924 692.643 6.81619C692.92 6.81018 693.183 6.69611 693.376 6.4984C693.57 6.30069 693.678 6.03508 693.678 5.75846C693.678 5.48185 693.57 5.21623 693.376 5.01852C693.183 4.82082 692.92 4.70674 692.643 4.70074ZM689.282 4.84874C689.173 4.84605 689.065 4.86516 688.963 4.90494C688.862 4.94471 688.77 5.00435 688.692 5.08035C688.614 5.15634 688.552 5.24716 688.51 5.34744C688.468 5.44772 688.446 5.55545 688.446 5.66428C688.446 5.7731 688.468 5.88083 688.51 5.98111C688.552 6.0814 688.614 6.17221 688.692 6.2482C688.77 6.3242 688.862 6.38384 688.963 6.42362C689.065 6.46339 689.173 6.4825 689.282 6.47981C689.495 6.47455 689.697 6.38632 689.846 6.23395C689.994 6.08158 690.077 5.87714 690.077 5.66428C690.077 5.45141 689.994 5.24697 689.846 5.0946C689.697 4.94224 689.495 4.854 689.282 4.84874ZM686.358 5.55439C686.171 5.55439 685.993 5.62832 685.861 5.7599C685.73 5.89149 685.656 6.06996 685.656 6.25605C685.656 6.44215 685.73 6.62062 685.861 6.7522C685.993 6.88379 686.171 6.95771 686.358 6.95771C686.544 6.95771 686.722 6.88379 686.854 6.7522C686.985 6.62062 687.059 6.44215 687.059 6.25605C687.059 6.06996 686.985 5.89149 686.854 5.7599C686.722 5.62832 686.544 5.55439 686.358 5.55439ZM683.858 6.66967C683.698 6.66967 683.544 6.73347 683.43 6.84702C683.317 6.96057 683.253 7.11457 683.253 7.27516C683.253 7.43574 683.317 7.58975 683.43 7.7033C683.544 7.81685 683.698 7.88064 683.858 7.88064C684.019 7.88064 684.173 7.81685 684.287 7.7033C684.4 7.58975 684.464 7.43574 684.464 7.27516C684.464 7.11457 684.4 6.96057 684.287 6.84702C684.173 6.73347 684.019 6.66967 683.858 6.66967ZM681.653 8.11685C681.466 8.11685 681.288 8.19088 681.156 8.32265C681.024 8.45443 680.95 8.63315 680.95 8.81951C680.95 9.00586 681.024 9.18459 681.156 9.31636C681.288 9.44814 681.466 9.52217 681.653 9.52217C681.839 9.52217 682.018 9.44814 682.15 9.31636C682.281 9.18459 682.355 9.00586 682.355 8.81951C682.355 8.63315 682.281 8.45443 682.15 8.32265C682.018 8.19088 681.839 8.11685 681.653 8.11685ZM679.569 10.1421C679.46 10.1394 679.352 10.1585 679.251 10.1981C679.15 10.2378 679.058 10.2973 678.98 10.3731C678.903 10.4489 678.841 10.5395 678.799 10.6396C678.756 10.7396 678.735 10.8471 678.735 10.9556C678.735 11.0642 678.756 11.1717 678.799 11.2717C678.841 11.3717 678.903 11.4623 678.98 11.5381C679.058 11.614 679.15 11.6735 679.251 11.7131C679.352 11.7528 679.46 11.7719 679.569 11.7692C679.781 11.7639 679.983 11.6759 680.131 11.5239C680.279 11.3719 680.362 11.168 680.362 10.9556C680.362 10.7433 680.279 10.5394 680.131 10.3874C679.983 10.2354 679.781 10.1474 679.569 10.1421ZM677.824 12.859C677.568 12.859 677.322 12.9609 677.14 13.1423C676.959 13.3236 676.857 13.5696 676.857 13.8261C676.857 14.0825 676.959 14.3285 677.14 14.5099C677.322 14.6912 677.568 14.7931 677.824 14.7931C678.08 14.7931 678.326 14.6912 678.508 14.5099C678.689 14.3286 678.791 14.0827 678.791 13.8263C678.791 13.5699 678.689 13.324 678.508 13.1427C678.326 12.9614 678.08 12.859 677.824 12.859ZM676.816 16.3514C676.544 16.3514 676.283 16.4595 676.091 16.6518C675.898 16.8441 675.79 17.105 675.79 17.377C675.79 17.649 675.898 17.9098 676.091 18.1022C676.283 18.2945 676.544 18.4026 676.816 18.4026C677.088 18.4026 677.349 18.2945 677.541 18.1022C677.733 17.9098 677.841 17.649 677.841 17.377C677.841 17.105 677.733 16.8441 677.541 16.6518C677.349 16.4595 677.088 16.3514 676.816 16.3514ZM676.887 19.909C676.723 19.909 676.56 19.9414 676.409 20.0042C676.257 20.067 676.119 20.1591 676.003 20.2751C675.887 20.3912 675.795 20.5289 675.732 20.6806C675.67 20.8322 675.637 20.9947 675.637 21.1589C675.637 21.323 675.67 21.4855 675.732 21.6372C675.795 21.7888 675.887 21.9266 676.003 22.0426C676.119 22.1587 676.257 22.2508 676.409 22.3136C676.56 22.3764 676.723 22.4087 676.887 22.4087C677.219 22.4087 677.537 22.277 677.771 22.0426C678.005 21.8083 678.137 21.4904 678.137 21.1589C678.137 20.8274 678.005 20.5095 677.771 20.2751C677.537 20.0407 677.219 19.909 676.887 19.909ZM678.36 23.5903C677.939 23.5903 677.536 23.7575 677.238 24.0552C676.94 24.3528 676.773 24.7565 676.773 25.1775C676.773 25.5984 676.94 26.0021 677.238 26.2998C677.536 26.5975 677.939 26.7647 678.36 26.7647C678.781 26.7647 679.185 26.5975 679.483 26.2998C679.78 26.0021 679.947 25.5984 679.947 25.1775C679.947 24.7565 679.78 24.3528 679.483 24.0552C679.185 23.7575 678.781 23.5903 678.36 23.5903ZM680.953 27.128C680.758 27.1244 680.565 27.1597 680.384 27.2317C680.203 27.3038 680.038 27.4112 679.899 27.5476C679.76 27.6841 679.65 27.8469 679.574 28.0265C679.499 28.2062 679.46 28.399 679.46 28.5938C679.46 28.7887 679.499 28.9815 679.574 29.1611C679.65 29.3408 679.76 29.5036 679.899 29.6401C680.038 29.7765 680.203 29.8839 680.384 29.956C680.565 30.028 680.758 30.0633 680.953 30.0597C681.337 30.0526 681.703 29.8951 681.972 29.6209C682.241 29.3468 682.392 28.978 682.392 28.5938C682.392 28.2097 682.241 27.8409 681.972 27.5667C681.703 27.2926 681.337 27.1351 680.953 27.128ZM684.078 29.4717C683.747 29.4717 683.429 29.6032 683.195 29.8373C682.961 30.0714 682.829 30.3889 682.829 30.72C682.829 31.0511 682.961 31.3686 683.195 31.6027C683.429 31.8368 683.747 31.9683 684.078 31.9683C684.409 31.9683 684.726 31.8368 684.96 31.6027C685.194 31.3686 685.326 31.0511 685.326 30.72C685.326 30.3889 685.194 30.0714 684.96 29.8373C684.726 29.6032 684.409 29.4717 684.078 29.4717ZM687.606 30.7394C687.326 30.7394 687.057 30.8508 686.859 31.0489C686.661 31.2471 686.549 31.5159 686.549 31.7962C686.549 32.0764 686.661 32.3452 686.859 32.5434C687.057 32.7416 687.326 32.8529 687.606 32.8529C687.886 32.8529 688.155 32.7416 688.353 32.5435C688.551 32.3453 688.662 32.0766 688.662 31.7964C688.662 31.5162 688.551 31.2475 688.353 31.0494C688.155 30.8512 687.886 30.7394 687.606 30.7394ZM690.961 31.0713C690.855 31.0713 690.749 31.0923 690.65 31.1332C690.552 31.174 690.462 31.2338 690.387 31.3092C690.311 31.3847 690.252 31.4742 690.211 31.5728C690.17 31.6713 690.149 31.777 690.149 31.8836C690.149 31.9903 690.17 32.0959 690.211 32.1945C690.252 32.293 690.311 32.3826 690.387 32.458C690.462 32.5334 690.552 32.5933 690.65 32.6341C690.749 32.6749 690.855 32.6959 690.961 32.6959C691.177 32.6959 691.383 32.6103 691.536 32.458C691.688 32.3057 691.774 32.0991 691.774 31.8836C691.774 31.6682 691.688 31.4616 691.536 31.3092C691.383 31.1569 691.177 31.0713 690.961 31.0713ZM693.894 30.5929C693.708 30.5929 693.529 30.667 693.397 30.7988C693.265 30.9306 693.191 31.1094 693.191 31.2958C693.191 31.4823 693.265 31.661 693.397 31.7929C693.529 31.9247 693.708 31.9987 693.894 31.9987C694.08 31.9987 694.259 31.9247 694.391 31.7929C694.523 31.6612 694.597 31.4824 694.597 31.2961C694.597 31.1097 694.523 30.931 694.391 30.7992C694.259 30.6675 694.08 30.5934 693.894 30.5934V30.5929ZM696.391 29.666C696.23 29.666 696.077 29.7297 695.963 29.843C695.85 29.9563 695.786 30.11 695.786 30.2703C695.786 30.4305 695.85 30.5842 695.963 30.6975C696.077 30.8108 696.23 30.8745 696.391 30.8745C696.551 30.8745 696.704 30.8109 696.818 30.6976C696.931 30.5843 696.995 30.4307 696.995 30.2705C696.995 30.1103 696.931 29.9567 696.818 29.8434C696.704 29.7302 696.551 29.666 696.391 29.666ZM698.596 28.0265C698.502 28.024 698.408 28.0404 698.32 28.0747C698.233 28.109 698.153 28.1605 698.085 28.2262C698.018 28.2919 697.964 28.3704 697.927 28.4572C697.891 28.544 697.872 28.6372 697.872 28.7314C697.872 28.8256 697.891 28.9188 697.927 29.0056C697.964 29.0923 698.018 29.1709 698.085 29.2366C698.153 29.3023 698.233 29.3538 698.32 29.3881C698.408 29.4224 698.502 29.4388 698.596 29.4363C698.783 29.4363 698.962 29.362 699.094 29.2298C699.227 29.0975 699.301 28.9182 699.301 28.7311C699.301 28.5441 699.227 28.3648 699.094 28.2325C698.962 28.1003 698.783 28.0265 698.596 28.0265ZM700.683 25.779C700.467 25.779 700.259 25.8649 700.106 26.0179C699.953 26.1709 699.868 26.3784 699.868 26.5948C699.868 26.8111 699.953 27.0186 700.106 27.1716C700.259 27.3246 700.467 27.4105 700.683 27.4105C700.896 27.4053 701.098 27.317 701.247 27.1647C701.396 27.0123 701.479 26.8079 701.479 26.595C701.479 26.3821 701.396 26.1777 701.247 26.0253C701.098 25.873 700.896 25.7842 700.683 25.779ZM702.424 22.7541C702.167 22.7541 701.921 22.8559 701.74 23.0371C701.559 23.2184 701.457 23.4642 701.457 23.7206C701.457 23.9769 701.559 24.2228 701.74 24.404C701.921 24.5853 702.167 24.6871 702.424 24.6871C702.68 24.6871 702.926 24.5853 703.107 24.4041C703.288 24.2229 703.39 23.9771 703.39 23.7208C703.39 23.4646 703.288 23.2188 703.107 23.0376C702.926 22.8564 702.68 22.7541 702.424 22.7541ZM703.435 19.1506C703.301 19.1506 703.168 19.177 703.045 19.2283C702.921 19.2795 702.808 19.3547 702.713 19.4495C702.619 19.5443 702.544 19.6568 702.492 19.7806C702.441 19.9044 702.415 20.0371 702.415 20.1712C702.415 20.3052 702.441 20.4379 702.492 20.5617C702.544 20.6856 702.619 20.7981 702.713 20.8928C702.808 20.9876 702.921 21.0628 703.045 21.1141C703.168 21.1654 703.301 21.1918 703.435 21.1918C703.706 21.1918 703.965 21.0842 704.157 20.8928C704.348 20.7014 704.456 20.4418 704.456 20.1712C704.456 19.9005 704.348 19.6409 704.157 19.4495C703.965 19.2581 703.706 19.1506 703.435 19.1506ZM699.439 17.9775C699.183 17.9775 698.936 18.0795 698.755 18.2612C698.573 18.4428 698.471 18.6891 698.471 18.946C698.471 19.2029 698.573 19.4492 698.755 19.6308C698.936 19.8125 699.183 19.9145 699.439 19.9145C699.696 19.9145 699.943 19.8125 700.124 19.6309C700.306 19.4493 700.408 19.2031 700.408 18.9463C700.408 18.6894 700.306 18.4432 700.124 18.2616C699.943 18.08 699.696 17.9775 699.439 17.9775ZM695.691 17.1159C695.546 17.1159 695.406 17.1736 695.303 17.2765C695.2 17.3793 695.143 17.5188 695.143 17.6643C695.143 17.8097 695.2 17.9492 695.303 18.0521C695.406 18.1549 695.546 18.2127 695.691 18.2127C695.836 18.2127 695.976 18.1549 696.079 18.0521C696.182 17.9492 696.239 17.8097 696.239 17.6643C696.239 17.5188 696.182 17.3793 696.079 17.2765C695.976 17.1736 695.836 17.1159 695.691 17.1159ZM694.654 14.5085C694.454 14.5085 694.263 14.588 694.121 14.7294C693.98 14.8708 693.9 15.0626 693.9 15.2625C693.9 15.4625 693.98 15.6543 694.121 15.7957C694.263 15.9371 694.454 16.0165 694.654 16.0165C694.854 16.0165 695.046 15.9371 695.188 15.7956C695.329 15.6542 695.409 15.4623 695.409 15.2623C695.409 15.0622 695.329 14.8704 695.188 14.729C695.046 14.5875 694.854 14.5085 694.654 14.5085ZM692.193 12.3178C692.055 12.3136 691.917 12.337 691.789 12.3868C691.66 12.4366 691.543 12.5117 691.444 12.6077C691.345 12.7036 691.266 12.8185 691.212 12.9455C691.159 13.0725 691.131 13.209 691.131 13.3469C691.131 13.4848 691.159 13.6213 691.212 13.7483C691.266 13.8753 691.345 13.9902 691.444 14.0862C691.543 14.1822 691.66 14.2573 691.789 14.307C691.917 14.3568 692.055 14.3803 692.193 14.376C692.46 14.3677 692.714 14.2556 692.9 14.0635C693.086 13.8714 693.19 13.6144 693.19 13.3469C693.19 13.0794 693.086 12.8224 692.9 12.6303C692.714 12.4382 692.46 12.3262 692.193 12.3178ZM688.852 11.9481C688.544 11.9481 688.248 12.0704 688.031 12.2882C687.813 12.5059 687.691 12.8013 687.691 13.1092C687.691 13.4172 687.813 13.7125 688.031 13.9303C688.248 14.148 688.544 14.2703 688.852 14.2703C689.16 14.2703 689.455 14.148 689.673 13.9303C689.891 13.7125 690.013 13.4172 690.013 13.1092C690.013 12.8013 689.891 12.5059 689.673 12.2882C689.455 12.0704 689.16 11.9481 688.852 11.9481ZM686.022 13.5607C685.729 13.5607 685.448 13.6771 685.241 13.8842C685.034 14.0913 684.918 14.3721 684.918 14.665C684.918 14.9579 685.034 15.2388 685.241 15.4459C685.448 15.653 685.729 15.7693 686.022 15.7693C686.315 15.7693 686.596 15.653 686.803 15.4459C687.01 15.2388 687.127 14.9579 687.127 14.665C687.127 14.3721 687.01 14.0913 686.803 13.8842C686.596 13.6771 686.315 13.5607 686.022 13.5607ZM684.572 16.5956C684.375 16.5956 684.186 16.6739 684.046 16.8134C683.907 16.9528 683.829 17.1419 683.829 17.3391C683.829 17.5363 683.907 17.7254 684.046 17.8649C684.186 18.0043 684.375 18.0826 684.572 18.0826C684.769 18.0826 684.958 18.0043 685.098 17.8648C685.237 17.7253 685.316 17.5361 685.316 17.3389C685.316 17.1416 685.237 16.9524 685.098 16.8129C684.958 16.6735 684.769 16.5956 684.572 16.5956ZM684.63 19.4291C684.485 19.4291 684.345 19.4868 684.243 19.5895C684.14 19.6921 684.082 19.8314 684.082 19.9766C684.082 20.1218 684.14 20.261 684.243 20.3637C684.345 20.4663 684.485 20.524 684.63 20.524C684.775 20.524 684.914 20.4663 685.017 20.3637C685.12 20.261 685.177 20.1218 685.177 19.9766C685.177 19.8314 685.12 19.6921 685.017 19.5895C684.914 19.4868 684.775 19.4291 684.63 19.4291ZM685.612 21.6044C685.412 21.6044 685.22 21.6839 685.079 21.8254C684.937 21.9669 684.858 22.1588 684.858 22.3589C684.858 22.559 684.937 22.7509 685.079 22.8924C685.22 23.0339 685.412 23.1134 685.612 23.1134C685.812 23.1134 686.004 23.0339 686.146 22.8924C686.287 22.7509 686.367 22.559 686.367 22.3589C686.367 22.1588 686.287 21.9669 686.146 21.8254C686.004 21.6839 685.812 21.6044 685.612 21.6044ZM688.089 23.2833C687.816 23.2833 687.554 23.3917 687.361 23.5846C687.169 23.7775 687.06 24.0391 687.06 24.3119C687.06 24.5847 687.169 24.8463 687.361 25.0392C687.554 25.2321 687.816 25.3404 688.089 25.3404C688.362 25.3404 688.623 25.2321 688.816 25.0392C689.009 24.8463 689.117 24.5847 689.117 24.3119C689.117 24.0391 689.009 23.7775 688.816 23.5846C688.623 23.3917 688.362 23.2833 688.089 23.2833ZM691.42 23.3685C691.113 23.3685 690.818 23.4907 690.6 23.7081C690.383 23.9255 690.261 24.2204 690.261 24.5279C690.261 24.8354 690.383 25.1303 690.6 25.3477C690.818 25.5651 691.113 25.6873 691.42 25.6873C691.728 25.6873 692.023 25.5651 692.24 25.3477C692.457 25.1303 692.58 24.8354 692.58 24.5279C692.58 24.2204 692.457 23.9255 692.24 23.7081C692.023 23.4907 691.728 23.3685 691.42 23.3685ZM694.267 21.862C693.973 21.862 693.691 21.9787 693.484 22.1864C693.276 22.394 693.159 22.6757 693.159 22.9693C693.159 23.263 693.276 23.5447 693.484 23.7523C693.691 23.96 693.973 24.0766 694.267 24.0766C694.56 24.0766 694.842 23.96 695.05 23.7523C695.257 23.5447 695.374 23.263 695.374 22.9693C695.374 22.6757 695.257 22.394 695.05 22.1864C694.842 21.9787 694.56 21.862 694.267 21.862ZM695.712 19.5617C695.614 19.5617 695.517 19.581 695.427 19.6184C695.337 19.6558 695.255 19.7106 695.185 19.7798C695.116 19.8489 695.061 19.931 695.024 20.0213C694.987 20.1116 694.967 20.2084 694.967 20.3062C694.967 20.404 694.987 20.5008 695.024 20.5911C695.061 20.6815 695.116 20.7635 695.185 20.8327C695.255 20.9018 695.337 20.9566 695.427 20.9941C695.517 21.0315 695.614 21.0507 695.712 21.0507C695.909 21.0507 696.099 20.9723 696.238 20.8327C696.378 20.693 696.456 20.5037 696.456 20.3062C696.456 20.1088 696.378 19.9194 696.238 19.7798C696.099 19.6401 695.909 19.5617 695.712 19.5617ZM698.953 14.0939C698.623 14.0939 698.306 14.2251 698.073 14.4585C697.839 14.692 697.708 15.0086 697.708 15.3388C697.708 15.6689 697.839 15.9856 698.073 16.219C698.306 16.4525 698.623 16.5836 698.953 16.5836C699.283 16.5836 699.6 16.4525 699.833 16.219C700.067 15.9856 700.198 15.6689 700.198 15.3388C700.198 15.0086 700.067 14.692 699.833 14.4585C699.6 14.2251 699.283 14.0939 698.953 14.0939ZM696.844 10.5991C696.449 10.5991 696.071 10.7559 695.792 11.0349C695.513 11.314 695.356 11.6925 695.356 12.0871C695.356 12.4818 695.513 12.8603 695.792 13.1393C696.071 13.4184 696.449 13.5752 696.844 13.5752C697.239 13.5752 697.617 13.4184 697.896 13.1393C698.175 12.8603 698.332 12.4818 698.332 12.0871C698.332 11.6925 698.175 11.314 697.896 11.0349C697.617 10.7559 697.239 10.5991 696.844 10.5991ZM693.662 8.64359C693.308 8.64359 692.969 8.78412 692.719 9.03426C692.469 9.28439 692.328 9.62365 692.328 9.9774C692.328 10.3311 692.469 10.6704 692.719 10.9205C692.969 11.1707 693.308 11.3112 693.662 11.3112C694.016 11.3112 694.355 11.1707 694.605 10.9205C694.855 10.6704 694.996 10.3311 694.996 9.9774C694.996 9.62365 694.855 9.28439 694.605 9.03426C694.355 8.78412 694.016 8.64359 693.662 8.64359ZM690.13 8.25489C689.819 8.25489 689.522 8.37827 689.302 8.5979C689.082 8.81752 688.959 9.11539 688.959 9.42599C688.959 9.73658 689.082 10.0345 689.302 10.2541C689.522 10.4737 689.819 10.5971 690.13 10.5971C690.441 10.5971 690.738 10.4737 690.958 10.2541C691.178 10.0345 691.301 9.73658 691.301 9.42599C691.301 9.11539 691.178 8.81752 690.958 8.5979C690.738 8.37827 690.441 8.25489 690.13 8.25489ZM686.599 9.38612C686.367 9.38612 686.144 9.47842 685.98 9.64272C685.815 9.80701 685.723 10.0298 685.723 10.2622C685.723 10.4945 685.815 10.7174 685.98 10.8817C686.144 11.046 686.367 11.1383 686.599 11.1383C686.832 11.1383 687.055 11.046 687.219 10.8816C687.383 10.7173 687.476 10.4944 687.476 10.2619C687.476 10.0295 687.383 9.80664 687.219 9.64229C687.055 9.47795 686.832 9.38612 686.599 9.38612ZM683.617 11.4592C683.509 11.4554 683.401 11.4734 683.3 11.5122C683.199 11.551 683.107 11.6097 683.029 11.6849C682.951 11.7601 682.889 11.8503 682.847 11.9499C682.804 12.0496 682.783 12.1568 682.783 12.265C682.783 12.3733 682.804 12.4805 682.847 12.5801C682.889 12.6798 682.951 12.7699 683.029 12.8451C683.107 12.9203 683.199 12.9791 683.3 13.0178C683.401 13.0566 683.509 13.0746 683.617 13.0708C683.828 13.0656 684.027 12.9784 684.174 12.8278C684.321 12.6772 684.403 12.4752 684.403 12.2648C684.403 12.0544 684.321 11.8524 684.174 11.7018C684.027 11.5512 683.828 11.4644 683.617 11.4592ZM681.601 14.4193C681.387 14.4193 681.181 14.5046 681.029 14.6564C680.877 14.8082 680.792 15.014 680.792 15.2286C680.792 15.4433 680.877 15.6491 681.029 15.8009C681.181 15.9527 681.387 16.0379 681.601 16.0379C681.816 16.0379 682.022 15.9527 682.174 15.8008C682.326 15.649 682.411 15.4431 682.411 15.2284C682.411 15.0137 682.326 14.8078 682.174 14.656C682.022 14.5041 681.816 14.4188 681.601 14.4188V14.4193ZM680.752 17.66C680.496 17.66 680.251 17.7617 680.07 17.9427C679.889 18.1237 679.787 18.3691 679.787 18.6251C679.787 18.881 679.889 19.1265 680.07 19.3075C680.251 19.4884 680.496 19.5901 680.752 19.5901C681.008 19.5901 681.254 19.4884 681.435 19.3075C681.616 19.1265 681.717 18.881 681.717 18.6251C681.717 18.3691 681.616 18.1237 681.435 17.9427C681.254 17.7617 681.008 17.66 680.752 17.66ZM681.246 20.9765C680.916 20.9765 680.599 21.1078 680.365 21.3415C680.131 21.5753 680 21.8923 680 22.2228C680 22.5534 680.131 22.8704 680.365 23.1041C680.599 23.3379 680.916 23.4692 681.246 23.4692C681.577 23.4692 681.894 23.3379 682.127 23.1041C682.361 22.8704 682.492 22.5534 682.492 22.2228C682.492 21.8923 682.361 21.5753 682.127 21.3415C681.894 21.1078 681.577 20.9765 681.246 20.9765ZM683.354 23.9939C683.159 23.9939 682.965 24.0323 682.785 24.107C682.605 24.1816 682.441 24.291 682.303 24.4289C682.166 24.5668 682.056 24.7305 681.982 24.9107C681.907 25.0908 681.869 25.284 681.869 25.479C681.869 25.674 681.907 25.8671 681.982 26.0473C682.056 26.2275 682.166 26.3912 682.303 26.5291C682.441 26.667 682.605 26.7764 682.785 26.851C682.965 26.9256 683.159 26.964 683.354 26.964C683.747 26.964 684.125 26.8076 684.404 26.5291C684.682 26.2506 684.839 25.8728 684.839 25.479C684.839 25.0851 684.682 24.7074 684.404 24.4289C684.125 24.1504 683.747 23.9939 683.354 23.9939ZM686.551 26.2474C686.196 26.2474 685.855 26.3884 685.604 26.6395C685.353 26.8905 685.212 27.2309 685.212 27.586C685.212 27.941 685.353 28.2814 685.604 28.5324C685.855 28.7835 686.196 28.9245 686.551 28.9245C686.906 28.9245 687.246 28.7835 687.497 28.5324C687.748 28.2814 687.889 27.941 687.889 27.586C687.889 27.2309 687.748 26.8905 687.497 26.6395C687.246 26.3884 686.906 26.2474 686.551 26.2474ZM690.072 26.9526C689.759 26.9526 689.459 27.0768 689.238 27.298C689.017 27.5191 688.893 27.8191 688.893 28.1319C688.893 28.4447 689.017 28.7446 689.238 28.9658C689.459 29.187 689.759 29.3112 690.072 29.3112C690.385 29.3112 690.685 29.187 690.906 28.9658C691.127 28.7446 691.252 28.4447 691.252 28.1319C691.252 27.8191 691.127 27.5191 690.906 27.298C690.685 27.0768 690.385 26.9526 690.072 26.9526ZM693.605 26.4293C693.49 26.4293 693.376 26.452 693.27 26.496C693.164 26.54 693.067 26.6046 692.986 26.6859C692.905 26.7673 692.84 26.8638 692.796 26.9701C692.752 27.0764 692.729 27.1903 692.729 27.3054C692.729 27.4204 692.752 27.5344 692.796 27.6406C692.84 27.7469 692.905 27.8435 692.986 27.9249C693.067 28.0062 693.164 28.0708 693.27 28.1148C693.376 28.1588 693.49 28.1815 693.605 28.1815C693.838 28.1815 694.061 28.0892 694.225 27.9249C694.389 27.7606 694.481 27.5377 694.481 27.3054C694.481 27.073 694.389 26.8502 694.225 26.6859C694.061 26.5216 693.838 26.4293 693.605 26.4293ZM696.591 24.5097C696.483 24.5059 696.375 24.5239 696.274 24.5628C696.173 24.6016 696.08 24.6604 696.002 24.7357C695.924 24.811 695.862 24.9012 695.82 25.001C695.778 25.1008 695.756 25.2081 695.756 25.3165C695.756 25.4249 695.778 25.5322 695.82 25.632C695.862 25.7318 695.924 25.822 696.002 25.8973C696.08 25.9726 696.173 26.0314 696.274 26.0703C696.375 26.1091 696.483 26.1271 696.591 26.1233C696.801 26.116 696.999 26.0278 697.144 25.8773C697.289 25.7268 697.37 25.5257 697.37 25.3165C697.37 25.1073 697.289 24.9063 697.144 24.7558C696.999 24.6053 696.801 24.5171 696.591 24.5097ZM698.606 21.5197C698.498 21.517 698.391 21.5359 698.291 21.5753C698.19 21.6146 698.099 21.6736 698.022 21.7488C697.945 21.824 697.884 21.9139 697.842 22.0132C697.8 22.1124 697.778 22.219 697.778 22.3267C697.778 22.4344 697.8 22.5411 697.842 22.6403C697.884 22.7396 697.945 22.8294 698.022 22.9046C698.099 22.9798 698.19 23.0389 698.291 23.0782C698.391 23.1176 698.498 23.1365 698.606 23.1338C698.815 23.1264 699.013 23.0382 699.158 22.8877C699.303 22.7372 699.385 22.5362 699.385 22.327C699.385 22.1178 699.303 21.9167 699.158 21.7662C699.013 21.6157 698.815 21.527 698.606 21.5197ZM706.843 11.4268C706.605 11.4228 706.368 11.4663 706.147 11.5548C705.926 11.6432 705.724 11.7748 705.554 11.9419C705.384 12.109 705.25 12.3083 705.157 12.5281C705.065 12.7479 705.018 12.9838 705.018 13.2221C705.018 13.4604 705.065 13.6963 705.157 13.9161C705.25 14.1359 705.384 14.3351 705.554 14.5022C705.724 14.6693 705.926 14.8009 706.147 14.8894C706.368 14.9778 706.605 15.0213 706.843 15.0173C707.314 15.0095 707.763 14.8169 708.094 14.4811C708.424 14.1453 708.609 13.6931 708.609 13.2221C708.609 12.7511 708.424 12.2989 708.094 11.9631C707.763 11.6273 707.314 11.4347 706.843 11.4268ZM704.56 7.30007C704.36 7.30007 704.161 7.3396 703.976 7.4164C703.79 7.49319 703.622 7.60576 703.48 7.74766C703.338 7.88956 703.225 8.05802 703.149 8.24343C703.072 8.42883 703.032 8.62755 703.032 8.82823C703.032 9.02891 703.072 9.22762 703.149 9.41303C703.225 9.59843 703.338 9.7669 703.48 9.9088C703.622 10.0507 703.79 10.1633 703.976 10.2401C704.161 10.3169 704.36 10.3564 704.56 10.3564C704.966 10.3564 705.354 10.1954 705.641 9.9088C705.928 9.62221 706.089 9.23352 706.089 8.82823C706.089 8.42294 705.928 8.03424 705.641 7.74766C705.354 7.46107 704.966 7.30007 704.56 7.30007ZM701.172 4.06237C700.823 4.06237 700.488 4.20108 700.241 4.44799C699.994 4.6949 699.855 5.02979 699.855 5.37898C699.855 5.72816 699.994 6.06305 700.241 6.30996C700.488 6.55687 700.823 6.69559 701.172 6.69559C701.521 6.69559 701.856 6.55687 702.103 6.30996C702.35 6.06305 702.488 5.72816 702.488 5.37898C702.488 5.02979 702.35 4.6949 702.103 4.44799C701.856 4.20108 701.521 4.06237 701.172 4.06237ZM697.371 2.1029C697.229 2.09983 697.088 2.12514 696.956 2.17734C696.824 2.22954 696.704 2.30759 696.602 2.4069C696.501 2.50621 696.42 2.62478 696.365 2.75566C696.31 2.88655 696.282 3.02711 696.282 3.16909C696.282 3.31108 696.31 3.45164 696.365 3.58252C696.42 3.71341 696.501 3.83198 696.602 3.93129C696.704 4.0306 696.824 4.10864 696.956 4.16085C697.088 4.21305 697.229 4.23836 697.371 4.23529C697.654 4.23529 697.925 4.12293 698.125 3.92293C698.325 3.72294 698.438 3.45168 698.438 3.16884C698.438 2.88601 698.325 2.61475 698.125 2.41475C697.925 2.21476 697.654 2.1024 697.371 2.1024V2.1029ZM693.634 1.09924C693.391 1.09924 693.157 1.19598 692.985 1.36817C692.813 1.54037 692.716 1.77391 692.716 2.01743C692.716 2.26095 692.813 2.4945 692.985 2.66669C693.157 2.83888 693.391 2.93562 693.634 2.93562C693.878 2.93562 694.111 2.83888 694.284 2.66669C694.456 2.4945 694.553 2.26095 694.553 2.01743C694.553 1.77391 694.456 1.54037 694.284 1.36817C694.111 1.19598 693.878 1.09924 693.634 1.09924ZM690.12 0.83313C690.016 0.83313 689.914 0.85356 689.818 0.893255C689.722 0.932949 689.635 0.991131 689.562 1.06448C689.488 1.13782 689.43 1.2249 689.39 1.32073C689.351 1.41656 689.33 1.51927 689.33 1.623C689.33 1.72672 689.351 1.82943 689.39 1.92527C689.43 2.0211 689.488 2.10817 689.562 2.18152C689.635 2.25486 689.722 2.31304 689.818 2.35274C689.914 2.39243 690.016 2.41286 690.12 2.41286C690.33 2.41286 690.53 2.32965 690.679 2.18152C690.827 2.03339 690.91 1.83248 690.91 1.623C690.91 1.41351 690.827 1.21261 690.679 1.06448C690.53 0.916348 690.33 0.83313 690.12 0.83313ZM686.617 1.09526C686.373 1.09526 686.138 1.19223 685.966 1.36484C685.793 1.53746 685.696 1.77157 685.696 2.01569C685.696 2.2598 685.793 2.49392 685.966 2.66653C686.138 2.83915 686.373 2.93612 686.617 2.93612C686.857 2.93053 687.086 2.83112 687.254 2.65916C687.422 2.48721 687.516 2.25634 687.516 2.01594C687.516 1.77553 687.422 1.54467 687.254 1.37271C687.086 1.20075 686.857 1.10085 686.617 1.09526ZM682.879 2.1029C682.739 2.1029 682.6 2.13049 682.471 2.18411C682.341 2.23773 682.224 2.31632 682.125 2.4154C682.026 2.51447 681.947 2.63209 681.893 2.76154C681.84 2.89099 681.812 3.02973 681.812 3.16984C681.812 3.30995 681.84 3.44869 681.893 3.57814C681.947 3.70759 682.026 3.82521 682.125 3.92428C682.224 4.02336 682.341 4.10195 682.471 4.15557C682.6 4.20919 682.739 4.23678 682.879 4.23678C683.162 4.23678 683.434 4.12437 683.634 3.92428C683.834 3.72419 683.946 3.45281 683.946 3.16984C683.946 2.88687 683.834 2.61549 683.634 2.4154C683.434 2.21531 683.162 2.1029 682.879 2.1029ZM679.075 4.05838C678.726 4.05838 678.391 4.1972 678.144 4.4443C677.897 4.6914 677.758 5.02654 677.758 5.37599C677.758 5.72544 677.897 6.06058 678.144 6.30768C678.391 6.55478 678.726 6.69359 679.075 6.69359C679.425 6.69359 679.76 6.55478 680.007 6.30768C680.254 6.06058 680.393 5.72544 680.393 5.37599C680.393 5.02654 680.254 4.6914 680.007 4.4443C679.76 4.1972 679.425 4.05838 679.075 4.05838ZM675.686 7.30007C675.483 7.29641 675.282 7.33319 675.093 7.40827C674.905 7.48334 674.733 7.59521 674.589 7.73734C674.444 7.87946 674.329 8.049 674.251 8.23605C674.172 8.42309 674.132 8.6239 674.132 8.82673C674.132 9.02957 674.172 9.23038 674.251 9.41742C674.329 9.60447 674.444 9.774 674.589 9.91613C674.733 10.0583 674.905 10.1701 675.093 10.2452C675.282 10.3203 675.483 10.3571 675.686 10.3534C676.086 10.3462 676.468 10.1821 676.748 9.89663C677.028 9.61111 677.185 9.22692 677.185 8.82673C677.185 8.42655 677.028 8.04236 676.748 7.75684C676.468 7.47132 676.086 7.3073 675.686 7.30007ZM673.406 11.4328C673.167 11.4288 672.931 11.4723 672.709 11.5608C672.488 11.6492 672.287 11.7808 672.117 11.9479C671.947 12.115 671.812 12.3143 671.72 12.534C671.628 12.7538 671.58 12.9898 671.58 13.2281C671.58 13.4664 671.628 13.7023 671.72 13.9221C671.812 14.1419 671.947 14.3411 672.117 14.5082C672.287 14.6753 672.488 14.8069 672.709 14.8954C672.931 14.9838 673.167 15.0273 673.406 15.0233C673.877 15.0155 674.326 14.8229 674.656 14.4871C674.986 14.1512 675.171 13.6991 675.171 13.2281C675.171 12.757 674.986 12.3049 674.656 11.9691C674.326 11.6332 673.877 11.4406 673.406 11.4328ZM672.582 16.6977C672.031 16.6977 671.502 16.9167 671.112 17.3065C670.722 17.6964 670.503 18.225 670.503 18.7763C670.503 19.3276 670.722 19.8563 671.112 20.2461C671.502 20.6359 672.031 20.8549 672.582 20.8549C673.133 20.8549 673.662 20.6359 674.052 20.2461C674.442 19.8563 674.661 19.3276 674.661 18.7763C674.661 18.225 674.442 17.6964 674.052 17.3065C673.662 16.9167 673.133 16.6977 672.582 16.6977ZM673.407 22.5263C673.167 22.5207 672.929 22.563 672.706 22.6507C672.483 22.7385 672.28 22.8699 672.109 23.0373C671.937 23.2047 671.801 23.4046 671.708 23.6254C671.615 23.8462 671.567 24.0833 671.567 24.3228C671.567 24.5624 671.615 24.7995 671.708 25.0203C671.801 25.241 671.937 25.441 672.109 25.6084C672.28 25.7758 672.483 25.9072 672.706 25.9949C672.929 26.0827 673.167 26.125 673.407 26.1193C673.876 26.1083 674.322 25.9142 674.65 25.5785C674.978 25.2428 675.161 24.7921 675.161 24.3228C675.161 23.8536 674.978 23.4029 674.65 23.0672C674.322 22.7315 673.876 22.5374 673.407 22.5263ZM675.688 27.1977C675.283 27.1977 674.895 27.3585 674.609 27.6448C674.323 27.931 674.162 28.3191 674.162 28.7239C674.162 29.1287 674.323 29.5169 674.609 29.8031C674.895 30.0893 675.283 30.2501 675.688 30.2501C676.093 30.2501 676.481 30.0893 676.767 29.8031C677.054 29.5169 677.214 29.1287 677.214 28.7239C677.214 28.3191 677.054 27.931 676.767 27.6448C676.481 27.3585 676.093 27.1977 675.688 27.1977ZM679.073 30.8556C678.723 30.8556 678.388 30.9944 678.141 31.2415C677.894 31.4886 677.755 31.8237 677.755 32.1732C677.755 32.5226 677.894 32.8578 678.141 33.1049C678.388 33.352 678.723 33.4908 679.073 33.4908C679.422 33.4908 679.757 33.352 680.005 33.1049C680.252 32.8578 680.39 32.5226 680.39 32.1732C680.39 31.8237 680.252 31.4886 680.005 31.2415C679.757 30.9944 679.422 30.8556 679.073 30.8556ZM682.879 33.3109C682.596 33.3109 682.325 33.4233 682.124 33.6235C681.924 33.8237 681.812 34.0952 681.812 34.3783C681.812 34.6614 681.924 34.9329 682.124 35.1331C682.325 35.3333 682.596 35.4458 682.879 35.4458C683.162 35.4458 683.434 35.3333 683.634 35.1331C683.834 34.9329 683.947 34.6614 683.947 34.3783C683.947 34.0952 683.834 33.8237 683.634 33.6235C683.434 33.4233 683.162 33.3109 682.879 33.3109ZM686.619 34.6145C686.375 34.6145 686.141 34.7114 685.969 34.8838C685.797 35.0562 685.7 35.2901 685.7 35.534C685.7 35.7778 685.797 36.0117 685.969 36.1841C686.141 36.3565 686.375 36.4534 686.619 36.4534C686.863 36.4534 687.097 36.3565 687.269 36.1841C687.442 36.0117 687.539 35.7778 687.539 35.534C687.539 35.2901 687.442 35.0562 687.269 34.8838C687.097 34.7114 686.863 34.6145 686.619 34.6145ZM690.128 35.1308C689.918 35.1308 689.717 35.2142 689.568 35.3626C689.42 35.511 689.337 35.7123 689.337 35.9222C689.337 36.132 689.42 36.3333 689.568 36.4817C689.717 36.6302 689.918 36.7135 690.128 36.7135C690.338 36.7135 690.539 36.6302 690.688 36.4817C690.836 36.3333 690.919 36.132 690.919 35.9222C690.919 35.7123 690.836 35.511 690.688 35.3626C690.539 35.2142 690.338 35.1308 690.128 35.1308ZM693.631 34.6135C693.387 34.6135 693.154 34.7104 692.981 34.8828C692.809 35.0552 692.712 35.2891 692.712 35.533C692.712 35.7768 692.809 36.0107 692.981 36.1831C693.154 36.3555 693.387 36.4524 693.631 36.4524C693.875 36.4524 694.109 36.3555 694.281 36.1831C694.454 36.0107 694.551 35.7768 694.551 35.533C694.551 35.2891 694.454 35.0552 694.281 34.8828C694.109 34.7104 693.875 34.6135 693.631 34.6135ZM697.371 33.3129C697.087 33.3129 696.815 33.4257 696.614 33.6265C696.413 33.8273 696.301 34.0996 696.301 34.3835C696.301 34.6675 696.413 34.9398 696.614 35.1406C696.815 35.3414 697.087 35.4542 697.371 35.4542C697.655 35.4542 697.928 35.3414 698.128 35.1406C698.329 34.9398 698.442 34.6675 698.442 34.3835C698.442 34.0996 698.329 33.8273 698.128 33.6265C697.928 33.4257 697.655 33.3129 697.371 33.3129ZM701.175 30.8521C700.825 30.8521 700.49 30.991 700.242 31.2383C699.995 31.4856 699.856 31.821 699.856 32.1707C699.856 32.5204 699.995 32.8558 700.242 33.1031C700.49 33.3503 700.825 33.4893 701.175 33.4893C701.524 33.4893 701.86 33.3503 702.107 33.1031C702.354 32.8558 702.493 32.5204 702.493 32.1707C702.493 31.821 702.354 31.4856 702.107 31.2383C701.86 30.991 701.524 30.8521 701.175 30.8521ZM704.563 27.1968C704.159 27.1968 703.771 27.3574 703.485 27.6432C703.2 27.9291 703.039 28.3169 703.039 28.7212C703.039 29.1255 703.2 29.5132 703.485 29.7991C703.771 30.085 704.159 30.2456 704.563 30.2456C704.968 30.2456 705.355 30.085 705.641 29.7991C705.927 29.5132 706.088 29.1255 706.088 28.7212C706.088 28.3169 705.927 27.9291 705.641 27.6432C705.355 27.3574 704.968 27.1968 704.563 27.1968ZM706.845 22.5293C706.606 22.5253 706.369 22.5689 706.147 22.6575C705.926 22.7461 705.724 22.8779 705.554 23.0453C705.384 23.2127 705.248 23.4122 705.156 23.6324C705.064 23.8525 705.016 24.0889 705.016 24.3276C705.016 24.5663 705.064 24.8026 705.156 25.0227C705.248 25.2429 705.384 25.4425 705.554 25.6098C705.724 25.7772 705.926 25.909 706.147 25.9976C706.369 26.0862 706.606 26.1298 706.845 26.1258C707.317 26.118 707.766 25.9251 708.097 25.5887C708.428 25.2523 708.613 24.7994 708.613 24.3276C708.613 23.8558 708.428 23.4028 708.097 23.0665C707.766 22.7301 707.317 22.5372 706.845 22.5293Z" fill="#9799F8"></path>
    <path d="M730.989 25.8946C730.989 26.0376 730.906 26.1422 730.741 26.1422H728.207C727.98 26.1422 727.896 25.9319 727.794 25.7271L724.805 20.6959H724.346C723.804 20.6959 722.127 20.6366 721.65 20.6122V25.7271C721.65 25.9544 721.482 26.1422 721.254 26.1422H719.179C719.069 26.1413 718.964 26.0972 718.887 26.0195C718.809 25.9419 718.766 25.8368 718.765 25.7271V12.1289C718.765 11.7138 719.011 11.5683 719.429 11.507C720.509 11.3421 722.828 11.2394 724.345 11.2394C727.539 11.2394 730.49 12.3811 730.49 15.9273V16.1157C730.49 18.3118 729.392 19.5143 727.691 20.1751L730.947 25.7271C730.979 25.7767 730.994 25.8356 730.989 25.8946ZM727.628 15.9278C727.628 14.3715 726.421 13.7072 724.346 13.7072C723.908 13.7072 722.02 13.749 721.65 13.7909V18.2889C721.979 18.3103 723.989 18.3522 724.346 18.3522C726.48 18.3522 727.628 17.9406 727.628 16.1157V15.9273V15.9278ZM799.86 25.8946C799.86 26.0376 799.777 26.1422 799.612 26.1422H797.078C796.851 26.1422 796.767 25.9319 796.664 25.7271L793.675 20.6959H793.216C792.674 20.6959 790.998 20.6366 790.52 20.6122V25.7271C790.52 25.9544 790.353 26.1422 790.125 26.1422H788.049C787.94 26.1413 787.835 26.0972 787.757 26.0195C787.68 25.9419 787.636 25.8368 787.636 25.7271V12.1289C787.636 11.7138 787.882 11.5683 788.3 11.507C789.38 11.3421 791.699 11.2394 793.216 11.2394C796.41 11.2394 799.36 12.3811 799.36 15.9273V16.1157C799.36 18.3118 798.262 19.5143 796.562 20.1751L799.817 25.7271C799.849 25.7768 799.864 25.8356 799.86 25.8946ZM796.499 15.9278C796.499 14.3715 795.291 13.7072 793.216 13.7072C792.778 13.7072 790.891 13.749 790.52 13.7909V18.2889C790.849 18.3103 792.86 18.3522 793.216 18.3522C795.351 18.3522 796.499 17.9406 796.499 16.1157V15.9273V15.9278ZM736.073 19.7167H742.715C742.824 19.7164 742.929 19.673 743.007 19.5958C743.085 19.5187 743.129 19.414 743.13 19.3045V17.8065C743.129 17.6969 743.085 17.5922 743.007 17.5149C742.929 17.4375 742.824 17.3939 742.715 17.3934H736.073V15.4907C736.073 13.7555 736.14 13.7077 737.71 13.7077H742.962C743.073 13.7068 743.178 13.6626 743.256 13.5846C743.334 13.5067 743.378 13.4012 743.379 13.2911V11.9655C743.379 11.674 743.274 11.5688 742.962 11.5289C742.299 11.4273 740.947 11.2399 738.48 11.2399C735.035 11.2399 733.208 11.216 733.208 15.4907V22.0559C733.208 26.3311 735.035 26.3072 738.48 26.3072C740.947 26.3072 742.299 26.1218 742.962 26.0167C743.274 25.9768 743.379 25.8731 743.379 25.5806V24.255C743.378 24.1452 743.333 24.0401 743.256 23.9627C743.178 23.8852 743.072 23.8417 742.962 23.8414H737.71C736.14 23.8414 736.073 23.7946 736.073 22.0559V19.7167ZM777.07 19.7167H783.711C783.82 19.7165 783.925 19.6732 784.003 19.596C784.081 19.5189 784.125 19.4141 784.126 19.3045V17.8065C784.125 17.6968 784.081 17.592 784.003 17.5147C783.925 17.4374 783.82 17.3938 783.711 17.3934H777.07V15.4907C777.07 13.7555 777.136 13.7077 778.706 13.7077H783.958C784.069 13.7069 784.174 13.6628 784.252 13.5848C784.33 13.5068 784.374 13.4013 784.375 13.2911V11.9655C784.375 11.674 784.27 11.5688 783.959 11.5289C783.295 11.4273 781.943 11.2399 779.476 11.2399C776.031 11.2399 774.204 11.216 774.204 15.4907V22.0559C774.204 26.3311 776.031 26.3072 779.476 26.3072C781.943 26.3072 783.295 26.1218 783.959 26.0167C784.27 25.9768 784.375 25.8731 784.375 25.5806V24.255C784.374 24.1452 784.33 24.0401 784.252 23.9627C784.174 23.8852 784.069 23.8417 783.959 23.8414H778.706C777.136 23.8414 777.069 23.7946 777.069 22.0559V19.7172L777.07 19.7167ZM758.465 20.4333V11.7985C758.465 11.5683 758.279 11.4044 758.048 11.4044H755.995C755.766 11.4044 755.581 11.5683 755.581 11.798V20.4333C755.581 22.7999 754.489 23.9216 752.247 23.9216C750.01 23.9216 748.916 22.7999 748.916 20.4333V11.7985C748.916 11.5683 748.73 11.4044 748.5 11.4044H746.45C746.222 11.4044 746.033 11.5683 746.033 11.798V20.4333C746.033 24.855 748.909 26.3067 752.248 26.3067C755.589 26.3067 758.465 24.855 758.465 20.4333ZM771.882 13.8093H767.744V25.7271C767.743 25.8374 767.699 25.943 767.62 26.0207C767.542 26.0984 767.436 26.1421 767.326 26.1422H765.274C765.164 26.1417 765.059 26.0978 764.982 26.02C764.904 25.9422 764.861 25.8369 764.86 25.7271V13.8098H760.717C760.49 13.8098 760.301 13.6663 760.301 13.4386V11.799C760.301 11.5688 760.49 11.4049 760.717 11.4049H771.882C772.11 11.4049 772.298 11.5693 772.298 11.799V13.4386C772.298 13.6663 772.11 13.8098 771.882 13.8098V13.8093ZM812.54 21.9721C812.54 19.9818 811.408 18.9522 809.655 18.2446C808.277 17.6904 807.066 17.2195 806.144 16.8567C805.226 16.4929 804.445 15.8635 804.445 15.1803C804.445 14.2484 805.6 13.7077 807.132 13.7077C808.939 13.7077 810.359 13.9598 811.73 14.0849H811.772C811.978 14.0849 812.122 13.9165 812.122 13.7112V12.1753C812.122 11.9695 811.959 11.8235 811.75 11.7831C811.047 11.6142 809.237 11.2379 807.258 11.2379C803.401 11.2379 801.561 12.8974 801.561 15.1808C801.561 16.6314 802.2 18.0617 804.009 18.8082C805.82 19.5557 809.53 20.4168 809.53 21.9726C809.53 23.1756 808.97 23.8369 807.122 23.8369C805.204 23.8369 803.262 23.5653 802.431 23.4612H802.39C802.285 23.4617 802.185 23.5036 802.112 23.5776C802.038 23.6517 801.997 23.7519 801.997 23.8564V25.3514C801.997 25.5796 802.184 25.7226 802.39 25.764C803.388 25.9932 805.248 26.3092 807.08 26.3092C811.233 26.3092 812.54 24.0667 812.54 21.9721ZM814.054 14.2474C814.054 15.877 815.256 17.2564 817.09 17.2564C818.924 17.2564 820.139 15.8765 820.139 14.2474C820.139 12.6049 818.923 11.2544 817.089 11.2544C815.256 11.2544 814.054 12.6049 814.054 14.2474ZM814.496 14.2474C814.496 12.7982 815.517 11.6411 817.09 11.6411C818.676 11.6411 819.696 12.7982 819.696 14.2474C819.696 15.6971 818.676 16.8701 817.09 16.8701C815.517 16.8701 814.497 15.6971 814.497 14.2474H814.496ZM818.468 15.5879L817.81 14.4667C818.153 14.3336 818.376 14.0909 818.376 13.6474V13.61C818.376 12.8934 817.78 12.6632 817.134 12.6632C816.829 12.6632 816.36 12.6841 816.143 12.718C816.058 12.7294 816.008 12.7588 816.008 12.8426V15.5884C816.009 15.6105 816.018 15.6316 816.034 15.6472C816.049 15.6627 816.071 15.6715 816.093 15.6716H816.511C816.557 15.6716 816.59 15.6338 816.59 15.5884V14.5554C816.687 14.5603 817.026 14.5728 817.134 14.5728H817.227L817.832 15.5884C817.852 15.6293 817.869 15.6716 817.915 15.6716H818.426C818.459 15.6716 818.476 15.6502 818.476 15.6218C818.476 15.6123 818.476 15.5999 818.468 15.5879ZM817.798 13.6479C817.798 14.0157 817.566 14.0989 817.134 14.0989C817.064 14.0989 816.658 14.0904 816.59 14.0859V13.1784C816.771 13.1681 816.953 13.1625 817.134 13.1615C817.554 13.1615 817.798 13.2956 817.798 13.61V13.6479Z" fill="#9799F8"></path>
  </g>
  <g clip-path="url(#clip2_6876_60898)">
    <mask id="mask0_6876_60898" style="mask-type:luminance" maskUnits="userSpaceOnUse" x="852" y="0" width="33" height="38">
      <path d="M852.259 37.1385H884.259V0.10144H852.259V37.1385Z" fill="white"></path>
    </mask>
    <g mask="url(#mask0_6876_60898)">
      <path fill-rule="evenodd" clip-rule="evenodd" d="M852.259 33.2773H884.259V0.10144H852.259V33.2773Z" fill="white"></path>
    </g>
    <mask id="mask1_6876_60898" style="mask-type:luminance" maskUnits="userSpaceOnUse" x="852" y="0" width="33" height="38">
      <path d="M852.259 37.1385H884.259V0.10144H852.259V37.1385Z" fill="#FF322E"></path>
    </mask>
    <g mask="url(#mask1_6876_60898)">
      <path fill-rule="evenodd" clip-rule="evenodd" d="M852.259 33.2773H884.259V37.1447H852.26L852.259 33.2773Z" fill="#9799F8"></path>
    </g>
    <path fill-rule="evenodd" clip-rule="evenodd" d="M859.625 8.83167L854.246 24.9664H858.14L861.794 13.5618L863.625 19.2635H861.256L860.31 22.5182H864.67L865.456 24.9664H869.462L864.084 8.83167H859.625ZM875.582 8.83167H869.991V24.9664H873.857V12.0865H875.416C877.224 12.0865 878.253 12.9487 878.253 14.5066C878.253 16.0366 877.224 16.9268 875.416 16.9268H875.165V20.1816H875.582C879.755 20.1816 882.203 18.0811 882.203 14.5066C882.203 10.8624 879.755 8.83167 875.582 8.83167Z" fill="#9799F8"></path>
  </g>
  <path d="M410.039 69.5466L422.192 101.547H424.43L412.277 69.5466H410.039Z" fill="#9799F8"></path>
  <path d="M435.972 85.5498C436.696 85.7915 437.36 86.0383 437.963 86.2904C438.528 86.5205 439.059 86.8249 439.543 87.1955C439.983 87.5351 440.343 87.9677 440.596 88.4625C440.861 89.0117 440.991 89.6162 440.975 90.2257V90.2584C441.013 90.9947 440.883 91.73 440.595 92.4088C440.307 93.0875 439.869 93.6921 439.313 94.1768C438.204 95.1198 436.652 95.5915 434.655 95.5919C433.398 95.5906 432.151 95.3717 430.969 94.9448C429.751 94.5073 428.608 93.886 427.579 93.1025L427.545 93.0692L427.579 93.0359L429.817 89.5028L429.85 89.5355C430.478 90.2166 431.24 90.7603 432.088 91.1322C432.93 91.4956 433.837 91.6804 434.754 91.6749C436.048 91.6749 436.696 91.2589 436.696 90.4269C436.695 90.233 436.634 90.0441 436.523 89.8857C436.411 89.7273 436.253 89.6071 436.07 89.5413C435.591 89.3202 435.096 89.1334 434.589 88.9823C434.489 88.9422 434.384 88.9147 434.277 88.9007C434.169 88.888 434.064 88.8603 433.964 88.8184C433.306 88.6442 432.648 88.4529 431.989 88.2444C431.358 88.0495 430.759 87.7619 430.212 87.3908C429.685 87.0282 429.242 86.5567 428.912 86.0083C428.548 85.352 428.371 84.6079 428.402 83.8577V83.7924C428.393 83.0694 428.539 82.3529 428.83 81.6909C429.111 81.0614 429.527 80.501 430.048 80.0491C430.607 79.5707 431.256 79.2082 431.957 78.9826C432.754 78.7226 433.587 78.5949 434.425 78.6045C435.507 78.6088 436.583 78.7696 437.618 79.0819C438.681 79.395 439.691 79.8665 440.613 80.4808V80.5461L438.606 84.1993L438.573 84.1666C438.037 83.6418 437.398 83.2328 436.697 82.965C435.942 82.6675 435.138 82.5168 434.327 82.5209C434.151 82.5223 433.975 82.5334 433.8 82.5542C433.61 82.5735 433.426 82.6292 433.257 82.7181C433.097 82.8026 432.957 82.9204 432.846 83.0636C432.725 83.243 432.667 83.4572 432.681 83.6729C432.684 83.7768 432.708 83.879 432.753 83.9727C432.798 84.0663 432.863 84.1494 432.942 84.2163C433.145 84.3995 433.372 84.5543 433.617 84.6767C433.916 84.831 434.224 84.9686 434.539 85.0888C434.879 85.2194 435.213 85.34 435.543 85.4506C435.615 85.4517 435.687 85.4626 435.756 85.4832C435.833 85.5054 435.905 85.5276 435.971 85.5485" fill="#9799F8"></path>
  <path d="M442.62 78.8684H446.995V95.3255H442.62V78.8684ZM442.62 72.2855H446.995V76.1386H442.62V72.2855Z" fill="#9799F8"></path>
  <path d="M455.917 81.6988H460.755V85.3507H457.925L455.917 81.6988ZM460.755 72.2849V76.138H457.167C456.91 76.1262 456.654 76.1804 456.424 76.2955C456.193 76.4107 455.996 76.5828 455.851 76.7956C455.516 77.3377 455.355 77.9696 455.39 78.6059V95.3243H451.015V85.3507H448.643V81.6988H451.013V78.4074C451.009 77.5932 451.171 76.7867 451.49 76.0374C452.112 74.5597 453.287 73.3841 454.765 72.7623C455.525 72.4417 456.342 72.2792 457.167 72.2849H460.755Z" fill="#9799F8"></path>
  <path d="M473.855 80.5833V84.2366H471.42L469.379 80.5833H473.855ZM468.819 89.6975C468.815 89.9375 468.861 90.1756 468.955 90.3967C469.048 90.6177 469.187 90.8167 469.363 90.9807C469.533 91.1511 469.736 91.2855 469.959 91.3761C470.182 91.4666 470.421 91.5114 470.662 91.5077H473.855V95.3255H470.662C469.833 95.3304 469.011 95.1681 468.246 94.8482C467.506 94.5434 466.834 94.096 466.267 93.5316C465.704 92.9674 465.252 92.3029 464.934 91.5724C464.602 90.8152 464.434 89.9965 464.44 89.1698V84.2326H462.072V80.5833H464.442V74.6222H468.817L468.819 89.6975Z" fill="#9799F8"></path>
  <path d="M482.906 78.6045C484.039 78.5984 485.16 78.8284 486.198 79.2798C488.232 80.1506 489.852 81.771 490.724 83.8048C491.177 84.8543 491.406 85.9865 491.398 87.1296C491.4 87.7492 491.335 88.3672 491.202 88.9725L491.169 89.0378H482.81L480.7 85.6811H486.953C486.669 84.794 486.138 84.0062 485.423 83.4097C484.718 82.8204 483.824 82.505 482.905 82.5216C482.326 82.5186 481.753 82.6418 481.226 82.8827C480.713 83.1137 480.249 83.4422 479.861 83.8499C479.468 84.2675 479.16 84.7578 478.955 85.2932C478.733 85.8738 478.622 86.4914 478.629 87.1132C478.634 87.6459 478.735 88.1734 478.925 88.6708C479.121 89.2045 479.411 89.6988 479.781 90.1304C480.162 90.5738 480.619 90.9458 481.13 91.2288C481.674 91.5283 482.287 91.681 482.908 91.6716C483.462 91.678 484.013 91.5947 484.54 91.4247C485.106 91.205 485.594 90.8208 485.939 90.3217L485.972 90.2891L486.037 90.3217L489.855 92.0034L489.79 92.0687C489.013 93.1648 487.979 94.0536 486.778 94.6574C485.582 95.2721 484.256 95.591 482.911 95.5874C481.764 95.5948 480.628 95.3707 479.57 94.9284C478.555 94.5085 477.632 93.8935 476.854 93.1181C476.08 92.3423 475.459 91.4267 475.026 90.4197C474.575 89.3814 474.345 88.2604 474.351 87.1283C474.343 85.9852 474.573 84.8529 475.026 83.8035C475.897 81.7641 477.525 80.1419 479.568 79.2785C480.623 78.8257 481.761 78.5958 482.909 78.6032" fill="#9799F8"></path>
  <path d="M510.752 72.2848V95.3248H506.341L506.374 87.0636C506.377 86.4615 506.248 85.8661 505.996 85.3192C505.754 84.7871 505.42 84.3023 505.008 83.8877C504.594 83.4762 504.102 83.1514 503.56 82.9323C502.991 82.7003 502.381 82.5829 501.766 82.5868C501.157 82.5818 500.552 82.6993 499.989 82.9323C499.451 83.1559 498.964 83.4863 498.557 83.9034C498.149 84.3237 497.82 84.8144 497.586 85.3519C497.347 85.914 497.224 86.5185 497.224 87.1292C497.224 87.7399 497.347 88.3444 497.586 88.9065C498.05 89.9852 498.91 90.8451 499.989 91.3091C500.549 91.5536 501.155 91.6771 501.766 91.6716C502.075 91.6719 502.383 91.6501 502.688 91.6063C502.985 91.5662 503.274 91.4779 503.543 91.345H503.609L505.222 94.3073L505.188 94.34C504.053 95.1943 502.659 95.6357 501.239 95.5912C500.121 95.598 499.014 95.3832 497.98 94.9594C496.946 94.5356 496.007 93.9111 495.216 93.122C494.441 92.3462 493.82 91.4306 493.387 90.4236C492.942 89.3833 492.712 88.2636 492.712 87.1321C492.712 86.0007 492.942 84.881 493.387 83.8407C493.821 82.8336 494.441 81.9178 495.216 81.1416C496.007 80.3525 496.946 79.728 497.98 79.3043C499.014 78.8805 500.121 78.666 501.239 78.673C502.236 78.6222 503.23 78.8249 504.128 79.2623C505.026 79.6997 505.799 80.3575 506.374 81.1743V72.2848H510.752Z" fill="#9799F8"></path>
  <path d="M527.334 69.5466L515.182 101.547H517.42L529.573 69.5466H527.334Z" fill="#9799F8"></path>
  <g clip-path="url(#clip3_6876_60898)">
    <path fill-rule="evenodd" clip-rule="evenodd" d="M569.557 101.547H571.953V88.7466H569.557V101.547ZM578.34 101.355H580.486V93.2786L589.519 101.547V88.9386H587.379V96.8766L578.34 88.7466V101.355ZM594.418 98.2546C595.586 99.1646 596.988 99.6906 598.491 99.6906C599.955 99.6906 600.982 99.1866 600.982 98.0736C600.982 97.1036 600.327 96.7236 599.18 96.2986L597.323 95.6536C595.611 95.0456 594.309 94.1576 594.309 92.1166C594.309 89.9336 596.28 88.7466 598.637 88.7466C600.081 88.7466 601.397 89.1096 602.425 89.7526V91.9176C601.356 91.1276 600.186 90.5836 598.683 90.5836C597.389 90.5836 596.422 91.0666 596.422 92.0736C596.422 92.9836 597.029 93.3476 598.098 93.7136L600.167 94.4396C602.172 95.1446 603.092 96.2376 603.092 98.0356C603.092 100.298 601.102 101.547 598.491 101.547C596.775 101.547 595.316 101.067 594.418 100.461V98.2546ZM608.682 101.547H611.077V88.7466H608.682V101.547ZM622.313 99.6096C625.013 99.6096 626.456 97.8776 626.456 95.1436C626.456 92.3896 625.012 90.6636 622.313 90.6636H619.643V99.6096H622.313ZM617.463 88.7466H622.393C626.188 88.7466 628.642 91.2466 628.642 95.1436C628.642 99.0436 626.188 101.547 622.393 101.547H617.463V88.7466ZM640.62 88.7466V90.6636H634.823V93.7436H640.022V95.6386H634.822V99.6096H640.62V101.547H632.635V88.7466H640.62ZM649.122 94.5426H651.499C652.906 94.5426 653.699 93.7706 653.699 92.5836C653.699 91.3966 652.906 90.6236 651.499 90.6236H649.122V94.5426ZM649.122 96.3526V101.547H647.007V88.7466H651.539C654.123 88.7466 655.795 90.0776 655.795 92.5836C655.795 94.7266 654.867 95.9576 652.89 96.2736L657.387 101.547H654.981L650.627 96.3536H649.123L649.122 96.3526ZM568.72 76.1366C569.657 75.7936 570.387 74.7646 570.387 73.3496C570.387 70.9916 568.72 69.7696 566.053 69.7696H561.573V82.9326H566.469C569.136 82.9326 570.803 81.6246 570.803 79.1596C570.803 77.7656 569.928 76.5436 568.72 76.1366ZM563.677 75.3006V71.6996H566.033C567.513 71.6996 568.304 72.2356 568.304 73.4786C568.304 74.7216 567.512 75.3006 566.033 75.3006H563.677ZM563.677 77.1446H566.427C567.887 77.1446 568.678 77.8726 568.678 79.0736C568.678 80.2526 567.886 81.0036 566.428 81.0036H563.678V77.1436L563.677 77.1446ZM580.578 83.1466C583.641 83.1466 585.704 81.3026 585.704 77.7016V69.7696H583.537V77.4436C583.537 79.9736 582.495 81.1536 580.578 81.1536C578.661 81.1536 577.62 79.9736 577.62 77.4436V69.7696H575.453V77.6796C575.453 81.3026 577.536 83.1466 580.578 83.1466ZM590.806 81.9886C591.702 82.6326 593.161 83.1466 594.869 83.1466C597.474 83.1466 599.453 81.8166 599.453 79.4166C599.453 77.5086 598.537 76.3506 596.536 75.6006L594.474 74.8286C593.411 74.4436 592.807 74.0576 592.807 73.0926C592.807 72.0206 593.765 71.5066 595.057 71.5066C596.557 71.5066 597.724 72.0846 598.787 72.9216V70.6266C597.766 69.9416 596.453 69.5556 595.015 69.5556C592.661 69.5556 590.702 70.8206 590.702 73.1356C590.702 75.3006 591.994 76.2436 593.702 76.8866L595.557 77.5726C596.703 78.0226 597.349 78.4306 597.349 79.4596C597.349 80.6386 596.328 81.1746 594.869 81.1746C593.369 81.1746 591.973 80.6166 590.806 79.6526V81.9886ZM607.196 69.7696H605.03V82.9316H607.196V69.7696ZM613.378 82.9156H615.466V74.3526L624.254 83.1196V69.7496H622.172V78.1666L613.378 69.5466V82.9156ZM637.795 69.7726V71.7436H632.169V74.9116H637.214V76.8606H632.169V80.9436H637.795V82.9356H630.045V69.7726H637.795ZM642.84 81.9796C643.736 82.6236 645.194 83.1376 646.903 83.1376C649.507 83.1376 651.487 81.8086 651.487 79.4076C651.487 77.4996 650.57 76.3426 648.57 75.5916L646.507 74.8206C645.444 74.4346 644.84 74.0486 644.84 73.0836C644.84 72.0116 645.798 71.4976 647.09 71.4976C648.59 71.4976 649.757 72.0766 650.82 72.9126V70.6186C649.799 69.9326 648.486 69.5466 647.048 69.5466C644.694 69.5466 642.735 70.8116 642.735 73.1266C642.735 75.2916 644.027 76.2346 645.735 76.8776L647.59 77.5636C648.736 78.0136 649.382 78.4216 649.382 79.4506C649.382 80.6296 648.362 81.1656 646.902 81.1656C645.402 81.1656 644.006 80.6086 642.84 79.6436V81.9796ZM655.926 81.9796C656.822 82.6236 658.281 83.1376 659.989 83.1376C662.594 83.1376 664.573 81.8086 664.573 79.4076C664.573 77.4996 663.656 76.3426 661.656 75.5916L659.593 74.8206C658.531 74.4346 657.926 74.0486 657.926 73.0836C657.926 72.0116 658.885 71.4976 660.176 71.4976C661.676 71.4976 662.844 72.0766 663.906 72.9126V70.6186C662.886 69.9326 661.573 69.5466 660.135 69.5466C657.78 69.5466 655.822 70.8116 655.822 73.1266C655.822 75.2916 657.114 76.2346 658.822 76.8776L660.677 77.5636C661.823 78.0136 662.469 78.4216 662.469 79.4506C662.469 80.6296 661.448 81.1656 659.989 81.1656C658.489 81.1656 657.093 80.6086 655.926 79.6436V81.9796Z" fill="#9799F8"></path>
  </g>
  <g clip-path="url(#clip4_6876_60898)">
    <path d="M696.573 77.3365H703.438L707.435 87.5633L711.484 77.3365H718.168L708.103 101.547H701.377L704.132 95.1313L696.573 77.3365Z" fill="#9799F8"></path>
    <path d="M725.132 76.9294C719.974 76.9294 716.713 81.5553 716.713 86.1618C716.713 91.3456 720.288 95.4554 725.034 95.4554C728.574 95.4554 729.909 93.2985 729.909 93.2985V94.9787H735.897V77.3367H729.909V78.9405C729.909 78.9405 728.42 76.9294 725.132 76.9294ZM726.406 82.5989C728.785 82.5989 730.014 84.482 730.014 86.1812C730.014 88.0109 728.698 89.8065 726.406 89.8065C724.506 89.8065 722.789 88.254 722.789 86.2591C722.789 84.236 724.17 82.5989 726.406 82.5989Z" fill="#9799F8"></path>
    <path d="M737.958 94.9786V69.5466H744.22V79.0016C744.22 79.0016 745.708 76.9317 748.823 76.9317C752.634 76.9317 754.866 79.771 754.866 83.8283V94.9786H748.65V85.3557C748.65 83.9826 747.996 82.6562 746.514 82.6562C745.006 82.6562 744.22 84.0027 744.22 85.3557V94.9786H737.958Z" fill="#9799F8"></path>
    <path d="M765.544 76.9316C759.637 76.9316 756.12 81.4231 756.12 86.2353C756.12 91.7117 760.378 95.4555 765.566 95.4555C770.594 95.4555 774.994 91.8816 774.994 86.3272C774.994 80.2497 770.387 76.9316 765.544 76.9316ZM765.6 82.6509C767.686 82.6509 769.13 84.3887 769.13 86.2419C769.13 87.8225 767.785 89.772 765.6 89.772C763.598 89.772 762.095 88.1661 762.095 86.2246C762.095 84.3543 763.345 82.6509 765.6 82.6509Z" fill="#9799F8"></path>
    <path d="M785.428 76.9316C779.522 76.9316 776.004 81.4231 776.004 86.2353C776.004 91.7117 780.263 95.4555 785.451 95.4555C790.479 95.4555 794.879 91.8816 794.879 86.3272C794.879 80.2497 790.272 76.9316 785.428 76.9316ZM785.485 82.6509C787.571 82.6509 789.015 84.3887 789.015 86.2419C789.015 87.8225 787.67 89.772 785.485 89.772C783.483 89.772 781.98 88.1661 781.98 86.2246C781.98 84.3543 783.229 82.6509 785.485 82.6509Z" fill="#9799F8"></path>
    <path d="M799.819 95.3532C802.116 95.3532 803.978 93.4914 803.978 91.1947C803.978 88.898 802.116 87.0361 799.819 87.0361C797.522 87.0361 795.661 88.898 795.661 91.1947C795.661 93.4914 797.522 95.3532 799.819 95.3532Z" fill="#9799F8"></path>
    <path d="M805.344 85.5084H797.858L804.502 69.5466H811.961L805.344 85.5084Z" fill="#9799F8"></path>
  </g>
  <defs>
    <clipPath id="clip0_6876_60898">
      <rect width="150" height="27.6959" fill="white" transform="translate(337.741 4.92542)"></rect>
    </clipPath>
    <clipPath id="clip1_6876_60898">
      <rect width="150" height="35.8804" fill="white" transform="translate(670.259 0.83313)"></rect>
    </clipPath>
    <clipPath id="clip2_6876_60898">
      <rect width="32" height="37.5467" fill="white" transform="translate(852.259)"></rect>
    </clipPath>
    <clipPath id="clip3_6876_60898">
      <rect width="103" height="32" fill="white" transform="translate(561.573 69.5466)"></rect>
    </clipPath>
    <clipPath id="clip4_6876_60898">
      <rect width="115.388" height="32" fill="white" transform="translate(696.573 69.5466)"></rect>
    </clipPath>
  </defs>
</svg>
