<?xml version="1.0" encoding="UTF-8"?>
<svg xmlns="http://www.w3.org/2000/svg" width="81" height="81" viewBox="0 0 81 81" fill="none">
  <circle cx="40.3333" cy="40.2229" r="40" fill="#E66E6E"></circle>
  <path d="M40.3333 37.9729C41.5833 37.9729 42.5833 38.9729 42.5833 40.2229C42.5833 41.4729 41.5833 42.4729 40.3333 42.4729C39.0833 42.4729 38.0833 41.4729 38.0833 40.2229C38.0833 38.9729 39.0833 37.9729 40.3333 37.9729ZM40.3333 35.7229C37.8583 35.7229 35.8333 37.7479 35.8333 40.2229C35.8333 42.6979 37.8583 44.7229 40.3333 44.7229C42.8083 44.7229 44.8333 42.6979 44.8333 40.2229C44.8333 37.7479 42.8083 35.7229 40.3333 35.7229Z" fill="white"></path>
  <path opacity="0.5" d="M40.3333 31.2229C45.3083 31.2229 49.3333 35.2479 49.3333 40.2229C49.3333 45.1979 45.3083 49.2229 40.3333 49.2229C35.3583 49.2229 31.3333 45.1979 31.3333 40.2229C31.3333 35.2479 35.3583 31.2229 40.3333 31.2229ZM40.3333 28.9729C34.1083 28.9729 29.0833 33.9979 29.0833 40.2229C29.0833 46.4479 34.1083 51.4729 40.3333 51.4729C46.5583 51.4729 51.5833 46.4479 51.5833 40.2229C51.5833 33.9979 46.5583 28.9729 40.3333 28.9729Z" fill="white"></path>
  <path opacity="0.5" d="M40.3333 24.4729C49.0083 24.4729 56.0833 31.5479 56.0833 40.2229C56.0833 48.8979 49.0083 55.9729 40.3333 55.9729C31.6583 55.9729 24.5833 48.8979 24.5833 40.2229C24.5833 31.5479 31.6583 24.4729 40.3333 24.4729ZM40.3333 22.2229C30.3833 22.2229 22.3333 30.2729 22.3333 40.2229C22.3333 50.1729 30.3833 58.2229 40.3333 58.2229C50.2833 58.2229 58.3333 50.1729 58.3333 40.2229C58.3333 30.2729 50.2833 22.2229 40.3333 22.2229Z" fill="white"></path>
</svg>
