<?xml version="1.0" encoding="UTF-8"?>
<svg xmlns="http://www.w3.org/2000/svg" width="1222" height="38" viewBox="0 0 1222 38" fill="none">
  <g clip-path="url(#clip0_6876_60848)">
    <path d="M120.779 4.92542H131.776C133.871 4.92542 135.442 5.44908 136.606 6.32185C137.886 7.36917 138.584 8.88197 138.584 10.7439C138.584 12.8967 137.711 14.235 135.965 15.0495V15.1659C138.293 15.9223 139.631 18.017 139.631 20.5189C139.631 22.9045 138.7 24.7664 137.187 25.9301C135.907 26.861 134.278 27.2683 132.067 27.2683H120.779V4.92542ZM130.671 13.6531C131.834 13.6531 132.707 13.0131 132.707 11.6748C132.707 10.3948 131.834 9.75474 130.612 9.75474H126.831V13.5949H130.671V13.6531ZM131.194 22.3226C132.533 22.3226 133.522 21.508 133.522 20.0534C133.522 18.4824 132.474 17.7842 131.194 17.7842H126.889V22.3808H131.194V22.3226Z" fill="#9799F8"></path>
    <path d="M140.621 4.92542H146.381V27.3265H140.621V4.92542Z" fill="#9799F8"></path>
    <path d="M147.545 19.3551C147.545 14.293 150.803 10.9183 155.865 10.9183C160.927 10.9183 164.128 14.3512 164.128 19.3551C164.128 24.4172 160.927 27.7919 155.865 27.7919C150.803 27.7919 147.545 24.4172 147.545 19.3551ZM158.367 19.3551C158.367 16.5622 157.494 14.8167 155.749 14.8167C154.003 14.8167 153.189 16.5622 153.189 19.3551C153.189 22.148 154.003 23.9517 155.749 23.9517C157.494 23.8935 158.367 22.148 158.367 19.3551Z" fill="#9799F8"></path>
    <path d="M164.768 19.3551C164.768 14.293 168.026 10.9183 173.088 10.9183C178.15 10.9183 181.292 14.293 181.292 19.3551C181.292 24.4172 178.092 27.7919 173.03 27.7919C168.026 27.7919 164.768 24.4172 164.768 19.3551ZM175.59 19.3551C175.59 16.5622 174.717 14.8167 172.972 14.8167C171.226 14.8167 170.411 16.5622 170.411 19.3551C170.411 22.148 171.226 23.9517 172.972 23.9517C174.717 23.8935 175.59 22.148 175.59 19.3551Z" fill="#9799F8"></path>
    <path d="M182.455 11.3257H187.808V13.7113H187.924C188.972 11.8494 190.426 10.8602 192.754 10.8602C194.79 10.8602 196.303 11.8494 197.059 13.5949H197.176C198.456 11.5003 200.143 10.8602 202.121 10.8602C205.845 10.8602 207.416 13.5949 207.416 17.2605V27.2683H201.831V18.2497C201.831 16.6205 201.307 15.5732 199.91 15.5732C198.514 15.5732 197.816 16.8532 197.816 18.5988V27.2683H192.23V18.2497C192.23 16.6205 191.706 15.5732 190.31 15.5732C188.914 15.5732 188.215 16.8532 188.215 18.5988V27.2683H182.455V11.3257Z" fill="#9799F8"></path>
    <path d="M214.456 25.1737H214.398V27.2683H209.045V4.92542H214.631V12.9549H214.747C215.794 11.5585 217.249 10.8021 219.285 10.8021C223.3 10.8021 225.628 14.4095 225.628 19.2388C225.628 24.65 223.126 27.792 218.936 27.792C217.191 27.792 215.387 26.9774 214.456 25.1737ZM219.867 19.1807C219.867 16.6205 218.936 14.9332 217.249 14.9332C215.503 14.9332 214.456 16.6205 214.456 19.1807C214.456 21.7408 215.562 23.4281 217.249 23.4281C218.936 23.4281 219.867 21.799 219.867 19.1807Z" fill="#9799F8"></path>
    <path d="M226.268 19.297C226.268 14.2931 229.584 10.8602 234.355 10.8602C236.741 10.8602 238.545 11.6166 239.941 12.9549C241.803 14.7586 242.617 17.5515 242.559 20.8098H231.853C232.086 22.7881 233.017 23.8354 234.704 23.8354C235.693 23.8354 236.566 23.3699 236.915 22.3226H242.327C241.396 25.9882 238.545 27.792 234.53 27.792C229.584 27.7338 226.268 24.3591 226.268 19.297ZM231.853 17.6096H236.974C236.857 15.6896 235.81 14.7004 234.472 14.7004C232.901 14.6422 232.028 15.7477 231.853 17.6096Z" fill="#9799F8"></path>
    <path d="M248.902 14.0603H249.018C250.182 11.8493 251.695 10.9766 253.615 10.9766C254.08 10.9766 254.371 11.0347 254.546 11.1511V16.0386H254.429C251.113 15.4568 249.193 17.0278 249.193 20.6352V27.3264H243.549V11.3257H248.902V14.0603Z" fill="#9799F8"></path>
    <path d="M255.127 27.3266H260.538C260.771 28.0248 261.469 28.6648 262.807 28.6648C264.611 28.6648 265.251 27.5593 265.251 25.8719V24.7083H265.135C264.262 25.7556 263.04 26.512 261.294 26.512C257.862 26.512 254.836 23.9519 254.836 18.948C254.836 14.3514 257.28 10.8021 261.004 10.8021C263.156 10.8021 264.436 11.6749 265.309 13.0131H265.426V11.2676H270.779V25.1155C270.779 27.6757 269.906 29.6539 268.568 30.8176C267.171 32.0395 265.193 32.5632 262.924 32.5632C258.618 32.6214 255.651 30.8758 255.127 27.3266ZM265.484 18.7152C265.484 16.737 264.553 15.1078 262.924 15.1078C261.353 15.1078 260.363 16.5042 260.363 18.7152C260.363 20.8681 261.353 22.3809 262.924 22.3809C264.495 22.3809 265.484 20.8099 265.484 18.7152Z" fill="#9799F8"></path>
  </g>
  <path d="M369.919 13.5586C369.919 10.1216 369.979 6.92158 370.156 3.95862L361.09 5.67714V6.50677L361.979 6.62528C362.63 6.68454 363.045 6.92158 363.282 7.27714C363.519 7.69195 363.697 8.28454 363.816 9.17343C363.934 10.892 364.053 14.8031 363.993 20.966C363.993 27.0697 363.934 30.9216 363.816 32.4031C367.075 33.1142 369.623 33.4105 371.519 33.4105C375.075 33.4105 377.86 32.4031 379.875 30.329C381.89 28.3142 382.956 25.4697 382.956 21.9734C382.956 19.1882 382.186 16.8771 380.645 15.0401C379.104 13.2031 377.149 12.3142 374.838 12.3142C373.297 12.3142 371.697 12.729 369.919 13.5586ZM370.097 31.8105C369.979 29.9142 369.86 24.2253 369.86 14.9216C370.393 14.7438 371.104 14.6253 371.993 14.6253C373.416 14.6253 374.541 15.3364 375.371 16.8179C376.201 18.2994 376.616 20.0771 376.616 22.329C376.616 25.1142 376.141 27.366 375.193 29.2623C374.245 31.0994 373.06 32.0475 371.578 32.0475C371.104 31.929 370.63 31.8697 370.097 31.8105ZM327.075 4.55121H303.371V5.7364L304.616 5.85491C305.564 6.03269 306.216 6.38825 306.63 6.92158C307.045 7.51417 307.282 8.46232 307.341 9.76603C307.816 16.166 307.816 22.1512 307.341 27.6623C307.223 28.966 306.986 29.9142 306.63 30.5068C306.216 31.0994 305.564 31.4549 304.616 31.5734L303.371 31.7512V32.9364H318.66V31.7512L317.06 31.6327C316.112 31.5142 315.46 31.0994 315.045 30.566C314.63 29.9734 314.393 29.0253 314.334 27.7216C314.156 25.3512 314.038 22.6253 314.038 19.6031L317.238 19.6623C318.956 19.7216 320.141 21.0253 320.734 23.6327H321.919V13.9734H320.734C320.141 16.5216 319.016 17.8253 317.238 17.8845L314.038 17.9438C314.038 12.6105 314.156 8.81788 314.334 6.50677H319.016C322.334 6.50677 324.586 8.6401 325.89 12.9068L327.312 12.492L327.075 4.55121ZM324.29 22.8031C324.29 25.8845 325.179 28.4327 326.897 30.4475C328.616 32.4623 331.164 33.4105 334.364 33.4105C337.564 33.4105 340.171 32.4031 342.067 30.329C343.964 28.3142 344.853 25.766 344.853 22.6845C344.853 19.6031 343.964 17.0549 342.245 15.0401C340.527 13.0253 337.979 12.0771 334.779 12.0771C331.579 12.0771 328.971 13.0845 327.075 15.1586C325.179 17.1734 324.29 19.7216 324.29 22.8031ZM337.504 16.0475C338.216 17.766 338.512 20.0179 338.512 22.7438C338.512 29.0253 337.208 32.1068 334.66 32.1068C333.356 32.1068 332.349 31.2179 331.638 29.4401C330.927 27.6623 330.63 25.4105 330.63 22.7438C330.63 16.5216 331.934 13.4401 334.482 13.4401C335.786 13.3808 336.793 14.2697 337.504 16.0475ZM387.579 30.4475C389.534 32.4031 392.023 33.4105 394.986 33.4105C396.823 33.4105 398.423 33.0549 399.845 32.2845C401.267 31.5734 402.393 30.6845 403.164 29.6179L402.571 28.9068C401.267 29.9142 399.786 30.3882 398.067 30.3882C395.697 30.3882 393.86 29.6179 392.616 28.0179C391.312 26.4179 390.719 24.4031 390.838 21.7957H403.519C403.519 18.9512 402.808 16.6401 401.327 14.8031C399.845 13.0253 397.771 12.1364 395.104 12.1364C391.786 12.1364 389.238 13.2031 387.401 15.2771C385.564 17.3512 384.675 19.8994 384.675 22.9216C384.675 26.0031 385.623 28.492 387.579 30.4475ZM391.964 15.5734C392.616 14.1512 393.445 13.4401 394.571 13.4401C396.349 13.4401 397.238 15.692 397.238 20.2549L390.956 20.3734C391.016 18.5957 391.312 16.9957 391.964 15.5734ZM419.46 13.2031C417.86 12.492 415.845 12.0771 413.416 12.0771C410.927 12.0771 408.971 12.729 407.49 13.9734C406.008 15.2179 405.238 16.7586 405.238 18.5957C405.238 20.1957 405.712 21.4401 406.601 22.329C407.49 23.2179 408.912 23.9882 410.749 24.6401C412.408 25.2327 413.593 25.8253 414.186 26.3586C414.779 26.9512 415.134 27.6031 415.134 28.492C415.134 29.3216 414.838 30.092 414.186 30.6845C413.593 31.3364 412.764 31.6327 411.697 31.6327C409.09 31.6327 407.134 29.7364 405.771 25.9438L404.764 26.2401L405.001 32.166C407.134 32.9957 409.504 33.4105 412.112 33.4105C414.838 33.4105 416.912 32.8179 418.453 31.5734C419.993 30.3882 420.764 28.6697 420.764 26.5364C420.764 25.1142 420.408 23.929 419.638 23.0401C418.867 22.1512 417.623 21.3808 415.845 20.6697C413.89 19.9586 412.527 19.3068 411.816 18.7142C411.104 18.1216 410.749 17.4105 410.749 16.5216C410.749 15.6327 410.986 14.9216 411.519 14.329C412.053 13.7364 412.704 13.4994 413.534 13.4994C415.904 13.4994 417.623 15.2179 418.69 18.5957L419.697 18.2994L419.46 13.2031ZM362.453 12.6697C361.623 12.2549 360.734 12.0771 359.727 12.0771C358.719 12.0771 357.712 12.492 356.586 13.3216C355.46 14.1512 354.63 15.2771 353.979 16.8179L354.038 12.0771L345.03 13.8549V14.6845L345.919 14.7438C347.045 14.8623 347.697 15.7512 347.816 17.3512C348.171 21.0253 348.171 24.9364 347.816 29.0845C347.697 30.6845 347.045 31.5142 345.919 31.692L345.03 31.8105V32.9364H357.593V31.8105L355.993 31.692C354.867 31.5734 354.216 30.6845 354.097 29.0845C353.741 25.6475 353.682 21.9734 353.979 18.1808C354.334 17.5882 355.104 17.2327 356.29 17.1142C357.475 16.9957 358.838 17.3512 360.26 18.1808L362.453 12.6697Z" fill="#9799F8"></path>
  <g clip-path="url(#clip1_6876_60848)">
    <path d="M492.781 18.7763C492.781 19.3276 492.562 19.8563 492.172 20.2461C491.783 20.6359 491.254 20.8549 490.703 20.8549C490.151 20.8549 489.623 20.6359 489.233 20.2461C488.843 19.8563 488.624 19.3276 488.624 18.7763C488.624 18.225 488.843 17.6964 489.233 17.3065C489.623 16.9167 490.151 16.6977 490.703 16.6977C491.254 16.6977 491.783 16.9167 492.172 17.3065C492.562 17.6964 492.781 18.225 492.781 18.7763ZM486.397 15.1424C486.231 15.1391 486.066 15.169 485.912 15.2302C485.758 15.2915 485.617 15.3829 485.498 15.4992C485.38 15.6155 485.285 15.7542 485.221 15.9074C485.157 16.0605 485.124 16.2249 485.124 16.391C485.124 16.5571 485.157 16.7215 485.221 16.8747C485.285 17.0278 485.38 17.1666 485.498 17.2829C485.617 17.3991 485.758 17.4906 485.912 17.5518C486.066 17.6131 486.231 17.6429 486.397 17.6396C486.722 17.6304 487.031 17.4949 487.258 17.2618C487.484 17.0287 487.611 16.7164 487.611 16.3913C487.611 16.0662 487.484 15.7539 487.258 15.5208C487.031 15.2877 486.722 15.1516 486.397 15.1424ZM484.923 10.785C484.712 10.7812 484.502 10.8195 484.307 10.8977C484.111 10.9758 483.932 11.0922 483.782 11.24C483.631 11.3878 483.512 11.5641 483.43 11.7586C483.349 11.9532 483.307 12.162 483.307 12.3729C483.307 12.5838 483.349 12.7927 483.43 12.9872C483.512 13.1817 483.631 13.358 483.782 13.5058C483.932 13.6537 484.111 13.77 484.307 13.8482C484.502 13.9263 484.712 13.9646 484.923 13.9609C485.339 13.9535 485.736 13.783 486.028 13.486C486.319 13.189 486.483 12.7893 486.483 12.3729C486.483 11.9566 486.319 11.5569 486.028 11.2599C485.736 10.9629 485.339 10.7923 484.923 10.785ZM482.349 7.47997C481.96 7.47997 481.587 7.63454 481.312 7.90968C481.036 8.18482 480.882 8.55798 480.882 8.94708C480.882 9.33618 481.036 9.70935 481.312 9.98449C481.587 10.2596 481.96 10.4142 482.349 10.4142C482.738 10.4142 483.111 10.2596 483.386 9.98449C483.662 9.70935 483.816 9.33618 483.816 8.94708C483.816 8.55798 483.662 8.18482 483.386 7.90968C483.111 7.63454 482.738 7.47997 482.349 7.47997ZM479.111 5.51104C478.947 5.51104 478.784 5.54339 478.633 5.60625C478.481 5.66911 478.343 5.76125 478.227 5.8774C478.111 5.99355 478.019 6.13144 477.956 6.2832C477.893 6.43495 477.86 6.59761 477.86 6.76187C477.86 6.92613 477.893 7.08878 477.956 7.24054C478.019 7.3923 478.111 7.53019 478.227 7.64634C478.343 7.76249 478.481 7.85462 478.633 7.91748C478.784 7.98034 478.947 8.0127 479.111 8.0127C479.443 8.0127 479.761 7.88091 479.996 7.64634C480.23 7.41176 480.362 7.09361 480.362 6.76187C480.362 6.43013 480.23 6.11197 479.996 5.8774C479.761 5.64282 479.443 5.51104 479.111 5.51104ZM475.682 4.70074C475.541 4.69768 475.401 4.72278 475.27 4.77456C475.139 4.82634 475.019 4.90377 474.919 5.00229C474.818 5.10081 474.738 5.21845 474.684 5.3483C474.629 5.47815 474.601 5.61759 474.601 5.75846C474.601 5.89933 474.629 6.03878 474.684 6.16863C474.738 6.29848 474.818 6.41611 474.919 6.51464C475.019 6.61316 475.139 6.69058 475.27 6.74236C475.401 6.79414 475.541 6.81924 475.682 6.81619C475.958 6.81018 476.221 6.69611 476.415 6.4984C476.608 6.30069 476.717 6.03508 476.717 5.75846C476.717 5.48185 476.608 5.21623 476.415 5.01852C476.221 4.82082 475.958 4.70674 475.682 4.70074ZM472.32 4.84874C472.212 4.84605 472.103 4.86516 472.002 4.90494C471.901 4.94471 471.808 5.00435 471.731 5.08035C471.653 5.15634 471.591 5.24716 471.548 5.34744C471.506 5.44772 471.484 5.55545 471.484 5.66428C471.484 5.7731 471.506 5.88083 471.548 5.98111C471.591 6.0814 471.653 6.17221 471.731 6.2482C471.808 6.3242 471.901 6.38384 472.002 6.42362C472.103 6.46339 472.212 6.4825 472.32 6.47981C472.533 6.47455 472.736 6.38632 472.884 6.23395C473.033 6.08158 473.116 5.87714 473.116 5.66428C473.116 5.45141 473.033 5.24697 472.884 5.0946C472.736 4.94224 472.533 4.854 472.32 4.84874ZM469.396 5.55439C469.21 5.55439 469.032 5.62832 468.9 5.7599C468.768 5.89149 468.694 6.06996 468.694 6.25605C468.694 6.44215 468.768 6.62062 468.9 6.7522C469.032 6.88379 469.21 6.95771 469.396 6.95771C469.582 6.95771 469.761 6.88379 469.892 6.7522C470.024 6.62062 470.098 6.44215 470.098 6.25605C470.098 6.06996 470.024 5.89149 469.892 5.7599C469.761 5.62832 469.582 5.55439 469.396 5.55439ZM466.897 6.66967C466.736 6.66967 466.582 6.73347 466.469 6.84702C466.355 6.96057 466.291 7.11457 466.291 7.27516C466.291 7.43574 466.355 7.58975 466.469 7.7033C466.582 7.81685 466.736 7.88064 466.897 7.88064C467.058 7.88064 467.212 7.81685 467.325 7.7033C467.439 7.58975 467.502 7.43574 467.502 7.27516C467.502 7.11457 467.439 6.96057 467.325 6.84702C467.212 6.73347 467.058 6.66967 466.897 6.66967ZM464.691 8.11685C464.505 8.11685 464.326 8.19088 464.194 8.32265C464.063 8.45443 463.989 8.63315 463.989 8.81951C463.989 9.00586 464.063 9.18459 464.194 9.31636C464.326 9.44814 464.505 9.52217 464.691 9.52217C464.878 9.52217 465.056 9.44814 465.188 9.31636C465.32 9.18459 465.394 9.00586 465.394 8.81951C465.394 8.63315 465.32 8.45443 465.188 8.32265C465.056 8.19088 464.878 8.11685 464.691 8.11685ZM462.607 10.1421C462.499 10.1394 462.391 10.1585 462.29 10.1981C462.189 10.2378 462.097 10.2973 462.019 10.3731C461.941 10.4489 461.879 10.5395 461.837 10.6396C461.795 10.7396 461.773 10.8471 461.773 10.9556C461.773 11.0642 461.795 11.1717 461.837 11.2717C461.879 11.3717 461.941 11.4623 462.019 11.5381C462.097 11.614 462.189 11.6735 462.29 11.7131C462.391 11.7528 462.499 11.7719 462.607 11.7692C462.82 11.7639 463.021 11.6759 463.17 11.5239C463.318 11.3719 463.401 11.168 463.401 10.9556C463.401 10.7433 463.318 10.5394 463.17 10.3874C463.021 10.2354 462.82 10.1474 462.607 10.1421ZM460.863 12.859C460.606 12.859 460.36 12.9609 460.179 13.1423C459.997 13.3236 459.896 13.5696 459.896 13.8261C459.896 14.0825 459.997 14.3285 460.179 14.5099C460.36 14.6912 460.606 14.7931 460.863 14.7931C461.119 14.7931 461.365 14.6912 461.546 14.5099C461.728 14.3286 461.829 14.0827 461.829 13.8263C461.829 13.5699 461.728 13.324 461.546 13.1427C461.365 12.9614 461.119 12.859 460.863 12.859ZM459.854 16.3514C459.582 16.3514 459.322 16.4595 459.129 16.6518C458.937 16.8441 458.829 17.105 458.829 17.377C458.829 17.649 458.937 17.9098 459.129 18.1022C459.322 18.2945 459.582 18.4026 459.854 18.4026C460.126 18.4026 460.387 18.2945 460.58 18.1022C460.772 17.9098 460.88 17.649 460.88 17.377C460.88 17.105 460.772 16.8441 460.58 16.6518C460.387 16.4595 460.126 16.3514 459.854 16.3514ZM459.926 19.909C459.762 19.909 459.599 19.9414 459.447 20.0042C459.296 20.067 459.158 20.1591 459.042 20.2751C458.926 20.3912 458.834 20.5289 458.771 20.6806C458.708 20.8322 458.676 20.9947 458.676 21.1589C458.676 21.323 458.708 21.4855 458.771 21.6372C458.834 21.7888 458.926 21.9266 459.042 22.0426C459.158 22.1587 459.296 22.2508 459.447 22.3136C459.599 22.3764 459.762 22.4087 459.926 22.4087C460.257 22.4087 460.575 22.277 460.809 22.0426C461.044 21.8083 461.176 21.4904 461.176 21.1589C461.176 20.8274 461.044 20.5095 460.809 20.2751C460.575 20.0407 460.257 19.909 459.926 19.909ZM461.399 23.5903C460.978 23.5903 460.574 23.7575 460.276 24.0552C459.979 24.3528 459.812 24.7565 459.812 25.1775C459.812 25.5984 459.979 26.0021 460.276 26.2998C460.574 26.5975 460.978 26.7647 461.399 26.7647C461.82 26.7647 462.223 26.5975 462.521 26.2998C462.819 26.0021 462.986 25.5984 462.986 25.1775C462.986 24.7565 462.819 24.3528 462.521 24.0552C462.223 23.7575 461.82 23.5903 461.399 23.5903ZM463.992 27.128C463.797 27.1244 463.603 27.1597 463.422 27.2317C463.241 27.3038 463.077 27.4112 462.938 27.5476C462.799 27.6841 462.688 27.8469 462.613 28.0265C462.537 28.2062 462.499 28.399 462.499 28.5938C462.499 28.7887 462.537 28.9815 462.613 29.1611C462.688 29.3408 462.799 29.5036 462.938 29.6401C463.077 29.7765 463.241 29.8839 463.422 29.956C463.603 30.028 463.797 30.0633 463.992 30.0597C464.376 30.0526 464.742 29.8951 465.011 29.6209C465.28 29.3468 465.431 28.978 465.431 28.5938C465.431 28.2097 465.28 27.8409 465.011 27.5667C464.742 27.2926 464.376 27.1351 463.992 27.128ZM467.116 29.4717C466.785 29.4717 466.468 29.6032 466.234 29.8373C465.999 30.0714 465.868 30.3889 465.868 30.72C465.868 31.0511 465.999 31.3686 466.234 31.6027C466.468 31.8368 466.785 31.9683 467.116 31.9683C467.447 31.9683 467.765 31.8368 467.999 31.6027C468.233 31.3686 468.365 31.0511 468.365 30.72C468.365 30.3889 468.233 30.0714 467.999 29.8373C467.765 29.6032 467.447 29.4717 467.116 29.4717ZM470.644 30.7394C470.364 30.7394 470.095 30.8508 469.897 31.0489C469.699 31.2471 469.588 31.5159 469.588 31.7962C469.588 32.0764 469.699 32.3452 469.897 32.5434C470.095 32.7416 470.364 32.8529 470.644 32.8529C470.925 32.8529 471.193 32.7416 471.392 32.5435C471.59 32.3453 471.701 32.0766 471.701 31.7964C471.701 31.5162 471.59 31.2475 471.392 31.0494C471.193 30.8512 470.925 30.7394 470.644 30.7394ZM474 31.0713C473.893 31.0713 473.788 31.0923 473.689 31.1332C473.59 31.174 473.501 31.2338 473.425 31.3092C473.35 31.3847 473.29 31.4742 473.249 31.5728C473.209 31.6713 473.188 31.777 473.188 31.8836C473.188 31.9903 473.209 32.0959 473.249 32.1945C473.29 32.293 473.35 32.3826 473.425 32.458C473.501 32.5334 473.59 32.5933 473.689 32.6341C473.788 32.6749 473.893 32.6959 474 32.6959C474.215 32.6959 474.422 32.6103 474.574 32.458C474.727 32.3057 474.812 32.0991 474.812 31.8836C474.812 31.6682 474.727 31.4616 474.574 31.3092C474.422 31.1569 474.215 31.0713 474 31.0713ZM476.933 30.5929C476.746 30.5929 476.567 30.667 476.435 30.7988C476.304 30.9306 476.23 31.1094 476.23 31.2958C476.23 31.4823 476.304 31.661 476.435 31.7929C476.567 31.9247 476.746 31.9987 476.933 31.9987C477.119 31.9987 477.298 31.9247 477.429 31.7929C477.561 31.6612 477.635 31.4824 477.635 31.2961C477.635 31.1097 477.561 30.931 477.429 30.7992C477.298 30.6675 477.119 30.5934 476.933 30.5934V30.5929ZM479.429 29.666C479.269 29.666 479.115 29.7297 479.002 29.843C478.889 29.9563 478.825 30.11 478.825 30.2703C478.825 30.4305 478.889 30.5842 479.002 30.6975C479.115 30.8108 479.269 30.8745 479.429 30.8745C479.589 30.8745 479.743 30.8109 479.856 30.6976C479.97 30.5843 480.033 30.4307 480.033 30.2705C480.033 30.1103 479.97 29.9567 479.856 29.8434C479.743 29.7302 479.589 29.666 479.429 29.666ZM481.634 28.0265C481.54 28.024 481.447 28.0404 481.359 28.0747C481.271 28.109 481.191 28.1605 481.124 28.2262C481.056 28.2919 481.003 28.3704 480.966 28.4572C480.929 28.544 480.91 28.6372 480.91 28.7314C480.91 28.8256 480.929 28.9188 480.966 29.0056C481.003 29.0923 481.056 29.1709 481.124 29.2366C481.191 29.3023 481.271 29.3538 481.359 29.3881C481.447 29.4224 481.54 29.4388 481.634 29.4363C481.821 29.4363 482.001 29.362 482.133 29.2298C482.265 29.0975 482.339 28.9182 482.339 28.7311C482.339 28.5441 482.265 28.3648 482.133 28.2325C482.001 28.1003 481.821 28.0265 481.634 28.0265ZM483.722 25.779C483.506 25.779 483.298 25.8649 483.145 26.0179C482.992 26.1709 482.906 26.3784 482.906 26.5948C482.906 26.8111 482.992 27.0186 483.145 27.1716C483.298 27.3246 483.506 27.4105 483.722 27.4105C483.935 27.4053 484.137 27.317 484.286 27.1647C484.434 27.0123 484.518 26.8079 484.518 26.595C484.518 26.3821 484.434 26.1777 484.286 26.0253C484.137 25.873 483.935 25.7842 483.722 25.779ZM485.462 22.7541C485.206 22.7541 484.96 22.8559 484.779 23.0371C484.597 23.2184 484.496 23.4642 484.496 23.7206C484.496 23.9769 484.597 24.2228 484.779 24.404C484.96 24.5853 485.206 24.6871 485.462 24.6871C485.718 24.6871 485.964 24.5853 486.145 24.4041C486.327 24.2229 486.428 23.9771 486.428 23.7208C486.428 23.4646 486.327 23.2188 486.145 23.0376C485.964 22.8564 485.718 22.7541 485.462 22.7541ZM486.474 19.1506C486.34 19.1506 486.207 19.177 486.083 19.2283C485.959 19.2795 485.847 19.3547 485.752 19.4495C485.657 19.5443 485.582 19.6568 485.531 19.7806C485.48 19.9044 485.453 20.0371 485.453 20.1712C485.453 20.3052 485.48 20.4379 485.531 20.5617C485.582 20.6856 485.657 20.7981 485.752 20.8928C485.847 20.9876 485.959 21.0628 486.083 21.1141C486.207 21.1654 486.34 21.1918 486.474 21.1918C486.744 21.1918 487.004 21.0842 487.195 20.8928C487.387 20.7014 487.494 20.4418 487.494 20.1712C487.494 19.9005 487.387 19.6409 487.195 19.4495C487.004 19.2581 486.744 19.1506 486.474 19.1506ZM482.478 17.9775C482.221 17.9775 481.975 18.0795 481.793 18.2612C481.612 18.4428 481.51 18.6891 481.51 18.946C481.51 19.2029 481.612 19.4492 481.793 19.6308C481.975 19.8125 482.221 19.9145 482.478 19.9145C482.735 19.9145 482.981 19.8125 483.163 19.6309C483.344 19.4493 483.446 19.2031 483.446 18.9463C483.446 18.6894 483.344 18.4432 483.163 18.2616C482.981 18.08 482.735 17.9775 482.478 17.9775ZM478.73 17.1159C478.584 17.1159 478.445 17.1736 478.342 17.2765C478.239 17.3793 478.181 17.5188 478.181 17.6643C478.181 17.8097 478.239 17.9492 478.342 18.0521C478.445 18.1549 478.584 18.2127 478.73 18.2127C478.875 18.2127 479.014 18.1549 479.117 18.0521C479.22 17.9492 479.278 17.8097 479.278 17.6643C479.278 17.5188 479.22 17.3793 479.117 17.2765C479.014 17.1736 478.875 17.1159 478.73 17.1159ZM477.693 14.5085C477.493 14.5085 477.301 14.588 477.16 14.7294C477.018 14.8708 476.939 15.0626 476.939 15.2625C476.939 15.4625 477.018 15.6543 477.16 15.7957C477.301 15.9371 477.493 16.0165 477.693 16.0165C477.893 16.0165 478.085 15.9371 478.226 15.7956C478.368 15.6542 478.447 15.4623 478.447 15.2623C478.447 15.0622 478.368 14.8704 478.226 14.729C478.085 14.5875 477.893 14.5085 477.693 14.5085ZM475.231 12.3178C475.093 12.3136 474.956 12.337 474.827 12.3868C474.699 12.4366 474.582 12.5117 474.483 12.6077C474.384 12.7036 474.305 12.8185 474.251 12.9455C474.197 13.0725 474.17 13.209 474.17 13.3469C474.17 13.4848 474.197 13.6213 474.251 13.7483C474.305 13.8753 474.384 13.9902 474.483 14.0862C474.582 14.1822 474.699 14.2573 474.827 14.307C474.956 14.3568 475.093 14.3803 475.231 14.376C475.499 14.3677 475.752 14.2556 475.938 14.0635C476.125 13.8714 476.229 13.6144 476.229 13.3469C476.229 13.0794 476.125 12.8224 475.938 12.6303C475.752 12.4382 475.499 12.3262 475.231 12.3178ZM471.89 11.9481C471.582 11.9481 471.287 12.0704 471.069 12.2882C470.852 12.5059 470.729 12.8013 470.729 13.1092C470.729 13.4172 470.852 13.7125 471.069 13.9303C471.287 14.148 471.582 14.2703 471.89 14.2703C472.198 14.2703 472.494 14.148 472.711 13.9303C472.929 13.7125 473.051 13.4172 473.051 13.1092C473.051 12.8013 472.929 12.5059 472.711 12.2882C472.494 12.0704 472.198 11.9481 471.89 11.9481ZM469.061 13.5607C468.768 13.5607 468.487 13.6771 468.28 13.8842C468.073 14.0913 467.956 14.3721 467.956 14.665C467.956 14.9579 468.073 15.2388 468.28 15.4459C468.487 15.653 468.768 15.7693 469.061 15.7693C469.354 15.7693 469.635 15.653 469.842 15.4459C470.049 15.2388 470.165 14.9579 470.165 14.665C470.165 14.3721 470.049 14.0913 469.842 13.8842C469.635 13.6771 469.354 13.5607 469.061 13.5607ZM467.611 16.5956C467.413 16.5956 467.224 16.6739 467.085 16.8134C466.945 16.9528 466.867 17.1419 466.867 17.3391C466.867 17.5363 466.945 17.7254 467.085 17.8649C467.224 18.0043 467.413 18.0826 467.611 18.0826C467.808 18.0826 467.997 18.0043 468.137 17.8648C468.276 17.7253 468.354 17.5361 468.354 17.3389C468.354 17.1416 468.276 16.9524 468.137 16.8129C467.997 16.6735 467.808 16.5956 467.611 16.5956ZM467.668 19.4291C467.523 19.4291 467.384 19.4868 467.281 19.5895C467.179 19.6921 467.121 19.8314 467.121 19.9766C467.121 20.1218 467.179 20.261 467.281 20.3637C467.384 20.4663 467.523 20.524 467.668 20.524C467.814 20.524 467.953 20.4663 468.055 20.3637C468.158 20.261 468.216 20.1218 468.216 19.9766C468.216 19.8314 468.158 19.6921 468.055 19.5895C467.953 19.4868 467.814 19.4291 467.668 19.4291ZM468.651 21.6044C468.451 21.6044 468.259 21.6839 468.117 21.8254C467.976 21.9669 467.896 22.1588 467.896 22.3589C467.896 22.559 467.976 22.7509 468.117 22.8924C468.259 23.0339 468.451 23.1134 468.651 23.1134C468.851 23.1134 469.043 23.0339 469.184 22.8924C469.326 22.7509 469.405 22.559 469.405 22.3589C469.405 22.1588 469.326 21.9669 469.184 21.8254C469.043 21.6839 468.851 21.6044 468.651 21.6044ZM471.127 23.2833C470.855 23.2833 470.593 23.3917 470.4 23.5846C470.207 23.7775 470.099 24.0391 470.099 24.3119C470.099 24.5847 470.207 24.8463 470.4 25.0392C470.593 25.2321 470.855 25.3404 471.127 25.3404C471.4 25.3404 471.662 25.2321 471.855 25.0392C472.048 24.8463 472.156 24.5847 472.156 24.3119C472.156 24.0391 472.048 23.7775 471.855 23.5846C471.662 23.3917 471.4 23.2833 471.127 23.2833ZM474.459 23.3685C474.151 23.3685 473.856 23.4907 473.639 23.7081C473.422 23.9255 473.299 24.2204 473.299 24.5279C473.299 24.8354 473.422 25.1303 473.639 25.3477C473.856 25.5651 474.151 25.6873 474.459 25.6873C474.766 25.6873 475.061 25.5651 475.279 25.3477C475.496 25.1303 475.618 24.8354 475.618 24.5279C475.618 24.2204 475.496 23.9255 475.279 23.7081C475.061 23.4907 474.766 23.3685 474.459 23.3685ZM477.305 21.862C477.012 21.862 476.73 21.9787 476.522 22.1864C476.315 22.394 476.198 22.6757 476.198 22.9693C476.198 23.263 476.315 23.5447 476.522 23.7523C476.73 23.96 477.012 24.0766 477.305 24.0766C477.599 24.0766 477.881 23.96 478.088 23.7523C478.296 23.5447 478.413 23.263 478.413 22.9693C478.413 22.6757 478.296 22.394 478.088 22.1864C477.881 21.9787 477.599 21.862 477.305 21.862ZM478.75 19.5617C478.653 19.5617 478.556 19.581 478.466 19.6184C478.375 19.6558 478.293 19.7106 478.224 19.7798C478.155 19.8489 478.1 19.931 478.063 20.0213C478.025 20.1116 478.006 20.2084 478.006 20.3062C478.006 20.404 478.025 20.5008 478.063 20.5911C478.1 20.6815 478.155 20.7635 478.224 20.8327C478.293 20.9018 478.375 20.9566 478.466 20.9941C478.556 21.0315 478.653 21.0507 478.75 21.0507C478.948 21.0507 479.137 20.9723 479.277 20.8327C479.417 20.693 479.495 20.5037 479.495 20.3062C479.495 20.1088 479.417 19.9194 479.277 19.7798C479.137 19.6401 478.948 19.5617 478.75 19.5617ZM481.992 14.0939C481.662 14.0939 481.345 14.2251 481.111 14.4585C480.878 14.692 480.747 15.0086 480.747 15.3388C480.747 15.6689 480.878 15.9856 481.111 16.219C481.345 16.4525 481.662 16.5836 481.992 16.5836C482.322 16.5836 482.638 16.4525 482.872 16.219C483.105 15.9856 483.237 15.6689 483.237 15.3388C483.237 15.0086 483.105 14.692 482.872 14.4585C482.638 14.2251 482.322 14.0939 481.992 14.0939ZM479.883 10.5991C479.488 10.5991 479.11 10.7559 478.83 11.0349C478.551 11.314 478.395 11.6925 478.395 12.0871C478.395 12.4818 478.551 12.8603 478.83 13.1393C479.11 13.4184 479.488 13.5752 479.883 13.5752C480.277 13.5752 480.656 13.4184 480.935 13.1393C481.214 12.8603 481.371 12.4818 481.371 12.0871C481.371 11.6925 481.214 11.314 480.935 11.0349C480.656 10.7559 480.277 10.5991 479.883 10.5991ZM476.701 8.64359C476.347 8.64359 476.008 8.78412 475.758 9.03426C475.508 9.28439 475.367 9.62365 475.367 9.9774C475.367 10.3311 475.508 10.6704 475.758 10.9205C476.008 11.1707 476.347 11.3112 476.701 11.3112C477.055 11.3112 477.394 11.1707 477.644 10.9205C477.894 10.6704 478.035 10.3311 478.035 9.9774C478.035 9.62365 477.894 9.28439 477.644 9.03426C477.394 8.78412 477.055 8.64359 476.701 8.64359ZM473.169 8.25489C472.858 8.25489 472.56 8.37827 472.34 8.5979C472.121 8.81752 471.997 9.11539 471.997 9.42599C471.997 9.73658 472.121 10.0345 472.34 10.2541C472.56 10.4737 472.858 10.5971 473.169 10.5971C473.479 10.5971 473.777 10.4737 473.997 10.2541C474.216 10.0345 474.34 9.73658 474.34 9.42599C474.34 9.11539 474.216 8.81752 473.997 8.5979C473.777 8.37827 473.479 8.25489 473.169 8.25489ZM469.638 9.38612C469.405 9.38612 469.183 9.47842 469.018 9.64272C468.854 9.80701 468.762 10.0298 468.762 10.2622C468.762 10.4945 468.854 10.7174 469.018 10.8817C469.183 11.046 469.405 11.1383 469.638 11.1383C469.87 11.1383 470.093 11.046 470.257 10.8816C470.422 10.7173 470.514 10.4944 470.514 10.2619C470.514 10.0295 470.422 9.80664 470.257 9.64229C470.093 9.47795 469.87 9.38612 469.638 9.38612ZM466.656 11.4592C466.548 11.4554 466.44 11.4734 466.339 11.5122C466.238 11.551 466.145 11.6097 466.067 11.6849C465.99 11.7601 465.928 11.8503 465.885 11.9499C465.843 12.0496 465.821 12.1568 465.821 12.265C465.821 12.3733 465.843 12.4805 465.885 12.5801C465.928 12.6798 465.99 12.7699 466.067 12.8451C466.145 12.9203 466.238 12.9791 466.339 13.0178C466.44 13.0566 466.548 13.0746 466.656 13.0708C466.866 13.0656 467.066 12.9784 467.213 12.8278C467.36 12.6772 467.442 12.4752 467.442 12.2648C467.442 12.0544 467.36 11.8524 467.213 11.7018C467.066 11.5512 466.866 11.4644 466.656 11.4592ZM464.64 14.4193C464.425 14.4193 464.22 14.5046 464.068 14.6564C463.916 14.8082 463.831 15.014 463.831 15.2286C463.831 15.4433 463.916 15.6491 464.068 15.8009C464.22 15.9527 464.425 16.0379 464.64 16.0379C464.855 16.0379 465.061 15.9527 465.212 15.8008C465.364 15.649 465.45 15.4431 465.45 15.2284C465.45 15.0137 465.364 14.8078 465.212 14.656C465.061 14.5041 464.855 14.4188 464.64 14.4188V14.4193ZM463.791 17.66C463.535 17.66 463.289 17.7617 463.108 17.9427C462.927 18.1237 462.826 18.3691 462.826 18.6251C462.826 18.881 462.927 19.1265 463.108 19.3075C463.289 19.4884 463.535 19.5901 463.791 19.5901C464.047 19.5901 464.292 19.4884 464.473 19.3075C464.654 19.1265 464.756 18.881 464.756 18.6251C464.756 18.3691 464.654 18.1237 464.473 17.9427C464.292 17.7617 464.047 17.66 463.791 17.66ZM464.285 20.9765C463.954 20.9765 463.637 21.1078 463.403 21.3415C463.17 21.5753 463.038 21.8923 463.038 22.2228C463.038 22.5534 463.17 22.8704 463.403 23.1041C463.637 23.3379 463.954 23.4692 464.285 23.4692C464.615 23.4692 464.932 23.3379 465.166 23.1041C465.4 22.8704 465.531 22.5534 465.531 22.2228C465.531 21.8923 465.4 21.5753 465.166 21.3415C464.932 21.1078 464.615 20.9765 464.285 20.9765ZM466.392 23.9939C466.197 23.9939 466.004 24.0323 465.824 24.107C465.644 24.1816 465.48 24.291 465.342 24.4289C465.204 24.5668 465.095 24.7305 465.02 24.9107C464.946 25.0908 464.907 25.284 464.907 25.479C464.907 25.674 464.946 25.8671 465.02 26.0473C465.095 26.2275 465.204 26.3912 465.342 26.5291C465.48 26.667 465.644 26.7764 465.824 26.851C466.004 26.9256 466.197 26.964 466.392 26.964C466.786 26.964 467.164 26.8076 467.442 26.5291C467.721 26.2506 467.877 25.8728 467.877 25.479C467.877 25.0851 467.721 24.7074 467.442 24.4289C467.164 24.1504 466.786 23.9939 466.392 23.9939ZM469.59 26.2474C469.234 26.2474 468.894 26.3884 468.643 26.6395C468.392 26.8905 468.251 27.2309 468.251 27.586C468.251 27.941 468.392 28.2814 468.643 28.5324C468.894 28.7835 469.234 28.9245 469.59 28.9245C469.945 28.9245 470.285 28.7835 470.536 28.5324C470.787 28.2814 470.928 27.941 470.928 27.586C470.928 27.2309 470.787 26.8905 470.536 26.6395C470.285 26.3884 469.945 26.2474 469.59 26.2474ZM473.111 26.9526C472.798 26.9526 472.498 27.0768 472.277 27.298C472.056 27.5191 471.931 27.8191 471.931 28.1319C471.931 28.4447 472.056 28.7446 472.277 28.9658C472.498 29.187 472.798 29.3112 473.111 29.3112C473.424 29.3112 473.724 29.187 473.945 28.9658C474.166 28.7446 474.29 28.4447 474.29 28.1319C474.29 27.8191 474.166 27.5191 473.945 27.298C473.724 27.0768 473.424 26.9526 473.111 26.9526ZM476.644 26.4293C476.529 26.4293 476.415 26.452 476.309 26.496C476.202 26.54 476.106 26.6046 476.025 26.6859C475.943 26.7673 475.879 26.8638 475.835 26.9701C475.791 27.0764 475.768 27.1903 475.768 27.3054C475.768 27.4204 475.791 27.5344 475.835 27.6406C475.879 27.7469 475.943 27.8435 476.025 27.9249C476.106 28.0062 476.202 28.0708 476.309 28.1148C476.415 28.1588 476.529 28.1815 476.644 28.1815C476.876 28.1815 477.099 28.0892 477.263 27.9249C477.428 27.7606 477.52 27.5377 477.52 27.3054C477.52 27.073 477.428 26.8502 477.263 26.6859C477.099 26.5216 476.876 26.4293 476.644 26.4293ZM479.63 24.5097C479.522 24.5059 479.414 24.5239 479.312 24.5628C479.211 24.6016 479.119 24.6604 479.041 24.7357C478.963 24.811 478.901 24.9012 478.859 25.001C478.816 25.1008 478.794 25.2081 478.794 25.3165C478.794 25.4249 478.816 25.5322 478.859 25.632C478.901 25.7318 478.963 25.822 479.041 25.8973C479.119 25.9726 479.211 26.0314 479.312 26.0703C479.414 26.1091 479.522 26.1271 479.63 26.1233C479.839 26.116 480.037 26.0278 480.182 25.8773C480.328 25.7268 480.409 25.5257 480.409 25.3165C480.409 25.1073 480.328 24.9063 480.182 24.7558C480.037 24.6053 479.839 24.5171 479.63 24.5097ZM481.644 21.5197C481.537 21.517 481.43 21.5359 481.329 21.5753C481.229 21.6146 481.138 21.6736 481.061 21.7488C480.983 21.824 480.922 21.9139 480.88 22.0132C480.839 22.1124 480.817 22.219 480.817 22.3267C480.817 22.4344 480.839 22.5411 480.88 22.6403C480.922 22.7396 480.983 22.8294 481.061 22.9046C481.138 22.9798 481.229 23.0389 481.329 23.0782C481.43 23.1176 481.537 23.1365 481.644 23.1338C481.853 23.1264 482.051 23.0382 482.197 22.8877C482.342 22.7372 482.423 22.5362 482.423 22.327C482.423 22.1178 482.342 21.9167 482.197 21.7662C482.051 21.6157 481.853 21.527 481.644 21.5197ZM489.882 11.4268C489.644 11.4228 489.407 11.4663 489.186 11.5548C488.964 11.6432 488.763 11.7748 488.593 11.9419C488.423 12.109 488.288 12.3083 488.196 12.5281C488.104 12.7479 488.056 12.9838 488.056 13.2221C488.056 13.4604 488.104 13.6963 488.196 13.9161C488.288 14.1359 488.423 14.3351 488.593 14.5022C488.763 14.6693 488.964 14.8009 489.186 14.8894C489.407 14.9778 489.644 15.0213 489.882 15.0173C490.353 15.0095 490.802 14.8169 491.132 14.4811C491.462 14.1453 491.647 13.6931 491.647 13.2221C491.647 12.7511 491.462 12.2989 491.132 11.9631C490.802 11.6273 490.353 11.4347 489.882 11.4268ZM487.599 7.30007C487.398 7.30007 487.2 7.3396 487.014 7.4164C486.829 7.49319 486.66 7.60576 486.518 7.74766C486.376 7.88956 486.264 8.05802 486.187 8.24343C486.11 8.42883 486.071 8.62755 486.071 8.82823C486.071 9.02891 486.11 9.22762 486.187 9.41303C486.264 9.59843 486.376 9.7669 486.518 9.9088C486.66 10.0507 486.829 10.1633 487.014 10.2401C487.2 10.3169 487.398 10.3564 487.599 10.3564C488.004 10.3564 488.393 10.1954 488.68 9.9088C488.966 9.62221 489.127 9.23352 489.127 8.82823C489.127 8.42294 488.966 8.03424 488.68 7.74766C488.393 7.46107 488.004 7.30007 487.599 7.30007ZM484.21 4.06237C483.861 4.06237 483.526 4.20108 483.279 4.44799C483.032 4.6949 482.894 5.02979 482.894 5.37898C482.894 5.72816 483.032 6.06305 483.279 6.30996C483.526 6.55687 483.861 6.69559 484.21 6.69559C484.559 6.69559 484.894 6.55687 485.141 6.30996C485.388 6.06305 485.527 5.72816 485.527 5.37898C485.527 5.02979 485.388 4.6949 485.141 4.44799C484.894 4.20108 484.559 4.06237 484.21 4.06237ZM480.41 2.1029C480.268 2.09983 480.127 2.12514 479.995 2.17734C479.863 2.22954 479.742 2.30759 479.641 2.4069C479.54 2.50621 479.459 2.62478 479.404 2.75566C479.349 2.88655 479.32 3.02711 479.32 3.16909C479.32 3.31108 479.349 3.45164 479.404 3.58252C479.459 3.71341 479.54 3.83198 479.641 3.93129C479.742 4.0306 479.863 4.10864 479.995 4.16085C480.127 4.21305 480.268 4.23836 480.41 4.23529C480.693 4.23529 480.964 4.12293 481.164 3.92293C481.364 3.72294 481.476 3.45168 481.476 3.16884C481.476 2.88601 481.364 2.61475 481.164 2.41475C480.964 2.21476 480.693 2.1024 480.41 2.1024V2.1029ZM476.673 1.09924C476.429 1.09924 476.196 1.19598 476.024 1.36817C475.851 1.54037 475.755 1.77391 475.755 2.01743C475.755 2.26095 475.851 2.4945 476.024 2.66669C476.196 2.83888 476.429 2.93562 476.673 2.93562C476.916 2.93562 477.15 2.83888 477.322 2.66669C477.494 2.4945 477.591 2.26095 477.591 2.01743C477.591 1.77391 477.494 1.54037 477.322 1.36817C477.15 1.19598 476.916 1.09924 476.673 1.09924ZM473.159 0.83313C473.055 0.83313 472.952 0.85356 472.856 0.893255C472.761 0.932949 472.673 0.991131 472.6 1.06448C472.527 1.13782 472.469 1.2249 472.429 1.32073C472.389 1.41656 472.369 1.51927 472.369 1.623C472.369 1.72672 472.389 1.82943 472.429 1.92527C472.469 2.0211 472.527 2.10817 472.6 2.18152C472.673 2.25486 472.761 2.31304 472.856 2.35274C472.952 2.39243 473.055 2.41286 473.159 2.41286C473.368 2.41286 473.569 2.32965 473.717 2.18152C473.865 2.03339 473.948 1.83248 473.948 1.623C473.948 1.41351 473.865 1.21261 473.717 1.06448C473.569 0.916348 473.368 0.83313 473.159 0.83313ZM469.655 1.09526C469.411 1.09526 469.177 1.19223 469.004 1.36484C468.832 1.53746 468.735 1.77157 468.735 2.01569C468.735 2.2598 468.832 2.49392 469.004 2.66653C469.177 2.83915 469.411 2.93612 469.655 2.93612C469.896 2.93053 470.124 2.83112 470.292 2.65916C470.46 2.48721 470.554 2.25634 470.554 2.01594C470.554 1.77553 470.46 1.54467 470.292 1.37271C470.124 1.20075 469.896 1.10085 469.655 1.09526ZM465.918 2.1029C465.778 2.1029 465.639 2.13049 465.509 2.18411C465.38 2.23773 465.262 2.31632 465.163 2.4154C465.064 2.51447 464.986 2.63209 464.932 2.76154C464.878 2.89099 464.851 3.02973 464.851 3.16984C464.851 3.30995 464.878 3.44869 464.932 3.57814C464.986 3.70759 465.064 3.82521 465.163 3.92428C465.262 4.02336 465.38 4.10195 465.509 4.15557C465.639 4.20919 465.778 4.23678 465.918 4.23678C466.201 4.23678 466.472 4.12437 466.672 3.92428C466.872 3.72419 466.985 3.45281 466.985 3.16984C466.985 2.88687 466.872 2.61549 466.672 2.4154C466.472 2.21531 466.201 2.1029 465.918 2.1029ZM462.114 4.05838C461.764 4.05838 461.429 4.1972 461.182 4.4443C460.935 4.6914 460.796 5.02654 460.796 5.37599C460.796 5.72544 460.935 6.06058 461.182 6.30768C461.429 6.55478 461.764 6.69359 462.114 6.69359C462.463 6.69359 462.799 6.55478 463.046 6.30768C463.293 6.06058 463.432 5.72544 463.432 5.37599C463.432 5.02654 463.293 4.6914 463.046 4.4443C462.799 4.1972 462.463 4.05838 462.114 4.05838ZM458.725 7.30007C458.522 7.29641 458.32 7.33319 458.132 7.40827C457.944 7.48334 457.772 7.59521 457.627 7.73734C457.483 7.87946 457.368 8.049 457.289 8.23605C457.211 8.42309 457.17 8.6239 457.17 8.82673C457.17 9.02957 457.211 9.23038 457.289 9.41742C457.368 9.60447 457.483 9.774 457.627 9.91613C457.772 10.0583 457.944 10.1701 458.132 10.2452C458.32 10.3203 458.522 10.3571 458.725 10.3534C459.125 10.3462 459.506 10.1821 459.787 9.89663C460.067 9.61111 460.224 9.22692 460.224 8.82673C460.224 8.42655 460.067 8.04236 459.787 7.75684C459.506 7.47132 459.125 7.3073 458.725 7.30007ZM456.444 11.4328C456.206 11.4288 455.969 11.4723 455.748 11.5608C455.527 11.6492 455.325 11.7808 455.155 11.9479C454.985 12.115 454.851 12.3143 454.758 12.534C454.666 12.7538 454.619 12.9898 454.619 13.2281C454.619 13.4664 454.666 13.7023 454.758 13.9221C454.851 14.1419 454.985 14.3411 455.155 14.5082C455.325 14.6753 455.527 14.8069 455.748 14.8954C455.969 14.9838 456.206 15.0273 456.444 15.0233C456.915 15.0155 457.364 14.8229 457.695 14.4871C458.025 14.1512 458.21 13.6991 458.21 13.2281C458.21 12.757 458.025 12.3049 457.695 11.9691C457.364 11.6332 456.915 11.4406 456.444 11.4328ZM455.621 16.6977C455.069 16.6977 454.541 16.9167 454.151 17.3065C453.761 17.6964 453.542 18.225 453.542 18.7763C453.542 19.3276 453.761 19.8563 454.151 20.2461C454.541 20.6359 455.069 20.8549 455.621 20.8549C456.172 20.8549 456.701 20.6359 457.09 20.2461C457.48 19.8563 457.699 19.3276 457.699 18.7763C457.699 18.225 457.48 17.6964 457.09 17.3065C456.701 16.9167 456.172 16.6977 455.621 16.6977ZM456.445 22.5263C456.206 22.5207 455.968 22.563 455.745 22.6507C455.522 22.7385 455.319 22.8699 455.147 23.0373C454.976 23.2047 454.84 23.4046 454.747 23.6254C454.654 23.8462 454.606 24.0833 454.606 24.3228C454.606 24.5624 454.654 24.7995 454.747 25.0203C454.84 25.241 454.976 25.441 455.147 25.6084C455.319 25.7758 455.522 25.9072 455.745 25.9949C455.968 26.0827 456.206 26.125 456.445 26.1193C456.914 26.1083 457.361 25.9142 457.689 25.5785C458.016 25.2428 458.2 24.7921 458.2 24.3228C458.2 23.8536 458.016 23.4029 457.689 23.0672C457.361 22.7315 456.914 22.5374 456.445 22.5263ZM458.727 27.1977C458.322 27.1977 457.934 27.3585 457.648 27.6448C457.361 27.931 457.201 28.3191 457.201 28.7239C457.201 29.1287 457.361 29.5169 457.648 29.8031C457.934 30.0893 458.322 30.2501 458.727 30.2501C459.131 30.2501 459.52 30.0893 459.806 29.8031C460.092 29.5169 460.253 29.1287 460.253 28.7239C460.253 28.3191 460.092 27.931 459.806 27.6448C459.52 27.3585 459.131 27.1977 458.727 27.1977ZM462.111 30.8556C461.762 30.8556 461.427 30.9944 461.18 31.2415C460.933 31.4886 460.794 31.8237 460.794 32.1732C460.794 32.5226 460.933 32.8578 461.18 33.1049C461.427 33.352 461.762 33.4908 462.111 33.4908C462.461 33.4908 462.796 33.352 463.043 33.1049C463.29 32.8578 463.429 32.5226 463.429 32.1732C463.429 31.8237 463.29 31.4886 463.043 31.2415C462.796 30.9944 462.461 30.8556 462.111 30.8556ZM465.918 33.3109C465.635 33.3109 465.363 33.4233 465.163 33.6235C464.963 33.8237 464.85 34.0952 464.85 34.3783C464.85 34.6614 464.963 34.9329 465.163 35.1331C465.363 35.3333 465.635 35.4458 465.918 35.4458C466.201 35.4458 466.472 35.3333 466.673 35.1331C466.873 34.9329 466.985 34.6614 466.985 34.3783C466.985 34.0952 466.873 33.8237 466.673 33.6235C466.472 33.4233 466.201 33.3109 465.918 33.3109ZM469.658 34.6145C469.414 34.6145 469.18 34.7114 469.008 34.8838C468.835 35.0562 468.738 35.2901 468.738 35.534C468.738 35.7778 468.835 36.0117 469.008 36.1841C469.18 36.3565 469.414 36.4534 469.658 36.4534C469.902 36.4534 470.135 36.3565 470.308 36.1841C470.48 36.0117 470.577 35.7778 470.577 35.534C470.577 35.2901 470.48 35.0562 470.308 34.8838C470.135 34.7114 469.902 34.6145 469.658 34.6145ZM473.167 35.1308C472.957 35.1308 472.755 35.2142 472.607 35.3626C472.459 35.511 472.375 35.7123 472.375 35.9222C472.375 36.132 472.459 36.3333 472.607 36.4817C472.755 36.6302 472.957 36.7135 473.167 36.7135C473.376 36.7135 473.578 36.6302 473.726 36.4817C473.875 36.3333 473.958 36.132 473.958 35.9222C473.958 35.7123 473.875 35.511 473.726 35.3626C473.578 35.2142 473.376 35.1308 473.167 35.1308ZM476.67 34.6135C476.426 34.6135 476.192 34.7104 476.02 34.8828C475.847 35.0552 475.75 35.2891 475.75 35.533C475.75 35.7768 475.847 36.0107 476.02 36.1831C476.192 36.3555 476.426 36.4524 476.67 36.4524C476.914 36.4524 477.148 36.3555 477.32 36.1831C477.492 36.0107 477.589 35.7768 477.589 35.533C477.589 35.2891 477.492 35.0552 477.32 34.8828C477.148 34.7104 476.914 34.6135 476.67 34.6135ZM480.41 33.3129C480.126 33.3129 479.854 33.4257 479.653 33.6265C479.452 33.8273 479.339 34.0996 479.339 34.3835C479.339 34.6675 479.452 34.9398 479.653 35.1406C479.854 35.3414 480.126 35.4542 480.41 35.4542C480.694 35.4542 480.966 35.3414 481.167 35.1406C481.368 34.9398 481.481 34.6675 481.481 34.3835C481.481 34.0996 481.368 33.8273 481.167 33.6265C480.966 33.4257 480.694 33.3129 480.41 33.3129ZM484.213 30.8521C483.864 30.8521 483.528 30.991 483.281 31.2383C483.034 31.4856 482.895 31.821 482.895 32.1707C482.895 32.5204 483.034 32.8558 483.281 33.1031C483.528 33.3503 483.864 33.4893 484.213 33.4893C484.563 33.4893 484.898 33.3503 485.146 33.1031C485.393 32.8558 485.532 32.5204 485.532 32.1707C485.532 31.821 485.393 31.4856 485.146 31.2383C484.898 30.991 484.563 30.8521 484.213 30.8521ZM487.602 27.1968C487.198 27.1968 486.81 27.3574 486.524 27.6432C486.238 27.9291 486.078 28.3169 486.078 28.7212C486.078 29.1255 486.238 29.5132 486.524 29.7991C486.81 30.085 487.198 30.2456 487.602 30.2456C488.006 30.2456 488.394 30.085 488.68 29.7991C488.966 29.5132 489.126 29.1255 489.126 28.7212C489.126 28.3169 488.966 27.9291 488.68 27.6432C488.394 27.3574 488.006 27.1968 487.602 27.1968ZM489.883 22.5293C489.645 22.5253 489.408 22.5689 489.186 22.6575C488.964 22.7461 488.763 22.8779 488.592 23.0453C488.422 23.2127 488.287 23.4122 488.195 23.6324C488.102 23.8525 488.055 24.0889 488.055 24.3276C488.055 24.5663 488.102 24.8026 488.195 25.0227C488.287 25.2429 488.422 25.4425 488.592 25.6098C488.763 25.7772 488.964 25.909 489.186 25.9976C489.408 26.0862 489.645 26.1298 489.883 26.1258C490.355 26.118 490.805 25.9251 491.136 25.5887C491.467 25.2523 491.652 24.7994 491.652 24.3276C491.652 23.8558 491.467 23.4028 491.136 23.0665C490.805 22.7301 490.355 22.5372 489.883 22.5293Z" fill="#9799F8"></path>
    <path d="M514.028 25.8946C514.028 26.0376 513.945 26.1422 513.78 26.1422H511.246C511.019 26.1422 510.935 25.9319 510.832 25.7271L507.844 20.6959H507.384C506.842 20.6959 505.166 20.6366 504.688 20.6122V25.7271C504.688 25.9544 504.521 26.1422 504.293 26.1422H502.217C502.108 26.1413 502.003 26.0972 501.925 26.0195C501.848 25.9419 501.804 25.8368 501.804 25.7271V12.1289C501.804 11.7138 502.05 11.5683 502.468 11.507C503.547 11.3421 505.867 11.2394 507.384 11.2394C510.578 11.2394 513.529 12.3811 513.529 15.9273V16.1157C513.529 18.3118 512.43 19.5143 510.73 20.1751L513.985 25.7271C514.017 25.7767 514.032 25.8356 514.028 25.8946ZM510.666 15.9278C510.666 14.3715 509.459 13.7072 507.384 13.7072C506.947 13.7072 505.059 13.749 504.688 13.7909V18.2889C505.017 18.3103 507.028 18.3522 507.384 18.3522C509.519 18.3522 510.666 17.9406 510.666 16.1157V15.9273V15.9278ZM582.898 25.8946C582.898 26.0376 582.816 26.1422 582.65 26.1422H580.117C579.889 26.1422 579.805 25.9319 579.703 25.7271L576.714 20.6959H576.255C575.713 20.6959 574.037 20.6366 573.559 20.6122V25.7271C573.559 25.9544 573.392 26.1422 573.163 26.1422H571.088C570.978 26.1413 570.873 26.0972 570.796 26.0195C570.718 25.9419 570.675 25.8368 570.674 25.7271V12.1289C570.674 11.7138 570.92 11.5683 571.338 11.507C572.418 11.3421 574.737 11.2394 576.255 11.2394C579.449 11.2394 582.399 12.3811 582.399 15.9273V16.1157C582.399 18.3118 581.301 19.5143 579.601 20.1751L582.856 25.7271C582.888 25.7768 582.903 25.8356 582.898 25.8946ZM579.537 15.9278C579.537 14.3715 578.33 13.7072 576.255 13.7072C575.817 13.7072 573.929 13.749 573.559 13.7909V18.2889C573.888 18.3103 575.898 18.3522 576.255 18.3522C578.389 18.3522 579.537 17.9406 579.537 16.1157V15.9273V15.9278ZM519.112 19.7167H525.753C525.863 19.7164 525.968 19.673 526.046 19.5958C526.123 19.5187 526.167 19.414 526.168 19.3045V17.8065C526.167 17.6969 526.123 17.5922 526.046 17.5149C525.968 17.4375 525.863 17.3939 525.753 17.3934H519.112V15.4907C519.112 13.7555 519.179 13.7077 520.749 13.7077H526.001C526.111 13.7068 526.217 13.6626 526.294 13.5846C526.372 13.5067 526.416 13.4012 526.417 13.2911V11.9655C526.417 11.674 526.313 11.5688 526.001 11.5289C525.337 11.4273 523.985 11.2399 521.518 11.2399C518.074 11.2399 516.247 11.216 516.247 15.4907V22.0559C516.247 26.3311 518.074 26.3072 521.518 26.3072C523.985 26.3072 525.337 26.1218 526.001 26.0167C526.313 25.9768 526.417 25.8731 526.417 25.5806V24.255C526.416 24.1452 526.372 24.0401 526.294 23.9627C526.216 23.8852 526.111 23.8417 526.001 23.8414H520.749C519.179 23.8414 519.112 23.7946 519.112 22.0559V19.7167ZM560.108 19.7167H566.749C566.859 19.7165 566.964 19.6732 567.042 19.596C567.12 19.5189 567.164 19.4141 567.165 19.3045V17.8065C567.164 17.6968 567.12 17.592 567.042 17.5147C566.964 17.4374 566.859 17.3938 566.749 17.3934H560.108V15.4907C560.108 13.7555 560.175 13.7077 561.744 13.7077H566.997C567.107 13.7069 567.213 13.6628 567.291 13.5848C567.369 13.5068 567.413 13.4013 567.414 13.2911V11.9655C567.414 11.674 567.309 11.5688 566.997 11.5289C566.333 11.4273 564.982 11.2399 562.514 11.2399C559.07 11.2399 557.243 11.216 557.243 15.4907V22.0559C557.243 26.3311 559.07 26.3072 562.514 26.3072C564.981 26.3072 566.333 26.1218 566.997 26.0167C567.309 25.9768 567.414 25.8731 567.414 25.5806V24.255C567.413 24.1452 567.368 24.0401 567.29 23.9627C567.213 23.8852 567.107 23.8417 566.997 23.8414H561.744C560.175 23.8414 560.108 23.7946 560.108 22.0559V19.7172L560.108 19.7167ZM541.504 20.4333V11.7985C541.504 11.5683 541.317 11.4044 541.087 11.4044H539.033C538.805 11.4044 538.619 11.5683 538.619 11.798V20.4333C538.619 22.7999 537.527 23.9216 535.286 23.9216C533.049 23.9216 531.954 22.7999 531.954 20.4333V11.7985C531.954 11.5683 531.769 11.4044 531.539 11.4044H529.488C529.261 11.4044 529.072 11.5683 529.072 11.798V20.4333C529.072 24.855 531.947 26.3067 535.286 26.3067C538.627 26.3067 541.504 24.855 541.504 20.4333ZM554.921 13.8093H550.782V25.7271C550.782 25.8374 550.737 25.943 550.659 26.0207C550.58 26.0984 550.475 26.1421 550.364 26.1422H548.313C548.203 26.1417 548.098 26.0978 548.02 26.02C547.943 25.9422 547.899 25.8369 547.899 25.7271V13.8098H543.755C543.529 13.8098 543.34 13.6663 543.34 13.4386V11.799C543.34 11.5688 543.529 11.4049 543.755 11.4049H554.92C555.148 11.4049 555.336 11.5693 555.336 11.799V13.4386C555.336 13.6663 555.148 13.8098 554.921 13.8098V13.8093ZM595.578 21.9721C595.578 19.9818 594.447 18.9522 592.694 18.2446C591.315 17.6904 590.104 17.2195 589.182 16.8567C588.265 16.4929 587.483 15.8635 587.483 15.1803C587.483 14.2484 588.639 13.7077 590.17 13.7077C591.977 13.7077 593.398 13.9598 594.768 14.0849H594.81C595.017 14.0849 595.161 13.9165 595.161 13.7112V12.1753C595.161 11.9695 594.998 11.8235 594.789 11.7831C594.086 11.6142 592.275 11.2379 590.296 11.2379C586.439 11.2379 584.599 12.8974 584.599 15.1808C584.599 16.6314 585.239 18.0617 587.047 18.8082C588.859 19.5557 592.569 20.4168 592.569 21.9726C592.569 23.1756 592.009 23.8369 590.16 23.8369C588.243 23.8369 586.301 23.5653 585.47 23.4612H585.428C585.324 23.4617 585.224 23.5036 585.15 23.5776C585.077 23.6517 585.035 23.7519 585.035 23.8564V25.3514C585.035 25.5796 585.222 25.7226 585.429 25.764C586.427 25.9932 588.287 26.3092 590.118 26.3092C594.272 26.3092 595.578 24.0667 595.578 21.9721ZM597.093 14.2474C597.093 15.877 598.295 17.2564 600.128 17.2564C601.962 17.2564 603.178 15.8765 603.178 14.2474C603.178 12.6049 601.962 11.2544 600.128 11.2544C598.295 11.2544 597.093 12.6049 597.093 14.2474ZM597.535 14.2474C597.535 12.7982 598.556 11.6411 600.128 11.6411C601.715 11.6411 602.735 12.7982 602.735 14.2474C602.735 15.6971 601.715 16.8701 600.128 16.8701C598.556 16.8701 597.535 15.6971 597.535 14.2474H597.535ZM601.506 15.5879L600.848 14.4667C601.192 14.3336 601.414 14.0909 601.414 13.6474V13.61C601.414 12.8934 600.818 12.6632 600.173 12.6632C599.868 12.6632 599.399 12.6841 599.181 12.718C599.097 12.7294 599.047 12.7588 599.047 12.8426V15.5884C599.047 15.6105 599.056 15.6316 599.072 15.6472C599.088 15.6627 599.109 15.6715 599.131 15.6716H599.55C599.595 15.6716 599.629 15.6338 599.629 15.5884V14.5554C599.726 14.5603 600.065 14.5728 600.173 14.5728H600.266L600.87 15.5884C600.89 15.6293 600.907 15.6716 600.953 15.6716H601.465C601.497 15.6716 601.515 15.6502 601.515 15.6218C601.515 15.6123 601.515 15.5999 601.506 15.5879ZM600.836 13.6479C600.836 14.0157 600.605 14.0989 600.173 14.0989C600.103 14.0989 599.697 14.0904 599.629 14.0859V13.1784C599.81 13.1681 599.991 13.1625 600.173 13.1615C600.592 13.1615 600.836 13.2956 600.836 13.61V13.6479Z" fill="#9799F8"></path>
  </g>
  <g clip-path="url(#clip2_6876_60848)">
    <mask id="mask0_6876_60848" style="mask-type:luminance" maskUnits="userSpaceOnUse" x="635" y="0" width="33" height="38">
      <path d="M635.298 37.1385H667.298V0.10144H635.298V37.1385Z" fill="white"></path>
    </mask>
    <g mask="url(#mask0_6876_60848)">
      <path fill-rule="evenodd" clip-rule="evenodd" d="M635.298 33.2773H667.298V0.10144H635.298V33.2773Z" fill="white"></path>
    </g>
    <mask id="mask1_6876_60848" style="mask-type:luminance" maskUnits="userSpaceOnUse" x="635" y="0" width="33" height="38">
      <path d="M635.298 37.1385H667.298V0.10144H635.298V37.1385Z" fill="#FF322E"></path>
    </mask>
    <g mask="url(#mask1_6876_60848)">
      <path fill-rule="evenodd" clip-rule="evenodd" d="M635.298 33.2773H667.298V37.1447H635.298L635.298 33.2773Z" fill="#9799F8"></path>
    </g>
    <path fill-rule="evenodd" clip-rule="evenodd" d="M642.663 8.83167L637.284 24.9664H641.179L644.832 13.5618L646.663 19.2635H644.295L643.349 22.5182H647.709L648.495 24.9664H652.501L647.122 8.83167H642.663ZM658.621 8.83167H653.029V24.9664H656.896V12.0865H658.454C660.262 12.0865 661.291 12.9487 661.291 14.5066C661.291 16.0366 660.262 16.9268 658.454 16.9268H658.204V20.1816H658.621C662.794 20.1816 665.242 18.0811 665.242 14.5066C665.242 10.8624 662.794 8.83167 658.621 8.83167Z" fill="#9799F8"></path>
  </g>
  <path d="M699.298 2.77332L711.451 34.7733H713.689L701.536 2.77332H699.298Z" fill="#9799F8"></path>
  <path d="M725.231 18.7765C725.956 19.0181 726.619 19.265 727.222 19.5171C727.787 19.7471 728.318 20.0515 728.802 20.4222C729.242 20.7618 729.602 21.1944 729.855 21.6892C730.12 22.2384 730.25 22.8429 730.234 23.4524V23.4851C730.272 24.2214 730.142 24.9567 729.854 25.6354C729.566 26.3142 729.128 26.9187 728.572 27.4034C727.464 28.3465 725.911 28.8182 723.915 28.8186C722.658 28.8173 721.41 28.5984 720.228 28.1714C719.011 27.734 717.867 27.1127 716.838 26.3292L716.805 26.2959L716.838 26.2625L719.076 22.7295L719.109 22.7621C719.737 23.4433 720.499 23.9869 721.347 24.3589C722.189 24.7223 723.097 24.9071 724.013 24.9016C725.308 24.9016 725.955 24.4856 725.955 23.6536C725.954 23.4597 725.894 23.2708 725.782 23.1124C725.67 22.954 725.512 22.8338 725.33 22.768C724.85 22.5469 724.355 22.3601 723.849 22.209C723.748 22.1689 723.643 22.1414 723.536 22.1274C723.428 22.1147 723.323 22.087 723.224 22.0451C722.565 21.8709 721.907 21.6796 721.249 21.471C720.617 21.2762 720.018 20.9886 719.471 20.6175C718.944 20.2548 718.501 19.7834 718.172 19.235C717.807 18.5787 717.63 17.8346 717.662 17.0844V17.0191C717.653 16.2961 717.798 15.5795 718.089 14.9176C718.371 14.288 718.786 13.7277 719.307 13.2758C719.867 12.7974 720.515 12.4349 721.216 12.2093C722.013 11.9493 722.847 11.8215 723.685 11.8312C724.766 11.8355 725.842 11.9963 726.878 12.3086C727.94 12.6216 728.95 13.0932 729.872 13.7074V13.7727L727.865 17.426L727.832 17.3933C727.296 16.8684 726.657 16.4594 725.956 16.1917C725.202 15.8942 724.397 15.7435 723.586 15.7476C723.41 15.749 723.234 15.7601 723.06 15.7809C722.87 15.8002 722.685 15.8559 722.516 15.9448C722.356 16.0293 722.216 16.1471 722.105 16.2903C721.984 16.4697 721.926 16.6839 721.94 16.8996C721.943 17.0035 721.968 17.1057 722.013 17.1993C722.058 17.293 722.122 17.376 722.202 17.443C722.405 17.6262 722.632 17.781 722.876 17.9034C723.176 18.0577 723.484 18.1953 723.798 18.3154C724.138 18.4461 724.472 18.5667 724.802 18.6772C724.874 18.6783 724.946 18.6893 725.016 18.7099C725.093 18.7321 725.164 18.7543 725.23 18.7752" fill="#9799F8"></path>
  <path d="M731.879 12.0951H736.254V28.5522H731.879V12.0951ZM731.879 5.51221H736.254V9.36527H731.879V5.51221Z" fill="#9799F8"></path>
  <path d="M745.176 14.9255H750.015V18.5774H747.184L745.176 14.9255ZM750.015 5.51162V9.36468H746.427C746.169 9.35289 745.913 9.40712 745.683 9.52223C745.452 9.63734 745.255 9.80949 745.11 10.0223C744.775 10.5643 744.614 11.1963 744.65 11.8326V28.551H740.274V18.5774H737.902V14.9255H740.272V11.6341C740.268 10.8199 740.43 10.0134 740.749 9.26411C741.371 7.78637 742.546 6.61078 744.024 5.98901C744.784 5.66835 745.602 5.50592 746.427 5.51162H750.015Z" fill="#9799F8"></path>
  <path d="M763.114 13.81V17.4632H760.679L758.638 13.81H763.114ZM758.078 22.9241C758.074 23.1641 758.121 23.4023 758.214 23.6234C758.308 23.8444 758.447 24.0433 758.622 24.2074C758.792 24.3778 758.995 24.5122 759.218 24.6028C759.441 24.6933 759.681 24.7381 759.921 24.7344H763.114V28.5522H759.921C759.092 28.5571 758.27 28.3948 757.505 28.0748C756.766 27.7701 756.093 27.3227 755.526 26.7583C754.964 26.1941 754.512 25.5296 754.193 24.7991C753.862 24.0418 753.693 23.2231 753.7 22.3965V17.4593H751.331V13.81H753.701V7.84888H758.077L758.078 22.9241Z" fill="#9799F8"></path>
  <path d="M772.166 11.8312C773.298 11.8251 774.419 12.0551 775.457 12.5065C777.491 13.3773 779.112 14.9977 779.983 17.0315C780.436 18.0809 780.666 19.2132 780.657 20.3563C780.66 20.9759 780.594 21.5939 780.462 22.1992L780.428 22.2645H772.069L769.959 18.9078H776.213C775.928 18.0207 775.397 17.2329 774.682 16.6364C773.977 16.047 773.083 15.7317 772.164 15.7483C771.585 15.7452 771.012 15.8685 770.485 16.1094C769.972 16.3404 769.508 16.6689 769.12 17.0766C768.727 17.4942 768.42 17.9845 768.215 18.5198C767.992 19.1005 767.881 19.7181 767.888 20.3399C767.894 20.8726 767.994 21.4 768.185 21.8975C768.38 22.4312 768.67 22.9255 769.04 23.3571C769.421 23.8005 769.878 24.1725 770.389 24.4555C770.933 24.755 771.546 24.9076 772.167 24.8983C772.721 24.9047 773.272 24.8214 773.8 24.6514C774.366 24.4317 774.853 24.0475 775.199 23.5484L775.231 23.5158L775.296 23.5484L779.114 25.23L779.049 25.2954C778.272 26.3914 777.238 27.2803 776.038 27.8841C774.841 28.4987 773.515 28.8176 772.17 28.814C771.024 28.8215 769.887 28.5973 768.829 28.1551C767.814 27.7352 766.892 27.1201 766.114 26.3448C765.339 25.569 764.719 24.6534 764.285 23.6464C763.834 22.6081 763.604 21.4871 763.611 20.3549C763.602 19.2119 763.832 18.0796 764.285 17.0302C765.156 14.9907 766.785 13.3686 768.827 12.5051C769.883 12.0524 771.02 11.8225 772.168 11.8299" fill="#9799F8"></path>
  <path d="M800.011 5.51147V28.5515H795.6L795.634 20.2903C795.636 19.6882 795.507 19.0928 795.255 18.5459C795.014 18.0137 794.679 17.5289 794.267 17.1144C793.853 16.7028 793.361 16.378 792.82 16.159C792.25 15.927 791.641 15.8096 791.026 15.8135C790.416 15.8085 789.811 15.926 789.248 16.159C788.71 16.3826 788.223 16.713 787.817 17.1301C787.408 17.5504 787.079 18.0411 786.845 18.5786C786.607 19.1407 786.484 19.7452 786.484 20.3559C786.484 20.9666 786.607 21.5711 786.845 22.1332C787.309 23.2119 788.169 24.0718 789.248 24.5358C789.809 24.7802 790.414 24.9038 791.026 24.8983C791.334 24.8986 791.642 24.8768 791.947 24.8329C792.245 24.7928 792.534 24.7046 792.803 24.5717H792.868L794.481 27.534L794.448 27.5667C793.312 28.421 791.919 28.8624 790.498 28.8179C789.381 28.8247 788.273 28.6099 787.239 28.1861C786.205 27.7623 785.266 27.1378 784.475 26.3487C783.7 25.5729 783.08 24.6572 782.646 23.6503C782.201 22.61 781.972 21.4903 781.972 20.3588C781.972 19.2274 782.201 18.1076 782.646 17.0674C783.08 16.0603 783.7 15.1444 784.475 14.3683C785.266 13.5791 786.205 12.9547 787.239 12.5309C788.273 12.1072 789.381 11.8927 790.498 11.8997C791.496 11.8489 792.49 12.0516 793.388 12.489C794.286 12.9264 795.058 13.5842 795.633 14.4009V5.51147H800.011Z" fill="#9799F8"></path>
  <path d="M816.594 2.77332L804.441 34.7733H806.679L818.832 2.77332H816.594Z" fill="#9799F8"></path>
  <g clip-path="url(#clip3_6876_60848)">
    <path fill-rule="evenodd" clip-rule="evenodd" d="M858.816 34.7733H861.212V21.9733H858.816V34.7733ZM867.599 34.5813H869.745V26.5053L878.778 34.7733V22.1653H876.638V30.1033L867.599 21.9733V34.5813ZM883.677 31.4813C884.845 32.3913 886.247 32.9173 887.75 32.9173C889.214 32.9173 890.241 32.4133 890.241 31.3003C890.241 30.3303 889.586 29.9503 888.439 29.5253L886.582 28.8803C884.87 28.2723 883.568 27.3843 883.568 25.3433C883.568 23.1603 885.539 21.9733 887.896 21.9733C889.34 21.9733 890.656 22.3363 891.684 22.9793V25.1443C890.615 24.3543 889.445 23.8103 887.942 23.8103C886.648 23.8103 885.681 24.2933 885.681 25.3003C885.681 26.2103 886.288 26.5743 887.357 26.9403L889.426 27.6663C891.431 28.3713 892.351 29.4643 892.351 31.2623C892.351 33.5243 890.361 34.7733 887.75 34.7733C886.034 34.7733 884.575 34.2933 883.677 33.6873V31.4813ZM897.941 34.7733H900.336V21.9733H897.941V34.7733ZM911.572 32.8363C914.272 32.8363 915.715 31.1043 915.715 28.3703C915.715 25.6163 914.271 23.8903 911.572 23.8903H908.902V32.8363H911.572ZM906.722 21.9733H911.652C915.447 21.9733 917.901 24.4733 917.901 28.3703C917.901 32.2703 915.447 34.7733 911.652 34.7733H906.722V21.9733ZM929.879 21.9733V23.8903H924.082V26.9703H929.281V28.8653H924.081V32.8363H929.879V34.7733H921.894V21.9733H929.879ZM938.381 27.7693H940.758C942.165 27.7693 942.958 26.9973 942.958 25.8103C942.958 24.6233 942.165 23.8503 940.758 23.8503H938.381V27.7693ZM938.381 29.5793V34.7733H936.266V21.9733H940.798C943.382 21.9733 945.054 23.3043 945.054 25.8103C945.054 27.9533 944.126 29.1843 942.149 29.5003L946.646 34.7733H944.24L939.886 29.5803H938.382L938.381 29.5793ZM857.979 9.36332C858.916 9.02032 859.646 7.99132 859.646 6.57632C859.646 4.21832 857.979 2.99632 855.312 2.99632H850.832V16.1593H855.728C858.395 16.1593 860.062 14.8513 860.062 12.3863C860.062 10.9923 859.187 9.77032 857.979 9.36332ZM852.936 8.52732V4.92632H855.292C856.772 4.92632 857.563 5.46232 857.563 6.70532C857.563 7.94832 856.771 8.52732 855.292 8.52732H852.936ZM852.936 10.3713H855.686C857.146 10.3713 857.937 11.0993 857.937 12.3003C857.937 13.4793 857.145 14.2303 855.687 14.2303H852.937V10.3703L852.936 10.3713ZM869.837 16.3733C872.9 16.3733 874.963 14.5293 874.963 10.9283V2.99632H872.796V10.6703C872.796 13.2003 871.754 14.3803 869.837 14.3803C867.92 14.3803 866.879 13.2003 866.879 10.6703V2.99632H864.712V10.9063C864.712 14.5293 866.795 16.3733 869.837 16.3733ZM880.065 15.2153C880.961 15.8593 882.42 16.3733 884.128 16.3733C886.733 16.3733 888.712 15.0433 888.712 12.6433C888.712 10.7353 887.796 9.57732 885.795 8.82732L883.733 8.05532C882.67 7.67032 882.066 7.28432 882.066 6.31932C882.066 5.24732 883.024 4.73332 884.316 4.73332C885.816 4.73332 886.983 5.31132 888.046 6.14832V3.85332C887.025 3.16832 885.712 2.78232 884.274 2.78232C881.92 2.78232 879.961 4.04732 879.961 6.36232C879.961 8.52732 881.253 9.47032 882.961 10.1133L884.816 10.7993C885.962 11.2493 886.608 11.6573 886.608 12.6863C886.608 13.8653 885.587 14.4013 884.128 14.4013C882.628 14.4013 881.232 13.8433 880.065 12.8793V15.2153ZM896.455 2.99632H894.289V16.1583H896.455V2.99632ZM902.637 16.1423H904.725V7.57932L913.513 16.3463V2.97632H911.431V11.3933L902.637 2.77332V16.1423ZM927.054 2.99932V4.97032H921.428V8.13832H926.473V10.0873H921.428V14.1703H927.054V16.1623H919.304V2.99932H927.054ZM932.099 15.2063C932.995 15.8503 934.453 16.3643 936.162 16.3643C938.766 16.3643 940.746 15.0353 940.746 12.6343C940.746 10.7263 939.829 9.56932 937.829 8.81832L935.766 8.04732C934.703 7.66132 934.099 7.27532 934.099 6.31032C934.099 5.23832 935.057 4.72432 936.349 4.72432C937.849 4.72432 939.016 5.30332 940.079 6.13932V3.84532C939.058 3.15932 937.745 2.77332 936.307 2.77332C933.953 2.77332 931.994 4.03832 931.994 6.35332C931.994 8.51832 933.286 9.46132 934.994 10.1043L936.849 10.7903C937.995 11.2403 938.641 11.6483 938.641 12.6773C938.641 13.8563 937.621 14.3923 936.161 14.3923C934.661 14.3923 933.265 13.8353 932.099 12.8703V15.2063ZM945.185 15.2063C946.081 15.8503 947.54 16.3643 949.248 16.3643C951.853 16.3643 953.832 15.0353 953.832 12.6343C953.832 10.7263 952.915 9.56932 950.915 8.81832L948.852 8.04732C947.79 7.66132 947.185 7.27532 947.185 6.31032C947.185 5.23832 948.144 4.72432 949.435 4.72432C950.935 4.72432 952.103 5.30332 953.165 6.13932V3.84532C952.145 3.15932 950.832 2.77332 949.394 2.77332C947.039 2.77332 945.081 4.03832 945.081 6.35332C945.081 8.51832 946.373 9.46132 948.081 10.1043L949.936 10.7903C951.082 11.2403 951.728 11.6483 951.728 12.6773C951.728 13.8563 950.707 14.3923 949.248 14.3923C947.748 14.3923 946.352 13.8353 945.185 12.8703V15.2063Z" fill="#9799F8"></path>
  </g>
  <g clip-path="url(#clip4_6876_60848)">
    <path d="M985.832 10.5632H992.697L996.694 20.79L1000.74 10.5632H1007.43L997.363 34.7733H990.636L993.391 28.358L985.832 10.5632Z" fill="#9799F8"></path>
    <path d="M1014.39 10.1561C1009.23 10.1561 1005.97 14.7819 1005.97 19.3885C1005.97 24.5723 1009.55 28.6821 1014.29 28.6821C1017.83 28.6821 1019.17 26.5252 1019.17 26.5252V28.2054H1025.16V10.5634H1019.17V12.1672C1019.17 12.1672 1017.68 10.1561 1014.39 10.1561ZM1015.66 15.8256C1018.04 15.8256 1019.27 17.7087 1019.27 19.4079C1019.27 21.2376 1017.96 23.0332 1015.66 23.0332C1013.76 23.0332 1012.05 21.4807 1012.05 19.4858C1012.05 17.4627 1013.43 15.8256 1015.66 15.8256Z" fill="#9799F8"></path>
    <path d="M1027.22 28.2053V2.77332H1033.48V12.2283C1033.48 12.2283 1034.97 10.1584 1038.08 10.1584C1041.89 10.1584 1044.13 12.9977 1044.13 17.0549V28.2053H1037.91V18.5824C1037.91 17.2093 1037.25 15.8829 1035.77 15.8829C1034.27 15.8829 1033.48 17.2294 1033.48 18.5824V28.2053H1027.22Z" fill="#9799F8"></path>
    <path d="M1054.8 10.1583C1048.9 10.1583 1045.38 14.6498 1045.38 19.462C1045.38 24.9384 1049.64 28.6822 1054.83 28.6822C1059.85 28.6822 1064.25 25.1083 1064.25 19.5539C1064.25 13.4764 1059.65 10.1583 1054.8 10.1583ZM1054.86 15.8776C1056.95 15.8776 1058.39 17.6154 1058.39 19.4686C1058.39 21.0492 1057.04 22.9987 1054.86 22.9987C1052.86 22.9987 1051.35 21.3928 1051.35 19.4513C1051.35 17.581 1052.6 15.8776 1054.86 15.8776Z" fill="#9799F8"></path>
    <path d="M1074.69 10.1583C1068.78 10.1583 1065.26 14.6498 1065.26 19.462C1065.26 24.9384 1069.52 28.6822 1074.71 28.6822C1079.74 28.6822 1084.14 25.1083 1084.14 19.5539C1084.14 13.4764 1079.53 10.1583 1074.69 10.1583ZM1074.74 15.8776C1076.83 15.8776 1078.27 17.6154 1078.27 19.4686C1078.27 21.0492 1076.93 22.9987 1074.74 22.9987C1072.74 22.9987 1071.24 21.3928 1071.24 19.4513C1071.24 17.581 1072.49 15.8776 1074.74 15.8776Z" fill="#9799F8"></path>
    <path d="M1089.08 28.5799C1091.38 28.5799 1093.24 26.7181 1093.24 24.4214C1093.24 22.1247 1091.38 20.2628 1089.08 20.2628C1086.78 20.2628 1084.92 22.1247 1084.92 24.4214C1084.92 26.7181 1086.78 28.5799 1089.08 28.5799Z" fill="#9799F8"></path>
    <path d="M1094.6 18.7351H1087.12L1093.76 2.77332H1101.22L1094.6 18.7351Z" fill="#9799F8"></path>
  </g>
  <defs>
    <clipPath id="clip0_6876_60848">
      <rect width="150" height="27.6959" fill="white" transform="translate(120.779 4.92542)"></rect>
    </clipPath>
    <clipPath id="clip1_6876_60848">
      <rect width="150" height="35.8804" fill="white" transform="translate(453.298 0.83313)"></rect>
    </clipPath>
    <clipPath id="clip2_6876_60848">
      <rect width="32" height="37.5467" fill="white" transform="translate(635.298)"></rect>
    </clipPath>
    <clipPath id="clip3_6876_60848">
      <rect width="103" height="32" fill="white" transform="translate(850.832 2.77332)"></rect>
    </clipPath>
    <clipPath id="clip4_6876_60848">
      <rect width="115.388" height="32" fill="white" transform="translate(985.832 2.77332)"></rect>
    </clipPath>
  </defs>
</svg>
