<svg width="80" height="80" viewBox="0 0 80 80" fill="none" xmlns="http://www.w3.org/2000/svg">
<circle cx="40" cy="40" r="40" fill="#070C2B"/>
<path d="M53.4959 34.0011H50.2089V21.4886C50.2124 20.2556 49.7956 19.0577 49.026 18.0887C48.2563 17.1198 47.179 16.4366 45.9684 16.15C44.7579 15.8633 43.4851 15.99 42.3563 16.5094C41.2275 17.0287 40.3088 17.9105 39.7491 19.0117C39.1893 20.1129 39.0213 21.3691 39.2723 22.5767C39.5232 23.7843 40.1784 24.8726 41.1317 25.6652C42.0851 26.4579 43.2806 26.9085 44.5247 26.944C45.7689 26.9795 46.9886 26.5979 47.9864 25.8609V34.0011H35.3058C33.8452 34.0011 32.4445 34.5759 31.4118 35.5989C30.379 36.622 29.7989 38.0095 29.7989 39.4563C29.7989 39.4974 29.7989 39.536 29.7989 39.5746V52.0846H26.5119C25.4243 52.0841 24.3609 52.4025 23.4557 52.9997C22.5505 53.5968 21.8439 54.446 21.425 55.4402C21.0062 56.4345 20.8937 57.5293 21.1018 58.5867C21.3099 59.6441 21.8293 60.6169 22.5946 61.3824C23.3598 62.148 24.3366 62.672 25.402 62.8886C26.4673 63.1052 27.5736 63.0045 28.5813 62.5994C29.5891 62.1943 30.4532 61.5028 31.0649 60.612C31.6766 59.7212 32.0085 58.671 32.0188 57.5937V54.2862H40.2882C39.5501 55.2712 39.169 56.4741 39.2067 57.7002C39.2443 58.9264 39.6984 60.1041 40.4956 61.0429C41.2928 61.9816 42.3863 62.6265 43.5994 62.8732C44.8125 63.1199 46.0741 62.954 47.1801 62.4023C48.2862 61.8506 49.172 60.9454 49.6943 59.8331C50.2166 58.7208 50.3448 57.4665 50.0581 56.2731C49.7715 55.0797 49.0868 54.017 48.1148 53.2569C47.1428 52.4968 45.9404 52.0837 44.702 52.0846H32.0214V43.8286C33.081 44.6114 34.3898 44.9901 35.7083 44.8954C37.0267 44.8006 38.2667 44.2388 39.2013 43.3127C40.1358 42.3866 40.7025 41.1582 40.7977 39.8521C40.8929 38.546 40.5102 37.2496 39.7196 36.2002H47.9864V39.5077C47.9967 40.5844 48.3284 41.634 48.9397 42.5243C49.551 43.4146 50.4146 44.1058 51.4217 44.5108C52.4288 44.9158 53.5344 45.0165 54.5992 44.8002C55.664 44.584 56.6403 44.0604 57.4053 43.2955C58.1703 42.5306 58.6896 41.5585 58.8979 40.5017C59.1062 39.445 58.9942 38.3508 58.5759 37.357C58.1576 36.3632 57.4518 35.5142 56.5473 34.917C55.6429 34.3199 54.5803 34.0012 53.4933 34.0011H53.4959ZM44.702 24.7421C44.0518 24.7426 43.416 24.5521 42.8752 24.1946C42.3343 23.8371 41.9126 23.3288 41.6634 22.7338C41.4142 22.1389 41.3487 21.4841 41.4753 20.8523C41.6018 20.2205 41.9147 19.6401 42.3742 19.1845C42.8338 18.7289 43.4195 18.4185 44.0572 18.2926C44.6949 18.1668 45.3559 18.2311 45.9567 18.4775C46.5575 18.7239 47.071 19.1412 47.4323 19.6767C47.7936 20.2122 47.9864 20.8419 47.9864 21.486C47.9858 22.3491 47.6397 23.1768 47.024 23.7876C46.4084 24.3985 45.5734 24.7426 44.702 24.7447V24.7421ZM47.9864 57.5397C47.9864 58.1838 47.7936 58.8135 47.4323 59.349C47.071 59.8845 46.5575 60.3018 45.9567 60.5482C45.3559 60.7946 44.6949 60.8589 44.0572 60.7331C43.4195 60.6072 42.8338 60.2969 42.3742 59.8412C41.9147 59.3856 41.6018 58.8052 41.4753 58.1734C41.3487 57.5416 41.4142 56.8868 41.6634 56.2919C41.9126 55.697 42.3343 55.1886 42.8752 54.8311C43.416 54.4736 44.0518 54.2831 44.702 54.2836C45.1337 54.284 45.561 54.3685 45.9597 54.5325C46.3584 54.6964 46.7205 54.9365 47.0255 55.2391C47.3305 55.5417 47.5723 55.9009 47.7372 56.296C47.9021 56.6912 47.9868 57.1147 47.9864 57.5423V57.5397ZM26.5119 60.7855C25.8616 60.7855 25.226 60.5945 24.6854 60.2366C24.1448 59.8787 23.7235 59.37 23.4748 58.7749C23.2261 58.1798 23.1612 57.5249 23.2882 56.8933C23.4152 56.2616 23.7286 55.6814 24.1885 55.2261C24.6485 54.7708 25.2344 54.4609 25.8722 54.3356C26.51 54.2102 27.171 54.2751 27.7715 54.5219C28.3721 54.7688 28.8853 55.1865 29.2462 55.7223C29.607 56.2581 29.7994 56.8879 29.7989 57.532C29.7982 58.3951 29.4516 59.2227 28.8352 59.8328C28.2188 60.4428 27.3832 60.7855 26.5119 60.7855ZM35.3058 42.7021C34.6552 42.7021 34.0193 42.5109 33.4785 42.1526C32.9378 41.7944 32.5165 41.2852 32.268 40.6897C32.0195 40.0941 31.955 39.4389 32.0827 38.807C32.2104 38.1751 32.5245 37.5949 32.9852 37.1399C33.4459 36.685 34.0326 36.3757 34.6709 36.2512C35.3092 36.1267 35.9704 36.1927 36.5709 36.4407C37.1713 36.6887 37.6839 37.1077 38.0439 37.6445C38.4038 38.1813 38.5948 38.8118 38.5928 39.4563C38.5921 40.3196 38.2455 41.1474 37.6293 41.7579C37.013 42.3684 36.1773 42.7117 35.3058 42.7124V42.7021ZM53.4959 42.7021C52.8457 42.7026 52.21 42.5121 51.6691 42.1546C51.1282 41.7971 50.7065 41.2888 50.4573 40.6938C50.2081 40.0989 50.1426 39.4441 50.2692 38.8123C50.3957 38.1805 50.7086 37.6001 51.1682 37.1445C51.6277 36.6889 52.2134 36.3785 52.8511 36.2526C53.4888 36.1268 54.1498 36.1911 54.7506 36.4375C55.3514 36.6839 55.8649 37.1012 56.2262 37.6367C56.5875 38.1722 56.7803 38.8019 56.7803 39.446C56.7817 40.3105 56.4365 41.1401 55.8207 41.7526C55.2048 42.3651 54.3686 42.7103 53.4959 42.7124V42.7021Z" fill="#FF2424"/>
</svg>
