<svg width="80" height="80" viewBox="0 0 80 80" fill="none" xmlns="http://www.w3.org/2000/svg">
<circle cx="40" cy="40" r="40" fill="white"/>
<path d="M50.481 22.9296L42.5401 34.7223C42.4114 34.8925 42.3519 35.1051 42.3736 35.3175C42.3952 35.5298 42.4964 35.726 42.6568 35.8667C42.8172 36.0074 43.0248 36.0821 43.238 36.0758C43.4512 36.0695 43.6541 35.9826 43.8059 35.8327L51.6203 29.0772C51.6653 29.0358 51.7215 29.0086 51.7819 28.9989C51.8422 28.9893 51.9041 28.9975 51.9598 29.0227C52.0155 29.0479 52.0626 29.0889 52.0953 29.1406C52.1279 29.1923 52.1447 29.2525 52.1435 29.3136V50.5471C52.1428 50.6116 52.1225 50.6743 52.0853 50.727C52.0481 50.7796 51.9957 50.8196 51.9352 50.8416C51.8746 50.8636 51.8088 50.8667 51.7465 50.8502C51.6842 50.8338 51.6284 50.7988 51.5865 50.7498L27.9578 22.461C27.5806 22.0068 27.1087 21.6407 26.5751 21.3884C26.0416 21.136 25.4593 21.0035 24.8692 21.0001H24.0464C22.9732 21.0001 21.944 21.4267 21.1852 22.186C20.4263 22.9454 20 23.9753 20 25.0492V54.9509C20 56.0248 20.4263 57.0547 21.1852 57.814C21.944 58.5734 22.9732 59 24.0464 59C24.7379 58.9999 25.4178 58.8225 26.0213 58.4847C26.6248 58.1469 27.1317 57.66 27.4937 57.0704L35.4346 45.2778C35.5633 45.1076 35.6228 44.8949 35.6011 44.6826C35.5795 44.4703 35.4783 44.2741 35.3179 44.1334C35.1575 43.9927 34.9498 43.918 34.7367 43.9243C34.5235 43.9306 34.3206 44.0174 34.1688 44.1674L26.3544 50.9229C26.3094 50.9643 26.2532 50.9914 26.1928 51.0011C26.1325 51.0108 26.0706 51.0026 26.0149 50.9774C25.9592 50.9522 25.9121 50.9112 25.8794 50.8595C25.8468 50.8078 25.83 50.7476 25.8312 50.6865V29.4741C25.8319 29.4096 25.8521 29.3469 25.8894 29.2942C25.9266 29.2416 25.979 29.2016 26.0395 29.1796C26.1001 29.1576 26.1659 29.1545 26.2282 29.1709C26.2905 29.1873 26.3463 29.2224 26.3882 29.2714L50.0169 57.5602C50.397 58.0103 50.8706 58.3719 51.4048 58.6199C51.939 58.8678 52.5208 58.9961 53.1097 58.9958H53.9536C54.485 58.9958 55.0112 58.891 55.5021 58.6876C55.993 58.4841 56.4391 58.1858 56.8148 57.8098C57.1906 57.4338 57.4886 56.9875 57.692 56.4962C57.8953 56.0049 58 55.4784 58 54.9467V25.0492C58 24.5153 57.8945 23.9867 57.6896 23.4938C57.4847 23.0009 57.1843 22.5534 56.8059 22.177C56.4275 21.8007 55.9784 21.503 55.4845 21.301C54.9907 21.099 54.4618 20.9967 53.9283 21.0001C53.2368 21.0002 52.5569 21.1776 51.9534 21.5154C51.3499 21.8532 50.843 22.3401 50.481 22.9296Z" fill="#262626"/>
</svg>
