<?xml version="1.0" encoding="UTF-8"?>
<svg xmlns="http://www.w3.org/2000/svg" id="Layer_1" data-name="Layer 1" viewBox="0 0 800 288">
  <defs>
    <style>
      .cls-1 {
        fill: #00ec97;
      }

      .cls-2 {
        fill: #fff;
      }
    </style>
  </defs>
  <polygon class="cls-2" points="783 135 306 135 306 117 153 117 153 135 117 135 189 216 216 216 216 252 792 252 792 135 783 135"></polygon>
  <path d="m267.47,188.1h-.72l-10.21-34.56h-10.85l-10.17,34.56h-.77l-8.05-34.56h-10.08v1.35l11.79,45.13h12.15l10.04-34.06h.72l10.08,34.06h12.1l11.83-45.13v-1.35h-9.81l-8.05,34.56Zm22.99-34.56h-.31v46.48h10.67v-46.48h-10.35Zm-.67-6.93h11.47v-9.81h-11.47v9.81Zm36.85-5.35h-10.66v12.29h-10.35v8.23h10.35v26.19c0,2.61.51,4.81,1.53,6.62,1.02,1.8,2.49,3.16,4.41,4.07,1.92.92,4.21,1.37,6.88,1.37h10.75v-8.82h-12.19l-.72-.72v-28.71h13.14v-8.23h-13.14v-12.29Zm54.56,13.21c-2.66-1.27-5.84-1.91-9.56-1.91-3.18,0-5.99.47-8.42,1.4-2.43.93-4.43,2.42-5.99,4.46h-.72v-23.17h-10.67v64.8h10.67v-26.01c0-2.91.54-5.33,1.62-7.25,1.08-1.92,2.56-3.34,4.43-4.27,1.87-.93,4-1.4,6.37-1.4,3.21,0,5.66.79,7.36,2.36,1.69,1.58,2.54,3.94,2.54,7.09v29.48h10.67v-30.38c0-3.75-.72-6.9-2.16-9.45-1.44-2.55-3.49-4.46-6.14-5.74Zm51.73.81c-3.69-1.87-7.95-2.81-12.78-2.81s-9.13.94-12.83,2.81c-3.69,1.88-6.56,4.63-8.62,8.28-2.06,3.65-3.08,8.06-3.08,13.25s1.03,9.57,3.08,13.23c2.05,3.66,4.93,6.42,8.62,8.28s7.96,2.79,12.83,2.79,9.09-.93,12.78-2.79c3.69-1.86,6.56-4.62,8.62-8.28,2.05-3.66,3.08-8.07,3.08-13.23s-1.03-9.61-3.08-13.25c-2.06-3.65-4.93-6.4-8.62-8.28Zm-.81,30.19c-1.14,2.39-2.73,4.2-4.77,5.45-2.04,1.25-4.44,1.87-7.2,1.87s-5.21-.62-7.27-1.87c-2.06-1.24-3.65-3.06-4.77-5.45-1.12-2.38-1.69-5.27-1.69-8.66s.56-6.32,1.69-8.71c1.12-2.38,2.71-4.19,4.77-5.42,2.05-1.23,4.48-1.84,7.27-1.84s5.17.62,7.22,1.84c2.05,1.23,3.64,3.04,4.77,5.42,1.12,2.39,1.69,5.29,1.69,8.71s-.57,6.28-1.71,8.66Zm51.21-5.96c0,2.91-.53,5.33-1.6,7.27-1.07,1.94-2.52,3.37-4.37,4.3-1.84.93-3.94,1.4-6.28,1.4-3.21,0-5.63-.78-7.27-2.34-1.64-1.56-2.45-3.94-2.45-7.16v-29.43h-10.66v30.38c0,3.78.7,6.94,2.11,9.47,1.41,2.54,3.43,4.44,6.05,5.72,2.62,1.27,5.78,1.91,9.47,1.91,3.24,0,6.1-.5,8.57-1.49,2.48-.99,4.48-2.53,6.01-4.63h.72v5.13h10.3v-46.48h-10.62v25.96Zm36.45-38.25h-10.67v12.29h-10.35v8.23h10.35v26.19c0,2.61.51,4.81,1.53,6.62,1.02,1.8,2.49,3.16,4.41,4.07,1.92.92,4.21,1.37,6.88,1.37h10.75v-8.82h-12.2l-.72-.72v-28.71h13.14v-8.23h-13.14v-12.29Zm39.64-6.03h-.32v64.8h10.67v-64.8h-10.35Zm19.08,11.38h11.47v-9.81h-11.47v9.81Zm.67,6.93h-.32v46.48h10.67v-46.48h-10.35Zm81.52.83c-2.38-1.22-5.21-1.82-8.48-1.82-2.85,0-5.27.31-7.25.95-1.98.63-3.58,1.45-4.82,2.45-1.23,1.01-2.29,2.2-3.19,3.58h-.72c-.57-1.29-1.39-2.44-2.45-3.46-1.07-1.02-2.49-1.86-4.28-2.52-1.79-.66-3.94-.99-6.46-.99-3.63,0-6.52.54-8.66,1.62-2.15,1.08-3.8,2.45-4.97,4.1h-.72v-4.73h-10.08v46.48h10.49v-27.67c0-2.58.45-4.71,1.35-6.39.9-1.68,2.14-2.92,3.73-3.71s3.43-1.19,5.54-1.19c2.79,0,4.89.68,6.3,2.05,1.41,1.37,2.12,3.37,2.12,6.01v30.92h10.49v-27.67c0-2.58.45-4.71,1.35-6.39.9-1.68,2.14-2.92,3.74-3.71,1.59-.79,3.43-1.19,5.53-1.19,2.76,0,4.84.68,6.26,2.05,1.41,1.37,2.11,3.37,2.11,6.01v30.92h10.49v-31.9c0-3.27-.64-6.08-1.91-8.42-1.28-2.34-3.11-4.12-5.49-5.33Zm16.4-.83h-.32v46.48h10.67v-46.48h-10.35Zm-.67-6.93h11.47v-9.81h-11.47v9.81Zm36.85-5.35h-10.67v12.29h-10.35v8.23h10.35v26.19c0,2.61.51,4.81,1.53,6.62,1.02,1.8,2.49,3.16,4.41,4.07,1.92.92,4.21,1.37,6.88,1.37h10.75v-8.82h-12.19l-.72-.72v-28.71h13.14v-8.23h-13.14v-12.29Zm54.23,35.53c-2.76-2.26-6.59-3.73-11.48-4.39l-8.73-1.17c-2.19-.3-3.88-.85-5.06-1.67-1.19-.81-1.78-2.04-1.78-3.69,0-1.77.82-3.1,2.47-4.01,1.65-.9,4.06-1.35,7.25-1.35,3.39,0,6.04.56,7.96,1.69s2.96,3.01,3.11,5.65h9.67v-1.35c-.27-2.94-1.25-5.45-2.92-7.54-1.68-2.08-4.03-3.68-7.04-4.79-3.01-1.11-6.62-1.67-10.82-1.67s-7.73.55-10.69,1.64c-2.96,1.1-5.21,2.66-6.75,4.7-1.55,2.04-2.32,4.45-2.32,7.24,0,4.05,1.27,7.18,3.83,9.38,2.55,2.21,6.12,3.62,10.71,4.25l8.73,1.17c2.61.36,4.57,1,5.87,1.91,1.3.92,1.96,2.27,1.96,4.07,0,1.29-.38,2.4-1.12,3.33-.75.93-1.88,1.64-3.38,2.12-1.5.48-3.35.72-5.54.72-3.51,0-6.36-.64-8.55-1.91-2.19-1.27-3.38-3.2-3.55-5.78h-9.9v1.35c.18,2.76,1.16,5.23,2.95,7.4,1.79,2.18,4.3,3.88,7.56,5.11,3.25,1.23,7.09,1.85,11.5,1.85s8.08-.62,11.12-1.87c3.03-1.24,5.3-2.97,6.82-5.17,1.51-2.21,2.27-4.78,2.27-7.72,0-4.08-1.38-7.25-4.14-9.52Z"></path>
  <path d="m235.94,226.9c-.98-.52-2.11-.78-3.41-.78s-2.44.26-3.41.78c-.98.52-1.73,1.28-2.27,2.28-.54,1-.81,2.2-.81,3.61s.27,2.6.81,3.61c.54,1,1.29,1.76,2.27,2.28s2.11.77,3.41.77,2.43-.26,3.41-.77c.98-.52,1.74-1.28,2.27-2.28.54-1,.81-2.21.81-3.61s-.27-2.61-.81-3.61-1.3-1.76-2.27-2.28Zm.31,8.54c-.35.73-.85,1.28-1.49,1.66-.64.38-1.38.56-2.23.56s-1.61-.19-2.24-.56c-.64-.38-1.13-.93-1.49-1.66-.35-.73-.53-1.61-.53-2.64s.18-1.91.53-2.64c.35-.73.85-1.28,1.49-1.66.64-.38,1.39-.56,2.24-.56s1.6.19,2.24.56,1.14.93,1.49,1.66c.35.73.52,1.61.52,2.64s-.18,1.91-.53,2.64Zm14.79-8.79c-.72-.34-1.57-.51-2.57-.51s-1.79.15-2.51.46c-.73.31-1.31.8-1.75,1.46h-.2v-1.64h-2.14v12.74h2.2v-7.11c0-.9.17-1.65.51-2.26s.8-1.06,1.39-1.36c.58-.3,1.25-.45,2-.45,1.02,0,1.79.24,2.32.73.53.49.79,1.24.79,2.26v8.2h2.2v-8.41c0-1.02-.19-1.87-.58-2.56-.39-.69-.94-1.2-1.66-1.54Zm20.66-.02c-.77-.34-1.71-.51-2.82-.51s-2.03.15-2.84.46c-.81.31-1.45.75-1.92,1.33s-.75,1.26-.83,2.04v.38h2.06c.08-.82.42-1.44,1.01-1.85s1.41-.61,2.46-.61,1.83.22,2.35.66.78,1.14.78,2.12v.46l-4.79.6c-1.39.18-2.49.58-3.29,1.22-.8.64-1.2,1.55-1.2,2.74,0,.77.2,1.45.59,2.01.39.57.94,1,1.65,1.3.71.3,1.52.45,2.44.45,1.2,0,2.17-.19,2.91-.58.74-.39,1.26-.87,1.57-1.44h.2v1.75h2.05v-8.39c0-1.04-.2-1.91-.61-2.6-.41-.69-1-1.21-1.77-1.54Zm.26,6.97c0,.9-.19,1.65-.56,2.26s-.88,1.06-1.52,1.36c-.64.3-1.36.44-2.16.44-.88,0-1.57-.18-2.08-.55-.51-.37-.77-.88-.77-1.54s.24-1.14.71-1.49c.47-.35,1.15-.58,2.03-.7l4.35-.58v.79Zm28.44,3.05h-.2l-4.15-15.49h-2.73l-4.16,15.49h-.2l-3.62-15.49h-2.25v.38l4.29,17.62h3.1l4.08-15.14h.2l4.08,15.14h3.1l4.29-17.62v-.38h-2.19l-3.62,15.49Zm15.88-9.78c-.88-.5-1.94-.74-3.19-.74s-2.36.26-3.29.77c-.92.51-1.64,1.27-2.14,2.27s-.75,2.21-.75,3.62.25,2.64.76,3.64,1.22,1.76,2.15,2.27,2.03.77,3.29.77c1.18,0,2.18-.2,2.98-.61.8-.41,1.41-.91,1.82-1.51.41-.6.67-1.19.78-1.79v-.38h-1.98c-.07.42-.25.83-.54,1.21-.28.38-.69.69-1.21.94-.52.25-1.15.37-1.89.37-.82,0-1.53-.18-2.13-.53-.6-.35-1.07-.86-1.4-1.51-.33-.65-.5-1.42-.52-2.31h9.93v-1.1c0-1.25-.23-2.33-.68-3.25-.45-.92-1.12-1.62-2-2.12Zm-7.21,4.73c.06-.73.25-1.37.58-1.92.33-.56.78-1,1.36-1.31.58-.32,1.26-.48,2.06-.48s1.49.16,2.06.47.99.75,1.28,1.31c.29.56.44,1.2.45,1.94h-7.79Zm22.41-4.71c-.88-.5-1.89-.76-3.01-.76-.92,0-1.75.16-2.48.48-.72.32-1.32.82-1.77,1.5h-.2v-6.95h-2.2v18h2.15v-1.75h.2c.46.7,1.05,1.21,1.79,1.54.73.33,1.57.49,2.51.49,1.12,0,2.13-.25,3.01-.76s1.58-1.26,2.08-2.26.76-2.21.76-3.64-.25-2.64-.76-3.64c-.5-1-1.2-1.76-2.08-2.26Zm.12,8.51c-.34.73-.81,1.28-1.43,1.66-.62.38-1.33.57-2.15.57s-1.52-.19-2.14-.57c-.62-.38-1.09-.93-1.43-1.66-.34-.72-.51-1.59-.51-2.6s.17-1.89.51-2.61.81-1.28,1.43-1.66c.62-.38,1.33-.57,2.14-.57s1.53.19,2.15.57c.62.38,1.09.93,1.43,1.66s.51,1.6.51,2.61-.17,1.88-.51,2.6Zm5.42-12.34h9.45l-6.01,5.25v1.64h2.32c1.44,0,2.55.32,3.34.95.78.63,1.17,1.54,1.17,2.73,0,.79-.18,1.48-.51,2.08-.33.59-.82,1.05-1.46,1.38-.64.32-1.42.49-2.32.49s-1.69-.16-2.36-.48c-.67-.32-1.2-.77-1.57-1.35s-.57-1.24-.59-1.99h-2.1v.38c.02,1.03.3,1.95.84,2.76.55.81,1.32,1.44,2.32,1.9,1,.46,2.16.69,3.49.69s2.5-.24,3.46-.71,1.71-1.15,2.22-2.03c.51-.88.77-1.92.77-3.12s-.25-2.11-.74-2.91-1.18-1.39-2.08-1.79c-.89-.4-1.92-.6-3.1-.6h-.41l6.34-5.49v-1.65h-12.46v1.9Zm31.86,3.83c-.88-.5-1.89-.76-3.01-.76-.94,0-1.78.16-2.51.49-.73.33-1.33.85-1.79,1.56h-.2v-1.76h-2.15v17.74h2.2v-6.69h.2c.46.68,1.05,1.18,1.77,1.5.73.32,1.55.48,2.48.48,1.12,0,2.13-.25,3.01-.76s1.58-1.26,2.08-2.26.76-2.21.76-3.64-.25-2.64-.76-3.64c-.5-1-1.2-1.76-2.08-2.26Zm.12,8.51c-.34.73-.81,1.28-1.43,1.66-.62.38-1.33.57-2.15.57s-1.52-.19-2.14-.57c-.62-.38-1.09-.93-1.43-1.66-.34-.72-.51-1.59-.51-2.6s.17-1.89.51-2.61.81-1.28,1.43-1.66c.62-.38,1.33-.57,2.14-.57s1.53.19,2.15.57c.62.38,1.09.93,1.43,1.66s.51,1.6.51,2.61-.17,1.88-.51,2.6Zm5.66-14.24h-.09v18h2.2v-18h-2.11Zm14.01,5.47c-.77-.34-1.71-.51-2.82-.51s-2.03.15-2.84.46c-.81.31-1.45.75-1.92,1.33s-.75,1.26-.83,2.04v.38h2.06c.08-.82.42-1.44,1.01-1.85s1.41-.61,2.46-.61,1.83.22,2.35.66.78,1.14.78,2.12v.46l-4.79.6c-1.39.18-2.49.58-3.29,1.22-.8.64-1.2,1.55-1.2,2.74,0,.77.2,1.45.59,2.01.39.57.94,1,1.65,1.3.71.3,1.52.45,2.44.45,1.2,0,2.17-.19,2.91-.58.74-.39,1.26-.87,1.57-1.44h.2v1.75h2.05v-8.39c0-1.04-.2-1.91-.61-2.6-.41-.69-1-1.21-1.77-1.54Zm.26,6.97c0,.9-.19,1.65-.56,2.26s-.88,1.06-1.52,1.36c-.64.3-1.36.44-2.16.44-.88,0-1.57-.18-2.08-.55-.51-.37-.77-.88-.77-1.54s.24-1.14.71-1.49c.47-.35,1.15-.58,2.03-.7l4.35-.58v.79Zm9.1-10.67h-2.2v3.5h-3.01v1.79h3.01v7.84c0,.68.13,1.26.38,1.72.25.46.62.81,1.11,1.04.49.23,1.08.35,1.78.35h2.7v-1.9h-3.57l-.2-.2v-8.85h3.81v-1.79h-3.81v-3.5Zm9.69-1.41c-.49.23-.86.58-1.11,1.04-.25.46-.38,1.04-.38,1.72v2.15h-3.11v1.79h3.11v10.95h2.2v-10.95h3.66v-1.79h-3.66v-3.28l.2-.2h3.74v-1.79h-2.86c-.7,0-1.29.12-1.78.35Zm15.4,5.39c-.98-.52-2.12-.78-3.41-.78s-2.44.26-3.41.78c-.97.52-1.73,1.28-2.27,2.28s-.81,2.2-.81,3.61.27,2.6.81,3.61c.54,1,1.29,1.76,2.27,2.28.98.52,2.11.77,3.41.77s2.43-.26,3.41-.77c.98-.52,1.74-1.28,2.27-2.28.54-1,.81-2.21.81-3.61s-.27-2.61-.81-3.61c-.54-1-1.3-1.76-2.27-2.28Zm.31,8.54c-.35.73-.85,1.28-1.49,1.66-.64.38-1.38.56-2.23.56s-1.61-.19-2.24-.56-1.13-.93-1.49-1.66c-.35-.73-.53-1.61-.53-2.64s.18-1.91.53-2.64c.35-.73.85-1.28,1.49-1.66s1.39-.56,2.24-.56,1.6.19,2.24.56,1.14.93,1.49,1.66c.35.73.53,1.61.53,2.64s-.18,1.91-.53,2.64Zm9.03-8.66c-.48.27-.85.66-1.09,1.16h-.2v-1.52h-2.12v12.74h2.2v-6.99c0-.88.11-1.6.34-2.18.22-.57.58-1.01,1.07-1.29.49-.29,1.13-.43,1.92-.43h1.72v-1.9h-1.77c-.89,0-1.58.14-2.06.41Zm22.88-.17c-.65-.32-1.41-.48-2.28-.48-.77,0-1.44.09-2,.28s-1.01.43-1.37.73c-.35.3-.64.65-.87,1.05h-.2c-.16-.4-.39-.75-.69-1.06-.3-.3-.71-.55-1.21-.73-.5-.18-1.11-.27-1.81-.27-1.04,0-1.86.16-2.46.48-.6.32-1.06.72-1.41,1.21h-.2v-1.4h-2.1v12.74h2.17v-7.58c0-.81.14-1.48.43-2.02.28-.54.68-.94,1.19-1.2.51-.26,1.1-.39,1.77-.39.89,0,1.56.21,2,.64.44.42.66,1.06.66,1.9v8.65h2.17v-7.58c0-.81.14-1.48.42-2.02s.68-.94,1.18-1.2c.5-.26,1.09-.39,1.77-.39.88,0,1.55.21,1.99.64.45.42.67,1.06.67,1.9v8.65h2.17v-8.85c0-.9-.17-1.66-.52-2.29-.35-.62-.85-1.1-1.49-1.41Zm15.69-3.69h-2.2v3.5h-3.01v1.79h3.01v7.84c0,.68.13,1.26.38,1.72.25.46.62.81,1.11,1.04.49.23,1.08.35,1.78.35h2.7v-1.9h-3.57l-.2-.2v-8.85h3.81v-1.79h-3.81v-3.5Zm15.66,3.72c-.72-.34-1.58-.51-2.58-.51-.94,0-1.77.15-2.48.44-.71.3-1.29.77-1.73,1.42h-.2v-6.84h-2.2v18h2.2v-7.11c0-.9.17-1.65.51-2.26s.81-1.06,1.4-1.36c.59-.3,1.26-.45,2.01-.45,1.02,0,1.79.24,2.33.73.53.49.8,1.24.8,2.26v8.2h2.2v-8.41c0-1.02-.2-1.87-.59-2.56s-.95-1.2-1.67-1.54Zm14.02-.02c-.77-.34-1.71-.51-2.82-.51s-2.03.15-2.84.46c-.81.31-1.45.75-1.92,1.33s-.75,1.26-.83,2.04v.38h2.06c.08-.82.42-1.44,1.01-1.85s1.41-.61,2.46-.61,1.83.22,2.35.66.78,1.14.78,2.12v.46l-4.79.6c-1.39.18-2.49.58-3.29,1.22-.8.64-1.2,1.55-1.2,2.74,0,.77.2,1.45.59,2.01.39.57.94,1,1.65,1.3.71.3,1.52.45,2.44.45,1.2,0,2.17-.19,2.91-.58.74-.39,1.26-.87,1.57-1.44h.2v1.75h2.05v-8.39c0-1.04-.21-1.91-.61-2.6-.41-.69-1-1.21-1.77-1.54Zm.26,6.97c0,.9-.19,1.65-.56,2.26s-.88,1.06-1.52,1.36c-.64.3-1.36.44-2.16.44-.88,0-1.57-.18-2.08-.55s-.77-.88-.77-1.54.24-1.14.71-1.49c.47-.35,1.15-.58,2.03-.7l4.35-.58v.79Zm9.1-10.67h-2.2v3.5h-3.01v1.79h3.01v7.84c0,.68.13,1.26.38,1.72.25.46.62.81,1.11,1.04.49.23,1.08.35,1.78.35h2.7v-1.9h-3.57l-.2-.2v-8.85h3.81v-1.79h-3.81v-3.5Zm13.06-1.76h-.09v18h2.2v-18h-2.11Zm14.36,5.71c-.88-.5-1.94-.74-3.19-.74s-2.36.26-3.29.77c-.92.51-1.64,1.27-2.14,2.27s-.75,2.21-.75,3.62.25,2.64.76,3.64c.5,1,1.22,1.76,2.15,2.27.93.51,2.03.77,3.29.77,1.18,0,2.18-.2,2.98-.61.8-.41,1.41-.91,1.83-1.51.41-.6.67-1.19.78-1.79v-.38h-1.98c-.07.42-.25.83-.54,1.21-.28.38-.69.69-1.21.94-.52.25-1.15.37-1.89.37-.82,0-1.53-.18-2.13-.53-.6-.35-1.07-.86-1.4-1.51-.33-.65-.5-1.42-.52-2.31h9.93v-1.1c0-1.25-.23-2.33-.68-3.25-.45-.92-1.12-1.62-2-2.12Zm-7.21,4.73c.06-.73.25-1.37.58-1.92.33-.56.78-1,1.36-1.31.58-.32,1.26-.48,2.06-.48s1.49.16,2.06.47.99.75,1.28,1.31c.29.56.44,1.2.45,1.94h-7.79Zm20.97-4.97c-.77-.34-1.71-.51-2.82-.51s-2.03.15-2.84.46c-.81.31-1.45.75-1.92,1.33s-.75,1.26-.83,2.04v.38h2.06c.08-.82.42-1.44,1.01-1.85s1.41-.61,2.46-.61,1.83.22,2.35.66c.52.44.78,1.14.78,2.12v.46l-4.79.6c-1.39.18-2.49.58-3.29,1.22-.8.64-1.2,1.55-1.2,2.74,0,.77.2,1.45.59,2.01.39.57.94,1,1.65,1.3.71.3,1.52.45,2.44.45,1.2,0,2.17-.19,2.91-.58.74-.39,1.26-.87,1.57-1.44h.2v1.75h2.05v-8.39c0-1.04-.2-1.91-.61-2.6-.41-.69-1-1.21-1.77-1.54Zm.26,6.97c0,.9-.19,1.65-.56,2.26s-.88,1.06-1.52,1.36c-.64.3-1.36.44-2.16.44-.88,0-1.57-.18-2.08-.55s-.77-.88-.77-1.54.24-1.14.71-1.49c.47-.35,1.15-.58,2.03-.7l4.35-.58v.79Zm10.36,3.16h-.2l-3.91-10.34h-2.25v.38l4.96,12.36h2.54l4.96-12.36v-.38h-2.19l-3.91,10.34Zm16.71-9.89c-.88-.5-1.94-.74-3.19-.74s-2.36.26-3.29.77c-.92.51-1.64,1.27-2.14,2.27s-.75,2.21-.75,3.62.25,2.64.76,3.64c.5,1,1.22,1.76,2.15,2.27.93.51,2.03.77,3.29.77,1.18,0,2.18-.2,2.98-.61.8-.41,1.41-.91,1.83-1.51.41-.6.67-1.19.78-1.79v-.38h-1.98c-.08.42-.25.83-.54,1.21-.28.38-.69.69-1.21.94-.52.25-1.15.37-1.89.37-.82,0-1.53-.18-2.13-.53-.6-.35-1.07-.86-1.4-1.51s-.5-1.42-.52-2.31h9.92v-1.1c0-1.25-.23-2.33-.68-3.25-.45-.92-1.12-1.62-2-2.12Zm-7.21,4.73c.06-.73.25-1.37.58-1.92.33-.56.78-1,1.36-1.31.58-.32,1.26-.48,2.06-.48s1.49.16,2.06.47.99.75,1.28,1.31c.29.56.44,1.2.45,1.94h-7.79Zm18.74.2l-2.19-.28c-.73-.09-1.3-.28-1.7-.56-.4-.28-.6-.7-.6-1.26,0-.59.27-1.05.81-1.36.54-.32,1.3-.48,2.29-.48,1.05,0,1.88.19,2.48.58.6.39.93,1,.97,1.84h2.01v-.38c-.07-.8-.33-1.48-.78-2.05-.45-.57-1.07-1-1.87-1.29s-1.74-.44-2.83-.44-2.01.14-2.79.43c-.77.29-1.37.7-1.78,1.25-.41.55-.62,1.19-.62,1.94,0,1.07.34,1.9,1.03,2.48.69.58,1.65.95,2.89,1.11l2.19.27c.87.11,1.52.32,1.97.64.45.32.67.77.67,1.38,0,.43-.12.8-.36,1.11-.24.31-.6.55-1.08.71-.48.17-1.07.25-1.77.25-1.11,0-2-.21-2.69-.63-.68-.42-1.05-1.05-1.11-1.88h-2.04v.38c.05.77.32,1.44.8,2.03s1.16,1.04,2.02,1.36c.86.32,1.87.48,3.02.48s2.11-.16,2.91-.49c.8-.32,1.4-.78,1.81-1.37s.61-1.28.61-2.07c0-1.11-.38-1.96-1.14-2.57-.76-.6-1.81-.99-3.15-1.16Zm23.37-4.91c-.88-.5-1.89-.76-3.01-.76-.93,0-1.75.16-2.48.48-.72.32-1.32.82-1.77,1.5h-.2v-6.95h-2.2v18h2.15v-1.75h.2c.46.7,1.05,1.21,1.79,1.54s1.57.49,2.51.49c1.12,0,2.13-.25,3.01-.76.88-.5,1.58-1.26,2.08-2.26.5-1,.76-2.21.76-3.64s-.25-2.64-.76-3.64c-.5-1-1.2-1.76-2.08-2.26Zm.12,8.51c-.34.73-.81,1.28-1.43,1.66-.62.38-1.33.57-2.15.57s-1.52-.19-2.14-.57c-.62-.38-1.09-.93-1.43-1.66-.34-.72-.51-1.59-.51-2.6s.17-1.89.51-2.61c.34-.73.81-1.28,1.43-1.66.62-.38,1.33-.57,2.14-.57s1.53.19,2.15.57c.62.38,1.09.93,1.43,1.66s.51,1.6.51,2.61-.17,1.88-.51,2.6Zm13.79-8.77c-.77-.34-1.71-.51-2.82-.51s-2.03.15-2.84.46c-.81.31-1.45.75-1.92,1.33-.47.58-.75,1.26-.83,2.04v.38h2.06c.08-.82.42-1.44,1.01-1.85s1.41-.61,2.46-.61,1.83.22,2.35.66.78,1.14.78,2.12v.46l-4.79.6c-1.39.18-2.49.58-3.29,1.22-.8.64-1.2,1.55-1.2,2.74,0,.77.2,1.45.59,2.01.39.57.94,1,1.65,1.3.71.3,1.52.45,2.44.45,1.2,0,2.17-.19,2.91-.58.74-.39,1.26-.87,1.57-1.44h.2v1.75h2.05v-8.39c0-1.04-.2-1.91-.61-2.6-.41-.69-1-1.21-1.77-1.54Zm.26,6.97c0,.9-.19,1.65-.56,2.26s-.88,1.06-1.52,1.36c-.64.3-1.36.44-2.16.44-.88,0-1.57-.18-2.08-.55-.51-.37-.77-.88-.77-1.54s.24-1.14.71-1.49c.47-.35,1.15-.58,2.03-.7l4.35-.58v.79Zm9.05-6.81c-.48.27-.85.66-1.09,1.16h-.2v-1.52h-2.12v12.74h2.2v-6.99c0-.88.11-1.6.34-2.18.23-.57.58-1.01,1.07-1.29.49-.29,1.13-.43,1.92-.43h1.72v-1.9h-1.78c-.89,0-1.58.14-2.06.41Zm9.7,0c-.48.27-.85.66-1.09,1.16h-.2v-1.52h-2.12v12.74h2.2v-6.99c0-.88.11-1.6.34-2.18.23-.57.58-1.01,1.07-1.29.49-.29,1.13-.43,1.92-.43h1.72v-1.9h-1.78c-.89,0-1.58.14-2.06.41Zm6.38-.36h-.09v12.74h2.2v-12.74h-2.11Zm-.25-2.18h2.55v-2.41h-2.55v2.41Zm14.61,2.62c-.88-.5-1.94-.74-3.19-.74s-2.36.26-3.29.77c-.92.51-1.64,1.27-2.14,2.27s-.75,2.21-.75,3.62.25,2.64.76,3.64c.5,1,1.22,1.76,2.15,2.27.93.51,2.03.77,3.29.77,1.18,0,2.18-.2,2.98-.61.8-.41,1.41-.91,1.83-1.51.41-.6.67-1.19.78-1.79v-.38h-1.98c-.08.42-.25.83-.54,1.21-.28.38-.69.69-1.21.94-.52.25-1.15.37-1.89.37-.82,0-1.53-.18-2.13-.53-.6-.35-1.07-.86-1.4-1.51s-.5-1.42-.52-2.31h9.92v-1.1c0-1.25-.23-2.33-.68-3.25-.45-.92-1.12-1.62-2-2.12Zm-7.21,4.73c.06-.73.25-1.37.58-1.92.33-.56.78-1,1.36-1.31.58-.32,1.26-.48,2.06-.48s1.49.16,2.06.47.99.75,1.28,1.31c.29.56.44,1.2.45,1.94h-7.79Zm16.16-4.81c-.48.27-.85.66-1.09,1.16h-.2v-1.52h-2.12v12.74h2.2v-6.99c0-.88.11-1.6.34-2.18.23-.57.58-1.01,1.07-1.29.49-.29,1.13-.43,1.92-.43h1.72v-1.9h-1.78c-.89,0-1.58.14-2.06.41Zm12.14,5.01l-2.19-.28c-.73-.09-1.3-.28-1.7-.56-.4-.28-.6-.7-.6-1.26,0-.59.27-1.05.81-1.36.54-.32,1.3-.48,2.29-.48,1.05,0,1.88.19,2.48.58.6.39.93,1,.97,1.84h2.01v-.38c-.07-.8-.33-1.48-.78-2.05-.45-.57-1.07-1-1.87-1.29s-1.74-.44-2.83-.44-2.01.14-2.79.43c-.77.29-1.37.7-1.78,1.25-.41.55-.62,1.19-.62,1.94,0,1.07.34,1.9,1.03,2.48.69.58,1.65.95,2.89,1.11l2.19.27c.87.11,1.52.32,1.97.64.45.32.67.77.67,1.38,0,.43-.12.8-.36,1.11-.24.31-.6.55-1.08.71-.48.17-1.07.25-1.77.25-1.11,0-2-.21-2.69-.63-.68-.42-1.05-1.05-1.11-1.88h-2.04v.38c.05.77.32,1.44.8,2.03s1.16,1.04,2.02,1.36c.86.32,1.87.48,3.02.48s2.11-.16,2.91-.49c.8-.32,1.4-.78,1.81-1.37s.61-1.28.61-2.07c0-1.11-.38-1.96-1.14-2.57-.76-.6-1.81-.99-3.15-1.16Zm23.37-4.91c-.88-.5-1.89-.76-3.01-.76-.93,0-1.75.16-2.48.48-.72.32-1.32.82-1.77,1.5h-.2v-6.95h-2.2v18h2.15v-1.75h.2c.46.7,1.05,1.21,1.79,1.54s1.57.49,2.51.49c1.12,0,2.13-.25,3.01-.76.88-.5,1.58-1.26,2.08-2.26.5-1,.76-2.21.76-3.64s-.25-2.64-.76-3.64c-.5-1-1.2-1.76-2.08-2.26Zm.12,8.51c-.34.73-.81,1.28-1.43,1.66-.62.38-1.33.57-2.15.57s-1.52-.19-2.14-.57c-.62-.38-1.09-.93-1.43-1.66-.34-.72-.51-1.59-.51-2.6s.17-1.89.51-2.61c.34-.73.81-1.28,1.43-1.66.62-.38,1.33-.57,2.14-.57s1.53.19,2.15.57c.62.38,1.09.93,1.43,1.66s.51,1.6.51,2.61-.17,1.88-.51,2.6Zm14.18-8.53c-.88-.5-1.94-.74-3.19-.74s-2.36.26-3.29.77c-.92.51-1.64,1.27-2.14,2.27s-.75,2.21-.75,3.62.25,2.64.76,3.64c.5,1,1.22,1.76,2.15,2.27.93.51,2.03.77,3.29.77,1.18,0,2.18-.2,2.98-.61.8-.41,1.41-.91,1.83-1.51.41-.6.67-1.19.78-1.79v-.38h-1.98c-.08.42-.25.83-.54,1.21-.28.38-.69.69-1.21.94-.52.25-1.15.37-1.89.37-.82,0-1.53-.18-2.13-.53-.6-.35-1.07-.86-1.4-1.51s-.5-1.42-.52-2.31h9.92v-1.1c0-1.25-.23-2.33-.68-3.25-.45-.92-1.12-1.62-2-2.12Zm-7.21,4.73c.06-.73.25-1.37.58-1.92.33-.56.78-1,1.36-1.31.58-.32,1.26-.48,2.06-.48s1.49.16,2.06.47.99.75,1.28,1.31c.29.56.44,1.2.45,1.94h-7.79Zm21.94-4.95c-.72-.34-1.58-.51-2.58-.51-.94,0-1.77.15-2.48.44-.71.3-1.29.77-1.73,1.42h-.2v-6.84h-2.2v18h2.2v-7.11c0-.9.17-1.65.51-2.26.34-.61.81-1.06,1.4-1.36.59-.3,1.26-.45,2.01-.45,1.02,0,1.79.24,2.33.73.53.49.8,1.24.8,2.26v8.2h2.2v-8.41c0-1.02-.2-1.87-.59-2.56s-.95-1.2-1.67-1.54Zm5.61-2.4h2.55v-2.41h-2.55v2.41Zm.25,2.18h-.09v12.74h2.2v-12.74h-2.11Zm14.92.22c-.72-.34-1.58-.51-2.58-.51s-1.79.15-2.51.46c-.73.31-1.31.8-1.75,1.46h-.2v-1.64h-2.14v12.74h2.2v-7.11c0-.9.17-1.65.51-2.26.34-.61.8-1.06,1.39-1.36.58-.3,1.25-.45,2-.45,1.02,0,1.79.24,2.32.73.53.49.79,1.24.79,2.26v8.2h2.2v-8.41c0-1.02-.19-1.87-.58-2.56s-.94-1.2-1.66-1.54Zm15.28-5.49v6.95h-.2c-.46-.68-1.05-1.18-1.78-1.5-.72-.32-1.55-.48-2.47-.48-1.12,0-2.13.25-3.01.76-.88.5-1.57,1.26-2.07,2.26-.5,1-.76,2.22-.76,3.65s.25,2.64.76,3.64c.5,1,1.2,1.75,2.07,2.26.88.5,1.88.76,3.01.76.95,0,1.79-.16,2.52-.49.73-.32,1.33-.84,1.79-1.55h.2v1.75h2.14v-18h-2.2Zm-.42,14.24c-.34.73-.81,1.28-1.43,1.66-.62.38-1.33.57-2.15.57s-1.52-.19-2.14-.57c-.62-.38-1.09-.93-1.43-1.66-.34-.72-.51-1.59-.51-2.6s.17-1.89.51-2.61c.34-.73.81-1.28,1.43-1.66.62-.38,1.33-.57,2.14-.57s1.53.19,2.15.57c.62.38,1.09.93,1.43,1.66.34.73.51,1.6.51,2.61s-.17,1.88-.51,2.6Z"></path>
  <path class="cls-1" d="m12.79,78.43s.37-91.88,117-53.43c108.12,35.65,99,45,225,18s99,126-90,90c-189-36-63,90-63,90,0,0-198.42-26.59-189-144.57Z"></path>
  <path d="m244.09,87.35c-2.96-1.27-6.53-1.91-10.73-1.91s-7.68.58-10.71,1.73c-3.03,1.16-5.42,2.8-7.16,4.93-1.74,2.13-2.77,4.65-3.1,7.56v1.35h9.95c.24-2.52,1.28-4.41,3.13-5.67,1.84-1.26,4.42-1.89,7.72-1.89s5.81.68,7.43,2.03c1.62,1.35,2.43,3.53,2.43,6.52v1.12l-16.56,2.07c-5.04.63-9.04,2.13-12.01,4.5-2.97,2.37-4.46,5.76-4.46,10.17,0,2.54.56,4.78,1.67,6.72,8.58.19,18.45,1.01,29.76,2.56.49-.54.91-1.11,1.24-1.72h.72v1.99c3.17.45,6.46.96,9.85,1.53v-27.77c0-3.99-.79-7.3-2.36-9.94-1.57-2.64-3.84-4.6-6.79-5.87Zm-1.06,25.81c0,2.76-.58,5.09-1.75,6.98-1.17,1.89-2.78,3.3-4.81,4.23-2.04.93-4.37,1.4-6.98,1.4-2.76,0-4.93-.58-6.5-1.73-1.58-1.15-2.36-2.74-2.36-4.75s.7-3.4,2.11-4.46c1.41-1.05,3.42-1.75,6.03-2.11l14.26-1.89v2.34Zm34.15-38.92h-10.66v12.29h-10.35v8.23h10.35v26.19c0,2.61.51,4.81,1.53,6.62,1.02,1.8,2.49,3.16,4.41,4.07,1.92.92,4.21,1.37,6.88,1.37h10.75v-8.82h-12.19l-.72-.72v-28.71h13.14v-8.23h-13.14v-12.29Zm-81.16,13.9c-3.32-1.8-7.28-2.7-11.9-2.7s-8.85.92-12.33,2.77c-3.48,1.84-6.17,4.58-8.08,8.21-1.91,3.63-2.86,8.07-2.86,13.32s.95,9.7,2.86,13.34c1.9,3.65,4.61,6.39,8.12,8.23.75.4,1.54.74,2.35,1.05,6.43-3.18,15.47-5.23,27.76-5.72.08-.1.16-.2.24-.31,1.57-2.19,2.6-4.44,3.08-6.75v-1.35h-9.36c-.27,1.29-.86,2.51-1.78,3.67-.92,1.15-2.21,2.11-3.89,2.86-1.68.75-3.73,1.12-6.17,1.12-2.61,0-4.89-.55-6.84-1.67-1.95-1.11-3.45-2.66-4.5-4.66-1.05-1.99-1.6-4.3-1.67-6.91h35.15v-4.77c0-4.65-.87-8.65-2.61-12.02-1.74-3.36-4.27-5.94-7.58-7.74Zm-24.82,16.61c.21-2.13.83-4.03,1.87-5.72,1.04-1.68,2.48-3.02,4.34-4,1.86-.99,4.05-1.48,6.57-1.48s4.82.48,6.64,1.44c1.81.96,3.19,2.29,4.12,3.98.93,1.7,1.41,3.62,1.44,5.78h-24.97Zm-24.91-16.99c-1.73.94-3.04,2.32-3.94,4.12h-.72v-5.35h-10.21v46.48h10.67v-24.84c0-2.97.4-5.41,1.19-7.31.79-1.9,2.03-3.32,3.71-4.25,1.68-.93,3.84-1.4,6.48-1.4h6.44v-8.87h-6.48c-3.03,0-5.41.47-7.13,1.42Zm-33.95,29.32c-1.32,2.22-3.35,4.08-6.1,5.58-2.75,1.5-6.25,2.25-10.51,2.25-4.56,0-8.46-.94-11.7-2.83-3.24-1.89-5.7-4.66-7.38-8.3s-2.52-8.03-2.52-13.16.84-9.52,2.52-13.16,4.14-6.41,7.38-8.3c3.24-1.89,7.14-2.83,11.7-2.83,4.23,0,7.72.73,10.46,2.18,2.75,1.46,4.76,3.27,6.05,5.45,1.29,2.18,2.04,4.4,2.25,6.68h10.31v-1.35c-.18-3.57-1.36-7.06-3.53-10.48-2.18-3.42-5.43-6.25-9.77-8.48-4.34-2.23-9.65-3.35-15.95-3.35-6.78,0-12.62,1.32-17.53,3.96-4.9,2.64-8.66,6.48-11.25,11.52-2.6,5.04-3.89,11.1-3.89,18.18s1.3,13.14,3.89,18.18c2.59,5.04,6.35,8.88,11.25,11.52,4.91,2.64,10.75,3.96,17.53,3.96,6.33,0,11.65-1.13,15.97-3.4,4.32-2.26,7.58-5.12,9.77-8.57,2.19-3.45,3.44-7.05,3.73-10.8v-1.35h-10.3c-.27,2.4-1.07,4.71-2.39,6.93Zm226.04-9.18c0-4.65-.87-8.65-2.61-12.02-1.74-3.36-4.27-5.94-7.58-7.74-3.32-1.8-7.28-2.7-11.9-2.7s-8.85.92-12.33,2.77c-3.48,1.84-6.17,4.58-8.08,8.21-1.91,3.63-2.86,8.07-2.86,13.32s.95,9.7,2.86,13.34c1.9,3.65,4.61,6.39,8.12,8.23,3.51,1.85,7.63,2.77,12.38,2.77,4.41,0,8.11-.74,11.11-2.23,3-1.48,5.29-3.32,6.86-5.51,1.57-2.19,2.6-4.44,3.08-6.75v-1.35h-9.36c-.27,1.29-.86,2.51-1.78,3.67-.92,1.15-2.21,2.11-3.89,2.86-1.68.75-3.73,1.12-6.17,1.12-2.61,0-4.89-.55-6.84-1.67-1.95-1.11-3.45-2.66-4.5-4.66-1.05-1.99-1.6-4.3-1.67-6.91h35.15v-4.77Zm-35.01-3.15c.21-2.13.83-4.03,1.87-5.72,1.04-1.68,2.48-3.02,4.34-4,1.86-.99,4.05-1.48,6.57-1.48s4.82.48,6.64,1.44c1.81.96,3.19,2.29,4.12,3.98.93,1.7,1.41,3.62,1.44,5.78h-24.97Z"></path>
</svg>
