<?xml version="1.0" encoding="UTF-8"?>
<svg xmlns="http://www.w3.org/2000/svg" id="Layer_1" data-name="Layer 1" viewBox="0 0 576 423">
  <defs>
    <style>
      .cls-1 {
        fill: #00ec97;
      }

      .cls-2 {
        fill: #fff;
      }
    </style>
  </defs>
  <rect class="cls-2" x="216" y="288" width="306" height="90"></rect>
  <polygon class="cls-2" points="549 306 219.79 306 111.54 128.16 549 128.16 549 306"></polygon>
  <g>
    <path d="m226.7,155.95l8.05,34.56h.77l10.17-34.56h10.85l10.21,34.56h.72l8.05-34.56h9.81v1.35l-11.83,45.13h-12.1l-10.08-34.07h-.72l-10.04,34.07h-12.15l-11.79-45.13v-1.35h10.08Z"></path>
    <path d="m301.26,139.21v9.81h-11.47v-9.81h11.47Zm-.45,16.74v46.49h-10.67v-46.49h10.67Zm-.31,0v8.15h-10.04v-8.15h10.04Zm0,38.25v8.24h-10.04v-8.24h10.04Z"></path>
    <path d="m315.98,155.95v-12.29h10.66v12.29h13.14v8.24h-13.14v28.71l.72.72h12.19v8.82h-10.75c-2.67,0-4.97-.46-6.88-1.37-1.92-.91-3.39-2.27-4.41-4.07-1.02-1.8-1.53-4-1.53-6.62v-26.19h-10.35v-8.24h10.35Z"></path>
    <path d="m356.52,137.63v23.17h.72c1.56-2.04,3.56-3.53,5.99-4.46,2.43-.93,5.23-1.4,8.42-1.4,3.72,0,6.91.64,9.56,1.91,2.65,1.28,4.7,3.19,6.14,5.74,1.44,2.55,2.16,5.7,2.16,9.45v30.38h-10.67v-29.48c0-3.15-.85-5.51-2.54-7.09-1.7-1.58-4.15-2.36-7.36-2.36-2.37,0-4.49.46-6.37,1.39-1.88.93-3.35,2.36-4.43,4.28-1.08,1.92-1.62,4.33-1.62,7.25v26.01h-10.67v-64.8h10.67Z"></path>
    <path d="m398.71,165.96c2.05-3.65,4.93-6.41,8.62-8.28,3.69-1.87,7.96-2.81,12.83-2.81s9.09.94,12.78,2.81c3.69,1.88,6.56,4.63,8.62,8.28,2.05,3.64,3.08,8.06,3.08,13.25s-1.03,9.57-3.08,13.23c-2.06,3.66-4.93,6.42-8.62,8.28-3.69,1.86-7.95,2.79-12.78,2.79s-9.13-.93-12.83-2.79c-3.69-1.86-6.56-4.62-8.62-8.28-2.06-3.66-3.08-8.07-3.08-13.23s1.03-9.61,3.08-13.25Zm9.4,21.92c1.12,2.38,2.71,4.2,4.77,5.45,2.05,1.25,4.48,1.87,7.27,1.87s5.16-.62,7.2-1.87c2.04-1.25,3.63-3.06,4.77-5.45,1.14-2.38,1.71-5.27,1.71-8.66s-.56-6.32-1.69-8.71-2.72-4.19-4.77-5.42c-2.06-1.23-4.46-1.84-7.22-1.84s-5.21.62-7.27,1.84c-2.06,1.23-3.65,3.04-4.77,5.42s-1.69,5.29-1.69,8.71.56,6.28,1.69,8.66Z"></path>
    <path d="m483.65,202.43v-5.13h-.72c-1.53,2.1-3.53,3.64-6.01,4.63-2.47.99-5.33,1.49-8.57,1.49-3.69,0-6.85-.64-9.47-1.91s-4.64-3.18-6.05-5.71-2.11-5.69-2.11-9.47v-30.38h10.66v29.43c0,3.21.82,5.6,2.45,7.16,1.63,1.56,4.06,2.34,7.27,2.34,2.34,0,4.43-.46,6.28-1.39s3.3-2.36,4.37-4.3c1.06-1.93,1.6-4.36,1.6-7.27v-25.96h10.62v46.49h-10.3Z"></path>
    <path d="m509.12,155.95v-12.29h10.67v12.29h13.14v8.24h-13.14v28.71l.72.72h12.2v8.82h-10.75c-2.67,0-4.97-.46-6.88-1.37-1.92-.91-3.39-2.27-4.41-4.07-1.02-1.8-1.53-4-1.53-6.62v-26.19h-10.35v-8.24h10.35Z"></path>
    <path d="m231.56,222.63v64.8h-10.67v-64.8h10.67Zm-.31,0v8.14h-10.04v-8.14h10.04Zm0,56.56v8.24h-10.04v-8.24h10.04Z"></path>
    <path d="m251.76,224.21v9.81h-11.47v-9.81h11.47Zm-.45,16.74v46.49h-10.67v-46.49h10.67Zm-.31,0v8.15h-10.04v-8.15h10.04Zm0,38.25v8.24h-10.04v-8.24h10.04Z"></path>
    <path d="m270.48,240.95v4.73h.72c1.17-1.65,2.83-3.02,4.97-4.1,2.14-1.08,5.03-1.62,8.66-1.62,2.52,0,4.67.33,6.46.99,1.78.66,3.21,1.5,4.27,2.52,1.06,1.02,1.88,2.17,2.45,3.46h.72c.9-1.38,1.96-2.57,3.2-3.58,1.23-1,2.83-1.82,4.81-2.45s4.39-.95,7.25-.95c3.27,0,6.1.61,8.48,1.82,2.38,1.21,4.21,2.99,5.49,5.33,1.27,2.34,1.91,5.15,1.91,8.42v31.91h-10.48v-30.92c0-2.64-.71-4.64-2.12-6.01-1.41-1.36-3.5-2.05-6.25-2.05-2.1,0-3.95.4-5.54,1.19-1.59.79-2.83,2.03-3.73,3.71-.9,1.68-1.35,3.81-1.35,6.39v27.67h-10.48v-30.92c0-2.64-.71-4.64-2.12-6.01-1.41-1.36-3.51-2.05-6.3-2.05-2.1,0-3.95.4-5.54,1.19-1.59.79-2.83,2.03-3.73,3.71-.9,1.68-1.35,3.81-1.35,6.39v27.67h-10.48v-46.49h10.08Z"></path>
    <path d="m349.68,224.21v9.81h-11.47v-9.81h11.47Zm-.45,16.74v46.49h-10.67v-46.49h10.67Zm-.31,0v8.15h-10.04v-8.15h10.04Zm0,38.25v8.24h-10.04v-8.24h10.04Z"></path>
    <path d="m364.4,240.95v-12.29h10.66v12.29h13.14v8.24h-13.14v28.71l.72.72h12.19v8.82h-10.75c-2.67,0-4.97-.46-6.88-1.37-1.92-.92-3.39-2.27-4.41-4.07-1.02-1.8-1.53-4-1.53-6.61v-26.19h-10.35v-8.24h10.35Z"></path>
    <path d="m394.48,246.26c1.54-2.04,3.79-3.61,6.75-4.7,2.95-1.09,6.52-1.64,10.69-1.64s7.81.56,10.82,1.67c3.01,1.11,5.36,2.71,7.04,4.79,1.68,2.08,2.66,4.6,2.93,7.54v1.35h-9.68c-.15-2.64-1.18-4.52-3.1-5.65s-4.58-1.69-7.96-1.69c-3.18,0-5.6.45-7.25,1.35-1.65.9-2.48,2.24-2.48,4,0,1.65.59,2.88,1.78,3.69,1.18.81,2.87,1.37,5.06,1.67l8.73,1.17c4.89.66,8.71,2.12,11.48,4.39,2.76,2.27,4.14,5.44,4.14,9.52,0,2.94-.76,5.51-2.27,7.72-1.52,2.21-3.79,3.93-6.82,5.18-3.03,1.24-6.74,1.87-11.12,1.87s-8.24-.62-11.5-1.84c-3.26-1.23-5.78-2.93-7.56-5.11-1.79-2.17-2.77-4.64-2.95-7.4v-1.35h9.9c.18,2.58,1.37,4.51,3.56,5.78,2.19,1.28,5.04,1.91,8.55,1.91,2.19,0,4.03-.24,5.54-.72,1.5-.48,2.62-1.18,3.38-2.11.75-.93,1.12-2.04,1.12-3.33,0-1.8-.65-3.16-1.96-4.07-1.3-.91-3.26-1.55-5.87-1.91l-8.73-1.17c-4.59-.63-8.16-2.05-10.71-4.25-2.55-2.21-3.82-5.33-3.82-9.38,0-2.79.77-5.2,2.32-7.24Z"></path>
  </g>
  <g>
    <path d="m217.86,332.03c.54-1,1.29-1.76,2.27-2.28s2.11-.78,3.41-.78,2.43.26,3.41.78c.98.52,1.74,1.28,2.27,2.28s.81,2.2.81,3.61-.27,2.6-.81,3.61-1.3,1.76-2.27,2.28c-.98.52-2.11.77-3.41.77s-2.44-.26-3.41-.77-1.73-1.28-2.27-2.28c-.54-1-.81-2.21-.81-3.61s.27-2.61.81-3.61Zm1.95,6.26c.35.73.85,1.28,1.49,1.66.64.38,1.39.56,2.24.56s1.59-.19,2.23-.56c.64-.38,1.13-.93,1.49-1.66.35-.73.53-1.61.53-2.64s-.18-1.91-.52-2.64c-.35-.73-.85-1.28-1.49-1.66s-1.39-.56-2.24-.56-1.61.19-2.24.56c-.64.38-1.13.93-1.49,1.66s-.53,1.61-.53,2.64.18,1.92.53,2.64Z"></path>
    <path d="m235.01,329.26v1.64h.2c.44-.67,1.02-1.15,1.75-1.46.73-.31,1.56-.46,2.51-.46,1,0,1.86.17,2.57.51.72.34,1.27.86,1.66,1.54.39.69.58,1.54.58,2.56v8.41h-2.2v-8.2c0-1.02-.26-1.77-.79-2.26-.53-.49-1.3-.73-2.32-.73-.75,0-1.42.15-2,.45-.58.3-1.05.75-1.39,1.36s-.51,1.36-.51,2.26v7.11h-2.2v-12.74h2.14Z"></path>
    <path d="m255.13,330.76c.47-.58,1.11-1.02,1.92-1.33.81-.31,1.75-.46,2.84-.46s2.05.17,2.82.51c.77.34,1.36.85,1.77,1.54s.61,1.56.61,2.6v8.39h-2.05v-1.75h-.2c-.31.58-.83,1.06-1.57,1.44-.74.39-1.71.58-2.91.58-.92,0-1.73-.15-2.44-.45-.71-.3-1.26-.73-1.65-1.3-.39-.57-.59-1.24-.59-2.01,0-1.19.4-2.11,1.2-2.74.8-.64,1.9-1.04,3.29-1.22l4.79-.6v-.46c0-.97-.26-1.68-.78-2.12s-1.3-.66-2.35-.66-1.87.2-2.46.61-.93,1.03-1.01,1.85h-2.06v-.38c.08-.78.36-1.46.83-2.04Zm1.51,9.19c.51.37,1.21.55,2.08.55.8,0,1.52-.15,2.16-.44.64-.3,1.14-.75,1.52-1.36s.56-1.36.56-2.26v-.79l-4.35.58c-.88.12-1.56.35-2.03.7-.47.35-.71.85-.71,1.49s.26,1.17.77,1.54Z"></path>
    <path d="m276.34,324l3.62,15.49h.2l4.16-15.49h2.73l4.15,15.49h.2l3.62-15.49h2.19v.38l-4.29,17.62h-3.1l-4.08-15.14h-.2l-4.08,15.14h-3.1l-4.29-17.62v-.38h2.25Z"></path>
    <path d="m298.66,332c.5-1,1.21-1.76,2.14-2.27s2.02-.77,3.29-.77,2.31.25,3.19.74c.88.5,1.55,1.2,2,2.12.45.92.68,2,.68,3.25v1.1h-9.93c.02.88.19,1.65.52,2.31.33.65.8,1.16,1.4,1.51.6.35,1.31.53,2.13.53.74,0,1.37-.12,1.89-.37.52-.25.92-.56,1.21-.94.28-.38.46-.78.54-1.21h1.98v.38c-.11.6-.37,1.2-.78,1.79s-1.02,1.1-1.82,1.51c-.8.41-1.8.61-2.98.61-1.27,0-2.36-.26-3.29-.77s-1.65-1.27-2.15-2.27-.76-2.21-.76-3.64.25-2.62.75-3.62Zm8.75.5c-.29-.56-.72-.99-1.28-1.31s-1.25-.47-2.06-.47-1.48.16-2.06.47-1.03.75-1.36,1.31c-.33.56-.52,1.2-.58,1.92h7.79c0-.73-.16-1.38-.45-1.94Z"></path>
    <path d="m315.02,324v6.95h.2c.46-.68,1.05-1.18,1.77-1.5.73-.32,1.55-.47,2.48-.47,1.12,0,2.13.25,3.01.76s1.58,1.26,2.08,2.26.76,2.22.76,3.64-.25,2.64-.76,3.64-1.2,1.75-2.08,2.26-1.89.76-3.01.76c-.94,0-1.78-.17-2.51-.49-.73-.33-1.33-.84-1.79-1.54h-.2v1.75h-2.15v-18h2.2Zm.43,14.24c.34.73.81,1.28,1.43,1.66.62.38,1.33.57,2.14.57s1.53-.19,2.15-.57c.62-.38,1.09-.93,1.43-1.66.34-.72.51-1.59.51-2.6s-.17-1.89-.51-2.61c-.34-.73-.81-1.28-1.43-1.66s-1.33-.57-2.15-.57-1.52.19-2.14.57-1.09.93-1.43,1.66c-.34.72-.51,1.6-.51,2.61s.17,1.88.51,2.6Z"></path>
    <path d="m340.49,324v1.65l-6.34,5.49h.41c1.17,0,2.21.2,3.1.6.89.4,1.58,1,2.08,1.79s.74,1.76.74,2.91c0,1.2-.26,2.24-.77,3.12s-1.25,1.56-2.22,2.03c-.97.47-2.12.71-3.46.71s-2.49-.23-3.49-.69c-1-.46-1.77-1.09-2.32-1.9-.55-.81-.83-1.73-.84-2.76v-.38h2.1c.02.75.21,1.42.59,1.99s.9,1.03,1.57,1.35c.68.32,1.46.48,2.36.48s1.68-.16,2.32-.49c.64-.33,1.13-.78,1.46-1.38.33-.59.5-1.28.51-2.08,0-1.18-.39-2.09-1.17-2.73-.78-.63-1.9-.95-3.34-.95h-2.32v-1.64l6.01-5.25h-9.45v-1.9h12.46Z"></path>
    <path d="m350.22,329.26h2.15v1.76h.2c.46-.71,1.05-1.23,1.79-1.56.73-.33,1.57-.49,2.51-.49,1.12,0,2.13.25,3.01.76s1.58,1.26,2.08,2.26.76,2.22.76,3.64-.25,2.64-.76,3.64-1.2,1.75-2.08,2.26-1.89.76-3.01.76c-.92,0-1.75-.16-2.48-.48-.72-.32-1.32-.82-1.77-1.5h-.2v6.69h-2.2v-17.74Zm2.63,8.97c.34.73.81,1.28,1.43,1.66.62.38,1.33.57,2.14.57s1.53-.19,2.15-.57c.62-.38,1.09-.93,1.43-1.66.34-.72.51-1.59.51-2.6s-.17-1.89-.51-2.61c-.34-.73-.81-1.28-1.43-1.66s-1.33-.57-2.15-.57-1.52.19-2.14.57-1.09.93-1.43,1.66c-.34.72-.51,1.6-.51,2.61s.17,1.88.51,2.6Z"></path>
    <path d="m367.77,324v18h-2.2v-18h2.2Zm-.08,0v1.76h-2.04v-1.76h2.04Zm0,16.23v1.77h-2.04v-1.77h2.04Z"></path>
    <path d="m372.09,330.76c.47-.58,1.11-1.02,1.92-1.33.81-.31,1.75-.46,2.84-.46s2.05.17,2.82.51c.77.34,1.36.85,1.77,1.54s.61,1.56.61,2.6v8.39h-2.05v-1.75h-.2c-.31.58-.83,1.06-1.57,1.44-.74.39-1.71.58-2.91.58-.92,0-1.73-.15-2.44-.45-.71-.3-1.26-.73-1.65-1.3-.39-.57-.59-1.24-.59-2.01,0-1.19.4-2.11,1.2-2.74.8-.64,1.9-1.04,3.29-1.22l4.79-.6v-.46c0-.97-.26-1.68-.78-2.12s-1.3-.66-2.35-.66-1.87.2-2.46.61-.93,1.03-1.01,1.85h-2.06v-.38c.08-.78.36-1.46.83-2.04Zm1.51,9.19c.51.37,1.21.55,2.08.55.8,0,1.52-.15,2.16-.44.64-.3,1.14-.75,1.52-1.36s.56-1.36.56-2.26v-.79l-4.35.58c-.88.12-1.56.35-2.03.7-.47.35-.71.85-.71,1.49s.26,1.17.77,1.54Z"></path>
    <path d="m386.82,329.26v-3.5h2.2v3.5h3.81v1.79h-3.81v8.85l.2.2h3.57v1.9h-2.7c-.7,0-1.29-.12-1.78-.35-.49-.23-.86-.58-1.11-1.04-.25-.46-.38-1.04-.38-1.72v-7.84h-3.01v-1.79h3.01Z"></path>
    <path d="m394.11,329.26h3.11v-2.15c0-.68.13-1.26.38-1.72.25-.46.62-.81,1.11-1.04.49-.23,1.08-.35,1.78-.35h2.86v1.79h-3.74l-.2.2v3.28h3.66v1.79h-3.66v10.95h-2.2v-10.95h-3.11v-1.79Z"></path>
    <path d="m405.03,332.03c.54-1,1.29-1.76,2.27-2.28.97-.52,2.11-.78,3.41-.78s2.43.26,3.41.78,1.74,1.28,2.28,2.28c.54,1,.81,2.2.81,3.61s-.27,2.6-.81,3.61c-.54,1-1.3,1.76-2.28,2.28s-2.11.77-3.41.77-2.44-.26-3.41-.77c-.98-.52-1.73-1.28-2.27-2.28-.54-1-.81-2.21-.81-3.61s.27-2.61.81-3.61Zm1.95,6.26c.35.73.85,1.28,1.49,1.66.64.38,1.38.56,2.24.56s1.59-.19,2.23-.56,1.13-.93,1.49-1.66c.35-.73.53-1.61.53-2.64s-.17-1.91-.52-2.64c-.35-.73-.85-1.28-1.49-1.66s-1.39-.56-2.24-.56-1.61.19-2.24.56c-.64.38-1.13.93-1.49,1.66-.35.73-.53,1.61-.53,2.64s.18,1.92.53,2.64Z"></path>
    <path d="m422.17,329.26v1.53h.2c.24-.5.6-.89,1.09-1.16.48-.27,1.17-.41,2.06-.41h1.78v1.9h-1.73c-.79,0-1.43.14-1.92.43-.49.29-.84.72-1.07,1.29-.22.58-.34,1.3-.34,2.17v6.99h-2.2v-12.74h2.12Z"></path>
    <path d="m431.85,329.26v1.4h.2c.34-.48.81-.89,1.41-1.21.6-.32,1.42-.48,2.46-.48.7,0,1.3.09,1.81.27.5.18.91.43,1.21.73.3.3.54.66.69,1.06h.2c.22-.4.51-.75.87-1.05.35-.3.81-.54,1.37-.73s1.23-.28,2-.28c.88,0,1.64.16,2.28.47s1.14.79,1.49,1.41c.35.62.52,1.39.52,2.29v8.85h-2.17v-8.65c0-.84-.22-1.48-.67-1.9-.45-.42-1.11-.64-1.99-.64-.67,0-1.26.13-1.77.39-.5.26-.9.66-1.18,1.2-.28.54-.42,1.21-.42,2.02v7.58h-2.17v-8.65c0-.84-.22-1.48-.66-1.9s-1.11-.64-2-.64c-.67,0-1.27.13-1.77.39-.51.26-.9.66-1.19,1.2-.28.54-.43,1.21-.43,2.02v7.58h-2.17v-12.74h2.1Z"></path>
    <path d="m459.84,329.26v-3.5h2.2v3.5h3.81v1.79h-3.81v8.85l.2.2h3.57v1.9h-2.7c-.7,0-1.29-.12-1.78-.35-.49-.23-.86-.58-1.11-1.04-.25-.46-.38-1.04-.38-1.72v-7.84h-3.01v-1.79h3.01Z"></path>
    <path d="m470.7,324v6.84h.2c.44-.65,1.02-1.12,1.73-1.42.71-.3,1.54-.44,2.48-.44,1,0,1.86.17,2.58.51.72.34,1.28.86,1.67,1.54s.59,1.54.59,2.56v8.41h-2.2v-8.2c0-1.02-.27-1.77-.8-2.26s-1.31-.73-2.33-.73c-.75,0-1.42.15-2.01.45s-1.06.75-1.4,1.36-.51,1.36-.51,2.26v7.11h-2.2v-18h2.2Z"></path>
    <path d="m484.14,330.76c.47-.58,1.11-1.02,1.92-1.33.81-.31,1.75-.46,2.84-.46s2.05.17,2.82.51c.77.34,1.36.85,1.77,1.54s.61,1.56.61,2.6v8.39h-2.05v-1.75h-.2c-.31.58-.83,1.06-1.57,1.44-.74.39-1.71.58-2.91.58-.92,0-1.73-.15-2.44-.45s-1.26-.73-1.65-1.3c-.39-.57-.59-1.24-.59-2.01,0-1.19.4-2.11,1.2-2.74.8-.64,1.9-1.04,3.29-1.22l4.79-.6v-.46c0-.97-.26-1.68-.78-2.12s-1.3-.66-2.35-.66-1.87.2-2.46.61-.93,1.03-1.01,1.85h-2.06v-.38c.08-.78.36-1.46.83-2.04Zm1.51,9.19c.51.37,1.21.55,2.08.55.8,0,1.52-.15,2.16-.44.64-.3,1.14-.75,1.52-1.36s.56-1.36.56-2.26v-.79l-4.35.58c-.88.12-1.56.35-2.03.7-.47.35-.71.85-.71,1.49s.26,1.17.77,1.54Z"></path>
    <path d="m498.87,329.26v-3.5h2.2v3.5h3.81v1.79h-3.81v8.85l.2.2h3.57v1.9h-2.7c-.7,0-1.29-.12-1.78-.35-.49-.23-.86-.58-1.11-1.04-.25-.46-.38-1.04-.38-1.72v-7.84h-3.01v-1.79h3.01Z"></path>
    <path d="m220.01,354v18h-2.2v-18h2.2Zm-.08,0v1.76h-2.04v-1.76h2.04Zm0,16.23v1.77h-2.04v-1.77h2.04Z"></path>
    <path d="m223.64,362c.5-1,1.21-1.76,2.14-2.27s2.02-.77,3.29-.77,2.31.25,3.19.74c.88.5,1.55,1.2,2,2.12.45.92.68,2,.68,3.25v1.1h-9.93c.02.88.19,1.65.52,2.31.33.65.8,1.16,1.4,1.51.6.35,1.31.53,2.13.53.74,0,1.37-.12,1.89-.37.52-.25.92-.56,1.21-.94.28-.38.46-.78.54-1.21h1.98v.38c-.11.6-.37,1.2-.78,1.79s-1.02,1.1-1.82,1.51c-.8.41-1.8.61-2.98.61-1.27,0-2.36-.26-3.29-.77s-1.65-1.27-2.15-2.27-.76-2.21-.76-3.64.25-2.62.75-3.62Zm8.75.5c-.29-.56-.72-.99-1.28-1.31s-1.25-.47-2.06-.47-1.48.16-2.06.47-1.03.75-1.36,1.31c-.33.56-.52,1.2-.58,1.92h7.79c0-.73-.16-1.38-.45-1.94Z"></path>
    <path d="m238.44,360.76c.47-.58,1.11-1.02,1.92-1.33.81-.31,1.75-.46,2.84-.46s2.05.17,2.82.51c.77.34,1.36.85,1.77,1.54s.61,1.56.61,2.6v8.39h-2.05v-1.75h-.2c-.31.58-.83,1.06-1.57,1.44-.74.39-1.71.58-2.91.58-.92,0-1.73-.15-2.44-.45-.71-.3-1.26-.73-1.65-1.3-.39-.57-.59-1.24-.59-2.01,0-1.19.4-2.11,1.2-2.74.8-.64,1.9-1.04,3.29-1.22l4.79-.6v-.46c0-.97-.26-1.68-.78-2.12s-1.3-.66-2.35-.66-1.87.2-2.46.61-.93,1.03-1.01,1.85h-2.06v-.38c.08-.78.36-1.46.83-2.04Zm1.51,9.19c.51.37,1.21.55,2.08.55.8,0,1.52-.15,2.16-.44.64-.3,1.14-.75,1.52-1.36s.56-1.36.56-2.26v-.79l-4.35.58c-.88.12-1.56.35-2.03.7-.47.35-.71.85-.71,1.49s.26,1.17.77,1.54Z"></path>
    <path d="m252.52,359.26l3.91,10.34h.2l3.91-10.34h2.19v.38l-4.96,12.36h-2.54l-4.96-12.36v-.38h2.25Z"></path>
    <path d="m264.73,362c.5-1,1.21-1.76,2.14-2.27s2.02-.77,3.29-.77,2.31.25,3.19.74c.88.5,1.55,1.2,2,2.12.45.92.68,2,.68,3.25v1.1h-9.93c.02.88.19,1.65.52,2.31.33.65.8,1.16,1.4,1.51.6.35,1.31.53,2.13.53.74,0,1.37-.12,1.89-.37.52-.25.92-.56,1.21-.94.28-.38.46-.78.54-1.21h1.98v.38c-.11.6-.37,1.2-.78,1.79s-1.02,1.1-1.82,1.51c-.8.41-1.8.61-2.98.61-1.27,0-2.36-.26-3.29-.77s-1.65-1.27-2.15-2.27-.76-2.21-.76-3.64.25-2.62.75-3.62Zm8.75.5c-.29-.56-.72-.99-1.28-1.31s-1.25-.47-2.06-.47-1.48.16-2.06.47-1.03.75-1.36,1.31c-.33.56-.52,1.2-.58,1.92h7.79c0-.73-.16-1.38-.45-1.94Z"></path>
    <path d="m278.91,360.66c.41-.55,1.01-.96,1.78-1.25.78-.29,1.7-.43,2.79-.43s2.04.15,2.83.44c.8.3,1.42.73,1.87,1.29.45.57.71,1.25.77,2.05v.38h-2.01c-.04-.84-.36-1.46-.97-1.84-.6-.39-1.43-.58-2.48-.58-.99,0-1.76.16-2.29.47-.54.32-.81.77-.81,1.36,0,.56.2.98.6,1.26s.97.46,1.7.56l2.19.28c1.34.17,2.39.55,3.15,1.16.76.6,1.14,1.46,1.14,2.57,0,.79-.2,1.48-.61,2.07-.4.59-1.01,1.04-1.81,1.37-.8.33-1.77.49-2.91.49s-2.16-.16-3.02-.48c-.86-.32-1.54-.78-2.02-1.36-.48-.59-.75-1.26-.8-2.03v-.38h2.04c.06.83.43,1.46,1.11,1.88.68.42,1.58.63,2.69.63.7,0,1.29-.08,1.77-.25.48-.17.84-.4,1.08-.71.24-.31.36-.68.36-1.11,0-.6-.22-1.06-.67-1.38-.45-.32-1.1-.53-1.97-.64l-2.19-.28c-1.24-.16-2.21-.53-2.89-1.11-.69-.58-1.03-1.41-1.03-2.48,0-.75.21-1.4.62-1.94Z"></path>
    <path d="m300.79,354v6.95h.2c.46-.68,1.05-1.18,1.77-1.5.73-.32,1.55-.47,2.48-.47,1.12,0,2.13.25,3.01.76s1.58,1.26,2.08,2.26.76,2.22.76,3.64-.25,2.64-.76,3.64-1.2,1.75-2.08,2.26-1.89.76-3.01.76c-.94,0-1.78-.17-2.51-.49-.73-.33-1.33-.84-1.79-1.54h-.2v1.75h-2.15v-18h2.2Zm.43,14.24c.34.73.81,1.28,1.43,1.66.62.38,1.33.57,2.14.57s1.53-.19,2.15-.57c.62-.38,1.09-.93,1.43-1.66.34-.72.51-1.59.51-2.6s-.17-1.89-.51-2.61c-.34-.73-.81-1.28-1.43-1.66s-1.33-.57-2.15-.57-1.52.19-2.14.57-1.09.93-1.43,1.66c-.34.72-.51,1.6-.51,2.61s.17,1.88.51,2.6Z"></path>
    <path d="m314.58,360.76c.47-.58,1.11-1.02,1.92-1.33.81-.31,1.75-.46,2.84-.46s2.05.17,2.82.51c.77.34,1.36.85,1.77,1.54s.61,1.56.61,2.6v8.39h-2.05v-1.75h-.2c-.31.58-.83,1.06-1.57,1.44-.74.39-1.71.58-2.91.58-.92,0-1.73-.15-2.44-.45-.71-.3-1.26-.73-1.65-1.3-.39-.57-.59-1.24-.59-2.01,0-1.19.4-2.11,1.2-2.74.8-.64,1.9-1.04,3.29-1.22l4.79-.6v-.46c0-.97-.26-1.68-.78-2.12s-1.3-.66-2.35-.66-1.87.2-2.46.61-.93,1.03-1.01,1.85h-2.06v-.38c.08-.78.36-1.46.83-2.04Zm1.51,9.19c.51.37,1.21.55,2.08.55.8,0,1.52-.15,2.16-.44.64-.3,1.14-.75,1.52-1.36s.56-1.36.56-2.26v-.79l-4.35.58c-.88.12-1.56.35-2.03.7-.47.35-.71.85-.71,1.49s.26,1.17.77,1.54Z"></path>
    <path d="m330.18,359.26v1.53h.2c.24-.5.6-.89,1.09-1.16.48-.27,1.17-.41,2.06-.41h1.77v1.9h-1.73c-.79,0-1.43.14-1.92.43-.49.29-.84.72-1.07,1.29s-.34,1.3-.34,2.17v6.99h-2.2v-12.74h2.12Z"></path>
    <path d="m339.88,359.26v1.53h.2c.24-.5.6-.89,1.09-1.16.48-.27,1.17-.41,2.06-.41h1.77v1.9h-1.73c-.79,0-1.43.14-1.92.43-.49.29-.84.72-1.07,1.29s-.34,1.3-.34,2.17v6.99h-2.2v-12.74h2.12Z"></path>
    <path d="m349.84,354.67v2.41h-2.55v-2.41h2.55Zm-.19,4.59v12.74h-2.2v-12.74h2.2Zm-.08,0v1.76h-2.04v-1.76h2.04Zm0,10.96v1.77h-2.04v-1.77h2.04Z"></path>
    <path d="m353.27,362c.5-1,1.21-1.76,2.14-2.27s2.02-.77,3.29-.77,2.31.25,3.19.74c.88.5,1.55,1.2,2,2.12.45.92.68,2,.68,3.25v1.1h-9.93c.02.88.19,1.65.52,2.31.33.65.8,1.16,1.4,1.51.6.35,1.31.53,2.13.53.74,0,1.37-.12,1.89-.37.52-.25.92-.56,1.21-.94.28-.38.46-.78.54-1.21h1.98v.38c-.11.6-.37,1.2-.78,1.79s-1.02,1.1-1.82,1.51c-.8.41-1.8.61-2.98.61-1.27,0-2.36-.26-3.29-.77s-1.65-1.27-2.15-2.27-.76-2.21-.76-3.64.25-2.62.75-3.62Zm8.75.5c-.29-.56-.72-.99-1.28-1.31s-1.25-.47-2.06-.47-1.48.16-2.06.47-1.03.75-1.36,1.31c-.33.56-.52,1.2-.58,1.92h7.79c0-.73-.16-1.38-.45-1.94Z"></path>
    <path d="m369.56,359.26v1.53h.2c.24-.5.6-.89,1.09-1.16.48-.27,1.17-.41,2.06-.41h1.77v1.9h-1.73c-.79,0-1.43.14-1.92.43-.49.29-.84.72-1.07,1.29s-.34,1.3-.34,2.17v6.99h-2.2v-12.74h2.12Z"></path>
    <path d="m377.02,360.66c.41-.55,1.01-.96,1.78-1.25.78-.29,1.7-.43,2.79-.43s2.04.15,2.83.44c.8.3,1.42.73,1.87,1.29.45.57.71,1.25.77,2.05v.38h-2.01c-.04-.84-.36-1.46-.97-1.84-.6-.39-1.43-.58-2.48-.58-.99,0-1.76.16-2.29.47-.54.32-.81.77-.81,1.36,0,.56.2.98.6,1.26s.97.46,1.7.56l2.19.28c1.34.17,2.39.55,3.15,1.16.76.6,1.14,1.46,1.14,2.57,0,.79-.2,1.48-.61,2.07-.4.59-1.01,1.04-1.81,1.37-.8.33-1.77.49-2.91.49s-2.16-.16-3.02-.48c-.86-.32-1.54-.78-2.02-1.36-.48-.59-.75-1.26-.8-2.03v-.38h2.04c.06.83.43,1.46,1.11,1.88.68.42,1.58.63,2.69.63.7,0,1.29-.08,1.77-.25.48-.17.84-.4,1.08-.71.24-.31.36-.68.36-1.11,0-.6-.22-1.06-.67-1.38-.45-.32-1.1-.53-1.97-.64l-2.19-.28c-1.24-.16-2.21-.53-2.89-1.11-.69-.58-1.03-1.41-1.03-2.48,0-.75.21-1.4.62-1.94Z"></path>
    <path d="m398.9,354v6.95h.2c.46-.68,1.05-1.18,1.77-1.5.73-.32,1.55-.47,2.48-.47,1.12,0,2.13.25,3.01.76.88.5,1.58,1.26,2.08,2.26.5,1,.76,2.22.76,3.64s-.25,2.64-.76,3.64c-.5,1-1.2,1.75-2.08,2.26-.88.5-1.89.76-3.01.76-.94,0-1.78-.17-2.51-.49-.73-.33-1.33-.84-1.79-1.54h-.2v1.75h-2.15v-18h2.2Zm.43,14.24c.34.73.81,1.28,1.43,1.66.62.38,1.33.57,2.14.57s1.53-.19,2.15-.57c.62-.38,1.09-.93,1.43-1.66.34-.72.51-1.59.51-2.6s-.17-1.89-.51-2.61c-.34-.73-.81-1.28-1.43-1.66-.62-.38-1.33-.57-2.15-.57s-1.52.19-2.14.57-1.09.93-1.43,1.66c-.34.72-.51,1.6-.51,2.61s.17,1.88.51,2.6Z"></path>
    <path d="m412.04,362c.5-1,1.21-1.76,2.14-2.27s2.02-.77,3.29-.77,2.31.25,3.19.74c.88.5,1.54,1.2,2,2.12.45.92.68,2,.68,3.25v1.1h-9.92c.02.88.19,1.65.52,2.31s.8,1.16,1.4,1.51c.6.35,1.31.53,2.13.53.74,0,1.37-.12,1.89-.37.52-.25.92-.56,1.21-.94.28-.38.46-.78.54-1.21h1.97v.38c-.11.6-.37,1.2-.78,1.79-.41.6-1.02,1.1-1.82,1.51-.8.41-1.8.61-2.98.61-1.27,0-2.37-.26-3.29-.77-.93-.51-1.65-1.27-2.15-2.27-.5-1-.76-2.21-.76-3.64s.25-2.62.75-3.62Zm8.75.5c-.29-.56-.72-.99-1.28-1.31s-1.25-.47-2.06-.47-1.48.16-2.06.47-1.03.75-1.36,1.31c-.33.56-.52,1.2-.58,1.92h7.79c0-.73-.16-1.38-.45-1.94Z"></path>
    <path d="m428.4,354v6.84h.2c.44-.65,1.02-1.12,1.73-1.42.71-.3,1.54-.44,2.48-.44,1,0,1.86.17,2.58.51.72.34,1.28.86,1.67,1.54s.59,1.54.59,2.56v8.41h-2.2v-8.2c0-1.02-.27-1.77-.8-2.26s-1.31-.73-2.33-.73c-.75,0-1.42.15-2.01.45s-1.06.75-1.4,1.36-.51,1.36-.51,2.26v7.11h-2.2v-18h2.2Z"></path>
    <path d="m443.55,354.67v2.41h-2.55v-2.41h2.55Zm-.19,4.59v12.74h-2.2v-12.74h2.2Zm-.08,0v1.76h-2.04v-1.76h2.04Zm0,10.96v1.77h-2.04v-1.77h2.04Z"></path>
    <path d="m449.14,359.26v1.64h.2c.44-.67,1.02-1.15,1.75-1.46.72-.31,1.56-.46,2.51-.46,1,0,1.86.17,2.57.51.72.34,1.27.86,1.66,1.54.39.69.58,1.54.58,2.56v8.41h-2.2v-8.2c0-1.02-.26-1.77-.79-2.26s-1.3-.73-2.32-.73c-.75,0-1.42.15-2,.45-.58.3-1.05.75-1.39,1.36s-.51,1.36-.51,2.26v7.11h-2.2v-12.74h2.14Z"></path>
    <path d="m473.65,372h-2.14v-1.75h-.2c-.47.71-1.06,1.23-1.79,1.55-.73.33-1.57.49-2.52.49-1.12,0-2.13-.25-3.01-.76-.88-.5-1.57-1.26-2.08-2.26-.5-1-.76-2.21-.76-3.64s.25-2.65.76-3.65c.5-1,1.2-1.75,2.08-2.26.88-.5,1.88-.76,3.01-.76.92,0,1.75.16,2.47.47.73.32,1.32.82,1.78,1.5h.2v-6.95h2.2v18Zm-9.77-3.76c.34.73.81,1.28,1.43,1.66.62.38,1.33.57,2.14.57s1.53-.19,2.15-.57c.62-.38,1.09-.93,1.43-1.66.34-.72.51-1.59.51-2.6s-.17-1.89-.51-2.61c-.34-.73-.81-1.28-1.43-1.66-.62-.38-1.33-.57-2.15-.57s-1.52.19-2.14.57c-.62.38-1.09.93-1.43,1.66-.34.72-.51,1.6-.51,2.61s.17,1.88.51,2.6Z"></path>
  </g>
  <path class="cls-1" d="m12.79,80.83s.37-91.88,117-53.43c108.12,35.65,99,45,225,18s99,126-90,90c-189-36-63,90-63,90,0,0-198.42-26.59-189-144.57Z"></path>
  <path d="m244.09,89.75c-2.96-1.27-6.53-1.91-10.73-1.91s-7.68.58-10.71,1.73c-3.03,1.16-5.42,2.8-7.16,4.93-1.74,2.13-2.77,4.65-3.1,7.56v1.35h9.95c.24-2.52,1.28-4.41,3.13-5.67,1.84-1.26,4.42-1.89,7.72-1.89s5.81.68,7.43,2.03c1.62,1.35,2.43,3.53,2.43,6.52v1.12l-16.56,2.07c-5.04.63-9.04,2.13-12.01,4.5-2.97,2.37-4.46,5.76-4.46,10.17,0,2.54.56,4.78,1.67,6.72,8.58.19,18.45,1.01,29.76,2.56.49-.54.91-1.11,1.24-1.72h.72v1.99c3.17.45,6.46.96,9.85,1.53v-27.77c0-3.99-.79-7.3-2.36-9.94-1.57-2.64-3.84-4.6-6.79-5.87Zm-1.06,25.81c0,2.76-.58,5.09-1.75,6.98-1.17,1.89-2.78,3.3-4.81,4.23-2.04.93-4.37,1.4-6.98,1.4-2.76,0-4.93-.58-6.5-1.73-1.58-1.15-2.36-2.74-2.36-4.75s.7-3.4,2.11-4.46c1.41-1.05,3.42-1.75,6.03-2.11l14.26-1.89v2.34Zm34.15-38.92h-10.66v12.29h-10.35v8.23h10.35v26.19c0,2.61.51,4.81,1.53,6.62,1.02,1.8,2.49,3.16,4.41,4.07,1.92.92,4.21,1.37,6.88,1.37h10.75v-8.82h-12.19l-.72-.72v-28.71h13.14v-8.23h-13.14v-12.29Zm-81.16,13.9c-3.32-1.8-7.28-2.7-11.9-2.7s-8.85.92-12.33,2.77c-3.48,1.84-6.17,4.58-8.08,8.21-1.91,3.63-2.86,8.07-2.86,13.32s.95,9.7,2.86,13.34c1.9,3.65,4.61,6.39,8.12,8.23.75.4,1.54.74,2.35,1.05,6.43-3.18,15.47-5.23,27.76-5.72.08-.1.16-.2.24-.31,1.57-2.19,2.6-4.44,3.08-6.75v-1.35h-9.36c-.27,1.29-.86,2.51-1.78,3.67-.92,1.15-2.21,2.11-3.89,2.86-1.68.75-3.73,1.12-6.17,1.12-2.61,0-4.89-.55-6.84-1.67-1.95-1.11-3.45-2.66-4.5-4.66-1.05-1.99-1.6-4.3-1.67-6.91h35.15v-4.77c0-4.65-.87-8.65-2.61-12.02-1.74-3.36-4.27-5.94-7.58-7.74Zm-24.82,16.61c.21-2.13.83-4.03,1.87-5.72,1.04-1.68,2.48-3.02,4.34-4,1.86-.99,4.05-1.48,6.57-1.48s4.82.48,6.64,1.44c1.81.96,3.19,2.29,4.12,3.98.93,1.7,1.41,3.62,1.44,5.78h-24.97Zm-24.91-16.99c-1.73.94-3.04,2.32-3.94,4.12h-.72v-5.35h-10.21v46.48h10.67v-24.84c0-2.97.4-5.41,1.19-7.31.79-1.9,2.03-3.32,3.71-4.25,1.68-.93,3.84-1.4,6.48-1.4h6.44v-8.87h-6.48c-3.03,0-5.41.47-7.13,1.42Zm-33.95,29.32c-1.32,2.22-3.35,4.08-6.1,5.58-2.75,1.5-6.25,2.25-10.51,2.25-4.56,0-8.46-.94-11.7-2.83-3.24-1.89-5.7-4.66-7.38-8.3s-2.52-8.03-2.52-13.16.84-9.52,2.52-13.16,4.14-6.41,7.38-8.3c3.24-1.89,7.14-2.83,11.7-2.83,4.23,0,7.72.73,10.46,2.18,2.75,1.46,4.76,3.27,6.05,5.45,1.29,2.18,2.04,4.4,2.25,6.68h10.31v-1.35c-.18-3.57-1.36-7.06-3.53-10.48-2.18-3.42-5.43-6.25-9.77-8.48-4.34-2.23-9.65-3.35-15.95-3.35-6.78,0-12.62,1.32-17.53,3.96-4.9,2.64-8.66,6.48-11.25,11.52-2.6,5.04-3.89,11.1-3.89,18.18s1.3,13.14,3.89,18.18c2.59,5.04,6.35,8.88,11.25,11.52,4.91,2.64,10.75,3.96,17.53,3.96,6.33,0,11.65-1.13,15.97-3.4,4.32-2.26,7.58-5.12,9.77-8.57,2.19-3.45,3.44-7.05,3.73-10.8v-1.35h-10.3c-.27,2.4-1.07,4.71-2.39,6.93Zm226.04-9.18c0-4.65-.87-8.65-2.61-12.02-1.74-3.36-4.27-5.94-7.58-7.74-3.32-1.8-7.28-2.7-11.9-2.7s-8.85.92-12.33,2.77c-3.48,1.84-6.17,4.58-8.08,8.21-1.91,3.63-2.86,8.07-2.86,13.32s.95,9.7,2.86,13.34c1.9,3.65,4.61,6.39,8.12,8.23,3.51,1.85,7.63,2.77,12.38,2.77,4.41,0,8.11-.74,11.11-2.23,3-1.48,5.29-3.32,6.86-5.51,1.57-2.19,2.6-4.44,3.08-6.75v-1.35h-9.36c-.27,1.29-.86,2.51-1.78,3.67-.92,1.15-2.21,2.11-3.89,2.86-1.68.75-3.73,1.12-6.17,1.12-2.61,0-4.89-.55-6.84-1.67-1.95-1.11-3.45-2.66-4.5-4.66-1.05-1.99-1.6-4.3-1.67-6.91h35.15v-4.77Zm-35.01-3.15c.21-2.13.83-4.03,1.87-5.72,1.04-1.68,2.48-3.02,4.34-4,1.86-.99,4.05-1.48,6.57-1.48s4.82.48,6.64,1.44c1.81.96,3.19,2.29,4.12,3.98.93,1.7,1.41,3.62,1.44,5.78h-24.97Z"></path>
</svg>
