<?xml version="1.0" encoding="UTF-8"?>
<svg xmlns="http://www.w3.org/2000/svg" width="80" height="80" viewBox="0 0 80 80" fill="none">
  <circle cx="40" cy="40" r="40" fill="#FFD484"></circle>
  <path d="M45.9979 32.9898L45.9963 32.9878C44.5082 31.185 42.3264 30.1494 40.0001 30.1494C37.6737 30.1494 35.4919 31.185 34.0039 32.9878L34.0022 32.9898C31.7599 35.7209 31.6728 39.7322 33.802 42.552L33.8063 42.5577L33.8107 42.5634L33.8248 42.5815C33.99 42.7939 34.1962 43.0592 34.439 43.3026C35.5093 44.3963 36.2185 45.707 36.5515 47.1276L36.7324 47.8994H37.5251H42.4751H43.2649L43.4479 47.131C43.7816 45.7293 44.4935 44.3937 45.5612 43.3025C45.8039 43.0591 46.0102 42.7939 46.1753 42.5815L46.1894 42.5634L46.1938 42.5577L46.1981 42.552C48.3273 39.7322 48.2403 35.7209 45.9979 32.9898ZM33.6001 42.6994L33.6001 42.6994L33.595 42.6926C31.3786 39.7893 31.4659 35.6552 33.7953 32.8372C35.4234 30.875 37.7119 29.8994 40.0001 29.8994C42.2897 29.8994 44.5751 30.8759 46.1761 32.8327L46.1761 32.8327L46.1794 32.8366C48.5084 35.6536 48.5993 39.7671 46.4001 42.6994C46.2111 42.9513 45.9972 43.1884 45.7474 43.4633C44.5024 44.7391 43.7069 46.3781 43.5351 48.1494H36.4641C36.287 46.3665 35.4662 44.7264 34.2462 43.4566L34.2393 43.4494L34.2322 43.4423C34.0254 43.2355 33.8064 42.9745 33.6001 42.6994Z" fill="#5F90FA" stroke="white" stroke-width="2"></path>
  <path d="M36.5 52.6494V52.3994H43.5V52.6494H36.5Z" fill="#5F90FA" stroke="white" stroke-width="2"></path>
  <path d="M36.5 57.1494V56.8994H43.5V57.1494H36.5Z" fill="#5F90FA" stroke="white" stroke-width="2"></path>
  <path opacity="0.5" d="M23 40.1494C23 30.7517 30.6023 23.1494 40 23.1494C49.3977 23.1494 57 30.7517 57 40.1494C57 46.7406 53.2469 52.4469 47.75 55.2674V54.9934C53.1013 52.2 56.75 46.5976 56.75 40.1494C56.75 30.9221 49.2273 23.3994 40 23.3994C30.7727 23.3994 23.25 30.9221 23.25 40.1494C23.25 46.5976 26.8987 52.2 32.25 54.9934V55.2722C26.7555 52.4695 23 46.7435 23 40.1494Z" fill="#5F90FA" stroke="white" stroke-width="2"></path>
  <path d="M40 46.8994V40.1494" stroke="white" stroke-width="2" stroke-miterlimit="10"></path>
</svg>
