<?xml version="1.0" encoding="UTF-8"?>
<svg xmlns="http://www.w3.org/2000/svg" width="80" height="80" viewBox="0 0 80 80" fill="none">
  <circle cx="40" cy="40" r="40" fill="#262626"></circle>
  <path d="M40.1674 20.1324C41.0137 20.1297 41.8437 20.364 42.5637 20.8086C43.2837 21.2533 43.8649 21.8906 44.2415 22.6484L57.0539 48.2734C57.4016 48.968 57.5659 49.7399 57.5312 50.5158C57.4966 51.2917 57.2641 52.0459 56.8558 52.7067C56.4476 53.3674 55.8772 53.9128 55.1988 54.2911C54.5204 54.6693 53.7566 54.8677 52.9799 54.8676H27.355C26.5784 54.8675 25.8147 54.6689 25.1365 54.2906C24.4583 53.9122 23.8881 53.3668 23.48 52.7061C23.072 52.0454 22.8396 51.2913 22.805 50.5155C22.7704 49.7396 22.9347 48.9679 23.2823 48.2734L36.0934 22.6484C36.47 21.8906 37.0511 21.2533 37.7711 20.8086C38.4911 20.364 39.3212 20.1297 40.1674 20.1324M40.1674 17C38.74 16.9999 37.3408 17.3971 36.1264 18.1473C34.912 18.8976 33.9305 19.9711 33.2918 21.2476L20.4793 46.8726C19.8928 48.0447 19.6158 49.3473 19.6745 50.6566C19.7331 51.9659 20.1256 53.2385 20.8145 54.3535C21.5034 55.4684 22.466 56.3887 23.6107 57.0269C24.7555 57.6652 26.0444 58.0001 27.355 58H52.9799C54.2904 57.9999 55.5791 57.6648 56.7237 57.0264C57.8682 56.3881 58.8306 55.4678 59.5194 54.3529C60.2081 53.238 60.6005 51.9655 60.6591 50.6563C60.7177 49.3471 60.4406 48.0446 59.8542 46.8726L47.0431 21.2476C46.4044 19.9711 45.4229 18.8976 44.2085 18.1473C42.9941 17.3971 41.5948 16.9999 40.1674 17V17Z" fill="#6ED34A"></path>
</svg>
