<?xml version="1.0" encoding="UTF-8"?>
<svg xmlns="http://www.w3.org/2000/svg" width="236" height="81" viewBox="0 0 236 81" fill="none">
  <path fill-rule="evenodd" clip-rule="evenodd" d="M227.088 8.88122L235.098 8.81137L235.397 43.1614L213.236 23.8709L213.388 41.3953L205.425 41.4647L205.125 7.11377L227.242 26.4046L227.088 8.88122ZM227.549 27.0728L205.432 7.78193L205.723 41.1607L213.084 41.0966L212.928 23.2037L235.091 42.4942L234.8 9.11539L227.393 9.17998L227.549 27.0728Z" fill="#5F8AFA"></path>
  <path fill-rule="evenodd" clip-rule="evenodd" d="M192.948 8.84587L201.366 8.77246L201.649 41.1645L193.23 41.2379L192.948 8.84587ZM193.53 40.9339L193.252 9.14464L201.067 9.07648L201.346 40.8658L193.53 40.9339Z" fill="#5F8AFA"></path>
  <path fill-rule="evenodd" clip-rule="evenodd" d="M169.505 30.5927L176.579 30.5309L172.96 22.433L169.505 30.5927ZM172.969 23.1887L169.962 30.2873L176.117 30.2336L172.969 23.1887ZM168.005 36.4646L165.094 42.6212L156.415 42.6968L172.842 8.76354L189.904 42.4047L181.179 42.4809L178.147 36.3761L168.005 36.4646ZM168.197 36.7643L165.286 42.9209L155.932 43.0025L172.835 8.08447L190.392 42.7019L180.994 42.7839L177.961 36.6791L168.197 36.7643Z" fill="#5F8AFA"></path>
  <path fill-rule="evenodd" clip-rule="evenodd" d="M131.215 21.8213L144.892 21.7018L144.791 10.1215L152.47 10.0545L152.748 41.8438L145.069 41.9107L144.953 28.6047L131.276 28.724L131.392 42.0301L123.713 42.097L123.435 10.3078L131.114 10.2408L131.215 21.8213ZM131.58 29.0227L131.696 42.3289L123.414 42.4011L123.131 10.009L131.413 9.93677L131.514 21.5172L144.588 21.4031L144.487 9.82274L152.769 9.75049L153.052 42.1425L144.77 42.2147L144.654 28.9087L131.58 29.0227Z" fill="#5F8AFA"></path>
  <path fill-rule="evenodd" clip-rule="evenodd" d="M117.086 9.92383L117.158 18.2014L80.9627 18.6546C79.4119 18.6681 78.1873 19.0871 77.2605 19.887C76.4075 20.6232 75.9426 21.7097 75.9015 23.1948C75.9015 23.1948 75.9015 23.2026 75.9015 23.2206C75.9015 23.2331 75.9017 23.2504 75.9017 23.2731C75.902 23.3245 75.9023 23.397 75.903 23.4879C75.9042 23.6695 75.9061 23.924 75.9083 24.2269C75.913 24.8328 75.9195 25.6323 75.926 26.4321C75.939 28.0318 75.9525 29.6316 75.953 29.6823C75.9676 31.3495 76.4587 32.535 77.3776 33.3006C78.3181 34.084 79.5497 34.4816 81.1001 34.4681C81.1003 34.4681 81.1005 34.4681 81.1008 34.4681L117.296 34.0151L117.369 42.2926L80.6278 42.7506C78.5964 42.7682 76.8088 42.4457 75.2724 41.7727C73.7415 41.1323 72.4672 40.2071 71.4552 38.9961L71.4547 38.9954C70.4783 37.8204 69.7372 36.4291 69.2283 34.8263C68.7199 33.2547 68.4592 31.5613 68.4432 29.7478C68.4424 29.6503 68.3881 23.3476 68.3888 23.2447C68.3895 23.1506 68.3907 23.0569 68.3927 22.9635C68.4265 21.3688 68.6567 19.8663 69.0855 18.4574C69.5667 16.8763 70.2831 15.474 71.2362 14.2538L71.239 14.2505L71.2416 14.2472C72.2322 13.0506 73.4885 12.1049 75.0048 11.4085L75.0071 11.4074L75.0095 11.4064C76.5333 10.7379 78.3141 10.3995 80.3445 10.3818C80.3447 10.3818 80.3449 10.3818 80.345 10.3818L117.086 9.92383ZM80.3478 10.6831C78.3485 10.7006 76.6095 11.0337 75.1306 11.6824C73.6521 12.3614 72.4333 13.2804 71.474 14.4393C70.5452 15.6283 69.8452 16.9968 69.3741 18.5451C68.954 19.9255 68.7274 21.4002 68.6942 22.9698C68.6923 23.0618 68.6909 23.1541 68.6904 23.2468C68.6897 23.3464 68.744 29.6448 68.7449 29.7452C68.7604 31.5314 69.0172 33.1945 69.5155 34.7343C70.0138 36.3045 70.7376 37.6606 71.6868 38.8029C72.6663 39.9752 73.901 40.8728 75.391 41.4957C76.8812 42.1487 78.6259 42.4666 80.6251 42.4492L117.065 41.9949L116.998 34.3201L81.1034 34.7695C79.4979 34.7836 78.1916 34.3711 77.1845 33.5321C76.1776 32.6931 75.6664 31.4106 75.6514 29.685C75.6505 29.5834 75.5973 23.2851 75.6 23.1864C75.6428 21.6399 76.1307 20.464 77.0635 19.6589C78.0556 18.8024 79.3546 18.3672 80.9601 18.3532L116.854 17.9039L116.787 10.229L80.3478 10.6831Z" fill="#5F8AFA"></path>
  <path fill-rule="evenodd" clip-rule="evenodd" d="M54.5153 10.9393L62.5247 10.8695L62.8248 45.2195L40.6625 25.929L40.8154 43.4534L32.8513 43.5228L32.5514 9.17188L54.6683 28.4628L54.5153 10.9393ZM54.9756 29.1309L32.8588 9.84006L33.1502 43.2188L40.5114 43.1546L40.3551 25.2618L62.5174 44.5522L62.2259 11.1735L54.8195 11.2381L54.9756 29.1309Z" fill="#5F8AFA"></path>
  <path fill-rule="evenodd" clip-rule="evenodd" d="M0.481445 11.411L8.76365 11.3388L8.9479 32.4395C8.96144 33.9892 9.38061 35.2134 10.181 36.1395C10.9639 37.0457 12.1443 37.5147 13.78 37.5005C15.448 37.4859 16.6341 36.9951 17.4002 36.0765C18.1842 35.1365 18.5819 33.9054 18.5684 32.3555L18.3842 11.2549L26.6663 11.1826L26.8555 32.8282C26.8731 34.8585 26.5503 36.6452 25.877 38.1809C25.2363 39.7107 24.3105 40.9843 23.0989 41.9958L23.0982 41.9963C21.9225 42.972 20.5305 43.7128 18.9268 44.2215C17.3543 44.7296 15.66 44.9902 13.8455 45.0061C12.0308 45.0218 10.3319 44.7907 8.75057 44.3101C7.16859 43.8292 5.76553 43.1132 4.54466 42.1605L4.5413 42.1578L4.53801 42.1551C3.34075 41.1652 2.39454 39.9095 1.69779 38.394L1.69671 38.3917L1.69567 38.3894C1.02676 36.8662 0.68817 35.0862 0.670448 33.0566L0.481445 11.411ZM18.8347 43.9346C20.4058 43.4363 21.7626 42.713 22.9056 41.7643C24.0786 40.7853 24.9766 39.5511 25.5999 38.0621C26.2533 36.5728 26.5713 34.8291 26.5539 32.831L26.3674 11.4866L18.6884 11.5536L18.87 32.3529C18.884 33.9576 18.4713 35.263 17.6318 36.2695C16.7923 37.276 15.5093 37.7869 13.7826 37.8019C12.0863 37.8166 10.8096 37.3282 9.95272 36.3365C9.09581 35.3448 8.66034 34.0467 8.64634 32.4421L8.46473 11.6428L0.785636 11.7098L0.972008 33.0541C0.989455 35.0522 1.32272 36.7903 1.97182 38.2681C2.65119 39.7458 3.57068 40.9641 4.73024 41.9229C5.91983 42.8511 7.28919 43.5508 8.83834 44.0216C10.3875 44.4926 12.0557 44.7202 13.8429 44.7046C15.6302 44.689 17.2941 44.4324 18.8347 43.9346Z" fill="#5F8AFA"></path>
  <path d="M225.71 0.645191L227.27 18.4706L203.706 0.973508L206.618 34.2266L213.952 33.5853L212.391 15.7599L236 33.2531L233.088 0L225.71 0.645191Z" fill="#5F8AFA"></path>
  <path d="M191.671 3.28921L194.444 34.9588L202.229 34.2779L199.456 2.6084L191.671 3.28921Z" fill="#5F8AFA"></path>
  <path d="M165.419 32.7861L182.168 31.3216L181.158 25.5289L165.451 26.9024L165.419 32.7861ZM172.483 18.1271L177.863 28.0052L177.762 29.9744L182.25 37.4689L190.941 36.709L171.291 4.50928L157.579 39.626L166.225 38.8701L169.45 30.3821L168.942 28.7399L172.483 18.1271Z" fill="#5F8AFA"></path>
  <path d="M125.901 28.1498L149.892 26.052L149.29 19.1753L125.299 21.2731L125.901 28.1498ZM143.437 8.062L146.209 39.7314L153.859 39.0627L151.087 7.39307L143.437 8.062ZM122.161 9.92234L124.934 41.5919L132.584 40.9229L129.812 9.25341L122.161 9.92234Z" fill="#5F8AFA"></path>
  <path d="M115.521 10.3667L79.2299 13.6769C77.2382 13.8511 75.5307 14.3195 74.1073 15.0822C72.6867 15.8751 71.5437 16.8867 70.6784 18.1174C69.8459 19.3754 69.2555 20.7947 68.9073 22.3752C68.5968 23.7841 68.4867 25.2723 68.5769 26.8394C68.5821 26.9313 68.588 27.0235 68.5947 27.1159C68.6019 27.2153 69.1504 33.4899 69.1591 33.59C69.3149 35.3695 69.7016 37.0073 70.319 38.5033C70.9392 40.0296 71.7672 41.3249 72.8031 42.3892C73.8718 43.4809 75.1731 44.2791 76.7074 44.7831C78.2441 45.3174 80.0083 45.4974 82.0002 45.3232L118.292 42.013L117.957 38.1901L117.622 34.3671L81.874 37.6297C80.2747 37.7697 78.94 37.4609 77.8702 36.7035C76.8003 35.9459 76.1903 34.7076 76.0398 32.9885C76.0309 32.8872 75.4834 26.6124 75.4785 26.514C75.3997 24.9687 75.7936 23.7583 76.6603 22.8825C77.5823 21.9509 78.8431 21.4153 80.4424 21.2753L116.191 18.0127L115.856 14.1897L115.521 10.3667Z" fill="#5F8AFA"></path>
  <path d="M53.8319 16.2301L55.3922 34.0556L31.8292 16.5585L34.7401 49.8114L42.0734 49.1703L40.5129 31.3449L64.1213 48.8379L61.2104 15.585L53.8319 16.2301Z" fill="#5F8AFA"></path>
  <path d="M0 20.9379L1.86138 42.2017C2.03562 44.1923 2.50432 45.8989 3.26744 47.3215C4.06071 48.7414 5.073 49.8837 6.30425 50.7486C7.56305 51.5807 8.98311 52.1706 10.5644 52.5186C12.1458 52.8666 13.8267 52.9629 15.6072 52.8073C17.3877 52.6516 19.0265 52.2651 20.5233 51.648C22.0502 51.0281 23.3462 50.2006 24.4112 49.1653C25.5037 48.0972 26.302 46.7964 26.8064 45.2631C27.341 43.7273 27.521 41.9639 27.3468 39.9733L25.4855 18.7095L17.8354 19.3784L19.6492 40.0992C19.7891 41.6978 19.4801 43.0316 18.7223 44.1009C17.9644 45.1701 16.7254 45.78 15.0052 45.9304C13.3152 46.0782 12.0042 45.6914 11.0721 44.7699C10.14 43.8484 9.60394 42.5884 9.46402 40.9899L7.65017 20.2689L0 20.9379Z" fill="#5F8AFA"></path>
  <path d="M89.8458 64.2524L98.6758 63.6358L98.3897 59.5508L89.56 60.1674L89.8458 64.2524ZM90.3864 71.9719L98.9341 71.375L98.6658 67.5435L90.1182 68.1404L90.3864 71.9719ZM86.4003 60.3881L87.7812 80.1092L92.3513 79.7901L90.9703 60.069L86.4003 60.3881Z" fill="#5F8AFA"></path>
  <path d="M106.502 73.706L105.95 65.8175L101.492 66.1289L102.076 74.468C102.184 76.0081 102.636 77.194 103.431 78.0254C104.244 78.8369 105.459 79.1863 107.076 79.0732C108.035 79.0063 108.821 78.7532 109.433 78.3142C110.043 77.8562 110.521 77.2662 110.868 76.5436L111.004 78.4875L115.264 78.19L114.356 65.2305L110.096 65.528L110.649 73.4163C110.684 73.9234 110.62 74.3621 110.457 74.732C110.294 75.1021 110.05 75.3927 109.725 75.6042C109.418 75.8143 109.03 75.9359 108.56 75.9686C107.864 76.0174 107.36 75.8449 107.049 75.4513C106.737 75.0391 106.555 74.4572 106.502 73.706Z" fill="#5F8AFA"></path>
  <path d="M126.509 69.4777L127.061 77.3662L131.49 77.0569L130.906 68.7177C130.797 67.1588 130.346 65.973 129.552 65.1601C128.757 64.3475 127.552 63.9976 125.934 64.1105C124.975 64.1774 124.18 64.4311 123.55 64.8715C122.938 65.3105 122.469 65.9001 122.143 66.64L122.007 64.6961L117.719 64.9955L118.626 77.9553L122.914 77.6557L122.362 69.7674C122.326 69.2602 122.39 68.8216 122.553 68.4517C122.716 68.0816 122.961 67.7909 123.286 67.5795C123.611 67.368 124 67.2465 124.451 67.2151C125.128 67.1677 125.622 67.3408 125.933 67.7343C126.263 68.1264 126.455 68.7076 126.509 69.4777Z" fill="#5F8AFA"></path>
  <path d="M143.159 54.1593L144.698 76.1344L148.958 75.8368L147.419 53.8618L143.159 54.1593ZM133.637 70.3952C133.739 71.8414 134.116 73.0514 134.77 74.0249C135.442 74.9783 136.266 75.6851 137.243 76.1453C138.22 76.6055 139.236 76.7989 140.289 76.7253C141.379 76.6492 142.32 76.3099 143.109 75.7073C143.917 75.1036 144.53 74.2775 144.948 73.2291C145.366 72.1807 145.526 70.9617 145.429 69.5718C145.33 68.163 145.002 66.9781 144.443 66.0169C143.883 65.0368 143.161 64.304 142.276 63.8183C141.411 63.3315 140.433 63.126 139.342 63.2023C138.289 63.2757 137.31 63.6083 136.407 64.2C135.503 64.7916 134.785 65.606 134.253 66.6434C133.74 67.6797 133.535 68.9302 133.637 70.3952ZM138.123 70.082C138.075 69.4058 138.176 68.8137 138.423 68.3057C138.67 67.779 139.019 67.3677 139.471 67.0718C139.921 66.7572 140.429 66.5803 140.993 66.541C141.482 66.5067 141.961 66.6055 142.431 66.8368C142.92 67.0669 143.332 67.425 143.669 67.9112C144.004 68.3784 144.196 68.9596 144.244 69.6546C144.293 70.3494 144.185 70.961 143.919 71.4892C143.652 71.9985 143.293 72.4011 142.841 72.6969C142.409 72.9913 141.948 73.1556 141.459 73.1898C140.894 73.2291 140.368 73.1338 139.879 72.9037C139.389 72.6548 138.986 72.296 138.67 71.8274C138.352 71.34 138.17 70.7581 138.123 70.082Z" fill="#5F8AFA"></path>
</svg>
