<svg fill="none" height="52" viewBox="0 0 52 52" width="52" xmlns="http://www.w3.org/2000/svg"><g fill="#a6d836"><path d="m20.9117 24.4067h-12.99129v3.259h12.99129z"/><path d="m39.1355 19.5181h-3.2478v13.0362h3.2478z"/><path d="m44.0074 24.4067h-12.9913v3.259h12.9913z"/><path d="m27.5879 9.77716h-3.2478v32.59054h3.2478z" opacity=".5"/><path d="m29.5365 3.58496c1.0826 1.5571 2.8869 2.53481 4.8356 2.53481.6496 0 1.2992-.10863 1.9126-.3259.7218 2.4624 2.9953 4.20055 5.6296 4.20055h.1082c-.036 2.60728 1.66 4.99718 4.1861 5.75768-.8661 2.4624.0361 5.2507 2.2013 6.7716-1.5878 2.1002-1.5878 5.0334 0 7.1337-2.1291 1.4847-3.0313 4.273-2.2013 6.7716-2.49.7604-4.2221 3.1504-4.1861 5.7576-.036 0-.0721 0-.1082 0-2.6343 0-4.8717 1.702-5.6296 4.2006-.6134-.2173-1.263-.3259-1.9126-.3259-1.9487 0-3.7169.9415-4.8356 2.5348-1.0104-.7605-2.2374-1.195-3.5365-1.195s-2.5261.4345-3.5365 1.195c-1.0826-1.5571-2.887-2.5348-4.8356-2.5348-.6496 0-1.2992.1086-1.9126.3259-.7579-2.4624-2.9953-4.2006-5.6296-4.2006-.0361 0-.0722 0-.10825 0 .03605-2.6072-1.65999-4.9972-4.18607-5.7576.86608-2.4624-.03609-5.2507-2.2013-6.7716 1.58782-2.1003 1.58782-5.0335 0-7.1337 2.12912-1.4847 3.0313-4.3092 2.2013-6.7716 2.48999-.7605 4.22212-3.1504 4.18607-5.75768h.10825c2.6343 0 4.8717-1.70194 5.6296-4.20055.6134.21727 1.263.3259 1.9126.3259 1.9486 0 3.7169-.9415 4.8356-2.53481 1.0104.76044 2.2374 1.19498 3.5365 1.19498s2.5261-.43454 3.5365-1.19498zm.1443-3.58496c-.6495 0-1.3352.253479-1.8404.760442-.5052.506968-1.1908.760448-1.8404.760448-.6857 0-1.3352-.25348-1.8404-.760448-.5052-.506963-1.1909-.760442-1.8405-.760442-.9382 0-1.8765.506962-2.3456 1.41225-.4691.9053-1.3713 1.41226-2.3456 1.41226-.397 0-.794-.07242-1.1909-.28969-.397-.18106-.7939-.2897-1.1909-.2897-1.2269 0-2.3817.86908-2.5982 2.20891-.2165 1.30363-1.3352 2.20892-2.5983 2.20892-.14433 0-.25259 0-.39694-.03621-.14435-.03622-.2526-.03621-.39694-.03621-1.58782 0-2.85087 1.41225-2.59826 3.04178.21652 1.41229-.75782 2.75209-2.16521 3.00559-1.73217.2897-2.70651 2.2089-1.9126 3.8022.64957 1.3036.14435 2.8607-1.15478 3.5125-1.58782.8329-1.912597 2.9332-.649558 4.2006 1.010428 1.0139 1.010428 2.6797 0 3.6936-1.263039 1.2674-.902175 3.3677.649558 4.2006 1.26304.6518 1.80435 2.2451 1.15478 3.5125-.79391 1.5933.18043 3.5125 1.9126 3.8022 1.40739.2535 2.38173 1.5571 2.16521 3.0056-.25261 1.6295 1.01044 3.0418 2.59826 3.0418.14434 0 .25259 0 .39694-.0362.14435-.0363.25261-.0363.39694-.0363 1.2631 0 2.3818.9053 2.5983 2.209.2165 1.3398 1.3713 2.2089 2.5982 2.2089.397 0 .7939-.0725 1.1909-.2897.3609-.1811.7939-.2897 1.1909-.2897.9382 0 1.8765.5069 2.3456 1.4122.4691.9415 1.4074 1.4123 2.3456 1.4123.6496 0 1.3353-.2535 1.8405-.7604.5052-.507 1.1908-.7605 1.8404-.7605.6856 0 1.3352.2535 1.8404.7605.5052.5069 1.1909.7604 1.8404.7604.9383 0 1.8766-.507 2.3457-1.4123s1.3713-1.4122 2.3456-1.4122c.397 0 .7939.0724 1.1909.2897.397.181.7939.2897 1.1909.2897 1.2269 0 2.3817-.8691 2.5982-2.2089.2165-1.3037 1.3352-2.209 2.5983-2.209.1443 0 .2526 0 .3969.0363.1444.0362.2526.0362.397.0362 1.5878 0 2.8508-1.4123 2.5982-3.0418-.2165-1.4123.7579-2.7521 2.1653-3.0056 1.7321-.2897 2.7065-2.2089 1.9125-3.8022-.6495-1.3036-.1443-2.8607 1.1548-3.5125 1.5879-.8329 1.9126-2.9332.6496-4.2006-1.0104-1.0139-1.0104-2.6797 0-3.6936 1.263-1.2674.9022-3.3677-.6496-4.2006-1.263-.6518-1.8043-2.2451-1.1548-3.5125.794-1.5933-.1804-3.5125-1.9125-3.8022-1.4074-.2535-2.3818-1.5571-2.1653-3.00559.2526-1.62953-1.0104-3.04178-2.5982-3.04178-.1444 0-.2526-.00001-.397.03621-.1443.03621-.2526.03621-.3969.03621-1.2631 0-2.3818-.90529-2.5983-2.20892-.2165-1.33983-1.3713-2.20891-2.5982-2.20891-.397 0-.7939.07243-1.1909.2897-.3609.18106-.7939.28969-1.1909.28969-.9382 0-1.8765-.50696-2.3456-1.41226-.5052-.905288-1.4074-1.41225-2.3457-1.41225z" fill-opacity=".5"/></g></svg>