<svg fill="none" height="52" viewBox="0 0 52 52" width="52" xmlns="http://www.w3.org/2000/svg"><g fill="#d05555"><path d="m48.75 10.1292v29.25h-16.25c-2.3111 0-4.55.6138-6.5 1.7333-1.95-1.1195-4.1889-1.7333-6.5-1.7333h-16.25v-29.25h16.25c1.5889 0 3.1417.5777 4.3333 1.6611l2.1667 1.95 2.1667-1.95c1.1916-1.0834 2.7444-1.6611 4.3333-1.6611zm3.25-3.25003h-19.5c-2.4917 0-4.7667.93888-6.5 2.49166-1.7333-1.55278-4.0083-2.49166-6.5-2.49166h-19.5v35.75003h19.5c2.4917 0 4.7667.9389 6.5 2.4916 1.7333-1.5527 4.0083-2.4916 6.5-2.4916h19.5z" fill-opacity=".5"/><path d="m22.75 16.6292h-16.25v3.25h16.25z"/><path d="m22.75 23.1292h-16.25v3.25h16.25z"/><path d="m22.75 29.6292h-16.25v3.25h16.25z"/><path d="m45.5 16.6292h-16.25v3.25h16.25z"/><path d="m45.5 23.1292h-16.25v3.25h16.25z"/><path d="m39 29.6292h-9.75v3.25h9.75z"/></g></svg>