<svg fill="none" height="52" viewBox="0 0 52 52" width="52" xmlns="http://www.w3.org/2000/svg"><g fill="#6b6ef9"><path d="m35.75 6.5h-3.25v16.25h3.25z"/><path d="m42.25 6.5h-3.25v16.25h3.25z"/><path d="m45.5 9.75h-16.25v3.25h16.25z"/><path d="m45.5 16.25h-16.25v3.25h16.25z"/><path d="m48.75 3.25v22.75h-22.75v-22.75zm3.25-3.25h-29.25v29.25h29.25z"/><path d="m22.75 16.25v9.75 3.25h3.25 9.75v6.5h-19.5v-19.5zm3.25-3.25h-13v26h26v-13h-13z" opacity=".5"/><path d="m48.4972 29.25c-1.5889 11.0139-11.0861 19.5-22.4972 19.5-12.5306 0-22.75-10.2195-22.75-22.75 0-11.4472 8.4861-20.94445 19.5-22.49723v-3.28611c-12.81944 1.58889-22.75 12.53054-22.75 25.78334 0 14.3722 11.6278 26 26 26 13.2528 0 24.1944-9.9306 25.7833-22.75z" opacity=".25"/></g></svg>