<svg fill="none" height="52" viewBox="0 0 52 52" width="52" xmlns="http://www.w3.org/2000/svg"><g fill="#38d2dc"><path d="m16.25 17.875c-1.8056 0-3.25 1.4444-3.25 3.25s1.4444 3.25 3.25 3.25 3.25-1.4444 3.25-3.25-1.4444-3.25-3.25-3.25z" opacity=".25"/><path d="m26 17.875c-1.8056 0-3.25 1.4444-3.25 3.25s1.4444 3.25 3.25 3.25 3.25-1.4444 3.25-3.25-1.4444-3.25-3.25-3.25z" opacity=".5"/><path d="m35.75 17.875c-1.8056 0-3.25 1.4444-3.25 3.25s1.4444 3.25 3.25 3.25 3.25-1.4444 3.25-3.25-1.4444-3.25-3.25-3.25z"/><path d="m35.75 8.125c7.1861 0 13 5.8139 13 13s-5.8139 13-13 13h-1.95-1.5528l-.975 1.2278-5.2722 6.5722-5.2722-6.5722-.975-1.2278h-1.5528-1.95c-7.18611 0-13-5.8139-13-13s5.81389-13 13-13zm0-3.25h-19.5c-8.99167 0-16.25 7.2583-16.25 16.25s7.25833 16.25 16.25 16.25h1.95l7.8 9.75 7.8-9.75h1.95c8.9917 0 16.25-7.2583 16.25-16.25s-7.2583-16.25-16.25-16.25z"/></g></svg>