<svg width="450" height="120" viewBox="0 0 450 120" fill="none" xmlns="http://www.w3.org/2000/svg">
<g clip-path="url(#clip0_12_119)">
<path d="M113.9 77.6062C113.642 77.6062 113.449 77.4131 113.449 77.1557V17.8893C113.449 17.6319 113.642 17.4388 113.9 17.4388H138.996C148.906 17.4388 155.856 25.0322 155.856 35.0708C155.856 45.1737 148.906 52.7027 138.996 52.7027H119.884C119.627 52.7027 119.434 52.8957 119.434 53.1531V77.2201C119.434 77.4775 119.241 77.6705 118.983 77.6705H113.9V77.6062ZM119.82 22.5868C119.562 22.5868 119.369 22.7799 119.369 23.0373V47.1042C119.369 47.3616 119.562 47.5547 119.82 47.5547H138.095C145.303 47.5547 149.807 41.2484 149.807 35.0708C149.807 28.8932 145.303 22.5868 138.095 22.5868H119.82V22.5868Z" fill="white"/>
<path d="M177.799 33.462C189.511 33.462 196.847 38.61 196.847 48.8417V66.731C196.847 71.1712 197.941 72.4582 201.544 72.4582H202.51C202.767 72.4582 202.96 72.6512 202.96 72.9086V77.1557C202.96 77.4131 202.767 77.6062 202.51 77.6062H201.544C195.624 77.6062 193.243 75.9974 191.828 72.4582C191.635 72.0077 191.313 72.0077 191.055 72.2651C189.768 73.5521 185.65 78.1853 175.097 78.4427C163.835 78.4427 157.658 73.0373 157.658 65.3153C157.658 57.4646 163.835 52.5097 175.933 52.5097H186.615C189.318 52.5097 190.862 52.5097 190.862 48.9061C190.862 44.4659 189.833 38.6744 177.799 38.6744C169.241 38.6744 165.315 42.278 165.315 49.0348C165.315 49.2922 165.122 49.4852 164.865 49.4852H159.717C159.46 49.4852 159.266 49.2922 159.266 49.0348C159.331 38.5457 167.503 33.462 177.799 33.462ZM190.862 57.9794C190.862 57.722 190.669 57.529 190.412 57.529H176.255C165.38 57.529 163.578 61.4543 163.578 65.1866C163.578 69.112 166.795 73.2304 175.032 73.2304C186.229 73.2304 190.669 65.9588 190.862 59.9743V57.9794V57.9794Z" fill="white"/>
<path d="M247.619 74.646V74.7104V75.933C247.619 88.1595 239.961 95.4954 227.349 95.4954C216.602 95.4954 209.138 89.7683 208.301 83.0759C208.301 82.8185 208.494 82.6254 208.752 82.6254H213.707C213.964 82.6254 214.221 82.8185 214.286 83.0759C215.122 86.4221 219.562 90.3474 227.349 90.3474C238.61 90.3474 241.441 83.3333 241.635 75.933V72.5868C241.635 72.3294 241.184 72.072 240.862 72.3938C239.061 74.5173 234.813 78.5714 226.448 78.5714C214.414 78.5714 206.113 69.4337 206.113 56.1132C206.113 42.7927 213.964 33.655 226.448 33.655C235.006 33.655 239.447 38.3526 240.862 39.8326C241.184 40.1544 241.57 40.0257 241.635 39.6396L242.471 34.942C242.535 34.6846 242.664 34.4916 242.922 34.4916H247.169C247.426 34.4916 247.619 34.6846 247.619 34.942V74.646V74.646ZM227.284 73.4234C236.873 73.4234 241.635 66.3449 241.635 56.0489C241.635 45.8172 236.873 38.6743 227.284 38.6743C217.696 38.6743 212.098 45.7528 212.098 56.0489C212.033 66.3449 217.696 73.4234 227.284 73.4234Z" fill="white"/>
<path d="M276.641 78.4427C263.256 78.4427 255.47 69.305 255.47 55.9845C255.47 42.5997 263.256 33.5264 276.641 33.5264C289.961 33.5264 297.812 42.6641 297.812 55.9845C297.812 69.305 289.961 78.4427 276.641 78.4427ZM276.641 38.61C267.181 38.61 261.454 45.6885 261.454 55.9845C261.454 66.2806 267.181 73.3591 276.641 73.3591C286.1 73.3591 291.828 66.2806 291.828 55.9845C291.828 45.6885 286.1 38.61 276.641 38.61Z" fill="white"/>
<path d="M345.753 77.1557C345.753 77.4131 345.56 77.6062 345.302 77.6062H341.055C340.798 77.6062 340.734 77.4131 340.605 77.1557L339.768 72.4582C339.704 72.1364 339.254 71.9434 338.996 72.3938C338.417 73.2304 334.234 78.4427 324.582 78.4427C311.261 78.4427 304.247 69.305 304.247 55.9845C304.247 42.6641 311.712 33.5264 324.582 33.5264C334.041 33.5264 338.224 38.6744 338.996 39.7683C339.254 40.2188 339.768 40.0257 339.768 39.704V17.8893C339.768 17.6319 339.961 17.4388 340.219 17.4388H345.367C345.624 17.4388 345.817 17.6319 345.817 17.8893V77.1557H345.753ZM325.418 73.3591C335.006 73.3591 339.768 66.2805 339.768 55.9845C339.768 45.7529 335.006 38.61 325.418 38.61C315.83 38.61 310.232 45.6885 310.232 55.9845C310.232 66.2162 315.894 73.3591 325.418 73.3591Z" fill="white"/>
<path d="M374.904 33.3333C386.615 33.3333 393.951 38.4813 393.951 48.7129V66.6022C393.951 71.0424 395.045 72.3294 398.649 72.3294H399.614C399.871 72.3294 400.064 72.5224 400.064 72.7798V77.0269C400.064 77.2843 399.871 77.4774 399.614 77.4774H398.649C392.729 77.4774 390.348 75.8686 388.932 72.3294C388.739 71.8789 388.417 71.8789 388.16 72.1363C386.873 73.4233 382.754 78.0565 372.201 78.3139C360.94 78.3139 354.762 72.9085 354.762 65.1865C354.762 57.3358 360.94 52.3809 373.037 52.3809H383.719C386.422 52.3809 387.967 52.3809 387.967 48.7773C387.967 44.3371 386.937 38.5456 374.904 38.5456C366.345 38.5456 362.42 42.1492 362.42 48.906C362.42 49.1634 362.227 49.3564 361.969 49.3564H356.821C356.564 49.3564 356.371 49.1634 356.371 48.906C356.435 38.3526 364.672 33.3333 374.904 33.3333ZM387.967 57.8506C387.967 57.5932 387.774 57.4002 387.516 57.4002H373.359C362.484 57.4002 360.682 61.3255 360.682 65.0578C360.682 68.9832 363.9 73.1016 372.136 73.1016C383.333 73.1016 387.774 65.83 387.967 59.8455V57.8506V57.8506Z" fill="white"/>
<path d="M27.2844 0L54.5689 27.2844C39.5109 42.3423 15.0579 42.3423 0 27.2844L27.2844 0Z" fill="white"/>
<path d="M95.5599 27.2844L68.2112 54.5689C53.1532 39.5109 53.1532 15.0579 68.2112 0L95.5599 27.2844Z" fill="white"/>
<path d="M68.2112 95.5598L40.9268 68.211C55.9847 53.1531 80.4377 53.1531 95.4956 68.211L68.2112 95.5598Z" fill="white"/>
<path d="M0 68.2111L27.2844 40.9266C42.3423 55.9846 42.3423 80.4376 27.2844 95.4955L0 68.2111Z" fill="white"/>
</g>
<defs>
<clipPath id="clip0_12_119">
<rect width="400" height="95.5599" fill="white"/>
</clipPath>
</defs>
</svg>
