<svg width="947" height="144" viewBox="0 0 947 144" fill="none" xmlns="http://www.w3.org/2000/svg">
<g clip-path="url(#clip0_7295_60790)">
<path d="M940.5 144L944.83 136.5L936.17 136.5L940.5 144ZM940.5 69.4752L941.25 69.4752L940.5 69.4752ZM506.75 -52L506.75 29.4752L508.25 29.4752L508.25 -52L506.75 -52ZM527.5 50.2252L920.5 50.2252L920.5 48.7252L527.5 48.7252L527.5 50.2252ZM939.75 69.4752L939.75 137.25L941.25 137.25L941.25 69.4752L939.75 69.4752ZM920.5 50.2252C931.131 50.2252 939.75 58.8437 939.75 69.4752L941.25 69.4752C941.25 58.0153 931.96 48.7252 920.5 48.7252L920.5 50.2252ZM506.75 29.4752C506.75 40.9351 516.04 50.2252 527.5 50.2252L527.5 48.7252C516.869 48.7252 508.25 40.1066 508.25 29.4752L506.75 29.4752Z" fill="#F3ADA2"/>
<path d="M11.5 144L7.16988 136.5L15.8302 136.5L11.5 144ZM11.5 69.4752L12.25 69.4752L11.5 69.4752ZM440.25 -52L440.25 29.4752L438.75 29.4752L438.75 -52L440.25 -52ZM419.5 50.2252L31.5 50.2252L31.5 48.7252L419.5 48.7252L419.5 50.2252ZM12.25 69.4752L12.25 137.25L10.75 137.25L10.75 69.4752L12.25 69.4752ZM31.5 50.2252C20.8685 50.2252 12.25 58.8437 12.25 69.4752L10.75 69.4752C10.75 58.0153 20.0401 48.7252 31.5 48.7252L31.5 50.2252ZM440.25 29.4752C440.25 40.9351 430.96 50.2252 419.5 50.2252L419.5 48.7252C430.131 48.7252 438.75 40.1066 438.75 29.4752L440.25 29.4752Z" fill="#F3ADA2"/>
<path d="M630.5 144L634.83 136.5L626.17 136.5L630.5 144ZM486.75 -81L486.75 50.3678L488.25 50.3678L488.25 -81L486.75 -81ZM507.5 71.1178L610.5 71.1178L610.5 69.6178L507.5 69.6178L507.5 71.1178ZM629.75 90.3678L629.75 137.25L631.25 137.25L631.25 90.3678L629.75 90.3678ZM610.5 71.1178C621.131 71.1178 629.75 79.7363 629.75 90.3678L631.25 90.3678C631.25 78.9079 621.96 69.6178 610.5 69.6178L610.5 71.1178ZM486.75 50.3678C486.75 61.8277 496.04 71.1178 507.5 71.1178L507.5 69.6178C496.869 69.6178 488.25 60.9993 488.25 50.3678L486.75 50.3678Z" fill="#F3ADA2"/>
<path d="M313.5 144L309.17 136.5L317.83 136.5L313.5 144ZM460.25 -81L460.25 50.3678L458.75 50.3678L458.75 -81L460.25 -81ZM439.5 71.1178L333.5 71.1178L333.5 69.6178L439.5 69.6178L439.5 71.1178ZM314.25 90.3678L314.25 137.25L312.75 137.25L312.75 90.3678L314.25 90.3678ZM333.5 71.1178C322.869 71.1178 314.25 79.7363 314.25 90.3678L312.75 90.3678C312.75 78.9079 322.04 69.6178 333.5 69.6178L333.5 71.1178ZM460.25 50.3678C460.25 61.8277 450.96 71.1178 439.5 71.1178L439.5 69.6178C450.131 69.6178 458.75 60.9993 458.75 50.3678L460.25 50.3678Z" fill="#F3ADA2"/>
</g>
<defs>
<clipPath id="clip0_7295_60790">
<rect width="947" height="144" fill="white"/>
</clipPath>
</defs>
</svg>
