<svg fill="none" height="52" viewBox="0 0 52 52" width="52" xmlns="http://www.w3.org/2000/svg"><g fill="#579ff4"><path d="m39 27.625h-19.5v-8.1611c0-.8667-.7222-1.5889-1.5889-1.5889h-16.2861v-3.25h16.2861c2.6722 0 4.8389 2.1667 4.8389 4.8389v4.9111h13v-6.825c0-7.90833-6.4278-14.3-14.3-14.3h-19.825v-3.25h19.825c9.6778 0 17.55 7.87222 17.55 17.55z"/><path d="m39 52h-3.25c0-3.575-2.925-6.5-6.5-6.5s-6.5 2.925-6.5 6.5h-3.25c0-5.3806 4.3694-9.75 9.75-9.75s9.75 4.3694 9.75 9.75z"/><path d="m13 47.125c-5.38056 0-9.75-4.3694-9.75-9.75s4.36944-9.75 9.75-9.75c5.3806 0 9.75 4.3694 9.75 9.75s-4.3694 9.75-9.75 9.75zm0-16.25c-3.575 0-6.5 2.925-6.5 6.5s2.925 6.5 6.5 6.5 6.5-2.925 6.5-6.5-2.925-6.5-6.5-6.5z" opacity=".5"/><path d="m43.875 43.875c-3.575 0-6.5-2.925-6.5-6.5s2.925-6.5 6.5-6.5 6.5 2.925 6.5 6.5-2.925 6.5-6.5 6.5zm0-9.75c-1.8056 0-3.25 1.4444-3.25 3.25s1.4444 3.25 3.25 3.25 3.25-1.4444 3.25-3.25-1.4444-3.25-3.25-3.25z" opacity=".5"/><path d="m27.625 26h-3.25v19.5h3.25z" opacity=".5"/><path d="m34.125 26h-3.25v13h3.25z" opacity=".5"/></g></svg>