<svg fill="none" height="52" viewBox="0 0 52 52" width="52" xmlns="http://www.w3.org/2000/svg"><g fill="#f5b842"><path d="m26 3.25c12.5306 0 22.75 10.2194 22.75 22.75s-10.2194 22.75-22.75 22.75-22.75-10.2194-22.75-22.75 10.2194-22.75 22.75-22.75zm0-3.25c-14.3722 0-26 11.6278-26 26s11.6278 26 26 26 26-11.6278 26-26-11.6278-26-26-26z" opacity=".25"/><path d="m26 9.75c8.9556 0 16.25 7.2944 16.25 16.25s-7.2944 16.25-16.25 16.25-16.25-7.2944-16.25-16.25 7.2944-16.25 16.25-16.25zm0-3.25c-10.7611 0-19.5 8.7389-19.5 19.5s8.7389 19.5 19.5 19.5 19.5-8.7389 19.5-19.5-8.7389-19.5-19.5-19.5z" opacity=".5"/><path d="m26 16.25c5.3806 0 9.75 4.3694 9.75 9.75s-4.3694 9.75-9.75 9.75-9.75-4.3694-9.75-9.75 4.3694-9.75 9.75-9.75zm0-3.25c-7.1861 0-13 5.8139-13 13s5.8139 13 13 13 13-5.8139 13-13-5.8139-13-13-13z"/></g></svg>