<svg width="100" height="100" viewBox="0 0 100 100" fill="none" xmlns="http://www.w3.org/2000/svg">
<path d="M25.7687 53.017C24.4147 53.0739 23.0628 52.8627 21.7901 52.3954C20.5174 51.9281 19.349 51.214 18.3514 50.2937C17.3539 49.3734 16.5468 48.265 15.9762 47.0318C15.4057 45.7987 15.0828 44.4648 15.0261 43.1064C14.9694 41.7481 15.1799 40.3918 15.6457 39.1151C16.1115 37.8383 16.8234 36.6661 17.7407 35.6654C18.658 34.6647 19.7629 33.855 20.9921 33.2826C22.2214 32.7102 23.551 32.3863 24.905 32.3294C32.4495 32.0135 42.0212 35.734 50.4903 39.949H50.5919C50.7413 39.9391 50.8832 39.8798 50.9953 39.7802C51.1074 39.6807 51.1834 39.5466 51.2113 39.399C51.2392 39.2514 51.2175 39.0987 51.1495 38.9649C51.0815 38.831 50.9712 38.7237 50.8358 38.6596C40.8882 34.0725 29.5638 30.0512 20.8204 30.7291C19.2858 30.8475 17.7896 31.2681 16.4171 31.9666C15.0446 32.6652 13.8227 33.6281 12.8211 34.8004C11.8196 35.9727 11.058 37.3314 10.5799 38.799C10.1018 40.2665 9.91646 41.8142 10.0346 43.3536C10.1526 44.893 10.5718 46.3941 11.2681 47.7709C11.9645 49.1478 12.9243 50.3737 14.0929 51.3784C15.2614 52.3832 16.6158 53.1472 18.0787 53.6269C19.5416 54.1065 21.0843 54.2924 22.6188 54.1739C24.1091 54.04 25.558 53.6104 26.8814 52.91C26.5131 52.9688 26.1415 53.0045 25.7687 53.017Z" fill="#101151"/>
<path d="M73.4794 65.9677C72.1938 65.199 70.7693 64.6932 69.288 64.4795C69.5914 64.6336 69.8865 64.8038 70.172 64.9891C72.4505 66.5085 74.034 68.8736 74.5742 71.5643C75.1145 74.2549 74.5671 77.0506 73.0526 79.3364C71.5381 81.6222 69.1805 83.2108 66.4985 83.7527C63.8164 84.2947 61.0296 83.7456 58.7511 82.2262C52.4615 78.0367 46.8933 69.3723 42.4936 60.9628C42.3646 60.8869 42.2142 60.8561 42.0659 60.8752C41.9176 60.8943 41.7798 60.9622 41.6741 61.0682C41.5684 61.1743 41.5007 61.3125 41.4817 61.4613C41.4627 61.6101 41.4934 61.761 41.569 61.8904C46.939 71.4569 53.7621 81.4006 61.205 86.008C62.5166 86.8165 63.9742 87.3579 65.4945 87.6014C67.0147 87.8448 68.5679 87.7854 70.0652 87.4267C71.5626 87.0679 72.9749 86.4168 74.2215 85.5105C75.468 84.6042 76.5244 83.4605 77.3304 82.1447C78.1363 80.8288 78.676 79.3666 78.9187 77.8415C79.1613 76.3164 79.1021 74.7582 78.7445 73.2561C78.3869 71.7539 77.7379 70.3371 76.8345 69.0866C75.9311 67.836 74.7911 66.7762 73.4794 65.9677Z" fill="#101151"/>
<path d="M87.2068 35.0664C85.1927 32.694 82.3219 31.2212 79.2256 30.9717C76.1293 30.7223 73.061 31.7166 70.6953 33.7361C69.6176 34.6781 68.7295 35.8182 68.0789 37.0949C68.2821 36.9012 68.4904 36.7126 68.7139 36.5342C69.7735 35.6688 70.9939 35.023 72.3043 34.6345C73.6147 34.246 74.9889 34.1225 76.3472 34.2711C77.7056 34.4197 79.021 34.8374 80.2171 35.5001C81.4132 36.1628 82.4662 37.0572 83.315 38.1314C84.1638 39.2057 84.7914 40.4383 85.1615 41.7579C85.5316 43.0774 85.6367 44.4575 85.4709 45.8181C85.305 47.1788 84.8714 48.4928 84.1952 49.684C83.519 50.8751 82.6137 51.9197 81.5319 52.7571C75.6335 57.4409 65.7825 60.0708 56.4649 61.661L56.3887 61.7273C56.2722 61.8223 56.1908 61.9538 56.1577 62.1007C56.1245 62.2477 56.1414 62.4015 56.2058 62.5376C56.2707 62.6749 56.3794 62.7865 56.5147 62.8548C56.6499 62.9231 56.8041 62.9442 56.9526 62.9148C67.6775 60.7487 79.2051 57.3339 85.8808 51.6307C88.2456 49.6101 89.7137 46.7301 89.9624 43.6239C90.211 40.5177 89.2199 37.4396 87.2068 35.0664Z" fill="#101151"/>
<path d="M60.9204 17.4674C60.353 16.0138 59.5026 14.6881 58.4189 13.5678C57.3351 12.4475 56.0397 11.5551 54.6083 10.9425C53.177 10.33 51.6383 10.0096 50.0822 10.0002C48.5261 9.99079 46.9837 10.2925 45.5451 10.8876C44.1064 11.4828 42.8004 12.3595 41.7033 13.4666C40.6061 14.5737 39.7398 15.889 39.155 17.3357C38.5701 18.7823 38.2783 20.3314 38.2968 21.8924C38.3152 23.4534 38.6435 24.9951 39.2624 26.4275C39.8243 27.7428 40.6293 28.9395 41.635 29.9544C41.5029 29.6843 41.381 29.409 41.2743 29.1236C40.7765 27.8441 40.5375 26.478 40.5712 25.1048C40.6049 23.7317 40.9107 22.379 41.4707 21.1257C42.0307 19.8723 42.8339 18.7432 43.8332 17.8043C44.8325 16.8654 46.0082 16.1355 47.2915 15.6569C48.5749 15.1784 49.9404 14.9608 51.3084 15.017C52.6765 15.0732 54.0197 15.402 55.2598 15.9841C56.4999 16.5663 57.6121 17.3902 58.5316 18.4079C59.4511 19.4256 60.1596 20.6167 60.6156 21.9118C63.2321 28.9809 62.6732 39.21 61.3117 48.5676C61.3117 48.6185 61.3574 48.6695 61.3777 48.7256C61.4326 48.8665 61.5328 48.9849 61.6625 49.0621C61.7922 49.1393 61.9439 49.1707 62.0935 49.1513C62.2431 49.132 62.3819 49.063 62.4879 48.9554C62.5938 48.8477 62.6609 48.7076 62.6783 48.5574C63.9383 37.6504 64.2634 25.5967 60.9204 17.4674Z" fill="#101151"/>
<path d="M43.8603 74.0307C43.811 74.4229 43.7347 74.8112 43.6317 75.1927C42.8752 77.8137 41.1179 80.029 38.7418 81.3568C36.3658 82.6847 33.5632 83.0178 30.9437 82.2835C28.3242 81.5493 26.0996 79.8072 24.7537 77.4361C23.4078 75.065 23.0496 72.2567 23.7569 69.6221C25.7891 62.3083 32.3073 54.3014 38.9424 47.5074C38.9767 47.3617 38.962 47.2087 38.9006 47.0723C38.8391 46.9358 38.7344 46.8236 38.6027 46.7532C38.471 46.6828 38.3197 46.6581 38.1725 46.6829C38.0254 46.7078 37.8905 46.7809 37.7891 46.8907C30.3818 54.9741 23.0558 64.5305 20.9931 73.0827C20.6318 74.5827 20.5686 76.1393 20.807 77.6637C21.0454 79.1882 21.5807 80.6506 22.3825 81.9675C23.1842 83.2843 24.2367 84.4299 25.4798 85.3387C26.7229 86.2476 28.1322 86.9019 29.6273 87.2643C31.1225 87.6267 32.6741 87.6902 34.1937 87.4511C35.7133 87.2119 37.1711 86.6748 38.4838 85.8705C39.7964 85.0662 40.9383 84.0103 41.8443 82.7633C42.7502 81.5162 43.4025 80.1024 43.7637 78.6025C44.1057 77.101 44.1386 75.5453 43.8603 74.0307Z" fill="#101151"/>
</svg>
